<?xml version="1.0" encoding="UTF-8" standalone="no"?>
<!-- Created with Inkscape (http://www.inkscape.org/) -->

<svg
   xmlns:dc="http://purl.org/dc/elements/1.1/"
   xmlns:cc="http://creativecommons.org/ns#"
   xmlns:rdf="http://www.w3.org/1999/02/22-rdf-syntax-ns#"
   xmlns:svg="http://www.w3.org/2000/svg"
   xmlns="http://www.w3.org/2000/svg"
   xmlns:xlink="http://www.w3.org/1999/xlink"
   xmlns:sodipodi="http://sodipodi.sourceforge.net/DTD/sodipodi-0.dtd"
   xmlns:inkscape="http://www.inkscape.org/namespaces/inkscape"
   version="1.0"
   width="48000"
   height="320"
   id="svg2"
   sodipodi:version="0.32"
   inkscape:version="0.48.2 r9819"
   sodipodi:docname="StageScene_LV6.svg"
   inkscape:output_extension="org.inkscape.output.svg.inkscape">
  <metadata
     id="metadata2500">
    <rdf:RDF>
      <cc:Work
         rdf:about="">
        <dc:format>image/svg+xml</dc:format>
        <dc:type
           rdf:resource="http://purl.org/dc/dcmitype/StillImage" />
        <dc:title />
      </cc:Work>
    </rdf:RDF>
  </metadata>
  <sodipodi:namedview
     inkscape:window-height="712"
     inkscape:window-width="1280"
     inkscape:pageshadow="2"
     inkscape:pageopacity="0.0"
     guidetolerance="10.0"
     gridtolerance="10.0"
     objecttolerance="10.0"
     borderopacity="1.0"
     bordercolor="#666666"
     pagecolor="#ffffff"
     id="base"
     showgrid="false"
     inkscape:zoom="1.28"
     inkscape:cx="136.91086"
     inkscape:cy="212.16519"
     inkscape:window-x="105"
     inkscape:window-y="58"
     inkscape:current-layer="layer3"
     width="480px"
     inkscape:window-maximized="0"
     inkscape:snap-grids="true"
     showguides="true"
     inkscape:guide-bbox="true">
    <inkscape:grid
       type="xygrid"
       id="grid3290"
       visible="true"
       enabled="true"
       empspacing="5"
       snapvisiblegridlinesonly="true" />
    <sodipodi:guide
       orientation="0,1"
       position="356.93383,2841.1933"
       id="guide3805" />
  </sodipodi:namedview>
  <defs
     id="defs4">
    <inkscape:perspective
       sodipodi:type="inkscape:persp3d"
       inkscape:vp_x="0 : 500 : 1"
       inkscape:vp_y="0 : 1000 : 0"
       inkscape:vp_z="1000 : 500 : 1"
       inkscape:persp3d-origin="500 : 333.33333 : 1"
       id="perspective2413" />
    <inkscape:perspective
       id="perspective2443"
       inkscape:persp3d-origin="372.04724 : 350.78739 : 1"
       inkscape:vp_z="744.09448 : 526.18109 : 1"
       inkscape:vp_y="0 : 1000 : 0"
       inkscape:vp_x="0 : 526.18109 : 1"
       sodipodi:type="inkscape:persp3d" />
    <inkscape:perspective
       id="perspective3980"
       inkscape:persp3d-origin="0.5 : 0.33333333 : 1"
       inkscape:vp_z="1 : 0.5 : 1"
       inkscape:vp_y="0 : 1000 : 0"
       inkscape:vp_x="0 : 0.5 : 1"
       sodipodi:type="inkscape:persp3d" />
    <inkscape:perspective
       id="perspective3534"
       inkscape:persp3d-origin="0.5 : 0.33333333 : 1"
       inkscape:vp_z="1 : 0.5 : 1"
       inkscape:vp_y="0 : 1000 : 0"
       inkscape:vp_x="0 : 0.5 : 1"
       sodipodi:type="inkscape:persp3d" />
  </defs>
  <g
     inkscape:groupmode="layer"
     id="staticShapes"
     inkscape:label="static"
     style="display:inline"
     transform="translate(0,-2880)" />
  <g
     inkscape:groupmode="layer"
     id="layer3"
     inkscape:label="boxes"
     style="display:inline">
    <image
       y="45.081642"
       x="36.971546"
       id="MyBird"
       xlink:href="file:///Users/kmkim/Games/rocknroll/rocknroll/Resources/GameClasses/Bird.png"
       height="48"
       width="48" />
    <path
       style="fill:none;stroke:#000000;stroke-width:1px;stroke-linecap:butt;stroke-linejoin:miter;stroke-opacity:1"
       d="M 16.377816,43.916811 C 16.377816,43.916811 17.277815,45.997589 18.955088,49.730721 20.632362,53.463852 23.086911,58.849337 26.196012,65.458751 29.305112,72.068164 33.068765,79.901507 37.364245,88.530354 41.659726,97.1592 46.487035,106.58355 51.723449,116.37498 56.959863,126.16641 62.605382,136.32492 68.537282,146.42209 74.469182,156.51925 80.687464,166.55507 87.069403,176.10112 93.451343,185.64717 99.996941,194.70345 106.58347,202.84154 113.17001,210.97963 119.79747,218.19952 126.34315,224.07279 131.79625,228.96572 137.45682,233.83961 143.3022,238.61848 149.14758,243.39735 155.17777,248.0812 161.37007,252.59404 167.56238,257.10689 173.9168,261.44872 180.41067,265.54355 186.90454,269.63839 193.53785,273.48622 200.28793,277.01108 207.038,280.53593 213.90484,283.7378 220.86576,286.54069 227.82668,289.34359 234.88169,291.74751 242.00809,293.67647 249.1345,295.60543 256.33231,297.05943 263.57885,297.96249 270.82538,298.86554 278.12064,299.21764 285.44194,298.94281 293.94863,298.62348 302.04417,296.86288 309.83127,294.01995 317.61837,291.17702 325.09704,287.25176 332.37001,282.60314 339.64298,277.95451 346.71025,272.5825 353.67456,266.84607 360.63887,261.10964 367.50021,255.00878 374.36131,248.90245 381.22242,242.79611 388.08329,236.6843 395.04666,230.92596 402.01003,225.16761 409.0759,219.76274 416.347,215.07029 423.6181,210.37784 431.09443,206.39781 438.87873,203.48915 446.66302,200.58049 454.75528,198.74319 463.25823,198.33622 473.06613,197.86679 482.55957,199.07638 491.81714,201.54473 501.07472,204.01308 510.09642,207.74018 518.96085,212.30577 527.82528,216.87135 536.53243,222.27542 545.16089,228.0977 553.78935,233.91997 562.33912,240.16046 570.88879,246.39888 579.43846,252.6373 587.98802,258.87366 596.61607,264.68768 605.24412,270.5017 613.95066,275.89339 622.81427,280.44246 631.67788,284.99154 640.69857,288.69801 649.95491,291.14159 659.21126,293.58518 668.70327,294.76588 678.50953,294.26343 688.27899,293.76287 697.56391,291.5752 706.48562,288.12807 715.40733,284.68094 723.96583,279.97434 732.28243,274.43593 740.59903,268.89752 748.67374,262.52729 756.62788,255.75289 764.58202,248.97849 772.41559,241.79991 780.24991,234.64479 788.08423,227.48968 795.9193,220.35804 803.87645,213.6775 811.83359,206.99697 819.91281,200.76754 828.23542,195.41687 836.55803,190.0662 845.12403,185.59428 854.05476,182.42876 862.98548,179.26324 872.28091,177.40412 882.06239,177.27903 891.48363,177.15855 900.4792,178.75007 909.15554,181.62743 917.83189,184.5048 926.18899,188.66801 934.33329,193.69093 942.47759,198.71385 950.40909,204.59648 958.2342,210.91267 966.05932,217.22886 973.77805,223.97861 981.49683,230.73578 989.21562,237.49295 996.93445,244.25753 1004.7598,250.6034 1012.5851,256.94926 1020.5168,262.8764 1028.6615,267.95866 1036.8062,273.04093 1045.1638,277.27833 1053.8407,280.24471 1062.5176,283.2111 1071.5139,284.90647 1080.9359,284.90468 1091.5794,284.90266 1101.7411,282.99766 1111.5415,279.66578 1121.3419,276.33389 1130.781,271.57511 1139.9791,265.86552 1149.1773,260.15594 1158.1346,253.49555 1166.9714,246.36044 1175.8082,239.22533 1184.5246,231.61551 1193.241,224.00706 1201.9573,216.3986 1210.6737,208.79151 1219.5105,201.66189 1228.3473,194.53226 1237.3046,187.88008 1246.5028,182.18145 1255.7009,176.48283 1265.14,171.73774 1274.9403,168.42229 1284.7407,165.10683 1294.9024,163.22101 1305.5459,163.2409 1315.1001,163.25876 1324.2164,165.0386 1333.0042,168.13363 1341.7919,171.22866 1350.2512,175.63887 1358.4912,180.91746 1366.7312,186.19605 1374.752,192.34301 1382.663,198.91154 1390.574,205.48007 1398.3752,212.47017 1406.1758,219.43503 1413.9765,226.39989 1421.7767,233.33951 1429.6857,239.80708 1437.5948,246.27466 1445.6127,252.27019 1453.8488,257.34687 1462.085,262.42354 1470.5393,266.58137 1479.3212,269.37353 1488.1032,272.1657 1497.2127,273.5922 1506.7591,273.20624 1518.2952,272.73984 1529.1256,270.09571 1539.4266,265.81535 1549.7276,261.53499 1559.4992,255.61839 1568.9177,248.60702 1578.3362,241.59565 1587.4015,233.48952 1596.29,224.83009 1605.1785,216.17067 1613.8902,206.95796 1622.6012,197.73343 1631.3123,188.50891 1640.0228,179.27257 1648.909,170.56589 1657.7952,161.85921 1666.8571,153.6822 1676.271,146.57632 1685.6848,139.47044 1695.4507,133.4357 1705.7448,129.01358 1716.0389,124.59145 1726.8613,121.78194 1738.3882,121.12652 1750.0536,120.46322 1761.2542,121.97488 1772.1064,125.12372 1782.9586,128.27257 1793.4625,133.05862 1803.7345,138.94411 1814.0065,144.8296 1824.0466,151.81454 1833.9712,159.36119 1843.8958,166.90783 1853.7049,175.01617 1863.515,183.14846 1873.3252,191.28075 1883.1362,199.43699 1893.0647,207.07944 1902.9932,214.72188 1913.0391,221.85053 1923.3188,227.92762 1933.5985,234.00472 1944.1121,239.03028 1954.976,242.46653 1965.8398,245.90279 1977.0539,247.74975 1988.7348,247.46967 2001.3913,247.16619 2013.4388,244.74336 2025.0288,240.71768 2036.6188,236.69201 2047.7512,231.0635 2058.5775,224.34869 2069.4039,217.63387 2079.9242,209.83274 2090.2899,201.46182 2100.6556,193.09091 2110.8668,184.15021 2121.0749,175.15624 2131.2829,166.16228 2141.4879,157.11505 2151.8414,148.53109 2162.1948,139.94712 2172.6966,131.82642 2183.4984,124.6855 2194.3001,117.54459 2205.4018,111.38346 2216.9548,106.71864 2228.5078,102.05382 2240.5123,98.88531 2253.1196,97.729636 2267.3956,96.420997 2281.4086,97.436225 2295.2231,100.18456 2309.0377,102.93289 2322.6538,107.41433 2336.1361,113.03811 2349.6185,118.6619 2362.967,125.42802 2376.2465,132.74573 2389.5259,140.06344 2402.7363,147.93273 2415.9421,155.76283 2429.148,163.59294 2442.3494,171.38387 2455.611,178.54485 2468.8726,185.70584 2482.1944,192.23688 2495.641,197.54721 2509.0877,202.85755 2522.6591,206.94718 2536.4201,209.22534 2550.1811,211.5035 2564.1316,211.97019 2578.3362,210.03466 2592.2957,208.13253 2605.3585,203.82605 2617.7504,197.73129 2630.1423,191.63653 2641.8633,183.7535 2653.139,174.69828 2664.4147,165.64305 2675.2451,155.41563 2685.856,144.6321 2696.4668,133.84856 2706.8581,122.50891 2717.2554,111.22922 2727.6527,99.949532 2738.0562,88.729806 2748.6913,78.186123 2759.3265,67.64244 2770.1935,57.774798 2781.5179,49.199278 2792.8423,40.623758 2804.6242,33.340359 2817.0891,27.96516 2829.5541,22.589961 2842.7022,19.122962 2856.7591,18.180242 2871.8103,17.170841 2886.2585,19.014226 2900.2548,23.007798 2914.2512,27.001369 2927.7958,33.145127 2941.0399,40.736472 2954.2839,48.327816 2967.2274,57.366747 2980.0215,67.150664 2992.8156,76.934581 3005.4604,87.463485 3018.1071,98.034775 3030.7538,108.60607 3043.4023,119.21974 3056.204,129.17321 3069.0057,139.12667 3081.9605,148.41992 3095.2196,156.35035 3108.4787,164.28079 3122.0421,170.84841 3136.0612,175.35062 3150.0802,179.85283 3164.5547,182.28963 3179.6361,181.95841 3196.3069,181.59228 3212.1744,178.32862 3227.4392,172.88731 3242.7039,167.446 3257.3661,159.82703 3271.6262,150.7503 3285.8864,141.67357 3299.7446,131.13906 3313.4015,119.86667 3327.0585,108.59428 3340.5142,96.584001 3353.9693,84.555718 3367.4244,72.527436 3380.879,60.481149 3394.5338,49.136741 3408.1885,37.792332 3422.0434,27.149802 3436.2992,17.929033 3450.5549,8.7082637 3465.2115,0.90925529 3480.4697,-4.7481096 3495.7279,-10.405474 3511.5876,-13.921196 3528.2496,-14.575391 3544.8979,-15.229049 3560.972,-12.957771 3576.615,-8.4987485 3592.2581,-4.039726 3607.4701,2.6070407 3622.3944,10.704359 3637.3187,18.801678 3651.9553,28.349548 3666.4474,38.610778 3680.9394,48.872008 3695.2871,59.846598 3709.6335,70.797355 3723.9799,81.748111 3738.325,92.675035 3752.8123,102.84093 3767.2995,113.00683 3781.9288,122.41171 3796.8435,130.31836 3811.7581,138.22502 3826.958,144.63346 3842.5866,148.80649"
       id="path4539" />
    <path
       style="fill:none;stroke:#000000;stroke-width:1px;stroke-linecap:butt;stroke-linejoin:miter;stroke-opacity:1"
       d="M 23515.002,10648.665 C 23530.631,10652.838 23546.688,10654.776 23563.317,10653.741 23581.108,10652.633 23597.89,10648.259 23613.914,10641.451 23629.939,10634.644 23645.208,10625.403 23659.972,10614.562 23674.737,10603.722 23688.998,10591.282 23703.008,10578.076 23717.018,10564.871 23730.778,10550.899 23744.54,10536.996 23758.301,10523.093 23772.065,10509.258 23786.084,10496.325 23800.103,10483.392 23814.376,10471.361 23829.158,10461.065 23843.94,10450.77 23859.23,10442.21 23875.281,10436.22 23891.332,10430.229 23908.143,10426.808 23925.969,10426.791 23940.901,10426.776 23954.987,10429.804 23968.44,10435.104 23981.892,10440.404 23994.71,10447.976 24007.105,10457.051 24019.5,10466.126 24031.472,10476.703 24043.232,10488.012 24054.992,10499.321 24066.54,10511.362 24078.087,10523.366 24089.634,10535.369 24101.181,10547.335 24112.937,10558.493 24124.694,10569.65 24136.661,10580 24149.05,10588.772 24161.438,10597.543 24174.248,10604.737 24187.691,10609.583 24201.134,10614.428 24215.209,10616.926 24230.128,10616.306 24242.518,10615.79 24253.991,10612.716 24264.778,10607.718 24275.565,10602.721 24285.664,10595.801 24295.305,10587.595 24304.946,10579.389 24314.129,10569.897 24323.083,10559.755 24332.036,10549.614 24340.76,10538.823 24349.483,10528.019 24358.207,10517.215 24366.929,10506.397 24375.88,10496.204 24384.831,10486.011 24394.01,10476.441 24403.646,10468.131 24413.282,10459.822 24423.375,10452.773 24434.154,10447.62 24444.932,10442.468 24456.397,10439.212 24468.776,10438.489 24481.814,10437.729 24494.202,10439.694 24506.103,10443.704 24518.005,10447.715 24529.421,10453.771 24540.512,10461.192 24551.603,10468.614 24562.37,10477.4 24572.975,10486.872 24583.58,10496.343 24594.023,10506.499 24604.466,10516.659 24614.91,10526.82 24625.353,10536.984 24635.959,10546.473 24646.565,10555.962 24657.333,10564.775 24668.427,10572.231 24679.52,10579.687 24690.938,10585.787 24702.842,10589.85 24714.747,10593.913 24727.139,10595.939 24740.18,10595.248 24757.043,10594.355 24772.701,10590.091 24787.457,10583.298 24802.212,10576.504 24816.064,10567.179 24829.314,10556.164 24842.564,10545.149 24855.212,10532.442 24867.558,10518.885 24879.904,10505.327 24891.948,10490.918 24903.992,10476.497 24916.035,10462.076 24928.078,10447.643 24940.422,10434.038 24952.765,10420.432 24965.408,10407.654 24978.652,10396.544 24991.897,10385.433 25005.742,10375.989 25020.489,10369.052 25035.236,10362.115 25050.885,10357.685 25067.736,10356.6 25085.151,10355.48 25101.774,10357.889 25117.801,10362.951 25133.829,10368.012 25149.262,10375.726 25164.299,10385.213 25179.336,10394.699 25193.977,10405.96 25208.42,10418.116 25222.863,10430.272 25237.109,10443.323 25251.356,10456.391 25265.602,10469.459 25279.85,10482.544 25294.297,10494.768 25308.744,10506.992 25323.391,10518.354 25338.436,10527.977 25353.48,10537.6 25368.923,10545.483 25384.962,10550.749 25401.001,10556.014 25417.637,10558.662 25435.067,10557.813 25453.216,10556.93 25470.191,10552.561 25486.283,10545.575 25502.376,10538.588 25517.588,10528.985 25532.212,10517.634 25546.836,10506.283 25560.872,10493.184 25574.614,10479.205 25588.356,10465.226 25601.804,10450.367 25615.251,10435.498 25628.698,10420.629 25642.145,10405.749 25655.885,10391.727 25669.624,10377.705 25683.657,10364.541 25698.276,10353.103 25712.896,10341.665 25728.101,10331.954 25744.187,10324.839 25760.273,10317.723 25777.239,10313.203 25795.379,10312.146 25814.272,10311.046 25832.372,10313.708 25849.877,10319.185 25867.382,10324.661 25884.292,10332.952 25900.805,10343.11 25917.317,10353.267 25933.433,10365.29 25949.349,10378.232 25965.264,10391.174 25980.98,10405.034 25996.694,10418.864 26012.408,10432.694 26028.12,10446.495 26044.027,10459.317 26059.934,10472.14 26076.037,10483.984 26092.533,10493.903 26109.028,10503.821 26125.917,10511.814 26143.397,10516.932 26160.877,10522.051 26178.947,10524.296 26197.806,10522.718 26219.023,10520.943 26238.637,10514.87 26257.049,10505.589 26275.462,10496.309 26292.672,10483.822 26309.083,10469.221 26325.494,10454.619 26341.106,10437.903 26356.319,10420.164 26371.532,10402.425 26386.348,10383.664 26401.167,10364.971 26415.987,10346.279 26430.81,10327.656 26446.04,10310.194 26461.269,10292.733 26476.904,10276.432 26493.347,10262.385 26509.79,10248.338 26527.04,10236.545 26545.501,10228.096 26563.961,10219.648 26583.63,10214.545 26604.911,10213.879 26622.342,10213.334 26638.683,10216.517 26654.206,10222.507 26669.729,10228.498 26684.434,10237.296 26698.594,10247.982 26712.754,10258.668 26726.369,10271.242 26739.712,10284.784 26753.055,10298.326 26766.126,10312.836 26779.197,10327.394 26792.268,10341.952 26805.339,10356.558 26818.684,10370.291 26832.029,10384.025 26845.646,10396.887 26859.81,10407.956 26873.974,10419.026 26888.683,10428.303 26904.212,10434.868 26919.74,10441.434 26936.087,10445.287 26953.525,10445.508 26978.623,10445.827 27002.287,10441.283 27024.874,10433.059 27047.461,10424.835 27068.972,10412.931 27089.763,10398.529 27110.554,10384.127 27130.625,10367.228 27150.336,10349.014 27170.046,10330.799 27189.395,10311.27 27208.74,10291.607 27228.084,10271.945 27247.425,10252.15 27267.12,10233.405 27286.814,10214.66 27306.863,10196.965 27327.622,10181.502 27348.382,10166.039 27369.853,10152.808 27392.393,10142.992 27414.932,10133.176 27438.541,10126.775 27463.577,10124.971 27492.612,10122.879 27520.765,10126.234 27548.253,10133.646 27575.74,10141.057 27602.562,10152.524 27628.937,10166.655 27655.311,10180.785 27681.238,10197.58 27706.934,10215.647 27732.631,10233.714 27758.097,10253.053 27783.55,10272.272 27809.004,10291.491 27834.445,10310.59 27860.091,10328.178 27885.737,10345.766 27911.588,10361.842 27937.861,10375.014 27964.134,10388.187 27990.83,10398.456 28018.166,10404.43 28045.502,10410.404 28073.478,10412.082 28102.312,10408.073 28132.069,10403.936 28159.298,10393.535 28184.633,10378.511 28209.969,10363.488 28233.411,10343.843 28255.598,10321.219 28277.784,10298.595 28298.714,10272.993 28319.025,10246.054 28339.336,10219.116 28359.027,10190.842 28378.736,10162.875 28398.444,10134.908 28418.17,10107.248 28438.55,10081.538 28458.93,10055.828 28479.964,10032.067 28502.289,10011.9 28524.613,9991.7332 28548.228,9975.1592 28573.771,9963.8202 28599.313,9952.4822 28626.783,9946.3792 28656.817,9947.1552 28677.369,9947.6862 28695.897,9953.0202 28712.903,9961.9842 28729.91,9970.9482 28745.396,9983.5422 28759.866,9998.5942 28774.336,10013.647 28787.789,10031.157 28800.731,10049.952 28813.672,10068.747 28826.101,10088.828 28838.523,10109.022 28850.944,10129.216 28863.357,10149.522 28876.267,10168.77 28889.177,10188.017 28902.583,10206.204 28916.989,10222.16 28931.396,10238.116 28946.803,10251.839 28963.715,10262.159 28980.627,10272.478 28999.043,10279.392 29019.469,10281.73 29044.541,10284.6 29068.416,10282.043 29091.396,10275.374 29114.376,10268.705 29136.461,10257.925 29157.952,10244.349 29179.444,10230.773 29200.342,10214.402 29220.949,10196.55 29241.556,10178.699 29261.871,10159.368 29282.196,10139.872 29302.521,10120.377 29322.857,10100.717 29343.504,10082.209 29364.152,10063.701 29385.111,10046.344 29406.684,10031.454 29428.257,10016.565 29450.443,10004.143 29473.545,9995.5042 29496.647,9986.8642 29520.664,9982.0082 29545.899,9982.2502 29571.076,9982.4922 29594.928,9987.5142 29617.785,9996.1162 29640.643,10004.718 29662.505,10016.899 29683.705,10031.459 29704.905,10046.02 29725.442,10062.959 29745.648,10081.076 29765.853,10099.193 29785.727,10118.488 29805.601,10137.76 29825.475,10157.033 29845.349,10176.282 29865.555,10194.309 29885.761,10212.335 29906.298,10229.137 29927.498,10243.516 29948.699,10257.894 29970.562,10269.848 29993.42,10278.178 30016.278,10286.507 30040.13,10291.211 30065.309,10291.089 30091.775,10290.961 30116.798,10285.738 30140.738,10276.693 30164.678,10267.647 30187.536,10254.779 30209.672,10239.36 30231.808,10223.942 30253.223,10205.973 30274.277,10186.725 30295.331,10167.478 30316.023,10146.953 30336.716,10126.422 30357.408,10105.891 30378.101,10085.354 30399.154,10066.083 30420.208,10046.813 30441.622,10028.808 30463.758,10013.343 30485.893,9997.8782 30508.751,9984.9512 30532.69,9975.8352 30556.63,9966.7192 30581.652,9961.4152 30608.118,9961.1932 30635.337,9960.9652 30661.165,9966.1542 30685.95,9975.3822 30710.735,9984.6112 30734.475,9997.8802 30757.519,10013.812 30780.563,10029.745 30802.91,10048.342 30824.907,10068.227 30846.904,10088.112 30868.551,10109.285 30890.196,10130.37 30911.84,10151.455 30933.481,10172.451 30955.466,10191.984 30977.451,10211.516 30999.78,10229.585 31022.799,10244.813 31045.819,10260.041 31069.53,10272.429 31094.278,10280.6 31119.026,10288.771 31144.812,10292.727 31171.983,10291.089 31196.914,10289.587 31219.962,10283.083 31241.596,10272.817 31263.23,10262.55 31283.45,10248.52 31302.727,10231.965 31322.003,10215.409 31340.336,10196.327 31358.195,10175.957 31376.054,10155.587 31393.438,10133.928 31410.819,10112.218 31428.2,10090.508 31445.578,10068.747 31463.421,10048.172 31481.264,10027.597 31499.573,10008.209 31518.818,9991.2442 31538.063,9974.2792 31558.244,9959.7382 31579.831,9948.8582 31601.418,9937.9772 31624.41,9930.7582 31649.279,9928.4372 31673.371,9926.1892 31696.535,9928.7172 31719.005,9934.8422 31741.474,9940.9672 31763.249,9950.6892 31784.562,9962.8312 31805.875,9974.9732 31826.727,9989.5342 31847.35,10005.335 31867.973,10021.137 31888.368,10038.18 31908.767,10055.285 31929.166,10072.39 31949.57,10089.558 31970.211,10105.61 31990.852,10121.663 32011.731,10136.599 32033.08,10149.242 32054.43,10161.884 32076.25,10172.233 32098.774,10179.109 32121.298,10185.985 32144.526,10189.389 32168.69,10188.143 32191.539,10186.964 32213.074,10181.814 32233.623,10173.661 32254.171,10165.507 32273.732,10154.351 32292.633,10141.162 32311.533,10127.972 32329.772,10112.748 32347.677,10096.459 32365.582,10080.17 32383.152,10062.815 32400.714,10045.365 32418.277,10027.914 32435.83,10010.368 32453.702,9993.6932 32471.574,9977.0192 32489.764,9961.2172 32508.599,9947.2572 32527.433,9933.2972 32546.912,9921.1782 32567.361,9911.8692 32587.811,9902.5602 32609.231,9896.0622 32631.948,9893.3422 32650.253,9891.1512 32668.236,9892.0042 32685.979,9895.1422 32703.722,9898.2792 32721.223,9903.7012 32738.565,9910.6472 32755.906,9917.5932 32773.086,9926.0632 32790.187,9935.2972 32807.288,9944.5312 32824.308,9954.5282 32841.33,9964.5302 32858.351,9974.5312 32875.372,9984.5362 32892.475,9993.7842 32909.577,10003.032 32926.76,10011.524 32944.105,10018.499 32961.449,10025.474 32978.955,10030.931 32996.703,10034.112 33014.451,10037.293 33032.44,10038.197 33050.752,10036.063 33073.159,10033.452 33097.129,10026.998 33121.922,10017.701 33146.715,10008.404 33172.33,9996.2652 33198.028,9982.2862 33223.725,9968.3062 33249.503,9952.4872 33274.623,9935.8292 33299.742,9919.1702 33324.202,9901.6732 33347.262,9884.3402 33370.321,9867.0062 33391.98,9849.8362 33411.498,9833.8302 33431.016,9817.8252 33448.392,9802.9842 33462.886,9790.3102 33477.379,9777.6362 33488.991,9767.1292 33496.979,9759.7902 33504.967,9752.4522 33509.331,9748.2812 33509.331,9748.2812"
       id="path3818"
       inkscape:connector-curvature="0" />
    <path
       style="fill:none;stroke:#000000;stroke-width:1px;stroke-linecap:butt;stroke-linejoin:miter;stroke-opacity:1"
       d="M 3818.3766,178.57864 C 3818.3766,178.57864 3874.1573,230.35579 3964.8754,314.41217 4055.5936,398.46856 4181.2491,514.80418 4320.9987,643.92113 4460.7484,773.03808 4614.5921,914.93636 4761.6867,1050.1181 4908.7812,1185.2998 5049.1266,1313.7649 5161.8795,1416.0155 5325.7266,1564.6013 5491.5214,1711.0663 5658.0177,1856.7626 5824.5139,2002.4589 5991.7117,2147.3866 6158.3648,2292.8977 6325.0179,2438.4088 6491.1263,2584.5034 6655.444,2732.5335 6819.7617,2880.5636 6982.2886,3030.5292 7141.7785,3183.7825 7322.0696,3357.0236 7497.3761,3535.2713 7670.225,3715.9862 7843.0739,3896.701 8013.4652,4079.8828 8183.9261,4262.992 8354.387,4446.1012 8524.9175,4629.1378 8698.0447,4809.562 8871.1719,4989.9863 9046.8958,5167.7982 9227.7435,5340.4582 9395.3367,5500.4637 9569.1508,5653.8139 9745.6896,5804.2253 9922.2284,5954.6368 10101.492,6102.1095 10279.984,6250.3604 10458.476,6398.6112 10636.197,6547.6401 10809.65,6701.1638 10983.102,6854.6874 11152.288,7012.7059 11313.709,7178.9358 11471.127,7341.0428 11618.999,7511.7084 11762.039,7686.7117 11905.078,7861.715 12043.284,8041.0561 12181.369,8220.5142 12319.454,8399.9723 12457.418,8579.5475 12599.972,8755.0188 12742.527,8930.4902 12889.672,9101.8577 13046.12,9264.9008 13243.99,9471.1117 13440.613,9681.3323 13639.598,9889.7986 13838.584,10098.265 14039.932,10304.977 14247.252,10504.17 14454.572,10703.364 14667.863,10895.039 14890.736,11073.431 15113.608,11251.824 15346.061,11416.934 15591.705,11562.998 15782.326,11676.345 15979.083,11788.281 16180.854,11892.423 16382.625,11996.565 16589.41,12092.913 16800.09,12175.082 17010.769,12257.251 17225.343,12325.242 17442.691,12372.67 17660.038,12420.098 17880.159,12446.963 18101.934,12446.881 18367.508,12446.783 18628.736,12410.135 18886.039,12347.795 19143.341,12285.455 19396.719,12197.422 19646.591,12094.556 19896.464,11991.69 20142.832,11873.991 20386.116,11752.315 20629.4,11630.64 20869.6,11504.989 21107.137,11386.221 21164.146,11357.717 21232.425,11316.948 21302.776,11271.829 21373.128,11226.709 21445.551,11177.239 21510.849,11131.332 21576.146,11085.426 21634.317,11043.082 21676.164,11012.215 21718.011,10981.347 21743.534,10961.957 21743.534,10961.957"
       id="path4637"
       inkscape:connector-curvature="0"
       sodipodi:nodetypes="ccccccccccccccccccccccccccccccccccccc" />
  </g>
</svg>
