<?xml version="1.0" encoding="UTF-8" standalone="no"?>
<!-- Created with Inkscape (http://www.inkscape.org/) -->

<svg
   xmlns:dc="http://purl.org/dc/elements/1.1/"
   xmlns:cc="http://creativecommons.org/ns#"
   xmlns:rdf="http://www.w3.org/1999/02/22-rdf-syntax-ns#"
   xmlns:svg="http://www.w3.org/2000/svg"
   xmlns="http://www.w3.org/2000/svg"
   xmlns:xlink="http://www.w3.org/1999/xlink"
   xmlns:sodipodi="http://sodipodi.sourceforge.net/DTD/sodipodi-0.dtd"
   xmlns:inkscape="http://www.inkscape.org/namespaces/inkscape"
   version="1.0"
   width="48000"
   height="320"
   id="svg2"
   sodipodi:version="0.32"
   inkscape:version="0.48.2 r9819"
   sodipodi:docname="StageScene_MAP01_02.svg"
   inkscape:output_extension="org.inkscape.output.svg.inkscape">
  <metadata
     id="metadata2500">
    <rdf:RDF>
      <cc:Work
         rdf:about="">
        <dc:format>image/svg+xml</dc:format>
        <dc:type
           rdf:resource="http://purl.org/dc/dcmitype/StillImage" />
        <dc:title />
      </cc:Work>
    </rdf:RDF>
  </metadata>
  <sodipodi:namedview
     inkscape:window-height="711"
     inkscape:window-width="1280"
     inkscape:pageshadow="2"
     inkscape:pageopacity="0.0"
     guidetolerance="10.0"
     gridtolerance="10.0"
     objecttolerance="10.0"
     borderopacity="1.0"
     bordercolor="#666666"
     pagecolor="#ffffff"
     id="base"
     showgrid="false"
     inkscape:zoom="0.1888316"
     inkscape:cx="1429.0136"
     inkscape:cy="-626.76325"
     inkscape:window-x="132"
     inkscape:window-y="40"
     inkscape:current-layer="layer3"
     width="480px"
     inkscape:window-maximized="0"
     inkscape:snap-grids="true"
     showguides="true"
     inkscape:guide-bbox="true">
    <inkscape:grid
       type="xygrid"
       id="grid3290"
       visible="true"
       enabled="true"
       empspacing="5"
       snapvisiblegridlinesonly="true" />
    <sodipodi:guide
       orientation="0,1"
       position="356.93383,2841.1933"
       id="guide3805" />
  </sodipodi:namedview>
  <defs
     id="defs4">
    <inkscape:perspective
       sodipodi:type="inkscape:persp3d"
       inkscape:vp_x="0 : 500 : 1"
       inkscape:vp_y="0 : 1000 : 0"
       inkscape:vp_z="1000 : 500 : 1"
       inkscape:persp3d-origin="500 : 333.33333 : 1"
       id="perspective2413" />
    <inkscape:perspective
       id="perspective2443"
       inkscape:persp3d-origin="372.04724 : 350.78739 : 1"
       inkscape:vp_z="744.09448 : 526.18109 : 1"
       inkscape:vp_y="0 : 1000 : 0"
       inkscape:vp_x="0 : 526.18109 : 1"
       sodipodi:type="inkscape:persp3d" />
    <inkscape:perspective
       id="perspective3980"
       inkscape:persp3d-origin="0.5 : 0.33333333 : 1"
       inkscape:vp_z="1 : 0.5 : 1"
       inkscape:vp_y="0 : 1000 : 0"
       inkscape:vp_x="0 : 0.5 : 1"
       sodipodi:type="inkscape:persp3d" />
    <inkscape:perspective
       id="perspective3534"
       inkscape:persp3d-origin="0.5 : 0.33333333 : 1"
       inkscape:vp_z="1 : 0.5 : 1"
       inkscape:vp_y="0 : 1000 : 0"
       inkscape:vp_x="0 : 0.5 : 1"
       sodipodi:type="inkscape:persp3d" />
    <filter
       color-interpolation-filters="sRGB"
       inkscape:collect="always"
       id="filter8613-3-81-0-2">
      <feBlend
         inkscape:collect="always"
         mode="lighten"
         in2="BackgroundImage"
         id="feBlend8615-6-4-40-9" />
    </filter>
    <filter
       color-interpolation-filters="sRGB"
       inkscape:collect="always"
       id="filter8613-3-81-0-2-8">
      <feBlend
         inkscape:collect="always"
         mode="lighten"
         in2="BackgroundImage"
         id="feBlend8615-6-4-40-9-0" />
    </filter>
    <filter
       color-interpolation-filters="sRGB"
       inkscape:collect="always"
       id="filter8613-3-81-0-2-4">
      <feBlend
         inkscape:collect="always"
         mode="lighten"
         in2="BackgroundImage"
         id="feBlend8615-6-4-40-9-8" />
    </filter>
    <filter
       color-interpolation-filters="sRGB"
       inkscape:collect="always"
       id="filter8613-3-81-0-2-0">
      <feBlend
         inkscape:collect="always"
         mode="lighten"
         in2="BackgroundImage"
         id="feBlend8615-6-4-40-9-5" />
    </filter>
    <filter
       color-interpolation-filters="sRGB"
       inkscape:collect="always"
       id="filter8613-3-81-0-2-0-8">
      <feBlend
         inkscape:collect="always"
         mode="lighten"
         in2="BackgroundImage"
         id="feBlend8615-6-4-40-9-5-9" />
    </filter>
    <filter
       color-interpolation-filters="sRGB"
       inkscape:collect="always"
       id="filter8613-3-81-0-2-4-6">
      <feBlend
         inkscape:collect="always"
         mode="lighten"
         in2="BackgroundImage"
         id="feBlend8615-6-4-40-9-8-0" />
    </filter>
    <filter
       color-interpolation-filters="sRGB"
       inkscape:collect="always"
       id="filter8613-3-81-0-2-8-4">
      <feBlend
         inkscape:collect="always"
         mode="lighten"
         in2="BackgroundImage"
         id="feBlend8615-6-4-40-9-0-2" />
    </filter>
    <filter
       color-interpolation-filters="sRGB"
       inkscape:collect="always"
       id="filter8613-3-81-0-2-3">
      <feBlend
         inkscape:collect="always"
         mode="lighten"
         in2="BackgroundImage"
         id="feBlend8615-6-4-40-9-3" />
    </filter>
    <filter
       color-interpolation-filters="sRGB"
       inkscape:collect="always"
       id="filter8613-3-81-0-2-0-8-3">
      <feBlend
         inkscape:collect="always"
         mode="lighten"
         in2="BackgroundImage"
         id="feBlend8615-6-4-40-9-5-9-0" />
    </filter>
    <filter
       color-interpolation-filters="sRGB"
       inkscape:collect="always"
       id="filter8613-3-81-0-2-4-6-0">
      <feBlend
         inkscape:collect="always"
         mode="lighten"
         in2="BackgroundImage"
         id="feBlend8615-6-4-40-9-8-0-3" />
    </filter>
    <filter
       color-interpolation-filters="sRGB"
       inkscape:collect="always"
       id="filter8613-3-81-0-2-8-4-8">
      <feBlend
         inkscape:collect="always"
         mode="lighten"
         in2="BackgroundImage"
         id="feBlend8615-6-4-40-9-0-2-3" />
    </filter>
    <filter
       color-interpolation-filters="sRGB"
       inkscape:collect="always"
       id="filter8613-3-81-0-2-3-6">
      <feBlend
         inkscape:collect="always"
         mode="lighten"
         in2="BackgroundImage"
         id="feBlend8615-6-4-40-9-3-0" />
    </filter>
    <filter
       color-interpolation-filters="sRGB"
       inkscape:collect="always"
       id="filter8613-3-81-0-2-0-8-9">
      <feBlend
         inkscape:collect="always"
         mode="lighten"
         in2="BackgroundImage"
         id="feBlend8615-6-4-40-9-5-9-2" />
    </filter>
    <filter
       color-interpolation-filters="sRGB"
       inkscape:collect="always"
       id="filter8613-3-81-0-2-4-6-9">
      <feBlend
         inkscape:collect="always"
         mode="lighten"
         in2="BackgroundImage"
         id="feBlend8615-6-4-40-9-8-0-1" />
    </filter>
    <filter
       color-interpolation-filters="sRGB"
       inkscape:collect="always"
       id="filter8613-3-81-0-2-8-4-0">
      <feBlend
         inkscape:collect="always"
         mode="lighten"
         in2="BackgroundImage"
         id="feBlend8615-6-4-40-9-0-2-9" />
    </filter>
    <filter
       color-interpolation-filters="sRGB"
       inkscape:collect="always"
       id="filter8613-3-81-0-2-3-3">
      <feBlend
         inkscape:collect="always"
         mode="lighten"
         in2="BackgroundImage"
         id="feBlend8615-6-4-40-9-3-00" />
    </filter>
    <filter
       color-interpolation-filters="sRGB"
       inkscape:collect="always"
       id="filter8613-3-81-0-2-0-8-0">
      <feBlend
         inkscape:collect="always"
         mode="lighten"
         in2="BackgroundImage"
         id="feBlend8615-6-4-40-9-5-9-1" />
    </filter>
    <filter
       color-interpolation-filters="sRGB"
       inkscape:collect="always"
       id="filter8613-3-81-0-2-4-6-6">
      <feBlend
         inkscape:collect="always"
         mode="lighten"
         in2="BackgroundImage"
         id="feBlend8615-6-4-40-9-8-0-4" />
    </filter>
    <filter
       color-interpolation-filters="sRGB"
       inkscape:collect="always"
       id="filter8613-3-81-0-2-8-4-4">
      <feBlend
         inkscape:collect="always"
         mode="lighten"
         in2="BackgroundImage"
         id="feBlend8615-6-4-40-9-0-2-8" />
    </filter>
    <filter
       color-interpolation-filters="sRGB"
       inkscape:collect="always"
       id="filter8613-3-81-0-2-3-61">
      <feBlend
         inkscape:collect="always"
         mode="lighten"
         in2="BackgroundImage"
         id="feBlend8615-6-4-40-9-3-4" />
    </filter>
    <filter
       color-interpolation-filters="sRGB"
       inkscape:collect="always"
       id="filter8613-3-81-0-2-8-4-4-1">
      <feBlend
         inkscape:collect="always"
         mode="lighten"
         in2="BackgroundImage"
         id="feBlend8615-6-4-40-9-0-2-8-5" />
    </filter>
    <filter
       color-interpolation-filters="sRGB"
       inkscape:collect="always"
       id="filter8613-3-81-0-2-8-4-4-8">
      <feBlend
         inkscape:collect="always"
         mode="lighten"
         in2="BackgroundImage"
         id="feBlend8615-6-4-40-9-0-2-8-4" />
    </filter>
    <filter
       color-interpolation-filters="sRGB"
       inkscape:collect="always"
       id="filter8613-3-81-0-2-8-4-4-3">
      <feBlend
         inkscape:collect="always"
         mode="lighten"
         in2="BackgroundImage"
         id="feBlend8615-6-4-40-9-0-2-8-0" />
    </filter>
    <filter
       color-interpolation-filters="sRGB"
       inkscape:collect="always"
       id="filter8613-3-81-0-2-8-4-4-3-2">
      <feBlend
         inkscape:collect="always"
         mode="lighten"
         in2="BackgroundImage"
         id="feBlend8615-6-4-40-9-0-2-8-0-3" />
    </filter>
    <filter
       color-interpolation-filters="sRGB"
       inkscape:collect="always"
       id="filter8613-3-81-0-2-8-4-4-8-8">
      <feBlend
         inkscape:collect="always"
         mode="lighten"
         in2="BackgroundImage"
         id="feBlend8615-6-4-40-9-0-2-8-4-7" />
    </filter>
    <filter
       color-interpolation-filters="sRGB"
       inkscape:collect="always"
       id="filter8613-3-81-0-2-8-4-4-1-8">
      <feBlend
         inkscape:collect="always"
         mode="lighten"
         in2="BackgroundImage"
         id="feBlend8615-6-4-40-9-0-2-8-5-0" />
    </filter>
    <filter
       color-interpolation-filters="sRGB"
       inkscape:collect="always"
       id="filter8613-3-81-0-2-8-4-4-3-0">
      <feBlend
         inkscape:collect="always"
         mode="lighten"
         in2="BackgroundImage"
         id="feBlend8615-6-4-40-9-0-2-8-0-6" />
    </filter>
    <filter
       color-interpolation-filters="sRGB"
       inkscape:collect="always"
       id="filter8613-3-81-0-2-8-4-4-8-0">
      <feBlend
         inkscape:collect="always"
         mode="lighten"
         in2="BackgroundImage"
         id="feBlend8615-6-4-40-9-0-2-8-4-3" />
    </filter>
    <filter
       color-interpolation-filters="sRGB"
       inkscape:collect="always"
       id="filter8613-3-81-0-2-8-4-4-1-3">
      <feBlend
         inkscape:collect="always"
         mode="lighten"
         in2="BackgroundImage"
         id="feBlend8615-6-4-40-9-0-2-8-5-5" />
    </filter>
    <filter
       color-interpolation-filters="sRGB"
       inkscape:collect="always"
       id="filter8613-3-81-0-2-0-8-0-7">
      <feBlend
         inkscape:collect="always"
         mode="lighten"
         in2="BackgroundImage"
         id="feBlend8615-6-4-40-9-5-9-1-1" />
    </filter>
    <filter
       color-interpolation-filters="sRGB"
       inkscape:collect="always"
       id="filter8613-3-81-0-2-4-6-6-0">
      <feBlend
         inkscape:collect="always"
         mode="lighten"
         in2="BackgroundImage"
         id="feBlend8615-6-4-40-9-8-0-4-0" />
    </filter>
    <filter
       color-interpolation-filters="sRGB"
       inkscape:collect="always"
       id="filter8613-3-81-0-2-8-4-4-9">
      <feBlend
         inkscape:collect="always"
         mode="lighten"
         in2="BackgroundImage"
         id="feBlend8615-6-4-40-9-0-2-8-7" />
    </filter>
    <filter
       color-interpolation-filters="sRGB"
       inkscape:collect="always"
       id="filter8613-3-81-0-2-3-61-1">
      <feBlend
         inkscape:collect="always"
         mode="lighten"
         in2="BackgroundImage"
         id="feBlend8615-6-4-40-9-3-4-7" />
    </filter>
    <filter
       color-interpolation-filters="sRGB"
       inkscape:collect="always"
       id="filter8613-3-81-0-2-0-8-0-2">
      <feBlend
         inkscape:collect="always"
         mode="lighten"
         in2="BackgroundImage"
         id="feBlend8615-6-4-40-9-5-9-1-5" />
    </filter>
    <filter
       color-interpolation-filters="sRGB"
       inkscape:collect="always"
       id="filter8613-3-81-0-2-4-6-6-4">
      <feBlend
         inkscape:collect="always"
         mode="lighten"
         in2="BackgroundImage"
         id="feBlend8615-6-4-40-9-8-0-4-5" />
    </filter>
    <filter
       color-interpolation-filters="sRGB"
       inkscape:collect="always"
       id="filter8613-3-81-0-2-8-4-4-30">
      <feBlend
         inkscape:collect="always"
         mode="lighten"
         in2="BackgroundImage"
         id="feBlend8615-6-4-40-9-0-2-8-1" />
    </filter>
    <filter
       color-interpolation-filters="sRGB"
       inkscape:collect="always"
       id="filter8613-3-81-0-2-3-61-9">
      <feBlend
         inkscape:collect="always"
         mode="lighten"
         in2="BackgroundImage"
         id="feBlend8615-6-4-40-9-3-4-4" />
    </filter>
    <filter
       color-interpolation-filters="sRGB"
       inkscape:collect="always"
       id="filter8613-3-81-0-2-0-8-0-6">
      <feBlend
         inkscape:collect="always"
         mode="lighten"
         in2="BackgroundImage"
         id="feBlend8615-6-4-40-9-5-9-1-4" />
    </filter>
    <filter
       color-interpolation-filters="sRGB"
       inkscape:collect="always"
       id="filter8613-3-81-0-2-4-6-6-08">
      <feBlend
         inkscape:collect="always"
         mode="lighten"
         in2="BackgroundImage"
         id="feBlend8615-6-4-40-9-8-0-4-2" />
    </filter>
    <filter
       color-interpolation-filters="sRGB"
       inkscape:collect="always"
       id="filter8613-3-81-0-2-8-4-4-0">
      <feBlend
         inkscape:collect="always"
         mode="lighten"
         in2="BackgroundImage"
         id="feBlend8615-6-4-40-9-0-2-8-6" />
    </filter>
    <filter
       color-interpolation-filters="sRGB"
       inkscape:collect="always"
       id="filter8613-3-81-0-2-3-61-0">
      <feBlend
         inkscape:collect="always"
         mode="lighten"
         in2="BackgroundImage"
         id="feBlend8615-6-4-40-9-3-4-72" />
    </filter>
  </defs>
  <g
     inkscape:groupmode="layer"
     id="staticShapes"
     inkscape:label="static"
     style="display:inline"
     transform="translate(0,-2880)" />
  <g
     inkscape:groupmode="layer"
     id="layer3"
     inkscape:label="boxes"
     style="display:inline">
    <image
       y="45.081642"
       x="36.971546"
       id="MyBird"
       xlink:href="file:///Users/kmkim/Games/rocknroll/rocknroll/Resources/GameClasses/Bird.png"
       height="48"
       width="48" />
    <path
       style="fill:none;stroke:#000000;stroke-width:1px;stroke-linecap:butt;stroke-linejoin:miter;stroke-opacity:1"
       d="M 7.0190641,18.180244 C 7.0190641,18.180244 7.508484,19.634307 8.4271733,22.248493 9.3458627,24.862679 10.693821,28.636988 12.410899,33.27748 14.127977,37.917973 16.214173,43.424648 18.609339,49.503567 21.004504,55.582485 23.708637,62.233647 26.661589,69.163112 29.61454,76.092577 32.81631,83.300345 36.206747,90.492476 39.597184,97.684608 43.176289,104.8611 46.883911,111.72802 50.591532,118.59494 54.427671,125.15228 58.332176,131.10611 62.236681,137.05993 66.209553,142.41024 70.190641,146.86309 77.436585,154.96769 84.94945,163.18961 92.719038,171.37914 100.48863,179.56867 108.51494,187.72581 116.78778,195.70083 125.06062,203.67586 133.57998,211.46878 142.33568,218.92987 151.09137,226.39096 160.0834,233.52022 169.30156,240.16793 178.51972,246.81565 187.96402,252.98181 197.62425,258.51672 207.28448,264.05162 217.16065,268.95527 227.24256,273.07793 237.32446,277.20059 247.61211,280.54227 258.09531,282.95325"
       id="path3990" />
    <path
       style="fill:none;stroke:#000000;stroke-width:1px;stroke-linecap:butt;stroke-linejoin:miter;stroke-opacity:1"
       d="M 258.09531,282.95325 C 268.5785,285.36423 279.25724,286.84451 290.12132,287.24437 301.41082,287.65989 312.19619,286.02626 322.6034,282.8411 333.01061,279.65594 343.03965,274.91925 352.8165,269.12864 362.59334,263.33804 372.11799,256.49352 381.51639,249.09272 390.91479,241.69192 400.18695,233.73482 409.45884,225.71906 418.73072,217.7033 428.00232,209.62887 437.3996,201.99339 446.79688,194.35791 456.31985,187.16138 466.09446,180.90143 475.86906,174.64147 485.89531,169.31809 496.29916,165.4289 506.70302,161.53971 517.48447,159.08471 528.76949,158.56153 541.46698,157.97286 553.7898,159.46892 565.83163,162.52858 577.87345,165.58825 589.63429,170.21151 601.20779,175.87725 612.7813,181.54299 624.16748,188.25121 635.46,195.48078 646.75252,202.71035 657.95139,210.46128 669.15026,218.21244 680.34914,225.9636 691.54802,233.715 702.84059,240.9455 714.13315,248.176 725.51939,254.88561 737.09299,260.5532 748.66658,266.2208 760.42752,270.84638 772.46947,273.90883 784.51143,276.97127 796.8344,278.47057 809.53206,277.88562 821.03489,277.35571 832.02699,274.99354 842.63594,271.25515 853.24489,267.51676 863.47069,262.40214 873.44092,256.36733 883.41114,250.33252 893.1258,243.37752 902.71245,235.95836 912.29911,228.5392 921.75777,220.65588 931.21601,212.76444 940.67425,204.87299 950.13207,196.97342 959.71705,189.52175 969.30202,182.07009 979.01415,175.06633 988.98102,168.9665 998.94788,162.86668 1009.1695,157.6708 1019.7734,153.83488 1030.3773,149.99897 1041.3635,147.52303 1052.8596,146.86309 1067.3181,146.03309 1081.3973,147.47032 1095.1924,150.61479 1108.9874,153.75927 1122.4982,158.611 1135.82,164.61001 1149.1418,170.60902 1162.2745,177.75532 1175.3132,185.48894 1188.3519,193.22255 1201.2967,201.54349 1214.2426,209.89177 1227.1886,218.24005 1240.1357,226.61568 1253.179,234.45869 1266.2224,242.3017 1279.362,249.61209 1292.693,255.8299 1306.024,262.0477 1319.5464,267.17292 1333.3553,270.64558 1347.1642,274.11824 1361.2596,275.93835 1375.7366,275.54593 1388.7298,275.19373 1401.2735,272.89711 1413.4801,269.14582 1425.6868,265.39454 1437.5563,260.18859 1449.2013,254.01775 1460.8462,247.84691 1472.2665,240.71117 1483.5747,233.1003 1494.8828,225.48944 1506.0788,217.40344 1517.275,209.33208 1528.4712,201.26072 1539.6677,193.204 1550.9769,185.65168 1562.2861,178.09937 1573.708,171.05145 1585.3551,164.99771 1597.0021,158.94396 1608.8743,153.88439 1621.0841,150.30875 1633.294,146.73311 1645.8414,144.6414 1658.8388,144.5234"
       id="path8188" />
    <image
       style="display:inline;filter:url(#filter8613-3-81-0-2)"
       y="143.52229"
       x="597.78589"
       id="image3507-4-88-6-7"
       xlink:href="file:///Users/kmkim/Games/rocknroll/rocknroll/Resources/GameClasses/Feather.png"
       height="32"
       width="32" />
    <image
       style="display:inline;filter:url(#filter8613-3-81-0-2-8)"
       y="169.99284"
       x="647.41809"
       id="image3507-4-88-6-7-2"
       xlink:href="file:///Users/kmkim/Games/rocknroll/rocknroll/Resources/GameClasses/Feather.png"
       height="32"
       width="32" />
    <image
       style="display:inline;filter:url(#filter8613-3-81-0-2-4)"
       y="201.42662"
       x="693.74164"
       id="image3507-4-88-6-7-39"
       xlink:href="file:///Users/kmkim/Games/rocknroll/rocknroll/Resources/GameClasses/Feather.png"
       height="32"
       width="32" />
    <image
       style="display:inline;filter:url(#filter8613-3-81-0-2-0)"
       y="227.89717"
       x="745.02826"
       id="image3507-4-88-6-7-22"
       xlink:href="file:///Users/kmkim/Games/rocknroll/rocknroll/Resources/GameClasses/Feather.png"
       height="32"
       width="32" />
    <path
       style="fill:none;stroke:#000000;stroke-width:1.00269449px;stroke-linecap:butt;stroke-linejoin:miter;stroke-opacity:1"
       d="M 1212.7856,5.2053584 C 1212.7856,5.2053584 1264.3202,47.444791 1294.1227,61.697311 1319.1079,73.646006 1346.1832,85.865626 1373.8957,85.097226 1403.349,84.280566 1432.2287,71.195416 1457.1537,55.567802 1481.6963,40.17999 1518.8819,-5.4590466 1518.8819,-5.4590466"
       id="path6305"
       inkscape:connector-curvature="0"
       sodipodi:nodetypes="caaac"
       thickness="32" />
    <path
       inkscape:connector-curvature="0"
       style="fill:none;stroke:#000000;stroke-width:1px;stroke-linecap:butt;stroke-linejoin:miter;stroke-opacity:1;display:inline"
       d="M 2018.2385,291.52737 C 2028.7217,293.93835 2039.4004,295.41863 2050.2645,295.81849 2061.554,296.23401 2072.3393,294.60038 2082.7466,291.41522 2093.1538,288.23006 2103.1828,283.49337 2112.9597,277.70276 2122.7365,271.91216 2132.2611,265.06764 2141.6595,257.66684 2151.0579,250.26604 2160.3301,242.30893 2169.602,234.29317 2178.8739,226.27741 2188.1455,218.20298 2197.5428,210.5675 2206.94,202.93202 2216.463,195.73549 2226.2376,189.47554 2236.0122,183.21558 2246.0385,177.8922 2256.4423,174.00301 2266.8462,170.11382 2277.6276,167.65882 2288.9126,167.13564 2301.6101,166.54697 2313.933,168.04303 2325.9748,171.10269 2338.0166,174.16236 2349.7774,178.78562 2361.3509,184.45136 2372.9245,190.1171 2384.3106,196.82532 2395.6032,204.05489 2406.8957,211.28446 2418.0945,219.03539 2429.2934,226.78655 2440.4923,234.53771 2451.6912,242.28911 2462.9837,249.51962 2474.2763,256.75012 2485.6625,263.45973 2497.2361,269.12732 2508.8097,274.79492 2520.5707,279.4205 2532.6126,282.48295 2544.6546,285.54539 2556.9776,287.04469 2569.6752,286.45974 2581.178,285.92983 2592.1701,283.56766 2602.7791,279.82927 2613.388,276.09088 2623.6138,270.97626 2633.5841,264.94145 2643.5543,258.90664 2653.269,251.95164 2662.8556,244.53247 2672.4423,237.11331 2681.9009,229.22999 2691.3592,221.33855 2700.8174,213.4471 2710.2752,205.54753 2719.8602,198.09586 2729.4452,190.6442 2739.1573,183.64044 2749.1242,177.54061 2759.091,171.44079 2769.3127,166.24491 2779.9166,162.40899 2790.5205,158.57308 2801.5067,156.09714 2813.0028,155.4372 2827.4613,154.6072 2841.5405,156.04443 2855.3356,159.1889 2869.1306,162.33338 2882.6414,167.18511 2895.9632,173.18412 2909.285,179.18313 2922.4177,186.32943 2935.4564,194.06305 2948.4951,201.79666 2961.4399,210.1176 2974.3858,218.46588 2987.3318,226.81416 3000.2789,235.18979 3013.3222,243.0328 3026.3656,250.87582 3039.5052,258.18621 3052.8362,264.40402 3066.1672,270.62182 3079.6896,275.74704 3093.4985,279.2197 3107.3074,282.69236 3121.4028,284.51247 3135.8798,284.12005 3148.873,283.76785 3161.4167,281.47123 3173.6233,277.71994 3185.83,273.96866 3197.6995,268.76271 3209.3445,262.59187 3220.9894,256.42103 3232.4097,249.28529 3243.7179,241.67441 3255.026,234.06355 3266.222,225.97755 3277.4182,217.90619 3288.6144,209.83483 3299.8109,201.77811 3311.1201,194.22579 3322.4293,186.67348 3333.8512,179.62556 3345.4983,173.57182 3357.1453,167.51807 3369.0175,162.4585 3381.2273,158.88286 3393.4372,155.30722 3405.9846,153.21551 3418.982,153.09751"
       id="path8188-7" />
    <image
       style="display:inline;filter:url(#filter8613-3-81-0-2-3)"
       y="152.09641"
       x="2357.929"
       id="image3507-4-88-6-7-0"
       xlink:href="file:///Users/kmkim/Games/rocknroll/rocknroll/Resources/GameClasses/Feather.png"
       height="32"
       width="32" />
    <image
       style="display:inline;filter:url(#filter8613-3-81-0-2-8-4)"
       y="178.56696"
       x="2407.561"
       id="image3507-4-88-6-7-2-0"
       xlink:href="file:///Users/kmkim/Games/rocknroll/rocknroll/Resources/GameClasses/Feather.png"
       height="32"
       width="32" />
    <image
       style="display:inline;filter:url(#filter8613-3-81-0-2-4-6)"
       y="210.00073"
       x="2453.8845"
       id="image3507-4-88-6-7-39-1"
       xlink:href="file:///Users/kmkim/Games/rocknroll/rocknroll/Resources/GameClasses/Feather.png"
       height="32"
       width="32" />
    <image
       style="display:inline;filter:url(#filter8613-3-81-0-2-0-8)"
       y="236.47128"
       x="2505.1711"
       id="image3507-4-88-6-7-22-0"
       xlink:href="file:///Users/kmkim/Games/rocknroll/rocknroll/Resources/GameClasses/Feather.png"
       height="32"
       width="32" />
  </g>
</svg>
