<?xml version="1.0" encoding="UTF-8" standalone="no"?>
<!-- Created with Inkscape (http://www.inkscape.org/) -->

<svg
   xmlns:dc="http://purl.org/dc/elements/1.1/"
   xmlns:cc="http://creativecommons.org/ns#"
   xmlns:rdf="http://www.w3.org/1999/02/22-rdf-syntax-ns#"
   xmlns:svg="http://www.w3.org/2000/svg"
   xmlns="http://www.w3.org/2000/svg"
   xmlns:sodipodi="http://sodipodi.sourceforge.net/DTD/sodipodi-0.dtd"
   xmlns:inkscape="http://www.inkscape.org/namespaces/inkscape"
   width="480"
   height="320"
   id="svg4051"
   version="1.1"
   inkscape:version="0.48.2 r9819"
   sodipodi:docname="LevelMapScene.svg"
   inkscape:export-filename="/Users/kmkim/Games/rocknroll/rocknroll/Resources/LevelMapScene.png"
   inkscape:export-xdpi="90"
   inkscape:export-ydpi="90">
  <defs
     id="defs4053" />
  <sodipodi:namedview
     id="base"
     pagecolor="#ffffff"
     bordercolor="#666666"
     borderopacity="1.0"
     inkscape:pageopacity="0.0"
     inkscape:pageshadow="2"
     inkscape:zoom="1.4142136"
     inkscape:cx="198.15368"
     inkscape:cy="110.80547"
     inkscape:document-units="px"
     inkscape:current-layer="layer4"
     showgrid="false"
     inkscape:window-width="1432"
     inkscape:window-height="1044"
     inkscape:window-x="11"
     inkscape:window-y="0"
     inkscape:window-maximized="0" />
  <metadata
     id="metadata4056">
    <rdf:RDF>
      <cc:Work
         rdf:about="">
        <dc:format>image/svg+xml</dc:format>
        <dc:type
           rdf:resource="http://purl.org/dc/dcmitype/StillImage" />
        <dc:title />
      </cc:Work>
    </rdf:RDF>
  </metadata>
  <g
     inkscape:groupmode="layer"
     id="layer3"
     inkscape:label="background_color"
     style="display:inline"
     ignore="">
    <rect
       style="fill:#aaccff;stroke:none"
       id="rect10067"
       width="542.35089"
       height="368.40262"
       x="-16.263456"
       y="-21.532566" />
  </g>
  <g
     inkscape:label="bridges"
     inkscape:groupmode="layer"
     id="layer1"
     style="display:inline"
     ignore="">
    <path
       style="fill:none;stroke:#000000;stroke-width:1px;stroke-linecap:butt;stroke-linejoin:miter;stroke-opacity:1"
       d="M 68.690373,80.138617 C 57.02868,80.6735 50.951389,100.99073 39.395949,99.331517 27.574395,97.63409 19.483962,83.529009 16.16244,72.057397 12.189308,58.335302 11.698778,39.290952 22.223356,29.630987 39.864018,13.439538 72.97333,14.03273 93.944186,25.590377 112.16106,35.630226 128.6579,59.810984 124.24877,80.138617 122.20738,89.550125 110.6192,96.598374 101.01526,97.311207 88.847655,98.214323 80.878635,79.579583 68.690373,80.138617 z"
       id="path4078"
       inkscape:connector-curvature="0"
       sodipodi:nodetypes="aaaaaaaa" />
    <path
       style="fill:none;stroke:#000000;stroke-width:1px;stroke-linecap:butt;stroke-linejoin:miter;stroke-opacity:1"
       d="M 101.3183,124.58533 C 85.712945,136.91669 82.232082,152.16336 89.929854,171.1925 97.146196,196.16342 111.32312,214.88469 137.51409,212.51927 164.43807,212.19195 191.02108,203.59575 213.99798,189.82652 224.96444,181.86649 232.1415,165.0416 222.89501,153.16109 212.67156,139.2583 194.65825,128.23914 176.99719,133.72579 165.88536,135.83966 150.24696,140.81383 142.43106,129.60998 138.13913,120.89814 133.10966,115.29489 120.90413,115.36308 110.95753,115.78669 109.10241,118.20225 101.3183,124.58533 z"
       id="path4080"
       inkscape:connector-curvature="0"
       sodipodi:nodetypes="ccccccccc" />
    <path
       style="fill:none;stroke:#000000;stroke-width:1px;stroke-linecap:butt;stroke-linejoin:miter;stroke-opacity:1"
       d="M 144.55283,55.086833 C 141.31329,64.877656 137.87027,75.39483 139.40105,85.593435 140.7824,94.796491 143.7737,106.05768 151.92694,110.54421 163.81527,117.08607 180.88949,113.63459 192.43407,106.50361 207.71751,97.063175 226.58633,78.090525 221.22341,60.945717 218.57034,52.46406 203.4779,55.681135 196.67671,50.541146 187.18981,43.37144 188.55934,27.47309 169.70563,30.641137 154.95967,33.118945 156.78261,35.451924 152.12897,40.237591 148.25509,44.221379 146.29836,49.811353 144.55283,55.086833 z"
       id="path4082"
       inkscape:connector-curvature="0"
       sodipodi:nodetypes="aaaaassaa" />
    <path
       style="fill:none;stroke:#000000;stroke-width:1px;stroke-linecap:butt;stroke-linejoin:miter;stroke-opacity:1"
       d="M 231.93102,32.257383 C 225.37561,44.887183 233.07025,64.533559 244.45692,73.067547 264.66689,88.214347 296.45171,82.622554 320.21836,74.077697 331.18888,70.133453 344.38315,62.836375 346.88639,51.450283 349.20572,40.900678 342.03793,28.334482 333.24932,22.054841 318.7873,11.721425 297.89183,14.626573 280.21632,16.499005 263.37996,18.282543 239.73067,17.230421 231.93102,32.257383 z"
       id="path4084"
       inkscape:connector-curvature="0"
       sodipodi:nodetypes="aaaaaaa" />
    <path
       style="fill:none;stroke:#000000;stroke-width:1px;stroke-linecap:butt;stroke-linejoin:miter;stroke-opacity:1"
       d="M 385.87827,24.378194 C 374.17862,31.625548 368.76103,49.730989 371.73613,63.16805 373.15672,69.584095 380.0905,73.646487 385.67624,77.108157 400.41098,86.239763 419.27139,86.326226 434.97168,93.674663 440.73563,96.372448 444.90761,102.99441 451.23515,103.67518 456.80447,104.27436 464.37264,103.01502 467.09454,98.119338 478.09063,78.341493 469.18028,46.975978 452.34631,31.853325 435.76039,16.953503 404.8321,12.637235 385.87827,24.378194 z"
       id="path4086"
       inkscape:connector-curvature="0"
       sodipodi:nodetypes="aaaaaaaa" />
    <path
       style="fill:none;stroke:#000000;stroke-width:1px;stroke-linecap:butt;stroke-linejoin:miter;stroke-opacity:1"
       d="M 422.34478,125.89853 C 417.70056,99.89974 378.01946,127.51946 373.75644,92.563488 371.91808,77.489251 344.57112,82.804565 336.07776,92.058414 325.02646,104.09923 325.27357,131.51145 340.92648,140.84879 360.99804,152.82196 381.13615,150.50648 410.93006,141.15184 415.97386,139.56819 424.39703,137.38722 422.34478,125.89853 z"
       id="path4088"
       inkscape:connector-curvature="0"
       sodipodi:nodetypes="ssasss" />
    <path
       style="fill:none;stroke:#000000;stroke-width:1px;stroke-linecap:butt;stroke-linejoin:miter;stroke-opacity:1"
       d="M 246.47722,97.513237 C 254.02976,90.142656 268.52561,91.448071 278.095,95.896993 296.8794,104.63008 319.34836,125.00797 315.67267,145.39448 312.54658,162.7328 288.64048,173.46056 271.02394,173.67875 259.75845,173.81828 247.21229,166.30919 242.03256,156.30413 232.99711,138.85143 232.41214,111.23947 246.47722,97.513237 z"
       id="path4090"
       inkscape:connector-curvature="0"
       sodipodi:nodetypes="aaaaaa" />
    <path
       style="fill:none;stroke:#000000;stroke-width:1px;stroke-linecap:butt;stroke-linejoin:miter;stroke-opacity:1"
       d="M 65.053824,201.05388 C 51.904571,194.99964 30.771818,194.65006 21.92031,206.10464 8.4914423,223.48271 16.040719,255.29187 31.011683,271.36053 44.057887,285.36331 70.461272,292.602 87.176164,283.28033 97.110601,277.74002 100.09332,262.44567 98.691903,251.15744 96.213546,231.19468 83.326085,209.46688 65.053824,201.05388 z"
       id="path4092"
       inkscape:connector-curvature="0"
       sodipodi:nodetypes="aaaaaa" />
    <path
       style="fill:none;stroke:#000000;stroke-width:1px;stroke-linecap:butt;stroke-linejoin:miter;stroke-opacity:1"
       d="M 63.63961,161.96098 C 54.654643,175.24449 29.27171,182.28097 16.667517,172.36554 3.2210324,161.7875 4.5595366,134.07059 15.657364,121.0498 24.457694,110.7246 45.032104,107.35659 55.962451,115.39295 68.637483,124.71206 72.45388,148.92983 63.63961,161.96098 z"
       id="path4094"
       inkscape:connector-curvature="0"
       sodipodi:nodetypes="aaaaa" />
    <path
       style="fill:none;stroke:#000000;stroke-width:1px;stroke-linecap:butt;stroke-linejoin:miter;stroke-opacity:1"
       d="M 131.7239,242.57115 C 118.98387,248.73125 118.78418,266.17943 125.1579,275.30008 140.47753,297.22213 180.39273,299.19684 204.45487,287.5229 214.85972,282.4749 222.81724,268.8119 221.52645,257.31942 220.00733,243.79402 209.44579,227.14222 194.0503,227.11581 170.50164,227.07543 146.29753,235.52445 131.7239,242.57115 z"
       id="path4096"
       inkscape:connector-curvature="0"
       sodipodi:nodetypes="saaass" />
    <path
       style="fill:none;stroke:#000000;stroke-width:1px;stroke-linecap:butt;stroke-linejoin:miter;stroke-opacity:1"
       d="M 246.9823,195.80108 C 240.06479,200.40705 233.6181,207.70853 232.23407,215.90312 229.73485,230.70062 233.52673,249.84495 245.46707,258.93562 263.96053,273.01545 296.18772,274.37284 315.1676,260.95592 329.08883,251.11497 337.27473,228.04775 330.82496,212.26658 324.00432,195.57798 300.83539,189.33164 282.94373,187.11378 270.70545,185.59671 257.24702,188.96641 246.9823,195.80108 z"
       id="path4098"
       inkscape:connector-curvature="0"
       sodipodi:nodetypes="aaaaaaa" />
    <text
       xml:space="preserve"
       style="font-size:25px;font-style:normal;font-variant:normal;font-weight:normal;font-stretch:normal;text-align:start;line-height:125%;letter-spacing:0px;word-spacing:0px;writing-mode:lr-tb;text-anchor:start;fill:#000000;fill-opacity:1;stroke:none;font-family:Sans;-inkscape-font-specification:Sans"
       x="397.71582"
       y="180.8138"
       id="text4106"
       sodipodi:linespacing="125%"><tspan
         sodipodi:role="line"
         id="tspan4108"
         x="397.71582"
         y="180.8138">King </tspan><tspan
         sodipodi:role="line"
         x="397.71582"
         y="212.0638"
         id="tspan4110">Wang</tspan></text>
    <path
       style="fill:none;stroke:#000000;stroke-width:1px;stroke-linecap:butt;stroke-linejoin:miter;stroke-opacity:1"
       d="M 370.1803,168.95337 C 358.93362,177.38395 347.13299,189.76496 346.44172,203.80364 345.84368,215.94896 353.47815,229.58938 363.91736,235.82551 373.97705,241.83494 387.38808,235.1177 399.07066,236.02755 421.57938,237.78054 448.35164,260.15412 466.04378,246.12902 476.87093,237.54599 471.02211,218.53203 469.37728,204.81379 467.40992,188.40565 466.54229,168.28888 453.82093,157.74068 444.82497,150.28148 430.71018,152.03934 419.07168,153.09398 402.00849,154.64018 383.88936,158.67696 370.1803,168.95337 z"
       id="path4112"
       inkscape:connector-curvature="0"
       sodipodi:nodetypes="aaaaaaaaa" />
    <path
       style="fill:#e9c6af"
       d="M 126.04859,73.218032 123.10077,72.950161 121.62918,68.105275 C 119.89977,62.411589 119.82037,61.431452 121.1292,61.933698 121.66359,62.138762 124.69346,62.532701 127.86225,62.809118 131.03104,63.085536 133.80016,63.597225 134.01584,63.946207 134.23152,64.295188 134.18746,66.639976 133.91793,69.156847 L 133.42787,73.732975 131.21214,73.609438 C 129.9935,73.541493 127.6699,73.36536 126.04859,73.218032 z"
       id="path5319"
       inkscape:connector-curvature="0" />
    <path
       style="fill:#e9c6af"
       d="M 140.88935,74.948979 135.10462,74.255151 135.50708,69.221092 C 135.72843,66.45236 135.97585,64.103234 136.05689,64.000812 136.13793,63.89839 139.44558,64.183168 143.40722,64.633653 L 150.61021,65.452716 150.17767,69.769622 C 149.93978,72.143921 149.62099,74.484276 149.46924,74.970412 149.16589,75.942266 149.1709,75.942278 140.88935,74.948979 z"
       id="path5321"
       inkscape:connector-curvature="0" />
    <path
       style="fill:#e9c6af"
       d="M 110.04527,71.247702 C 106.23359,70.760044 102.96815,70.214267 102.78875,70.034865 102.60934,69.855462 103.23636,67.670813 104.18211,65.180089 L 105.90166,60.6515 108.96376,60.788798 C 110.64791,60.864313 113.36052,61.119806 114.99177,61.356563 117.90114,61.778823 117.97941,61.86382 119.09767,65.815458 119.72466,68.031094 120.40018,70.400734 120.59882,71.081325 121.02686,72.547867 120.29762,72.559363 110.04527,71.247702 z"
       id="path5323"
       inkscape:connector-curvature="0" />
    <path
       style="fill:#e9c6af"
       d="M 206.89003,76.05177 C 206.65532,74.970887 206.00449,72.614896 205.44373,70.816235 L 204.42418,67.545943 207.61952,67.481805 C 209.87289,67.436575 212.17746,66.66868 215.43714,64.876939 217.9794,63.479538 220.31639,62.593546 220.63045,62.908068 220.94451,63.22259 221.40005,64.752719 221.64275,66.308354 L 222.08404,69.136781 216.19887,72.61823 C 212.96203,74.533028 209.63939,76.53108 208.81524,77.058345 207.43476,77.94153 207.28318,77.862277 206.89003,76.05177 z"
       id="path5325"
       inkscape:connector-curvature="0" />
    <path
       style="fill:#e9c6af"
       d=""
       id="path5327"
       inkscape:connector-curvature="0" />
    <path
       style="fill:#e9c6af"
       d="M 223.39123,66.908529 C 223.38906,66.189524 223.04797,64.379256 222.63325,62.88571 221.94418,60.40416 221.71604,60.210762 219.98554,60.641221 218.94402,60.900298 216.589,62.034528 214.75215,63.161732 211.80911,64.967771 206.89061,66.816225 207.83883,65.759876 208.03328,65.543247 213.80848,62.033314 220.6726,57.960025 L 233.15283,50.554047 235.23754,55.273901 237.32226,59.993756 233.01037,62.542283 C 222.42499,68.798733 223.3956,68.358157 223.39123,66.908529 z"
       id="path5329"
       inkscape:connector-curvature="0" />
    <path
       style="fill:#e9c6af"
       d="M 236.8708,54.530512 C 234.56251,49.488592 234.53297,49.570255 239.74448,46.585409 L 243.01231,44.713789 245.62189,49.094503 C 247.631,52.467201 248.01801,53.606112 247.30381,54.044076 246.79359,54.356949 244.6995,55.603653 242.65027,56.81453 L 238.9244,59.016124 236.8708,54.530512 z"
       id="path5331"
       inkscape:connector-curvature="0" />
    <path
       style="fill:#e9c6af"
       d="M 345.72465,47.113333 C 343.58565,46.543919 340.62816,45.761261 339.15245,45.374092 L 336.46935,44.670148 338.72821,40.640009 C 339.97059,38.423433 341.19567,36.369454 341.4506,36.075612 342.09899,35.328277 350.04584,37.013656 350.32593,37.957905 350.4521,38.383212 350.72924,40.879027 350.9418,43.504161 351.37611,48.867681 351.63696,48.687224 345.72465,47.113333 z"
       id="path5333"
       inkscape:connector-curvature="0" />
    <path
       style="fill:#e9c6af"
       d="M 358.62934,50.187222 C 352.85976,48.729816 352.79571,48.689034 352.79571,46.472756 352.79571,45.240271 352.59709,42.78273 352.35432,41.011553 L 351.91292,37.791232 359.24861,39.59713 C 363.28324,40.590374 366.81268,41.603006 367.09182,41.847423 367.86885,42.527805 366.13042,51.823259 365.24233,51.736736 364.81368,51.694975 361.83784,50.997694 358.62934,50.187222 z"
       id="path5335"
       inkscape:connector-curvature="0" />
    <path
       style="fill:#e9c6af"
       d="M 374.48623,54.121836 C 368.14607,52.487904 367.57099,52.200618 367.90595,50.834612 368.10782,50.011361 368.48381,47.720521 368.74147,45.743856 L 369.20996,42.14992 376.38241,43.817397 C 380.32726,44.734509 383.92293,45.61446 384.37279,45.772842 385.34315,46.114477 383.21248,55.508019 382.10769,55.759056 381.7369,55.843308 378.30725,55.106558 374.48623,54.121836 z"
       id="path5337"
       inkscape:connector-curvature="0" />
    <path
       style="fill:#e9c6af"
       d="M 402.51593,88.425867 397.43537,86.980294 402.86948,81.824106 408.30359,76.667918 412.05653,80.326971 415.80946,83.986023 412.41008,86.976684 C 410.54042,88.621547 408.6925,89.945766 408.30359,89.919391 407.91469,89.893018 405.31024,89.220932 402.51593,88.425867 z"
       id="path5339"
       inkscape:connector-curvature="0" />
    <path
       style="fill:#e9c6af"
       d=""
       id="path5341"
       inkscape:connector-curvature="0" />
    <path
       style="fill:#e9c6af"
       d="M 393.1008,99.566775 C 391.73962,99.05164 389.76473,98.291709 388.71217,97.878039 L 386.79841,97.125912 391.3406,92.764275 395.8828,88.402638 398.91121,89.170144 C 400.57684,89.592272 403.17271,90.366894 404.67981,90.891526 L 407.41998,91.845401 402.5683,96.224217 C 399.89988,98.632565 397.23491,100.58061 396.64615,100.55321 396.05739,100.5258 394.46198,100.08191 393.1008,99.566775 z"
       id="path5343"
       inkscape:connector-curvature="0" />
    <path
       style="fill:#e9c6af"
       d="M 378.34981,111.81664 375.97319,107.49069 380.48647,102.9774 384.99975,98.464123 390.48704,100.46468 395.97432,102.46523 388.59055,109.31231 C 384.52948,113.0782 381.0987,116.15561 380.96661,116.15099 380.83451,116.14638 379.65695,114.19592 378.34981,111.81664 z"
       id="path5345"
       inkscape:connector-curvature="0" />
    <path
       style="fill:#e9c6af"
       d="M 322.14075,119.19468 319.67302,114.29443 327.21876,113.08852 C 331.36891,112.42527 335.44301,111.70387 336.27232,111.4854 337.64323,111.12426 337.85191,111.50026 338.57042,115.62625 339.00506,118.12218 339.36068,120.49234 339.36068,120.89326 339.36068,121.29418 336.89465,122.01401 333.88061,122.49289 330.86656,122.97177 327.54732,123.52813 326.5045,123.72925 324.7567,124.06634 324.41555,123.71183 322.14075,119.19468 z"
       id="path5347"
       inkscape:connector-curvature="0" />
    <path
       style="fill:#e9c6af"
       d="M 306.91327,121.64016 303.29451,117.22145 309.83711,116.01898 C 313.43554,115.35761 316.77429,114.80045 317.25656,114.78083 317.99363,114.75085 322.76404,123.89571 322.2196,124.29497 321.77748,124.6192 313.51839,126.05888 312.1005,126.05888 311.03399,126.05888 309.37388,124.64472 306.91327,121.64016 z"
       id="path5349"
       inkscape:connector-curvature="0" />
    <path
       style="fill:#e9c6af"
       d="M 292.93788,126.39545 C 293.19136,124.54614 293.39875,122.14432 293.39875,121.05809 293.39875,118.98246 293.7657,118.7591 298.47991,117.96536 300.99276,117.54226 301.21686,117.68353 304.73066,121.9058 307.40554,125.11999 308.12306,126.4169 307.42767,126.78062 306.90657,127.05318 303.93464,127.65913 300.82337,128.12718 297.7121,128.59523 294.56137,129.1536 293.82176,129.368 292.59181,129.72455 292.51636,129.4708 292.93788,126.39545 z"
       id="path5351"
       inkscape:connector-curvature="0" />
    <path
       style="fill:#e9c6af"
       d="M 212.54996,148.91832 C 209.87335,145.5443 209.49205,144.71966 210.37908,144.22326 211.62378,143.52669 243.33348,129.59441 243.67416,129.59441 243.79907,129.59441 243.90127,131.97356 243.90127,134.88141 243.90127,139.58911 243.72695,140.28072 242.31028,141.19344 241.11282,141.96493 223.33129,149.90934 216.59081,152.68435 216.15414,152.86413 214.33575,151.16942 212.54996,148.91832 z"
       id="path5353"
       inkscape:connector-curvature="0" />
    <path
       style="fill:#e9c6af"
       d=""
       id="path5355"
       inkscape:connector-curvature="0" />
    <path
       style="fill:#e9c6af"
       d=""
       id="path5357"
       inkscape:connector-curvature="0" />
    <path
       style="fill:#e9c6af"
       d="M 245.31549,135.58966 C 245.31549,133.07009 245.57929,131.00862 245.90172,131.00862 246.54716,131.00862 249.97792,137.94671 249.50126,138.28801 249.33808,138.40485 248.32953,138.87625 247.26003,139.33557 L 245.31549,140.17069 245.31549,135.58966 z"
       id="path5359"
       inkscape:connector-curvature="0" />
    <path
       style="fill:#e9c6af"
       d="M 204.00245,157.06816 C 203.59468,155.82011 202.18197,148.79368 202.18197,148.01355 202.18197,147.46217 205.89943,145.85786 207.17709,145.85786 207.80609,145.85786 213.49568,152.86002 213.49568,153.63413 213.49568,154.0705 211.43846,155.06827 205.19314,157.66095 204.71028,157.8614 204.17447,157.59465 204.00245,157.06816 z"
       id="path5361"
       inkscape:connector-curvature="0" />
    <path
       style="fill:#e9c6af"
       d="M 89.783093,157.4202 C 82.994293,155.3083 77.305303,153.44586 77.140894,153.28145 76.976484,153.11704 77.891506,150.95825 79.174275,148.48413 L 81.506582,143.98574 93.230687,147.65241 C 106.36578,151.76037 105.65455,151.0442 103.31798,157.80971 L 102.12637,161.26001 89.783093,157.4202 z"
       id="path5363"
       inkscape:connector-curvature="0" />
    <path
       style="fill:#e9c6af"
       d="M 26.819496,139.4939 26.819496,128.1802 39.193864,128.1802 51.568232,128.1802 51.568232,139.4939 51.568232,150.80761 39.193864,150.80761 26.819496,150.80761 26.819496,139.4939 z M 43.234509,144.92974 C 44.014659,143.70281 43.90724,139.64979 43.081039,139.13917 42.607095,138.84625 42.607129,138.26167 43.08114,137.37597 45.187348,133.44048 39.323886,129.77907 35.890785,132.88598 34.521539,134.12513 34.145299,137.00954 35.262821,137.70021 35.644614,137.93617 35.418691,139.00475 34.732491,140.20858 33.652324,142.10356 33.640345,142.49139 34.608299,144.22927 35.197507,145.28714 36.4703,146.35233 37.436726,146.59636 39.39095,147.0898 42.413486,146.22095 43.234509,144.92974 z"
       id="path5365"
       inkscape:connector-curvature="0" />
    <path
       style="fill:#e9c6af"
       d="M 59.372305,147.90134 C 58.414277,147.51891 57.520851,147.09644 57.386915,146.9625 57.108361,146.68395 61.435729,139.4939 61.881932,139.4939 62.043028,139.4939 62.174834,141.56219 62.174834,144.0901 62.174834,148.93307 62.125396,149.00031 59.372305,147.90134 z"
       id="path5367"
       inkscape:connector-curvature="0" />
    <path
       style="fill:#e9c6af"
       d="M 69.748613,151.26166 C 67.108289,150.42532 64.647127,149.26507 64.279364,148.68334 63.488947,147.43303 63.349106,138.78538 64.119377,138.78993 64.411059,138.79165 68.032614,139.83065 72.167276,141.09881 L 79.684846,143.40455 77.28405,148.16674 C 75.963613,150.78595 74.808093,152.89594 74.716229,152.85561 74.624364,152.81528 72.388937,152.09801 69.748613,151.26166 z"
       id="path5369"
       inkscape:connector-curvature="0" />
    <path
       style="fill:#e9c6af"
       d="M 37.924524,164.41942 C 37.719074,163.34992 37.673986,162.35028 37.824328,162.19801 38.398152,161.61681 48.379211,163.21602 48.244443,163.86757 48.108974,164.52251 41.876108,166.27115 39.453073,166.334 38.743628,166.3524 38.153969,165.61383 37.924524,164.41942 z"
       id="path5371"
       inkscape:connector-curvature="0" />
    <path
       style="fill:#e9c6af"
       d="M 41.372276,183.2065 C 40.421331,180.14293 38.866097,168.89636 39.337104,168.48929 40.166077,167.77285 48.076128,166.17169 48.532412,166.62797 49.214835,167.3104 51.480099,180.84211 50.983678,181.27078 50.72182,181.4969 49.075681,182.07403 47.325592,182.5533 45.575503,183.03257 43.585197,183.58544 42.902691,183.78192 42.220186,183.97839 41.531499,183.71945 41.372276,183.2065 z"
       id="path5373"
       inkscape:connector-curvature="0" />
    <path
       style="fill:#e9c6af"
       d="M 45.911378,208.62856 C 45.911378,208.20352 42.442472,189.01943 42.032792,187.17882 41.745759,185.88925 42.292459,185.57956 46.740785,184.51197 49.50879,183.84765 51.832198,183.3905 51.903914,183.49609 52.161232,183.87495 55.810873,204.97355 55.810873,206.08225 55.810873,206.89488 54.860433,207.3527 52.452116,207.70016 50.604799,207.96668 48.377413,208.35551 47.502369,208.56421 46.627324,208.77292 45.911378,208.80188 45.911378,208.62856 z"
       id="path5375"
       inkscape:connector-curvature="0" />
    <path
       style="fill:#e9c6af"
       d="M 87.807454,265.54471 C 85.765683,265.40187 84.095143,265.16074 84.095143,265.00886 84.095143,264.85697 84.907213,262.54186 85.899743,259.86416 L 87.704342,254.99562 91.733374,255.31524 C 93.949341,255.49103 95.844534,255.70403 95.944914,255.78857 96.045294,255.87311 95.613021,258.22012 94.984308,261.00415 94.107246,264.8879 93.571044,266.03557 92.680479,265.93521 92.042086,265.86327 89.849225,265.68754 87.807454,265.54471 z"
       id="path5377"
       inkscape:connector-curvature="0" />
    <path
       style="fill:#e9c6af"
       d="M 103.54058,267.01522 C 102.37385,266.87601 100.12253,266.59433 98.537628,266.38927 L 95.655997,266.01642 96.725465,261.03541 97.794932,256.05439 104.55684,256.5485 C 108.27589,256.82026 111.43086,257.14321 111.56788,257.26617 111.7049,257.38913 111.41529,259.73759 110.9243,262.48498 109.93796,268.00422 110.2459,267.81529 103.54058,267.01522 z"
       id="path5379"
       inkscape:connector-curvature="0" />
    <path
       style="fill:#e9c6af"
       d="M 120.39315,268.62484 C 116.05026,268.18976 112.34677,267.67468 112.16316,267.48023 111.74253,267.03474 113.28132,258.55929 113.89342,257.95015 114.14276,257.70202 118.35888,257.88802 123.26258,258.36348 133.3081,259.3375 132.5845,258.69363 131.72021,265.88924 131.33497,269.09655 131.07128,269.58892 129.78181,269.50873 128.96094,269.45767 124.73604,269.05993 120.39315,268.62484 z"
       id="path5381"
       inkscape:connector-curvature="0" />
    <path
       style="fill:#e9c6af"
       d="M 206.06772,260.93949 C 205.51696,259.3817 204.33845,253.73008 204.32058,252.56089 204.30919,251.81595 206.68883,250.30805 211.29491,248.14148 215.14031,246.33271 218.57763,244.85281 218.9334,244.85281 219.28918,244.85281 220.17104,246.52335 220.8931,248.56512 221.61515,250.60689 222.3421,252.65863 222.50854,253.12454 222.68765,253.62594 219.61649,255.57384 214.98321,257.89751 210.67785,260.05674 206.98089,261.82337 206.76775,261.82337 206.55461,261.82337 206.2396,261.42563 206.06772,260.93949 z"
       id="path5383"
       inkscape:connector-curvature="0" />
    <path
       style="fill:#e9c6af"
       d=""
       id="path5385"
       inkscape:connector-curvature="0" />
    <path
       style="fill:#e9c6af"
       d="M 222.97691,249.18265 C 222.24697,246.99569 221.54452,244.82255 221.41592,244.35344 221.28728,243.88424 223.72245,242.22325 226.82878,240.66142 L 232.47547,237.82232 234.64411,241.66495 C 235.83687,243.7784 236.89623,245.84175 236.99826,246.25018 237.10028,246.65861 234.28583,248.38017 230.74392,250.07586 L 224.30407,253.15893 222.97691,249.18265 z"
       id="path5387"
       inkscape:connector-curvature="0" />
    <path
       style="fill:#e9c6af"
       d="M 236.66946,241.59151 234.0756,237.05524 239.0609,234.54468 C 241.80282,233.16387 244.13498,232.13409 244.24349,232.25628 244.35199,232.37847 245.43512,234.46215 246.65043,236.88669 L 248.86009,241.29493 244.06171,243.71136 239.26332,246.12778 236.66946,241.59151 z"
       id="path5389"
       inkscape:connector-curvature="0" />
    <path
       style="fill:#e9c6af"
       d="M 311.16008,224.52349 C 311.37992,217.55555 310.65501,218.07561 324.865,214.69135 331.86535,213.02414 337.98806,211.65078 338.47101,211.63943 339.01178,211.62672 338.36657,213.60446 336.79146,216.7877 L 334.23382,221.95661 323.18545,224.56793 C 317.10884,226.00416 311.89843,227.17833 311.60674,227.1772 311.31506,227.17607 311.11406,225.9819 311.16008,224.52349 z"
       id="path5391"
       inkscape:connector-curvature="0" />
    <path
       style="fill:#e9c6af"
       d="M 336.53226,221.02887 C 336.53226,220.8725 337.81444,218.40837 339.38154,215.55302 341.62692,211.46183 342.63856,210.28314 344.15452,209.99191 345.21254,209.78866 346.13904,209.68162 346.21341,209.75405 346.28778,209.82648 346.44687,211.90818 346.56696,214.38005 L 346.78531,218.87436 341.65878,220.09376 C 338.83919,220.76443 336.53226,221.18523 336.53226,221.02887 z"
       id="path5393"
       inkscape:connector-curvature="0" />
    <path
       style="fill:#ff8080"
       d=""
       id="path5407"
       inkscape:connector-curvature="0" />
    <path
       style="fill:#ff8080"
       d=""
       id="path5411"
       inkscape:connector-curvature="0" />
  </g>
  <g
     inkscape:groupmode="layer"
     id="layer2"
     inkscape:label="islands"
     style="display:inline"
     ignore="">
    <path
       style="fill:none;stroke:#000000;stroke-width:1px;stroke-linecap:butt;stroke-linejoin:miter;stroke-opacity:1"
       d="M 100.98695,70.99182 150.14065,76.815354 151.56682,64.777712 105.42253,59.310722 z"
       id="path4117"
       inkscape:connector-curvature="0" />
    <path
       style="fill:none;stroke:#000000;stroke-width:1px;stroke-linecap:butt;stroke-linejoin:miter;stroke-opacity:1"
       d="M 206.99219,79.129427 249.52059,53.804833 243.31864,43.389715 203.39403,67.163825 z"
       id="path4117-3"
       inkscape:connector-curvature="0" />
    <path
       style="fill:none;stroke:#000000;stroke-width:1px;stroke-linecap:butt;stroke-linejoin:miter;stroke-opacity:1"
       d="M 335.22611,45.346575 383.30776,57.100512 386.18627,45.325409 341.0484,34.291109 z"
       id="path4117-3-0"
       inkscape:connector-curvature="0" />
    <path
       style="fill:none;stroke:#000000;stroke-width:1px;stroke-linecap:butt;stroke-linejoin:miter;stroke-opacity:1"
       d="M 380.76873,117.94855 416.88025,84.096544 408.58994,75.252914 374.68935,107.03235 z"
       id="path4117-3-0-1"
       inkscape:connector-curvature="0" />
    <path
       style="fill:none;stroke:#000000;stroke-width:1px;stroke-linecap:butt;stroke-linejoin:miter;stroke-opacity:1"
       d="M 291.82186,130.57996 340.6031,122.19004 338.54842,110.24361 292.75379,118.11987 z"
       id="path4117-3-0-1-9"
       inkscape:connector-curvature="0" />
    <path
       style="fill:none;stroke:#000000;stroke-width:1.03076041px;stroke-linecap:butt;stroke-linejoin:miter;stroke-opacity:1"
       d="M 203.54505,159.41146 251.2734,138.5536 245.83577,127.57348 201.02957,147.15433 z"
       id="path4117-3-0-1-9-4"
       inkscape:connector-curvature="0" />
    <path
       style="fill:none;stroke:#000000;stroke-width:1px;stroke-linecap:butt;stroke-linejoin:miter;stroke-opacity:1"
       d="M 55.558193,147.67692 102.81168,162.41149 106.42014,150.8392 62.059728,137.00676 z"
       id="path4117-3-5"
       inkscape:connector-curvature="0" />
    <path
       style="fill:none;stroke:#000000;stroke-width:1px;stroke-linecap:butt;stroke-linejoin:miter;stroke-opacity:1"
       d="M 36.487328,162.58353 45.259339,211.2975 57.189296,209.14924 48.954337,163.41777 z"
       id="path4117-3-5-6"
       inkscape:connector-curvature="0" />
    <path
       style="fill:none;stroke:#000000;stroke-width:1px;stroke-linecap:butt;stroke-linejoin:miter;stroke-opacity:1"
       d="M 82.847004,265.79337 132.11693,270.53389 133.27787,258.46778 87.024474,254.0175 z"
       id="path4117-3-5-6-8"
       inkscape:connector-curvature="0" />
    <path
       style="fill:none;stroke:#000000;stroke-width:1px;stroke-linecap:butt;stroke-linejoin:miter;stroke-opacity:1"
       d="M 205.60963,263.45226 250.08623,241.73061 244.76664,230.83837 203.0131,251.23013 z"
       id="path4117-3-5-6-8-5"
       inkscape:connector-curvature="0" />
    <path
       style="fill:none;stroke:#000000;stroke-width:0.96260506px;stroke-linecap:butt;stroke-linejoin:miter;stroke-opacity:1"
       d="M 309.64564,228.66629 322.76044,225.52988 359.24462,216.80467 357.65368,205.97593 330.30749,212.51579 311.09138,217.11134 z"
       id="path4117-3-5-6-8-4"
       inkscape:connector-curvature="0"
       sodipodi:nodetypes="ccccccc" />
  </g>
  <g
     inkscape:groupmode="layer"
     id="layer4"
     inkscape:label="interactiveSprites"
     style="display:inline">
    <rect
       style="fill:#ff7f2a;display:inline"
       id="level1"
       width="32"
       height="29"
       x="46.507629"
       y="45.169483"
       objectType="MenuItem"
       objectHoverAction="Action=ShowImage,ImageFile=LevelMapScene_Hover_LV1.png,Sound=Hover.wav"
       objectTouchAction="Action=SceneTransition,SceneName=StageScene,Arg1=MAP01,Arg2=1,Sound=Touch.wav" />
    <rect
       style="fill:#ff7f2a;display:inline"
       id="level2"
       width="32"
       height="29"
       x="162.1701"
       y="59.513649"
       objectType="MenuItem"
       objectHoverAction="Action=ShowImage,ImageFile=LevelMapScene_Hover_LV2.png,Sound=Hover.wav"
       objectTouchAction="Action=SceneTransition,SceneName=StageScene,Arg1=MAP01,Arg2=2,Sound=Touch.wav" />
    <rect
       style="fill:#ff7f2a;display:inline"
       id="level3"
       width="32"
       height="29"
       x="279.34781"
       y="27.895876"
       objectType="MenuItem"
       objectHoverAction="Action=ShowImage,ImageFile=LevelMapScene_Hover_LV3.png,Sound=Hover.wav"
       objectTouchAction="Action=SceneTransition,SceneName=StageScene,Arg1=MAP01,Arg2=3,Sound=Touch.wav" />
    <rect
       style="fill:#ff7f2a;display:inline"
       id="level4"
       width="32"
       height="29"
       x="405.61688"
       y="44.987247"
       objectType="MenuItem"
       objectHoverAction="Action=ShowImage,ImageFile=LevelMapScene_Hover_LV4.png,Sound=Hover.wav"
       objectTouchAction="Action=SceneTransition,SceneName=StageScene,Arg1=MAP01,Arg2=4,Sound=Touch.wav" />
    <rect
       style="fill:#ff7f2a;display:inline"
       id="level5"
       width="32"
       height="29"
       x="340.9671"
       y="101.55579"
       objectType="MenuItem"
       objectHoverAction="Action=ShowImage,ImageFile=LevelMapScene_Hover_LV5.png,Sound=Hover.wav"
       objectTouchAction="Action=SceneTransition,SceneName=StageScene,Arg1=MAP01,Arg2=5,Sound=Touch.wav" />
    <rect
       style="fill:#ff7f2a;display:inline"
       id="level6"
       width="32"
       height="29"
       x="255.10413"
       y="115.71825"
       objectType="MenuItem"
       objectHoverAction="Action=ShowImage,ImageFile=LevelMapScene_Hover_LV6.png,Sound=Hover.wav"
       objectTouchAction="Action=SceneTransition,SceneName=StageScene,Arg1=MAP01,Arg2=6,Sound=Touch.wav" />
    <rect
       style="fill:#ff7f2a;display:inline"
       id="level7"
       width="32"
       height="29"
       x="132.87566"
       y="152.08372"
       objectType="MenuItem"
       objectHoverAction="Action=ShowImage,ImageFile=LevelMapScene_Hover_LV7.png,Sound=Hover.wav"
       objectTouchAction="Action=SceneTransition,SceneName=StageScene,Arg1=MAP01,Arg2=7,Sound=Touch.wav" />
    <rect
       style="fill:#ff7f2a;display:inline"
       id="level8"
       width="32"
       height="29"
       x="22.769045"
       y="123.79944"
       objectType="MenuItem"
       objectHoverAction="Action=ShowImage,ImageFile=LevelMapScene_Hover_LV8.png,Sound=Hover.wav"
       objectTouchAction="Action=SceneTransition,SceneName=StageScene,Arg1=MAP01,Arg2=8,Sound=Touch.wav" />
    <rect
       style="fill:#ff7f2a;display:inline"
       id="level9"
       width="32"
       height="29"
       x="44.992397"
       y="236.93652"
       objectType="MenuItem"
       objectHoverAction="Action=ShowImage,ImageFile=LevelMapScene_Hover_LV9.png,Sound=Hover.wav"
       objectTouchAction="Action=SceneTransition,SceneName=StageScene,Arg1=MAP01,Arg2=9,Sound=Touch.wav" />
    <rect
       style="fill:#ff7f2a;display:inline"
       id="level10"
       width="32"
       height="29"
       x="155.09903"
       y="251.07867"
       objectType="MenuItem"
       objectHoverAction="Action=ShowImage,ImageFile=LevelMapScene_Hover_LV10.png,Sound=Hover.wav"
       objectTouchAction="Action=SceneTransition,SceneName=StageScene,Arg1=MAP01,Arg2=10,Sound=Touch.wav" />
    <rect
       style="fill:#ff7f2a;display:inline"
       id="level11"
       width="32"
       height="29"
       x="262.1752"
       y="211.68271"
       objectType="MenuItem"
       objectHoverAction="Action=ShowImage,ImageFile=LevelMapScene_Hover_LV11.png,Sound=Hover.wav"
       objectTouchAction="Action=SceneTransition,SceneName=StageScene,Arg1=MAP01,Arg2=11,Sound=Touch.wav" />
    <rect
       style="fill:#ff7f2a;display:inline"
       id="level12"
       width="32"
       height="29"
       x="363.94174"
       y="192.99744"
       objectType="MenuItem"
       objectHoverAction="Action=ShowImage,ImageFile=LevelMapScene_Hover_LV12.png,Sound=Hover.mp3"
       objectTouchAction="Action=SceneTransition,SceneName=StageScene,Arg1=MAP01,Arg2=12,Sound=Touch.mp3" />
    <text
       xml:space="preserve"
       style="font-size:20px;font-style:normal;font-variant:normal;font-weight:normal;font-stretch:normal;text-align:start;line-height:125%;letter-spacing:0px;word-spacing:0px;writing-mode:lr-tb;text-anchor:start;fill:#000000;fill-opacity:1;stroke:none;display:inline;font-family:Sans;-inkscape-font-specification:Sans"
       x="57.538086"
       y="66.350189"
       id="text3021"
       sodipodi:linespacing="125%"><tspan
         sodipodi:role="line"
         id="tspan3023"
         x="57.538086"
         y="66.350189">1</tspan></text>
    <text
       xml:space="preserve"
       style="font-size:20px;font-style:normal;font-variant:normal;font-weight:normal;font-stretch:normal;text-align:start;line-height:125%;letter-spacing:0px;word-spacing:0px;writing-mode:lr-tb;text-anchor:start;fill:#000000;fill-opacity:1;stroke:none;display:inline;font-family:Sans;-inkscape-font-specification:Sans"
       x="172.92845"
       y="80.715157"
       id="text3021-4"
       sodipodi:linespacing="125%"><tspan
         sodipodi:role="line"
         id="tspan3256"
         x="172.92845"
         y="80.715157">2</tspan></text>
    <text
       xml:space="preserve"
       style="font-size:20px;font-style:normal;font-variant:normal;font-weight:normal;font-stretch:normal;text-align:start;line-height:125%;letter-spacing:0px;word-spacing:0px;writing-mode:lr-tb;text-anchor:start;fill:#000000;fill-opacity:1;stroke:none;display:inline;font-family:Sans;-inkscape-font-specification:Sans"
       x="289.09601"
       y="49.400433"
       id="text3021-4-0"
       sodipodi:linespacing="125%"><tspan
         sodipodi:role="line"
         id="tspan3258"
         x="289.09601"
         y="49.400433">3</tspan></text>
    <text
       xml:space="preserve"
       style="font-size:20px;font-style:normal;font-variant:normal;font-weight:normal;font-stretch:normal;text-align:start;line-height:125%;letter-spacing:0px;word-spacing:0px;writing-mode:lr-tb;text-anchor:start;fill:#000000;fill-opacity:1;stroke:none;display:inline;font-family:Sans;-inkscape-font-specification:Sans"
       x="417.38535"
       y="66.573036"
       id="text3021-4-0-6"
       sodipodi:linespacing="125%"><tspan
         sodipodi:role="line"
         id="tspan3260"
         x="417.38535"
         y="66.573036">4</tspan></text>
    <text
       xml:space="preserve"
       style="font-size:20px;font-style:normal;font-variant:normal;font-weight:normal;font-stretch:normal;text-align:start;line-height:125%;letter-spacing:0px;word-spacing:0px;writing-mode:lr-tb;text-anchor:start;fill:#000000;fill-opacity:1;stroke:none;display:inline;font-family:Sans;-inkscape-font-specification:Sans"
       x="352.7356"
       y="122.13142"
       id="text3021-4-0-6-3"
       sodipodi:linespacing="125%"><tspan
         sodipodi:role="line"
         id="tspan3262"
         x="352.7356"
         y="122.13142">5</tspan></text>
    <text
       xml:space="preserve"
       style="font-size:20px;font-style:normal;font-variant:normal;font-weight:normal;font-stretch:normal;text-align:start;line-height:125%;letter-spacing:0px;word-spacing:0px;writing-mode:lr-tb;text-anchor:start;fill:#000000;fill-opacity:1;stroke:none;display:inline;font-family:Sans;-inkscape-font-specification:Sans"
       x="265.86249"
       y="137.28369"
       id="text3021-4-0-6-3-6"
       sodipodi:linespacing="125%"><tspan
         sodipodi:role="line"
         id="tspan3264"
         x="265.86249"
         y="137.28369">6</tspan></text>
    <text
       xml:space="preserve"
       style="font-size:20px;font-style:normal;font-variant:normal;font-weight:normal;font-stretch:normal;text-align:start;line-height:125%;letter-spacing:0px;word-spacing:0px;writing-mode:lr-tb;text-anchor:start;fill:#000000;fill-opacity:1;stroke:none;display:inline;font-family:Sans;-inkscape-font-specification:Sans"
       x="143.63403"
       y="174.65935"
       id="text3021-4-0-6-3-6-4"
       sodipodi:linespacing="125%"><tspan
         sodipodi:role="line"
         id="tspan3266"
         x="143.63403"
         y="174.65935">7</tspan></text>
    <text
       xml:space="preserve"
       style="font-size:20px;font-style:normal;font-variant:normal;font-weight:normal;font-stretch:normal;text-align:start;line-height:125%;letter-spacing:0px;word-spacing:0px;writing-mode:lr-tb;text-anchor:start;fill:#000000;fill-opacity:1;stroke:none;display:inline;font-family:Sans;-inkscape-font-specification:Sans"
       x="33.527401"
       y="146.37508"
       id="text3021-4-0-6-3-6-4-3"
       sodipodi:linespacing="125%"><tspan
         sodipodi:role="line"
         id="tspan3268"
         x="33.527401"
         y="146.37508">8</tspan></text>
    <text
       xml:space="preserve"
       style="font-size:20px;font-style:normal;font-variant:normal;font-weight:normal;font-stretch:normal;text-align:start;line-height:125%;letter-spacing:0px;word-spacing:0px;writing-mode:lr-tb;text-anchor:start;fill:#000000;fill-opacity:1;stroke:none;display:inline;font-family:Sans;-inkscape-font-specification:Sans"
       x="55.750755"
       y="259.51218"
       id="text3021-4-0-6-3-6-4-3-8"
       sodipodi:linespacing="125%"><tspan
         sodipodi:role="line"
         id="tspan3270"
         x="55.750755"
         y="259.51218">9</tspan></text>
    <text
       xml:space="preserve"
       style="font-size:20px;font-style:normal;font-variant:normal;font-weight:normal;font-stretch:normal;text-align:start;line-height:125%;letter-spacing:0px;word-spacing:0px;writing-mode:lr-tb;text-anchor:start;fill:#000000;fill-opacity:1;stroke:none;display:inline;font-family:Sans;-inkscape-font-specification:Sans"
       x="159.85738"
       y="273.6543"
       id="text3021-4-0-6-3-6-4-3-8-3"
       sodipodi:linespacing="125%"><tspan
         sodipodi:role="line"
         id="tspan3272"
         x="159.85738"
         y="273.6543">10</tspan></text>
    <text
       xml:space="preserve"
       style="font-size:20px;font-style:normal;font-variant:normal;font-weight:normal;font-stretch:normal;text-align:start;line-height:125%;letter-spacing:0px;word-spacing:0px;writing-mode:lr-tb;text-anchor:start;fill:#000000;fill-opacity:1;stroke:none;display:inline;font-family:Sans;-inkscape-font-specification:Sans"
       x="264.93356"
       y="234.25833"
       id="text3021-4-0-6-3-6-4-3-8-3-1"
       sodipodi:linespacing="125%"><tspan
         sodipodi:role="line"
         id="tspan3274"
         x="264.93356"
         y="234.25833">11</tspan></text>
    <text
       xml:space="preserve"
       style="font-size:20px;font-style:normal;font-variant:normal;font-weight:normal;font-stretch:normal;text-align:start;line-height:125%;letter-spacing:0px;word-spacing:0px;writing-mode:lr-tb;text-anchor:start;fill:#000000;fill-opacity:1;stroke:none;display:inline;font-family:Sans;-inkscape-font-specification:Sans"
       x="366.7001"
       y="214.56293"
       id="text3021-4-0-6-3-6-4-3-8-3-1-3"
       sodipodi:linespacing="125%"><tspan
         sodipodi:role="line"
         id="tspan3276"
         x="366.7001"
         y="214.56293">12</tspan></text>
    <rect
       style="fill:#ff9955;fill-rule:evenodd;stroke:#000000;stroke-width:1px;stroke-linecap:butt;stroke-linejoin:miter;stroke-opacity:1;display:inline"
       id="BackObject"
       width="141"
       height="40"
       x="324.64423"
       y="268.18018"
       objectType="MenuItem"
       objectTouchAction="Action=SceneTransition,SceneName=MainMenuScene,Arg1=Null,Sound=Touch.mp3"
       objectHoverAction="Action=ShowImage,ImageFile=Common_Hover_Back.png,Sound=Hover.mp3" />
    <text
       xml:space="preserve"
       style="font-size:40px;font-style:normal;font-variant:normal;font-weight:normal;font-stretch:normal;text-align:start;line-height:125%;letter-spacing:0px;word-spacing:0px;writing-mode:lr-tb;text-anchor:start;fill:#000000;fill-opacity:1;stroke:none;display:inline;font-family:Sans;-inkscape-font-specification:Sans"
       x="347.07062"
       y="303.37314"
       id="text3985"
       sodipodi:linespacing="125%"><tspan
         sodipodi:role="line"
         id="tspan4824"
         x="347.07062"
         y="303.37314">Back</tspan></text>
  </g>
</svg>
