<?xml version="1.0" encoding="UTF-8" standalone="no"?>
<!-- Created with Inkscape (http://www.inkscape.org/) -->

<svg
 xmlns:dc="http://purl.org/dc/elements/1.1/"
 xmlns:cc="http://creativecommons.org/ns#"
 xmlns:rdf="http://www.w3.org/1999/02/22-rdf-syntax-ns#"
 xmlns:svg="http://www.w3.org/2000/svg"
 xmlns="http://www.w3.org/2000/svg"
 xmlns:sodipodi="http://sodipodi.sourceforge.net/DTD/sodipodi-0.dtd"
 xmlns:inkscape="http://www.inkscape.org/namespaces/inkscape"
 width="480"
 height="320"
 id="svg4051"
 version="1.1"
 inkscape:version="0.48.1 r9760"
 sodipodi:docname="LevelMapScene.svg">
<defs
 id="defs4053" />
<sodipodi:namedview
 id="base"
 pagecolor="#ffffff"
 bordercolor="#666666"
 borderopacity="1.0"
 inkscape:pageopacity="0.0"
 inkscape:pageshadow="2"
 inkscape:zoom="1.4142136"
 inkscape:cx="317.70426"
 inkscape:cy="201.55069"
 inkscape:document-units="px"
 inkscape:current-layer="layer2"
 showgrid="false"
 inkscape:window-width="1028"
 inkscape:window-height="660"
 inkscape:window-x="2119"
 inkscape:window-y="21"
 inkscape:window-maximized="0" />
<metadata
 id="metadata4056">
<rdf:RDF>
<cc:Work
 rdf:about="">
<dc:format>image/svg+xml</dc:format>
<dc:type
 rdf:resource="http://purl.org/dc/dcmitype/StillImage" />
<dc:title />
</cc:Work>
</rdf:RDF>
</metadata>
<g
 inkscape:label="Layer 1"
 inkscape:groupmode="layer"
 id="layer1">
<path
 style="fill:none;stroke:#000000;stroke-width:1px;stroke-linecap:butt;stroke-linejoin:miter;stroke-opacity:1"
 d="M 68.690373,80.138617 C 59.821383,89.254782 52.979254,95.479548 39.395949,99.331517 C 28.558893,93.332696 17.790557,87.265156 16.16244,72.057397 C 14.49187,57.91526 12.848533,43.773124 22.223356,29.630987 C 45.009452,15.954796 69.288456,18.700589 93.944186,25.590377 C 116.16314,41.080362 118.07771,61.082434 124.24877,80.138617 C 125.99801,98.099721 112.59919,96.535822 101.01526,97.311207 C 95.697782,85.038029 87.624327,74.092125 68.690373,80.138617 z"
 id="path4078"
 inkscape:connector-curvature="0"
 sodipodi:nodetypes="cccccccc" />
<path
 style="fill:none;stroke:#000000;stroke-width:1px;stroke-linecap:butt;stroke-linejoin:miter;stroke-opacity:1"
 d="M 94.954339,117.51426 L 75.76144,152.8696 L 91.923881,213.47876 L 171.72594,221.55998 L 227.28433,169.03204 L 200.01021,134.68686 L 145.46197,133.6767 L 132.32999,110.4432 L 117.1777,108.42289 z"
 id="path4080"
 inkscape:connector-curvature="0" />
<path
 style="fill:none;stroke:#000000;stroke-width:1px;stroke-linecap:butt;stroke-linejoin:miter;stroke-opacity:1"
 d="M 121.21831,36.702057 C 141.69405,50.47886 133.72034,68.997241 133.03709,86.300542 C 133.17853,103.1364 143.43396,107.32977 150.51273,115.49396 C 164.82811,113.22917 189.96007,134.14277 192.43407,106.50361 C 183.29252,89.476092 232.71368,93.444304 221.22341,60.945717 C 213.36035,62.928086 207.27232,75.560682 195.9696,56.905107 C 193.82924,43.740919 183.08396,36.313343 169.70563,30.641137 C 153.28299,27.036715 137.9269,27.16517 125.25892,36.702057 z"
 id="path4082"
 inkscape:connector-curvature="0"
 sodipodi:nodetypes="ccccccccc" />
<path
 style="fill:none;stroke:#000000;stroke-width:1px;stroke-linecap:butt;stroke-linejoin:miter;stroke-opacity:1"
 d="M 226.27417,33.671597 L 244.45692,73.067547 L 320.21836,74.077697 L 352.54324,52.864497 L 349.51278,18.519307 L 278.80211,9.4279373 z"
 id="path4084"
 inkscape:connector-curvature="0" />
<path
 style="fill:none;stroke:#000000;stroke-width:1px;stroke-linecap:butt;stroke-linejoin:miter;stroke-opacity:1"
 d="M 371.73614,21.549767 L 364.66507,65.996477 L 361.63461,77.108157 L 436.3859,99.331517 L 450.52804,132.66655 L 467.09454,132.06046 L 466.48845,21.246724 z"
 id="path4086"
 inkscape:connector-curvature="0"
 sodipodi:nodetypes="cccccccc" />
<path
 style="fill:none;stroke:#000000;stroke-width:1px;stroke-linecap:butt;stroke-linejoin:miter;stroke-opacity:1"
 d="M 427.29453,112.4635 L 352.54324,86.199527 L 307.08638,89.229987 L 330.31988,138.72747 L 443.45697,139.73762 z"
 id="path4088"
 inkscape:connector-curvature="0" />
<path
 style="fill:none;stroke:#000000;stroke-width:1px;stroke-linecap:butt;stroke-linejoin:miter;stroke-opacity:1"
 d="M 246.47722,93.270597 L 285.87317,97.311207 L 326.27927,146.80869 L 278.80211,175.09296 L 243.44677,161.96098 z"
 id="path4090"
 inkscape:connector-curvature="0" />
<path
 style="fill:none;stroke:#000000;stroke-width:1px;stroke-linecap:butt;stroke-linejoin:miter;stroke-opacity:1"
 d="M 63.63961,179.13357 L 17.677669,191.2554 L 30.304576,272.06764 L 87.883271,295.30114 L 97.984796,251.86455 z"
 id="path4092"
 inkscape:connector-curvature="0"
 sodipodi:nodetypes="cccccc" />
<path
 style="fill:none;stroke:#000000;stroke-width:1px;stroke-linecap:butt;stroke-linejoin:miter;stroke-opacity:1"
 d="M 63.63961,161.96098 L 16.667517,172.36554 L 16.364471,109.73609 L 61.619305,110.4432 z"
 id="path4094"
 inkscape:connector-curvature="0"
 sodipodi:nodetypes="ccccc" />
<path
 style="fill:none;stroke:#000000;stroke-width:1px;stroke-linecap:butt;stroke-linejoin:miter;stroke-opacity:1"
 d="M 116.16755,239.74272 C 116.16755,239.74272 107.07617,287.21994 106.06602,292.27064 C 105.05587,297.32144 203.04066,302.37214 203.04066,302.37214 L 229.30463,270.04734 L 213.14219,223.58028 z"
 id="path4096"
 inkscape:connector-curvature="0" />
<path
 style="fill:none;stroke:#000000;stroke-width:1px;stroke-linecap:butt;stroke-linejoin:miter;stroke-opacity:1"
 d="M 243.44677,185.19448 L 220.21326,214.48891 L 245.46707,258.93562 L 315.1676,260.95592 L 341.43156,209.43815 L 280.82241,182.16403 z"
 id="path4098"
 inkscape:connector-curvature="0" />
<text
 xml:space="preserve"
 style="font-size:25px;font-style:normal;font-variant:normal;font-weight:normal;font-stretch:normal;text-align:start;line-height:125%;letter-spacing:0px;word-spacing:0px;writing-mode:lr-tb;text-anchor:start;fill:#000000;fill-opacity:1;stroke:none;font-family:Sans;-inkscape-font-specification:Sans"
 x="397.71582"
 y="180.8138"
 id="text4106"
 sodipodi:linespacing="125%"><tspan
 sodipodi:role="line"
 id="tspan4108"
 x="397.71582"
 y="180.8138">King </tspan><tspan
 sodipodi:role="line"
 x="397.71582"
 y="212.0638"
 id="tspan4110">Wang</tspan></text>
<path
 style="fill:none;stroke:#000000;stroke-width:1px;stroke-linecap:butt;stroke-linejoin:miter;stroke-opacity:1"
 d="M 380.7869,151.2757 L 346.44172,203.80364 L 351.18944,245.0179 L 399.07066,236.02755 L 458.97271,249.66455 L 469.37728,204.81379 L 468.67017,142.18433 L 421.193,150.26555 z"
 id="path4112"
 inkscape:connector-curvature="0"
 sodipodi:nodetypes="ccccccccc" />
<path
 style="fill:#e9c6af"
 d="M 126.04859,73.218032 L 123.10077,72.950161 L 121.62918,68.105275 C 119.89977,62.411589 119.82037,61.431452 121.1292,61.933698 C 121.66359,62.138762 124.69346,62.532701 127.86225,62.809118 C 131.03104,63.085536 133.80016,63.597225 134.01584,63.946207 C 134.23152,64.295188 134.18746,66.639976 133.91793,69.156847 L 133.42787,73.732975 L 131.21214,73.609438 C 129.9935,73.541493 127.6699,73.36536 126.04859,73.218032 z"
 id="path5319"
 inkscape:connector-curvature="0" />
<path
 style="fill:#e9c6af"
 d="M 140.88935,74.948979 L 135.10462,74.255151 L 135.50708,69.221092 C 135.72843,66.45236 135.97585,64.103234 136.05689,64.000812 C 136.13793,63.89839 139.44558,64.183168 143.40722,64.633653 L 150.61021,65.452716 L 150.17767,69.769622 C 149.93978,72.143921 149.62099,74.484276 149.46924,74.970412 C 149.16589,75.942266 149.1709,75.942278 140.88935,74.948979 z"
 id="path5321"
 inkscape:connector-curvature="0" />
<path
 style="fill:#e9c6af"
 d="M 110.04527,71.247702 C 106.23359,70.760044 102.96815,70.214267 102.78875,70.034865 C 102.60934,69.855462 103.23636,67.670813 104.18211,65.180089 L 105.90166,60.6515 L 108.96376,60.788798 C 110.64791,60.864313 113.36052,61.119806 114.99177,61.356563 C 117.90114,61.778823 117.97941,61.86382 119.09767,65.815458 C 119.72466,68.031094 120.40018,70.400734 120.59882,71.081325 C 121.02686,72.547867 120.29762,72.559363 110.04527,71.247702 z"
 id="path5323"
 inkscape:connector-curvature="0" />
<path
 style="fill:#e9c6af"
 d="M 206.89003,76.05177 C 206.65532,74.970887 206.00449,72.614896 205.44373,70.816235 L 204.42418,67.545943 L 207.61952,67.481805 C 209.87289,67.436575 212.17746,66.66868 215.43714,64.876939 C 217.9794,63.479538 220.31639,62.593546 220.63045,62.908068 C 220.94451,63.22259 221.40005,64.752719 221.64275,66.308354 L 222.08404,69.136781 L 216.19887,72.61823 C 212.96203,74.533028 209.63939,76.53108 208.81524,77.058345 C 207.43476,77.94153 207.28318,77.862277 206.89003,76.05177 z"
 id="path5325"
 inkscape:connector-curvature="0" />
<path
 style="fill:#e9c6af"
 d=""
 id="path5327"
 inkscape:connector-curvature="0" />
<path
 style="fill:#e9c6af"
 d="M 223.39123,66.908529 C 223.38906,66.189524 223.04797,64.379256 222.63325,62.88571 C 221.94418,60.40416 221.71604,60.210762 219.98554,60.641221 C 218.94402,60.900298 216.589,62.034528 214.75215,63.161732 C 211.80911,64.967771 206.89061,66.816225 207.83883,65.759876 C 208.03328,65.543247 213.80848,62.033314 220.6726,57.960025 L 233.15283,50.554047 L 235.23754,55.273901 L 237.32226,59.993756 L 233.01037,62.542283 C 222.42499,68.798733 223.3956,68.358157 223.39123,66.908529 z"
 id="path5329"
 inkscape:connector-curvature="0" />
<path
 style="fill:#e9c6af"
 d="M 236.8708,54.530512 C 234.56251,49.488592 234.53297,49.570255 239.74448,46.585409 L 243.01231,44.713789 L 245.62189,49.094503 C 247.631,52.467201 248.01801,53.606112 247.30381,54.044076 C 246.79359,54.356949 244.6995,55.603653 242.65027,56.81453 L 238.9244,59.016124 L 236.8708,54.530512 z"
 id="path5331"
 inkscape:connector-curvature="0" />
<path
 style="fill:#e9c6af"
 d="M 345.72465,47.113333 C 343.58565,46.543919 340.62816,45.761261 339.15245,45.374092 L 336.46935,44.670148 L 338.72821,40.640009 C 339.97059,38.423433 341.19567,36.369454 341.4506,36.075612 C 342.09899,35.328277 350.04584,37.013656 350.32593,37.957905 C 350.4521,38.383212 350.72924,40.879027 350.9418,43.504161 C 351.37611,48.867681 351.63696,48.687224 345.72465,47.113333 z"
 id="path5333"
 inkscape:connector-curvature="0" />
<path
 style="fill:#e9c6af"
 d="M 358.62934,50.187222 C 352.85976,48.729816 352.79571,48.689034 352.79571,46.472756 C 352.79571,45.240271 352.59709,42.78273 352.35432,41.011553 L 351.91292,37.791232 L 359.24861,39.59713 C 363.28324,40.590374 366.81268,41.603006 367.09182,41.847423 C 367.86885,42.527805 366.13042,51.823259 365.24233,51.736736 C 364.81368,51.694975 361.83784,50.997694 358.62934,50.187222 z"
 id="path5335"
 inkscape:connector-curvature="0" />
<path
 style="fill:#e9c6af"
 d="M 374.48623,54.121836 C 368.14607,52.487904 367.57099,52.200618 367.90595,50.834612 C 368.10782,50.011361 368.48381,47.720521 368.74147,45.743856 L 369.20996,42.14992 L 376.38241,43.817397 C 380.32726,44.734509 383.92293,45.61446 384.37279,45.772842 C 385.34315,46.114477 383.21248,55.508019 382.10769,55.759056 C 381.7369,55.843308 378.30725,55.106558 374.48623,54.121836 z"
 id="path5337"
 inkscape:connector-curvature="0" />
<path
 style="fill:#e9c6af"
 d="M 402.51593,88.425867 L 397.43537,86.980294 L 402.86948,81.824106 L 408.30359,76.667918 L 412.05653,80.326971 L 415.80946,83.986023 L 412.41008,86.976684 C 410.54042,88.621547 408.6925,89.945766 408.30359,89.919391 C 407.91469,89.893018 405.31024,89.220932 402.51593,88.425867 z"
 id="path5339"
 inkscape:connector-curvature="0" />
<path
 style="fill:#e9c6af"
 d=""
 id="path5341"
 inkscape:connector-curvature="0" />
<path
 style="fill:#e9c6af"
 d="M 393.1008,99.566775 C 391.73962,99.05164 389.76473,98.291709 388.71217,97.878039 L 386.79841,97.125912 L 391.3406,92.764275 L 395.8828,88.402638 L 398.91121,89.170144 C 400.57684,89.592272 403.17271,90.366894 404.67981,90.891526 L 407.41998,91.845401 L 402.5683,96.224217 C 399.89988,98.632565 397.23491,100.58061 396.64615,100.55321 C 396.05739,100.5258 394.46198,100.08191 393.1008,99.566775 z"
 id="path5343"
 inkscape:connector-curvature="0" />
<path
 style="fill:#e9c6af"
 d="M 378.34981,111.81664 L 375.97319,107.49069 L 380.48647,102.9774 L 384.99975,98.464123 L 390.48704,100.46468 L 395.97432,102.46523 L 388.59055,109.31231 C 384.52948,113.0782 381.0987,116.15561 380.96661,116.15099 C 380.83451,116.14638 379.65695,114.19592 378.34981,111.81664 z"
 id="path5345"
 inkscape:connector-curvature="0" />
<path
 style="fill:#e9c6af"
 d="M 322.14075,119.19468 L 319.67302,114.29443 L 327.21876,113.08852 C 331.36891,112.42527 335.44301,111.70387 336.27232,111.4854 C 337.64323,111.12426 337.85191,111.50026 338.57042,115.62625 C 339.00506,118.12218 339.36068,120.49234 339.36068,120.89326 C 339.36068,121.29418 336.89465,122.01401 333.88061,122.49289 C 330.86656,122.97177 327.54732,123.52813 326.5045,123.72925 C 324.7567,124.06634 324.41555,123.71183 322.14075,119.19468 z"
 id="path5347"
 inkscape:connector-curvature="0" />
<path
 style="fill:#e9c6af"
 d="M 306.91327,121.64016 L 303.29451,117.22145 L 309.83711,116.01898 C 313.43554,115.35761 316.77429,114.80045 317.25656,114.78083 C 317.99363,114.75085 322.76404,123.89571 322.2196,124.29497 C 321.77748,124.6192 313.51839,126.05888 312.1005,126.05888 C 311.03399,126.05888 309.37388,124.64472 306.91327,121.64016 z"
 id="path5349"
 inkscape:connector-curvature="0" />
<path
 style="fill:#e9c6af"
 d="M 292.93788,126.39545 C 293.19136,124.54614 293.39875,122.14432 293.39875,121.05809 C 293.39875,118.98246 293.7657,118.7591 298.47991,117.96536 C 300.99276,117.54226 301.21686,117.68353 304.73066,121.9058 C 307.40554,125.11999 308.12306,126.4169 307.42767,126.78062 C 306.90657,127.05318 303.93464,127.65913 300.82337,128.12718 C 297.7121,128.59523 294.56137,129.1536 293.82176,129.368 C 292.59181,129.72455 292.51636,129.4708 292.93788,126.39545 z"
 id="path5351"
 inkscape:connector-curvature="0" />
<path
 style="fill:#e9c6af"
 d="M 212.54996,148.91832 C 209.87335,145.5443 209.49205,144.71966 210.37908,144.22326 C 211.62378,143.52669 243.33348,129.59441 243.67416,129.59441 C 243.79907,129.59441 243.90127,131.97356 243.90127,134.88141 C 243.90127,139.58911 243.72695,140.28072 242.31028,141.19344 C 241.11282,141.96493 223.33129,149.90934 216.59081,152.68435 C 216.15414,152.86413 214.33575,151.16942 212.54996,148.91832 z"
 id="path5353"
 inkscape:connector-curvature="0" />
<path
 style="fill:#e9c6af"
 d=""
 id="path5355"
 inkscape:connector-curvature="0" />
<path
 style="fill:#e9c6af"
 d=""
 id="path5357"
 inkscape:connector-curvature="0" />
<path
 style="fill:#e9c6af"
 d="M 245.31549,135.58966 C 245.31549,133.07009 245.57929,131.00862 245.90172,131.00862 C 246.54716,131.00862 249.97792,137.94671 249.50126,138.28801 C 249.33808,138.40485 248.32953,138.87625 247.26003,139.33557 L 245.31549,140.17069 L 245.31549,135.58966 z"
 id="path5359"
 inkscape:connector-curvature="0" />
<path
 style="fill:#e9c6af"
 d="M 204.00245,157.06816 C 203.59468,155.82011 202.18197,148.79368 202.18197,148.01355 C 202.18197,147.46217 205.89943,145.85786 207.17709,145.85786 C 207.80609,145.85786 213.49568,152.86002 213.49568,153.63413 C 213.49568,154.0705 211.43846,155.06827 205.19314,157.66095 C 204.71028,157.8614 204.17447,157.59465 204.00245,157.06816 z"
 id="path5361"
 inkscape:connector-curvature="0" />
<path
 style="fill:#e9c6af"
 d="M 89.783093,157.4202 C 82.994293,155.3083 77.305303,153.44586 77.140894,153.28145 C 76.976484,153.11704 77.891506,150.95825 79.174275,148.48413 L 81.506582,143.98574 L 93.230687,147.65241 C 106.36578,151.76037 105.65455,151.0442 103.31798,157.80971 L 102.12637,161.26001 L 89.783093,157.4202 z"
 id="path5363"
 inkscape:connector-curvature="0" />
<path
 style="fill:#e9c6af"
 d="M 26.819496,139.4939 L 26.819496,128.1802 L 39.193864,128.1802 L 51.568232,128.1802 L 51.568232,139.4939 L 51.568232,150.80761 L 39.193864,150.80761 L 26.819496,150.80761 L 26.819496,139.4939 z M 43.234509,144.92974 C 44.014659,143.70281 43.90724,139.64979 43.081039,139.13917 C 42.607095,138.84625 42.607129,138.26167 43.08114,137.37597 C 45.187348,133.44048 39.323886,129.77907 35.890785,132.88598 C 34.521539,134.12513 34.145299,137.00954 35.262821,137.70021 C 35.644614,137.93617 35.418691,139.00475 34.732491,140.20858 C 33.652324,142.10356 33.640345,142.49139 34.608299,144.22927 C 35.197507,145.28714 36.4703,146.35233 37.436726,146.59636 C 39.39095,147.0898 42.413486,146.22095 43.234509,144.92974 z"
 id="path5365"
 inkscape:connector-curvature="0" />
<path
 style="fill:#e9c6af"
 d="M 59.372305,147.90134 C 58.414277,147.51891 57.520851,147.09644 57.386915,146.9625 C 57.108361,146.68395 61.435729,139.4939 61.881932,139.4939 C 62.043028,139.4939 62.174834,141.56219 62.174834,144.0901 C 62.174834,148.93307 62.125396,149.00031 59.372305,147.90134 z"
 id="path5367"
 inkscape:connector-curvature="0" />
<path
 style="fill:#e9c6af"
 d="M 69.748613,151.26166 C 67.108289,150.42532 64.647127,149.26507 64.279364,148.68334 C 63.488947,147.43303 63.349106,138.78538 64.119377,138.78993 C 64.411059,138.79165 68.032614,139.83065 72.167276,141.09881 L 79.684846,143.40455 L 77.28405,148.16674 C 75.963613,150.78595 74.808093,152.89594 74.716229,152.85561 C 74.624364,152.81528 72.388937,152.09801 69.748613,151.26166 z"
 id="path5369"
 inkscape:connector-curvature="0" />
<path
 style="fill:#e9c6af"
 d="M 37.924524,164.41942 C 37.719074,163.34992 37.673986,162.35028 37.824328,162.19801 C 38.398152,161.61681 48.379211,163.21602 48.244443,163.86757 C 48.108974,164.52251 41.876108,166.27115 39.453073,166.334 C 38.743628,166.3524 38.153969,165.61383 37.924524,164.41942 z"
 id="path5371"
 inkscape:connector-curvature="0" />
<path
 style="fill:#e9c6af"
 d="M 41.372276,183.2065 C 40.421331,180.14293 38.866097,168.89636 39.337104,168.48929 C 40.166077,167.77285 48.076128,166.17169 48.532412,166.62797 C 49.214835,167.3104 51.480099,180.84211 50.983678,181.27078 C 50.72182,181.4969 49.075681,182.07403 47.325592,182.5533 C 45.575503,183.03257 43.585197,183.58544 42.902691,183.78192 C 42.220186,183.97839 41.531499,183.71945 41.372276,183.2065 z"
 id="path5373"
 inkscape:connector-curvature="0" />
<path
 style="fill:#e9c6af"
 d="M 45.911378,208.62856 C 45.911378,208.20352 42.442472,189.01943 42.032792,187.17882 C 41.745759,185.88925 42.292459,185.57956 46.740785,184.51197 C 49.50879,183.84765 51.832198,183.3905 51.903914,183.49609 C 52.161232,183.87495 55.810873,204.97355 55.810873,206.08225 C 55.810873,206.89488 54.860433,207.3527 52.452116,207.70016 C 50.604799,207.96668 48.377413,208.35551 47.502369,208.56421 C 46.627324,208.77292 45.911378,208.80188 45.911378,208.62856 z"
 id="path5375"
 inkscape:connector-curvature="0" />
<path
 style="fill:#e9c6af"
 d="M 87.807454,265.54471 C 85.765683,265.40187 84.095143,265.16074 84.095143,265.00886 C 84.095143,264.85697 84.907213,262.54186 85.899743,259.86416 L 87.704342,254.99562 L 91.733374,255.31524 C 93.949341,255.49103 95.844534,255.70403 95.944914,255.78857 C 96.045294,255.87311 95.613021,258.22012 94.984308,261.00415 C 94.107246,264.8879 93.571044,266.03557 92.680479,265.93521 C 92.042086,265.86327 89.849225,265.68754 87.807454,265.54471 z"
 id="path5377"
 inkscape:connector-curvature="0" />
<path
 style="fill:#e9c6af"
 d="M 103.54058,267.01522 C 102.37385,266.87601 100.12253,266.59433 98.537628,266.38927 L 95.655997,266.01642 L 96.725465,261.03541 L 97.794932,256.05439 L 104.55684,256.5485 C 108.27589,256.82026 111.43086,257.14321 111.56788,257.26617 C 111.7049,257.38913 111.41529,259.73759 110.9243,262.48498 C 109.93796,268.00422 110.2459,267.81529 103.54058,267.01522 z"
 id="path5379"
 inkscape:connector-curvature="0" />
<path
 style="fill:#e9c6af"
 d="M 120.39315,268.62484 C 116.05026,268.18976 112.34677,267.67468 112.16316,267.48023 C 111.74253,267.03474 113.28132,258.55929 113.89342,257.95015 C 114.14276,257.70202 118.35888,257.88802 123.26258,258.36348 C 133.3081,259.3375 132.5845,258.69363 131.72021,265.88924 C 131.33497,269.09655 131.07128,269.58892 129.78181,269.50873 C 128.96094,269.45767 124.73604,269.05993 120.39315,268.62484 z"
 id="path5381"
 inkscape:connector-curvature="0" />
<path
 style="fill:#e9c6af"
 d="M 206.06772,260.93949 C 205.51696,259.3817 204.33845,253.73008 204.32058,252.56089 C 204.30919,251.81595 206.68883,250.30805 211.29491,248.14148 C 215.14031,246.33271 218.57763,244.85281 218.9334,244.85281 C 219.28918,244.85281 220.17104,246.52335 220.8931,248.56512 C 221.61515,250.60689 222.3421,252.65863 222.50854,253.12454 C 222.68765,253.62594 219.61649,255.57384 214.98321,257.89751 C 210.67785,260.05674 206.98089,261.82337 206.76775,261.82337 C 206.55461,261.82337 206.2396,261.42563 206.06772,260.93949 z"
 id="path5383"
 inkscape:connector-curvature="0" />
<path
 style="fill:#e9c6af"
 d=""
 id="path5385"
 inkscape:connector-curvature="0" />
<path
 style="fill:#e9c6af"
 d="M 222.97691,249.18265 C 222.24697,246.99569 221.54452,244.82255 221.41592,244.35344 C 221.28728,243.88424 223.72245,242.22325 226.82878,240.66142 L 232.47547,237.82232 L 234.64411,241.66495 C 235.83687,243.7784 236.89623,245.84175 236.99826,246.25018 C 237.10028,246.65861 234.28583,248.38017 230.74392,250.07586 L 224.30407,253.15893 L 222.97691,249.18265 z"
 id="path5387"
 inkscape:connector-curvature="0" />
<path
 style="fill:#e9c6af"
 d="M 236.66946,241.59151 L 234.0756,237.05524 L 239.0609,234.54468 C 241.80282,233.16387 244.13498,232.13409 244.24349,232.25628 C 244.35199,232.37847 245.43512,234.46215 246.65043,236.88669 L 248.86009,241.29493 L 244.06171,243.71136 L 239.26332,246.12778 L 236.66946,241.59151 z"
 id="path5389"
 inkscape:connector-curvature="0" />
<path
 style="fill:#e9c6af"
 d="M 311.16008,224.52349 C 311.37992,217.55555 310.65501,218.07561 324.865,214.69135 C 331.86535,213.02414 337.98806,211.65078 338.47101,211.63943 C 339.01178,211.62672 338.36657,213.60446 336.79146,216.7877 L 334.23382,221.95661 L 323.18545,224.56793 C 317.10884,226.00416 311.89843,227.17833 311.60674,227.1772 C 311.31506,227.17607 311.11406,225.9819 311.16008,224.52349 z"
 id="path5391"
 inkscape:connector-curvature="0" />
<path
 style="fill:#e9c6af"
 d="M 336.53226,221.02887 C 336.53226,220.8725 337.81444,218.40837 339.38154,215.55302 C 341.62692,211.46183 342.63856,210.28314 344.15452,209.99191 C 345.21254,209.78866 346.13904,209.68162 346.21341,209.75405 C 346.28778,209.82648 346.44687,211.90818 346.56696,214.38005 L 346.78531,218.87436 L 341.65878,220.09376 C 338.83919,220.76443 336.53226,221.18523 336.53226,221.02887 z"
 id="path5393"
 inkscape:connector-curvature="0" />
<path
 style="fill:#ff8080"
 d="M 348.55307,215.59627 C 348.55307,214.2837 348.368,212.28444 348.14181,211.15347 C 347.73675,209.12815 347.79648,209.08354 352.1056,208.1935 C 354.51188,207.6965 356.59103,207.40024 356.72595,207.53515 C 356.86087,207.67007 357.26059,209.62553 357.61422,211.88062 C 358.06901,214.78079 358.02709,216.05552 357.471,216.23612 C 355.02477,217.03055 350.86058,217.9754 349.79051,217.97881 C 348.85565,217.98179 348.55307,217.39921 348.55307,215.59627 z"
 id="path5395"
 inkscape:connector-curvature="0" />
<path
 style="fill:#ff8080"
 d="M 427.7239,241.71509 L 399.06095,235.12391 L 375.75155,239.49919 C 352.81828,243.80385 352.43439,243.85097 351.96058,242.41909 C 351.69571,241.61864 350.97365,236.37241 350.356,230.76081 C 349.4801,222.80286 349.42217,220.44098 350.09275,220.02653 C 350.56561,219.73429 352.95821,219.09651 355.40964,218.60924 C 359.16073,217.86365 359.86593,217.49182 359.86144,216.26204 C 359.85452,214.36979 358.45389,205.72756 358.09615,205.36982 C 357.86055,205.13422 352.83861,206.1101 349.17106,207.10417 C 348.43445,207.30382 347.87748,206.86594 347.62112,205.88562 C 347.31623,204.7197 351.27437,198.15015 364.24826,178.28863 C 380.52609,153.36916 381.3724,152.21997 383.47586,152.17965 C 384.68604,152.15645 394.26752,151.85151 404.76806,151.502 C 423.31301,150.88473 424.4879,150.75676 445.78025,147.03468 C 457.83642,144.92716 467.74891,143.24336 467.80799,143.29291 C 467.86707,143.34245 467.97982,157.7019 468.05854,175.2028 L 468.20167,207.0226 L 463.32336,227.52509 C 459.80897,242.29523 458.15731,248.06654 457.41594,248.16693 C 456.84995,248.24357 443.48853,245.34024 427.7239,241.71509 z M 395.22212,208.43681 L 395.22212,196.76955 L 382.4942,196.76955 L 369.76628,196.76955 L 369.76628,208.43681 L 369.76628,220.10407 L 382.4942,220.10407 L 395.22212,220.10407 L 395.22212,208.43681 z M 464.46726,215.41252 C 465.74466,213.78857 465.9328,212.56794 465.9328,205.90405 L 465.9328,198.2587 L 462.92759,198.21314 C 461.27473,198.18809 459.13563,198.14198 458.17403,198.11067 C 453.55316,197.96024 451.23958,206.88935 454.9405,210.59028 C 456.8351,212.48487 460.77104,212.96217 462.25584,211.47737 C 463.50396,210.22925 463.28868,211.74809 461.9457,213.66546 C 460.93557,215.10763 460.3917,215.2655 457.70306,214.89698 C 454.95816,214.52075 454.61909,214.62828 454.61909,215.87496 C 454.61909,217.1136 455.10399,217.27565 458.81041,217.27565 C 462.49614,217.27565 463.17851,217.05091 464.46726,215.41252 z M 432.16845,212.25883 L 434.11299,212.34836 L 434.11299,206.81543 C 434.11299,203.49962 433.75881,200.80228 433.22911,200.0841 C 432.07507,198.51943 428.73078,197.66951 425.62771,198.15228 C 423.69345,198.45321 423.10063,198.9066 422.91383,200.22784 C 422.7151,201.63355 422.89379,201.82518 423.97449,201.36527 C 426.82998,200.15008 428.94566,200.18846 430.24406,201.479 C 431.51659,202.74384 431.48541,202.78557 429.12065,202.98214 C 423.51066,203.44845 421.3353,205.67847 422.39023,209.88164 C 422.93619,212.05694 425.23257,213.14293 428.10258,212.58309 C 429.26931,212.3555 431.09895,212.20958 432.16845,212.25883 z M 407.18588,209.73087 C 407.57996,208.3036 408.28195,205.43982 408.74585,203.36691 C 409.20975,201.294 409.80623,199.59798 410.07136,199.59798 C 410.3365,199.59798 410.93298,201.294 411.39687,203.36691 C 413.31556,211.9405 413.54445,212.42941 415.52831,212.19175 C 417.24131,211.98653 417.51118,211.40089 419.70252,203.13351 C 420.99106,198.27215 422.05586,194.0339 422.06875,193.71517 C 422.08163,193.39644 421.37623,193.23734 420.50119,193.36161 C 419.12115,193.55761 418.66872,194.52437 417.08902,200.65269 L 415.26785,207.71781 L 413.51658,200.65269 C 411.90656,194.15742 411.62868,193.58757 410.07136,193.58757 C 408.51404,193.58757 408.23616,194.15742 406.62614,200.65269 L 404.87487,207.71781 L 403.0537,200.65269 C 401.44579,194.41492 401.03849,193.5601 399.57553,193.35297 C 398.25208,193.16558 397.99631,193.37909 398.30489,194.41363 C 398.51738,195.12602 399.51332,199.04997 400.51809,203.13351 C 402.89201,212.7815 402.68412,212.3259 404.71263,212.3259 C 406.13424,212.3259 406.60604,211.83087 407.18588,209.73087 z M 441.18406,207.48575 C 441.18406,202.11987 442.59784,199.76079 445.29968,200.61832 C 446.99746,201.15718 447.52578,202.9606 447.53837,208.26004 C 447.5469,211.85128 447.71311,212.3259 448.96223,212.3259 C 450.23211,212.3259 450.37645,211.8545 450.37645,207.70699 C 450.37645,200.27276 448.48523,197.27204 444.36604,198.17053 C 443.97713,198.25536 442.46569,198.31298 441.00728,198.29859 L 438.35563,198.27241 L 438.35563,205.29915 C 438.35563,211.8545 438.4505,212.3259 439.76984,212.3259 C 441.04632,212.3259 441.18406,211.8545 441.18406,207.48575 z M 448.22724,185.47077 C 450.23341,184.3971 451.08355,180.88876 451.08355,173.68349 L 451.08355,167.07192 L 448.78546,167.13175 C 447.5215,167.16466 445.6129,166.96838 444.54412,166.69559 C 440.22944,165.59431 436.87632,170.9326 438.40506,176.46921 C 439.33814,179.84855 441.81423,181.52547 445.08684,180.9944 C 447.96949,180.52661 448.27494,181.41141 445.79236,183.03806 C 444.39705,183.95231 443.59881,184.03577 441.90327,183.4447 C 440.05021,182.79872 439.76984,182.86651 439.76984,183.96056 C 439.76984,184.65333 439.98198,185.43227 440.24125,185.69155 C 440.96226,186.41256 446.76736,186.25207 448.22724,185.47077 z M 403.00029,177.16947 L 403.00029,173.12574 L 407.08666,177.16947 C 410.19843,180.24877 411.66955,181.2132 413.25488,181.2132 C 415.29045,181.2132 415.22711,181.10213 410.40595,176.21752 L 405.47517,171.22183 L 409.89458,167.04282 C 412.32526,164.74436 414.314,162.69674 414.314,162.49256 C 414.314,162.28838 413.44896,162.12132 412.39169,162.12132 C 411.02306,162.12132 409.39375,163.1836 406.73484,165.80948 L 403.00029,169.49763 L 403.00029,165.80948 C 403.00029,162.59273 402.81953,162.12132 401.58608,162.12132 C 400.2417,162.12132 400.17187,162.59273 400.17187,171.66726 C 400.17187,180.7418 400.2417,181.2132 401.58608,181.2132 C 402.83543,181.2132 403.00029,180.7418 403.00029,177.16947 z M 419.26375,174.14214 C 419.26375,167.54247 419.16947,167.07107 417.84954,167.07107 C 416.5296,167.07107 416.43532,167.54247 416.43532,174.14214 C 416.43532,180.7418 416.5296,181.2132 417.84954,181.2132 C 419.16947,181.2132 419.26375,180.7418 419.26375,174.14214 z M 425.63813,177.14734 C 425.64975,172.61773 426.79214,169.6815 428.68465,169.31704 C 431.16797,168.83879 431.99167,170.50248 431.99167,175.99648 C 431.99167,180.7418 432.11947,181.2132 433.40588,181.2132 C 434.70321,181.2132 434.8201,180.7418 434.8201,175.50986 C 434.8201,172.37303 434.50454,169.21691 434.11887,168.49627 C 433.09458,166.58237 429.49195,165.98594 427.36674,167.37843 C 426.41027,168.00513 425.62771,168.19235 425.62771,167.79448 C 425.62771,167.3966 424.99131,167.07107 424.2135,167.07107 C 422.89356,167.07107 422.79928,167.54247 422.79928,174.14214 C 422.79928,180.7418 422.89356,181.2132 424.2135,181.2132 C 425.46254,181.2132 425.62893,180.73832 425.63813,177.14734 z M 419.26375,163.18198 C 419.26375,161.88562 418.88663,161.41421 417.84954,161.41421 C 416.81244,161.41421 416.43532,161.88562 416.43532,163.18198 C 416.43532,164.47834 416.81244,164.94975 417.84954,164.94975 C 418.88663,164.94975 419.26375,164.47834 419.26375,163.18198 z"
 id="path5403"
 inkscape:connector-curvature="0" />
<path
 style="fill:#ff8080"
 d="M 441.91604,177.01705 C 439.47354,172.4532 443.75594,166.53589 446.82504,170.23392 C 447.94077,171.57829 447.94077,175.99887 446.82504,177.34324 C 445.59804,178.82168 442.7817,178.63454 441.91604,177.01705 z"
 id="path5405"
 inkscape:connector-curvature="0" />
<path
 style="fill:#ff8080"
 d=""
 id="path5407"
 inkscape:connector-curvature="0" />
<path
 style="fill:#ff8080"
 d="M 456.76529,208.12975 C 455.71602,206.16917 455.86207,203.69265 457.13406,201.87663 C 460.10209,197.63917 464.91316,203.38226 462.37238,208.12975 C 461.38492,209.97483 457.75275,209.97483 456.76529,208.12975 z"
 id="path5409"
 inkscape:connector-curvature="0" />
<path
 style="fill:#ff8080"
 d=""
 id="path5411"
 inkscape:connector-curvature="0" />
<path
 style="fill:#ff8080"
 d="M 425.63518,209.15292 C 424.122,207.32965 425.3216,205.96194 428.43394,205.96194 C 431.57739,205.96194 431.80807,206.31407 430.18381,208.63303 C 428.91517,210.44426 426.89822,210.67479 425.63518,209.15292 z"
 id="path5413"
 inkscape:connector-curvature="0" />
</g>
<g
 inkscape:groupmode="layer"
 id="layer2"
 inkscape:label="path">
<path
 style="fill:none;stroke:#000000;stroke-width:1px;stroke-linecap:butt;stroke-linejoin:miter;stroke-opacity:1"
 d="M 100.98695,70.99182 L 150.14065,76.815354 L 151.56682,64.777712 L 105.42253,59.310722 z"
 id="path4117"
 inkscape:connector-curvature="0" />
<path
 style="fill:none;stroke:#000000;stroke-width:1px;stroke-linecap:butt;stroke-linejoin:miter;stroke-opacity:1"
 d="M 206.99219,79.129427 L 249.52059,53.804833 L 243.31864,43.389715 L 203.39403,67.163825 z"
 id="path4117-3"
 inkscape:connector-curvature="0" />
<path
 style="fill:none;stroke:#000000;stroke-width:1px;stroke-linecap:butt;stroke-linejoin:miter;stroke-opacity:1"
 d="M 335.22611,45.346575 L 383.30776,57.100512 L 386.18627,45.325409 L 341.0484,34.291109 z"
 id="path4117-3-0"
 inkscape:connector-curvature="0" />
<path
 style="fill:none;stroke:#000000;stroke-width:1px;stroke-linecap:butt;stroke-linejoin:miter;stroke-opacity:1"
 d="M 380.76873,117.94855 L 416.88025,84.096544 L 408.58994,75.252914 L 374.68935,107.03235 z"
 id="path4117-3-0-1"
 inkscape:connector-curvature="0" />
<path
 style="fill:none;stroke:#000000;stroke-width:1px;stroke-linecap:butt;stroke-linejoin:miter;stroke-opacity:1"
 d="M 291.82186,130.57996 L 340.6031,122.19004 L 338.54842,110.24361 L 292.75379,118.11987 z"
 id="path4117-3-0-1-9"
 inkscape:connector-curvature="0" />
<path
 style="fill:none;stroke:#000000;stroke-width:1.03076041px;stroke-linecap:butt;stroke-linejoin:miter;stroke-opacity:1"
 d="M 203.54505,159.41146 L 251.2734,138.5536 L 245.83577,127.57348 L 201.02957,147.15433 z"
 id="path4117-3-0-1-9-4"
 inkscape:connector-curvature="0" />
<rect
 style="fill:#ff9955;fill-rule:evenodd;stroke:#000000;stroke-width:1px;stroke-linecap:butt;stroke-linejoin:miter;stroke-opacity:1"
 id="BackObject"
 width="141"
 height="40"
 x="324.64423"
 y="268.18018"
 objectType="MenuItem"
 objectTouchAction="Action=SceneTransition,SceneName=MainMenuScene,Arg1=Null,Sound=Touch.mp3"
 objectHoverAction="Action=ShowImage,ImageFile=Common_Hover_Back.png,Sound=Hover.mp3" />
<rect
 style="fill:#ff7f2a"
 id="level1"
 width="32"
 height="29"
 x="46.507629"
 y="45.169483"
 objectType="MenuItem"
 objectHoverAction="Action=ShowImage,ImageFile=LevelMapScene_Hover_LV1.png,Sound=Hover.mp3"
 objectTouchAction="Action=SceneTransition,SceneName=StageScene,Arg1=LV1,Sound=Touch.mp3" />
<rect
 style="fill:#ff7f2a"
 id="level2"
 width="32"
 height="29"
 x="162.1701"
 y="59.513649"
 objectType="MenuItem"
 objectHoverAction="Action=ShowImage,ImageFile=LevelMapScene_Hover_LV2.png,Sound=Hover.mp3"
 objectTouchAction="Action=SceneTransition,SceneName=StageScene,Arg1=LV2,Sound=Touch.mp3" />
<rect
 style="fill:#ff7f2a"
 id="level3"
 width="32"
 height="29"
 x="279.34781"
 y="27.895876"
 objectType="MenuItem"
 objectHoverAction="Action=ShowImage,ImageFile=LevelMapScene_Hover_LV3.png,Sound=Hover.mp3"
 objectTouchAction="Action=SceneTransition,SceneName=StageScene,Arg1=LV3,Sound=Touch.mp3" />
<rect
 style="fill:#ff7f2a"
 id="level4"
 width="32"
 height="29"
 x="405.61688"
 y="44.987247"
 objectType="MenuItem"
 objectHoverAction="Action=ShowImage,ImageFile=LevelMapScene_Hover_LV4.png,Sound=Hover.mp3"
 objectTouchAction="Action=SceneTransition,SceneName=StageScene,Arg1=LV4,Sound=Touch.mp3" />
<rect
 style="fill:#ff7f2a"
 id="level5"
 width="32"
 height="29"
 x="340.9671"
 y="101.55579"
 objectType="MenuItem"
 objectHoverAction="Action=ShowImage,ImageFile=LevelMapScene_Hover_LV5.png,Sound=Hover.mp3"
 objectTouchAction="Action=SceneTransition,SceneName=StageScene,Arg1=LV5,Sound=Touch.mp3" />
<rect
 style="fill:#ff7f2a"
 id="level6"
 width="32"
 height="29"
 x="255.10413"
 y="115.71825"
 objectType="MenuItem"
 objectHoverAction="Action=ShowImage,ImageFile=LevelMapScene_Hover_LV6.png,Sound=Hover.mp3"
 objectTouchAction="Action=SceneTransition,SceneName=StageScene,Arg1=LV6,Sound=Touch.mp3" />
<rect
 style="fill:#ff7f2a"
 id="level7"
 width="32"
 height="29"
 x="132.87566"
 y="152.08372"
 objectType="MenuItem"
 objectHoverAction="Action=ShowImage,ImageFile=LevelMapScene_Hover_LV7.png,Sound=Hover.mp3"
 objectTouchAction="Action=SceneTransition,SceneName=StageScene,Arg1=LV7,Sound=Touch.mp3" />
<rect
 style="fill:#ff7f2a"
 id="level8"
 width="32"
 height="29"
 x="22.769045"
 y="123.79944"
 objectType="MenuItem"
 objectHoverAction="Action=ShowImage,ImageFile=LevelMapScene_Hover_LV8.png,Sound=Hover.mp3"
 objectTouchAction="Action=SceneTransition,SceneName=StageScene,Arg1=LV8,Sound=Touch.mp3" />
<rect
 style="fill:#ff7f2a"
 id="level9"
 width="32"
 height="29"
 x="44.992397"
 y="236.93652"
 objectType="MenuItem"
 objectHoverAction="Action=ShowImage,ImageFile=LevelMapScene_Hover_LV9.png,Sound=Hover.mp3"
 objectTouchAction="Action=SceneTransition,SceneName=StageScene,Arg1=LV9,Sound=Touch.mp3" />
<rect
 style="fill:#ff7f2a"
 id="level10"
 width="32"
 height="29"
 x="155.09903"
 y="251.07867"
 objectType="MenuItem"
 objectHoverAction="Action=ShowImage,ImageFile=LevelMapScene_Hover_LV10.png,Sound=Hover.mp3"
 objectTouchAction="Action=SceneTransition,SceneName=StageScene,Arg1=LV10,Sound=Touch.mp3" />
<rect
 style="fill:#ff7f2a"
 id="level11"
 width="32"
 height="29"
 x="262.1752"
 y="211.68271"
 objectType="MenuItem"
 objectHoverAction="Action=ShowImage,ImageFile=LevelMapScene_Hover_LV11.png,Sound=Hover.mp3"
 objectTouchAction="Action=SceneTransition,SceneName=StageScene,Arg1=LV11,Sound=Touch.mp3" />
<path
 style="fill:none;stroke:#000000;stroke-width:1px;stroke-linecap:butt;stroke-linejoin:miter;stroke-opacity:1"
 d="M 55.558193,147.67692 L 102.81168,162.41149 L 106.42014,150.8392 L 62.059728,137.00676 z"
 id="path4117-3-5"
 inkscape:connector-curvature="0" />
<path
 style="fill:none;stroke:#000000;stroke-width:1px;stroke-linecap:butt;stroke-linejoin:miter;stroke-opacity:1"
 d="M 36.487328,161.16932 L 45.259339,209.88329 L 57.189296,207.73503 L 48.954337,162.00356 z"
 id="path4117-3-5-6"
 inkscape:connector-curvature="0" />
<path
 style="fill:none;stroke:#000000;stroke-width:1px;stroke-linecap:butt;stroke-linejoin:miter;stroke-opacity:1"
 d="M 82.847004,265.79337 L 132.11693,270.53389 L 133.27787,258.46778 L 87.024474,254.0175 z"
 id="path4117-3-5-6-8"
 inkscape:connector-curvature="0" />
<path
 style="fill:none;stroke:#000000;stroke-width:1px;stroke-linecap:butt;stroke-linejoin:miter;stroke-opacity:1"
 d="M 205.60963,263.45226 L 250.08623,241.73061 L 244.76664,230.83837 L 203.0131,251.23013 z"
 id="path4117-3-5-6-8-5"
 inkscape:connector-curvature="0" />
<path
 style="fill:none;stroke:#000000;stroke-width:0.96260506px;stroke-linecap:butt;stroke-linejoin:miter;stroke-opacity:1"
 d="M 309.64564,228.66629 L 322.76044,225.52988 L 359.24462,216.80467 L 357.65368,205.97593 L 330.30749,212.51579 L 311.09138,217.11134 z"
 id="path4117-3-5-6-8-4"
 inkscape:connector-curvature="0"
 sodipodi:nodetypes="ccccccc" />
<rect
 style="fill:#ff7f2a"
 id="level12"
 width="32"
 height="29"
 x="363.94174"
 y="192.99744"
 objectType="MenuItem"
 objectHoverAction="Action=ShowImage,ImageFile=LevelMapScene_Hover_LV12.png,Sound=Hover.mp3"
 objectTouchAction="Action=SceneTransition,SceneName=StageScene,Arg1=LV12,Sound=Touch.mp3" />
<text
 xml:space="preserve"
 style="font-size:20px;font-style:normal;font-variant:normal;font-weight:normal;font-stretch:normal;text-align:start;line-height:125%;letter-spacing:0px;word-spacing:0px;writing-mode:lr-tb;text-anchor:start;fill:#000000;fill-opacity:1;stroke:none;font-family:Sans;-inkscape-font-specification:Sans"
 x="57.538086"
 y="66.350189"
 id="text3021"
 sodipodi:linespacing="125%"><tspan
 sodipodi:role="line"
 id="tspan3023"
 x="57.538086"
 y="66.350189">1</tspan></text>
<text
 xml:space="preserve"
 style="font-size:20px;font-style:normal;font-variant:normal;font-weight:normal;font-stretch:normal;text-align:start;line-height:125%;letter-spacing:0px;word-spacing:0px;writing-mode:lr;text-anchor:start;fill:#000000;fill-opacity:1;stroke:none;font-family:Sans;-inkscape-font-specification:Sans"
 x="172.92845"
 y="80.715157"
 id="text3021-4"
 sodipodi:linespacing="125%"><tspan
 sodipodi:role="line"
 id="tspan3256">2</tspan></text>
<text
 xml:space="preserve"
 style="font-size:20px;font-style:normal;font-variant:normal;font-weight:normal;font-stretch:normal;text-align:start;line-height:125%;letter-spacing:0px;word-spacing:0px;writing-mode:lr;text-anchor:start;fill:#000000;fill-opacity:1;stroke:none;font-family:Sans;-inkscape-font-specification:Sans"
 x="289.09601"
 y="49.400433"
 id="text3021-4-0"
 sodipodi:linespacing="125%"><tspan
 sodipodi:role="line"
 id="tspan3258">3</tspan></text>
<text
 xml:space="preserve"
 style="font-size:20px;font-style:normal;font-variant:normal;font-weight:normal;font-stretch:normal;text-align:start;line-height:125%;letter-spacing:0px;word-spacing:0px;writing-mode:lr;text-anchor:start;fill:#000000;fill-opacity:1;stroke:none;font-family:Sans;-inkscape-font-specification:Sans"
 x="417.38535"
 y="66.573036"
 id="text3021-4-0-6"
 sodipodi:linespacing="125%"><tspan
 sodipodi:role="line"
 id="tspan3260">4</tspan></text>
<text
 xml:space="preserve"
 style="font-size:20px;font-style:normal;font-variant:normal;font-weight:normal;font-stretch:normal;text-align:start;line-height:125%;letter-spacing:0px;word-spacing:0px;writing-mode:lr;text-anchor:start;fill:#000000;fill-opacity:1;stroke:none;font-family:Sans;-inkscape-font-specification:Sans"
 x="352.7356"
 y="122.13142"
 id="text3021-4-0-6-3"
 sodipodi:linespacing="125%"><tspan
 sodipodi:role="line"
 id="tspan3262">5</tspan></text>
<text
 xml:space="preserve"
 style="font-size:20px;font-style:normal;font-variant:normal;font-weight:normal;font-stretch:normal;text-align:start;line-height:125%;letter-spacing:0px;word-spacing:0px;writing-mode:lr;text-anchor:start;fill:#000000;fill-opacity:1;stroke:none;font-family:Sans;-inkscape-font-specification:Sans"
 x="265.86249"
 y="137.28369"
 id="text3021-4-0-6-3-6"
 sodipodi:linespacing="125%"><tspan
 sodipodi:role="line"
 id="tspan3264">6</tspan></text>
<text
 xml:space="preserve"
 style="font-size:20px;font-style:normal;font-variant:normal;font-weight:normal;font-stretch:normal;text-align:start;line-height:125%;letter-spacing:0px;word-spacing:0px;writing-mode:lr;text-anchor:start;fill:#000000;fill-opacity:1;stroke:none;font-family:Sans;-inkscape-font-specification:Sans"
 x="143.63403"
 y="174.65935"
 id="text3021-4-0-6-3-6-4"
 sodipodi:linespacing="125%"><tspan
 sodipodi:role="line"
 id="tspan3266">7</tspan></text>
<text
 xml:space="preserve"
 style="font-size:20px;font-style:normal;font-variant:normal;font-weight:normal;font-stretch:normal;text-align:start;line-height:125%;letter-spacing:0px;word-spacing:0px;writing-mode:lr;text-anchor:start;fill:#000000;fill-opacity:1;stroke:none;font-family:Sans;-inkscape-font-specification:Sans"
 x="33.527401"
 y="146.37508"
 id="text3021-4-0-6-3-6-4-3"
 sodipodi:linespacing="125%"><tspan
 sodipodi:role="line"
 id="tspan3268">8</tspan></text>
<text
 xml:space="preserve"
 style="font-size:20px;font-style:normal;font-variant:normal;font-weight:normal;font-stretch:normal;text-align:start;line-height:125%;letter-spacing:0px;word-spacing:0px;writing-mode:lr;text-anchor:start;fill:#000000;fill-opacity:1;stroke:none;font-family:Sans;-inkscape-font-specification:Sans"
 x="55.750755"
 y="259.51218"
 id="text3021-4-0-6-3-6-4-3-8"
 sodipodi:linespacing="125%"><tspan
 sodipodi:role="line"
 id="tspan3270">9</tspan></text>
<text
 xml:space="preserve"
 style="font-size:20px;font-style:normal;font-variant:normal;font-weight:normal;font-stretch:normal;text-align:start;line-height:125%;letter-spacing:0px;word-spacing:0px;writing-mode:lr-tb;text-anchor:start;fill:#000000;fill-opacity:1;stroke:none;font-family:Sans;-inkscape-font-specification:Sans"
 x="159.85738"
 y="273.6543"
 id="text3021-4-0-6-3-6-4-3-8-3"
 sodipodi:linespacing="125%"><tspan
 sodipodi:role="line"
 id="tspan3272"
 x="159.85738"
 y="273.6543">10</tspan></text>
<text
 xml:space="preserve"
 style="font-size:20px;font-style:normal;font-variant:normal;font-weight:normal;font-stretch:normal;text-align:start;line-height:125%;letter-spacing:0px;word-spacing:0px;writing-mode:lr-tb;text-anchor:start;fill:#000000;fill-opacity:1;stroke:none;font-family:Sans;-inkscape-font-specification:Sans"
 x="264.93356"
 y="234.25833"
 id="text3021-4-0-6-3-6-4-3-8-3-1"
 sodipodi:linespacing="125%"><tspan
 sodipodi:role="line"
 id="tspan3274"
 x="264.93356"
 y="234.25833">11</tspan></text>
<text
 xml:space="preserve"
 style="font-size:20px;font-style:normal;font-variant:normal;font-weight:normal;font-stretch:normal;text-align:start;line-height:125%;letter-spacing:0px;word-spacing:0px;writing-mode:lr-tb;text-anchor:start;fill:#000000;fill-opacity:1;stroke:none;font-family:Sans;-inkscape-font-specification:Sans"
 x="366.7001"
 y="214.56293"
 id="text3021-4-0-6-3-6-4-3-8-3-1-3"
 sodipodi:linespacing="125%"><tspan
 sodipodi:role="line"
 id="tspan3276"
 x="366.7001"
 y="214.56293">12</tspan></text>
<text
 xml:space="preserve"
 style="font-size:40px;font-style:normal;font-variant:normal;font-weight:normal;font-stretch:normal;text-align:start;line-height:125%;letter-spacing:0px;word-spacing:0px;writing-mode:lr-tb;text-anchor:start;fill:#000000;fill-opacity:1;stroke:none;font-family:Sans;-inkscape-font-specification:Sans"
 x="347.07062"
 y="303.37314"
 id="text3985"
 sodipodi:linespacing="125%"><tspan
 sodipodi:role="line"
 id="tspan4824"
 x="347.07062"
 y="303.37314">Back</tspan></text>
</g>
</svg>
