<?xml version="1.0" encoding="UTF-8" standalone="no"?>
<!-- Created with Inkscape (http://www.inkscape.org/) -->

<svg
 xmlns:dc="http://purl.org/dc/elements/1.1/"
 xmlns:cc="http://creativecommons.org/ns#"
 xmlns:rdf="http://www.w3.org/1999/02/22-rdf-syntax-ns#"
 xmlns:svg="http://www.w3.org/2000/svg"
 xmlns="http://www.w3.org/2000/svg"
 xmlns:sodipodi="http://sodipodi.sourceforge.net/DTD/sodipodi-0.dtd"
 xmlns:inkscape="http://www.inkscape.org/namespaces/inkscape"
 version="1.0"
 width="48000"
 height="3200"
 id="svg2"
 sodipodi:version="0.32"
 inkscape:version="0.48.1 r9760"
 sodipodi:docname="StageScene_LV2.svg"
 inkscape:output_extension="org.inkscape.output.svg.inkscape">
<metadata
 id="metadata2500">
<rdf:RDF>
<cc:Work
 rdf:about="">
<dc:format>image/svg+xml</dc:format>
<dc:type
 rdf:resource="http://purl.org/dc/dcmitype/StillImage" />
<dc:title />
</cc:Work>
</rdf:RDF>
</metadata>
<sodipodi:namedview
 inkscape:window-height="973"
 inkscape:window-width="1920"
 inkscape:pageshadow="2"
 inkscape:pageopacity="0.0"
 guidetolerance="10.0"
 gridtolerance="10.0"
 objecttolerance="10.0"
 borderopacity="1.0"
 bordercolor="#666666"
 pagecolor="#ffffff"
 id="base"
 showgrid="false"
 inkscape:zoom="0.35355339"
 inkscape:cx="5791.8779"
 inkscape:cy="788.27759"
 inkscape:window-x="1305"
 inkscape:window-y="33"
 inkscape:current-layer="layer3"
 width="480px"
 inkscape:window-maximized="0"
 inkscape:snap-grids="true"
 showguides="true"
 inkscape:guide-bbox="true">
<inkscape:grid
 type="xygrid"
 id="grid3290"
 visible="true"
 enabled="true"
 empspacing="5"
 snapvisiblegridlinesonly="true" />
</sodipodi:namedview>
<defs
 id="defs4">
<inkscape:perspective
 sodipodi:type="inkscape:persp3d"
 inkscape:vp_x="0 : 500 : 1"
 inkscape:vp_y="0 : 1000 : 0"
 inkscape:vp_z="1000 : 500 : 1"
 inkscape:persp3d-origin="500 : 333.33333 : 1"
 id="perspective2413" />
<inkscape:perspective
 id="perspective2443"
 inkscape:persp3d-origin="372.04724 : 350.78739 : 1"
 inkscape:vp_z="744.09448 : 526.18109 : 1"
 inkscape:vp_y="0 : 1000 : 0"
 inkscape:vp_x="0 : 526.18109 : 1"
 sodipodi:type="inkscape:persp3d" />
<inkscape:perspective
 id="perspective3980"
 inkscape:persp3d-origin="0.5 : 0.33333333 : 1"
 inkscape:vp_z="1 : 0.5 : 1"
 inkscape:vp_y="0 : 1000 : 0"
 inkscape:vp_x="0 : 0.5 : 1"
 sodipodi:type="inkscape:persp3d" />
<inkscape:perspective
 id="perspective3534"
 inkscape:persp3d-origin="0.5 : 0.33333333 : 1"
 inkscape:vp_z="1 : 0.5 : 1"
 inkscape:vp_y="0 : 1000 : 0"
 inkscape:vp_x="0 : 0.5 : 1"
 sodipodi:type="inkscape:persp3d" />
</defs>
<g
 inkscape:groupmode="layer"
 id="staticShapes"
 inkscape:label="static"
 style="display:inline"
 transform="translate(0,2880)" />
<g
 inkscape:groupmode="layer"
 id="layer3"
 inkscape:label="boxes"
 style="display:inline">
<path
 style="fill:none;stroke:#000000;stroke-width:1px;stroke-linecap:butt;stroke-linejoin:miter;stroke-opacity:1"
 d="M 8.9337554,-42.710469 L 33.948271,135.07126 L 154.55397,135.07126 L 243.89152,155.6189 L 292.1338,185.99367 L 374.32435,244.95645 L 451.15465,266.39747 L 548.53258,264.61072 L 607.043,283.70283"
 id="path2993"
 inkscape:connector-curvature="0"
 isEdge=""
 sodipodi:nodetypes="ccccccccc" />
<rect
 style="opacity:0.94650209;fill:#ff0000;stroke:#000000;stroke-width:0.39024389;stroke-miterlimit:4;stroke-opacity:1;stroke-dasharray:none"
 id="boberWheel1"
 width="15.609756"
 height="15.609756"
 x="62.433586"
 y="109.52361"
 isCircle=""
 phy_density="0.2"
 phy_friction="1.0"
 phy_restitution="0.001" />
<rect
 phy_density="0.2"
 isCircle=""
 y="109.74582"
 x="122.71295"
 height="15.418975"
 width="15.418975"
 id="boberWheel2"
 style="opacity:0.94650209;fill:#ff0000;stroke:#000000;stroke-width:0.58102518;stroke-miterlimit:4;stroke-opacity:1;stroke-dasharray:none"
 phy_friction="1.0"
 phy_restitution="0.0001" />
<rect
 style="opacity:0.94650209;fill:#000080;fill-rule:nonzero;stroke:#000000;stroke-width:0.5;stroke-miterlimit:4;stroke-opacity:1;stroke-dasharray:none"
 id="boberJoint1"
 width="1"
 height="1"
 x="69.738464"
 y="116.32849"
 isRevoluteJoint=""
 body1="bober"
 body2="boberWheel1"
 motorEnabled=""
 motorSpeed="0"
 maxTorque="1500" />
<rect
 body2="boberWheel2"
 body1="bober"
 isRevoluteJoint=""
 y="116.32849"
 x="130.04926"
 height="1"
 width="1"
 id="boberJoint2"
 style="opacity:0.94650209;fill:#000080;fill-rule:nonzero;stroke:#000000;stroke-width:0.5;stroke-miterlimit:4;stroke-opacity:1;stroke-dasharray:none"
 motorEnabled=""
 motorSpeed="0"
 maxTorque="1500" />
<rect
 phy_density="1"
 y="95.270142"
 x="49.055847"
 height="20.187164"
 width="97.122726"
 id="bober"
 style="fill:#000080;stroke-width:1.04799998;stroke-miterlimit:4;stroke-dasharray:none;display:inline" />
<path
 style="fill:none;stroke:#000000;stroke-width:1px;stroke-linecap:butt;stroke-linejoin:miter;stroke-opacity:1"
 d="M 609,310 L 711.00001,339 L 769.00001,390 L 870.00001,420 L 899.00001,451 L 994.00001,482"
 id="path3072"
 inkscape:connector-curvature="0"
 isEdge="" />
<path
 style="fill:none;stroke:#000000;stroke-width:1px;stroke-linecap:butt;stroke-linejoin:miter;stroke-opacity:1"
 d="M 993.02941,512.22973 L 1080.0294,545.22973 L 1149.0294,592.22973 L 1224.0294,671.22973 L 1248.0294,704.22973"
 id="path3074"
 inkscape:connector-curvature="0"
 isEdge="" />
<path
 style="fill:none;stroke:#000000;stroke-width:1px;stroke-linecap:butt;stroke-linejoin:miter;stroke-opacity:1"
 d="M 1249.0294,727.22973 L 1325.0294,905.22973 L 1395.0294,999.22973 L 1452.0294,1031.2297 L 1522.0294,1049.2297 L 1581.0294,1047.2297 L 1632.0294,1025.2297 L 1669.0294,1001.2297 L 1685.0294,986.22973"
 id="path3076"
 inkscape:connector-curvature="0"
 isEdge="" />
<path
 style="fill:none;stroke:#000000;stroke-width:1px;stroke-linecap:butt;stroke-linejoin:miter;stroke-opacity:1"
 d="M 1716.8553,982.51312 L 1829.9924,886.3466 L 1917.6736,759.06737 L 1996.8696,654.41557 L 2070.4087,592.19017 L 2149.6046,558.24905 L 2234.4574,546.93534 L 2302.3397,552.59219 L 2390.0209,578.04804 L 2469.2169,626.1313 L 2528.6139,691.18512 L 2602.153,776.03794 L 2706.8048,889.17502 L 2757.7165,925.94458 L 2822.7703,948.57199 L 2868.0251,948.57199 L 2924.5937,931.60143 L 2989.6475,894.83188"
 id="path3078"
 inkscape:connector-curvature="0"
 isEdge="" />
<path
 style="fill:none;stroke:#000000;stroke-width:1px;stroke-linecap:butt;stroke-linejoin:miter;stroke-opacity:1"
 d="M 3017.9318,897.6603 L 3125.412,818.46434 L 3207.4364,736.43996 L 3272.4902,660.07242 L 3317.745,586.53332 L 3365.8283,532.7932 L 3408.2547,507.33736 L 3453.5095,493.19522 L 3532.7055,496.02365 L 3617.5583,527.13635 L 3705.2396,592.19017 L 3790.0924,725.12625 L 3928.6853,954.22885 L 4310.523,1647.1935 L 4511.3413,2094.085 L 4873.38,3134.9462 L 4921.4632,3216.9706 L 5011.9729,3332.9361 L 5119.4531,3409.3036 L 5178.8501,3429.1026 L 5221.2765,3434.7595 L 5289.1588,3429.1026 L 5342.8989,3403.6468 L 5374.0116,3383.8478"
 id="path3080"
 inkscape:connector-curvature="0"
 isEdge="" />
<path
 style="fill:none;stroke:#000000;stroke-width:1px;stroke-linecap:butt;stroke-linejoin:miter;stroke-opacity:1"
 d="M 5385.3253,3389.5046 L 5543.7172,3270.7107 L 5716.2513,3086.8629 L 5928.3833,2758.7654 L 6064.1478,2546.6333 L 6494.0687,1794.2717 L 6655.2891,1534.0564 L 6748.6272,1446.3752 L 6796.7104,1435.0615 L 6839.1368,1432.233 L 6870.2495,1435.0615 L 6895.7054,1443.5467 L 6932.4749,1466.1742 L 6991.8719,1531.228 L 7136.1217,1831.0413 L 7218.1461,2029.0312 L 7249.2588,2079.9429 L 7305.8273,2139.3398 L 7393.5086,2181.7662 L 7659.3807,2178.9378 L 8182.6397,2170.4525 L 8307.0905,2164.7957 L 8301.4337,1941.3499"
 id="path3082"
 inkscape:connector-curvature="0"
 isEdge="" />
</g>
</svg>
