<?xml version="1.0" encoding="UTF-8" standalone="no"?>
<!-- Created with Inkscape (http://www.inkscape.org/) -->

<svg
   xmlns:dc="http://purl.org/dc/elements/1.1/"
   xmlns:cc="http://creativecommons.org/ns#"
   xmlns:rdf="http://www.w3.org/1999/02/22-rdf-syntax-ns#"
   xmlns:svg="http://www.w3.org/2000/svg"
   xmlns="http://www.w3.org/2000/svg"
   xmlns:xlink="http://www.w3.org/1999/xlink"
   xmlns:sodipodi="http://sodipodi.sourceforge.net/DTD/sodipodi-0.dtd"
   xmlns:inkscape="http://www.inkscape.org/namespaces/inkscape"
   version="1.0"
   width="48000"
   height="320"
   id="svg2"
   sodipodi:version="0.32"
   inkscape:version="0.48.2 r9819"
   sodipodi:docname="StageScene_LV8.svg"
   inkscape:output_extension="org.inkscape.output.svg.inkscape">
  <metadata
     id="metadata2500">
    <rdf:RDF>
      <cc:Work
         rdf:about="">
        <dc:format>image/svg+xml</dc:format>
        <dc:type
           rdf:resource="http://purl.org/dc/dcmitype/StillImage" />
        <dc:title />
      </cc:Work>
    </rdf:RDF>
  </metadata>
  <sodipodi:namedview
     inkscape:window-height="1156"
     inkscape:window-width="1600"
     inkscape:pageshadow="2"
     inkscape:pageopacity="0.0"
     guidetolerance="10.0"
     gridtolerance="10.0"
     objecttolerance="10.0"
     borderopacity="1.0"
     bordercolor="#666666"
     pagecolor="#ffffff"
     id="base"
     showgrid="false"
     inkscape:zoom="0.10685186"
     inkscape:cx="38981.549"
     inkscape:cy="-840.87342"
     inkscape:window-x="0"
     inkscape:window-y="0"
     inkscape:current-layer="layer3"
     width="480px"
     inkscape:window-maximized="0"
     inkscape:snap-grids="true"
     showguides="true"
     inkscape:guide-bbox="true">
    <inkscape:grid
       type="xygrid"
       id="grid3290"
       visible="true"
       enabled="true"
       empspacing="5"
       snapvisiblegridlinesonly="true" />
    <sodipodi:guide
       orientation="0,1"
       position="356.93383,2841.1933"
       id="guide3805" />
  </sodipodi:namedview>
  <defs
     id="defs4">
    <inkscape:perspective
       sodipodi:type="inkscape:persp3d"
       inkscape:vp_x="0 : 500 : 1"
       inkscape:vp_y="0 : 1000 : 0"
       inkscape:vp_z="1000 : 500 : 1"
       inkscape:persp3d-origin="500 : 333.33333 : 1"
       id="perspective2413" />
    <inkscape:perspective
       id="perspective2443"
       inkscape:persp3d-origin="372.04724 : 350.78739 : 1"
       inkscape:vp_z="744.09448 : 526.18109 : 1"
       inkscape:vp_y="0 : 1000 : 0"
       inkscape:vp_x="0 : 526.18109 : 1"
       sodipodi:type="inkscape:persp3d" />
    <inkscape:perspective
       id="perspective3980"
       inkscape:persp3d-origin="0.5 : 0.33333333 : 1"
       inkscape:vp_z="1 : 0.5 : 1"
       inkscape:vp_y="0 : 1000 : 0"
       inkscape:vp_x="0 : 0.5 : 1"
       sodipodi:type="inkscape:persp3d" />
    <inkscape:perspective
       id="perspective3534"
       inkscape:persp3d-origin="0.5 : 0.33333333 : 1"
       inkscape:vp_z="1 : 0.5 : 1"
       inkscape:vp_y="0 : 1000 : 0"
       inkscape:vp_x="0 : 0.5 : 1"
       sodipodi:type="inkscape:persp3d" />
  </defs>
  <g
     inkscape:groupmode="layer"
     id="staticShapes"
     inkscape:label="static"
     style="display:inline"
     transform="translate(0,-2880)" />
  <g
     inkscape:groupmode="layer"
     id="layer3"
     inkscape:label="boxes"
     style="display:inline">
    <image
       y="65.081642"
       x="36.971546"
       id="MyBird"
       xlink:href="file:///Users/kmkim/Games/rocknroll/rocknroll/Resources/GameClasses/Bird.png"
       height="28"
       width="28" />
    <path
       style="fill:none;stroke:#000000;stroke-width:1px;stroke-linecap:butt;stroke-linejoin:miter;stroke-opacity:1"
       d="M 16.377816,43.916811 C 16.377816,43.916811 17.277815,45.997589 18.955088,49.730721 20.632362,53.463852 23.086911,58.849337 26.196012,65.458751 29.305112,72.068164 33.068765,79.901507 37.364245,88.530354 41.659726,97.1592 46.487035,106.58355 51.723449,116.37498 56.959863,126.16641 62.605382,136.32492 68.537282,146.42209 74.469182,156.51925 80.687464,166.55507 87.069403,176.10112 93.451343,185.64717 99.996941,194.70345 106.58347,202.84154 113.17001,210.97963 119.79747,218.19952 126.34315,224.07279 131.79625,228.96572 137.45682,233.83961 143.3022,238.61848 149.14758,243.39735 155.17777,248.0812 161.37007,252.59404 167.56238,257.10689 173.9168,261.44872 180.41067,265.54355 186.90454,269.63839 193.53785,273.48622 200.28793,277.01108 207.038,280.53593 213.90484,283.7378 220.86576,286.54069 227.82668,289.34359 234.88169,291.74751 242.00809,293.67647 249.1345,295.60543 256.33231,297.05943 263.57885,297.96249 270.82538,298.86554 278.12064,299.21764 285.44194,298.94281 293.94863,298.62348 302.04417,296.86288 309.83127,294.01995 317.61837,291.17702 325.09704,287.25176 332.37001,282.60314 339.64298,277.95451 346.71025,272.5825 353.67456,266.84607 360.63887,261.10964 367.50021,255.00878 374.36131,248.90245 381.22242,242.79611 388.08329,236.6843 395.04666,230.92596 402.01003,225.16761 409.0759,219.76274 416.347,215.07029 423.6181,210.37784 431.09443,206.39781 438.87873,203.48915 446.66302,200.58049 454.75528,198.74319 463.25823,198.33622 473.06613,197.86679 482.55957,199.07638 491.81714,201.54473 501.07472,204.01308 510.09642,207.74018 518.96085,212.30577 527.82528,216.87135 536.53243,222.27542 545.16089,228.0977 553.78935,233.91997 562.33912,240.16046 570.88879,246.39888 579.43846,252.6373 587.98802,258.87366 596.61607,264.68768 605.24412,270.5017 613.95066,275.89339 622.81427,280.44246 631.67788,284.99154 640.69857,288.69801 649.95491,291.14159 659.21126,293.58518 668.70327,294.76588 678.50953,294.26343 688.27899,293.76287 697.56391,291.5752 706.48562,288.12807 715.40733,284.68094 723.96583,279.97434 732.28243,274.43593 740.59903,268.89752 748.67374,262.52729 756.62788,255.75289 764.58202,248.97849 772.41559,241.79991 780.24991,234.64479 788.08423,227.48968 795.9193,220.35804 803.87645,213.6775 811.83359,206.99697 819.91281,200.76754 828.23542,195.41687 836.55803,190.0662 845.12403,185.59428 854.05476,182.42876 862.98548,179.26324 872.28091,177.40412 882.06239,177.27903 891.48363,177.15855 900.4792,178.75007 909.15554,181.62743 917.83189,184.5048 926.18899,188.66801 934.33329,193.69093 942.47759,198.71385 950.40909,204.59648 958.2342,210.91267 966.05932,217.22886 973.77805,223.97861 981.49683,230.73578 989.21562,237.49295 996.93445,244.25753 1004.7598,250.6034 1012.5851,256.94926 1020.5168,262.8764 1028.6615,267.95866 1036.8062,273.04093 1045.1638,277.27833 1053.8407,280.24471 1062.5176,283.2111 1071.5139,284.90647 1080.9359,284.90468 1091.5794,284.90266 1101.7411,282.99766 1111.5415,279.66578 1121.3419,276.33389 1130.781,271.57511 1139.9791,265.86552 1149.1773,260.15594 1158.1346,253.49555 1166.9714,246.36044 1175.8082,239.22533 1184.5246,231.61551 1193.241,224.00706 1201.9573,216.3986 1210.6737,208.79151 1219.5105,201.66189 1228.3473,194.53226 1237.3046,187.88008 1246.5028,182.18145 1255.7009,176.48283 1265.14,171.73774 1274.9403,168.42229 1284.7407,165.10683 1294.9024,163.22101 1305.5459,163.2409 1315.1001,163.25876 1324.2164,165.0386 1333.0042,168.13363 1341.7919,171.22866 1350.2512,175.63887 1358.4912,180.91746 1366.7312,186.19605 1374.752,192.34301 1382.663,198.91154 1390.574,205.48007 1398.3752,212.47017 1406.1758,219.43503 1413.9765,226.39989 1421.7767,233.33951 1429.6857,239.80708 1437.5948,246.27466 1445.6127,252.27019 1453.8488,257.34687 1462.085,262.42354 1470.5393,266.58137 1479.3212,269.37353 1488.1032,272.1657 1497.2127,273.5922 1506.7591,273.20624 1518.2952,272.73984 1529.1256,270.09571 1539.4266,265.81535 1549.7276,261.53499 1559.4992,255.61839 1568.9177,248.60702 1578.3362,241.59565 1587.4015,233.48952 1596.29,224.83009 1605.1785,216.17067 1613.8902,206.95796 1622.6012,197.73343 1631.3123,188.50891 1640.0228,179.27257 1648.909,170.56589 1657.7952,161.85921 1666.8571,153.6822 1676.271,146.57632 1685.6848,139.47044 1695.4507,133.4357 1705.7448,129.01358 1716.0389,124.59145 1726.8613,121.78194 1738.3882,121.12652 1750.0536,120.46322 1761.2542,121.97488 1772.1064,125.12372 1782.9586,128.27257 1793.4625,133.05862 1803.7345,138.94411 1814.0065,144.8296 1824.0466,151.81454 1833.9712,159.36119 1843.8958,166.90783 1853.7049,175.01617 1863.515,183.14846 1873.3252,191.28075 1883.1362,199.43699 1893.0647,207.07944 1902.9932,214.72188 1913.0391,221.85053 1923.3188,227.92762 1933.5985,234.00472 1944.1121,239.03028 1954.976,242.46653 1965.8398,245.90279 1977.0539,247.74975 1988.7348,247.46967 2001.3913,247.16619 2013.4388,244.74336 2025.0288,240.71768 2036.6188,236.69201 2047.7512,231.0635 2058.5775,224.34869 2069.4039,217.63387 2079.9242,209.83274 2090.2899,201.46182 2100.6556,193.09091 2110.8668,184.15021 2121.0749,175.15624 2131.2829,166.16228 2141.4879,157.11505 2151.8414,148.53109 2162.1948,139.94712 2172.6966,131.82642 2183.4984,124.6855 2194.3001,117.54459 2205.4018,111.38346 2216.9548,106.71864 2228.5078,102.05382 2240.5123,98.88531 2253.1196,97.729636 2267.3956,96.420997 2281.4086,97.436225 2295.2231,100.18456 2309.0377,102.93289 2322.6538,107.41433 2336.1361,113.03811 2349.6185,118.6619 2362.967,125.42802 2376.2465,132.74573 2389.5259,140.06344 2402.7363,147.93273 2415.9421,155.76283 2429.148,163.59294 2442.3494,171.38387 2455.611,178.54485 2468.8726,185.70584 2482.1944,192.23688 2495.641,197.54721 2509.0877,202.85755 2522.6591,206.94718 2536.4201,209.22534 2550.1811,211.5035 2564.1316,211.97019 2578.3362,210.03466 2592.2957,208.13253 2605.3585,203.82605 2617.7504,197.73129 2630.1423,191.63653 2641.8633,183.7535 2653.139,174.69828 2664.4147,165.64305 2675.2451,155.41563 2685.856,144.6321 2696.4668,133.84856 2706.8581,122.50891 2717.2554,111.22922 2727.6527,99.949532 2738.0562,88.729806 2748.6913,78.186123 2759.3265,67.64244 2770.1935,57.774798 2781.5179,49.199278 2792.8423,40.623758 2804.6242,33.340359 2817.0891,27.96516 2829.5541,22.589961 2842.7022,19.122962 2856.7591,18.180242 2871.8103,17.170841 2886.2585,19.014226 2900.2548,23.007798 2914.2512,27.001369 2927.7958,33.145127 2941.0399,40.736472 2954.2839,48.327816 2967.2274,57.366747 2980.0215,67.150664 2992.8156,76.934581 3005.4604,87.463485 3018.1071,98.034775 3030.7538,108.60607 3043.4023,119.21974 3056.204,129.17321 3069.0057,139.12667 3081.9605,148.41992 3095.2196,156.35035 3108.4787,164.28079 3122.0421,170.84841 3136.0612,175.35062 3150.0802,179.85283 3164.5547,182.28963 3179.6361,181.95841 3196.3069,181.59228 3212.1744,178.32862 3227.4392,172.88731 3242.7039,167.446 3257.3661,159.82703 3271.6262,150.7503 3285.8864,141.67357 3299.7446,131.13906 3313.4015,119.86667 3327.0585,108.59428 3340.5142,96.584001 3353.9693,84.555718 3367.4244,72.527436 3380.879,60.481149 3394.5338,49.136741 3408.1885,37.792332 3422.0434,27.149802 3436.2992,17.929033 3450.5549,8.7082637 3465.2115,0.90925529 3480.4697,-4.7481096 3495.7279,-10.405474 3511.5876,-13.921196 3528.2496,-14.575391 3544.8979,-15.229049 3560.972,-12.957771 3576.615,-8.4987485 3592.2581,-4.039726 3607.4701,2.6070407 3622.3944,10.704359 3637.3187,18.801678 3651.9553,28.349548 3666.4474,38.610778 3680.9394,48.872008 3695.2871,59.846598 3709.6335,70.797355 3723.9799,81.748111 3738.325,92.675035 3752.8123,102.84093 3767.2995,113.00683 3781.9288,122.41171 3796.8435,130.31836 3811.7581,138.22502 3826.958,144.63346 3842.5866,148.80649"
       id="path4539" />
    <path
       style="fill:none;stroke:#000000;stroke-width:1px;stroke-linecap:butt;stroke-linejoin:miter;stroke-opacity:1"
       d="M 3840.6568,149.58141 C 3840.6568,149.58141 3849.6478,157.18611 3864.5058,168.65661 3879.3648,180.12711 3900.0898,195.46341 3923.5568,210.92661 3947.0248,226.38981 3973.2338,241.97981 3999.0618,253.95781 4024.8898,265.93571 4050.3348,274.30161 4072.2738,275.31651 4093.2508,276.28681 4112.9648,270.59691 4132.0508,261.50901 4151.1358,252.42111 4169.5908,239.93511 4188.0488,227.31341 4206.5078,214.69161 4224.9688,201.93421 4244.0648,192.30321 4263.1608,182.67221 4282.8928,176.16771 4303.8918,176.05201 4326.8828,175.92531 4348.5588,182.69671 4369.5758,192.87071 4390.5918,203.04481 4410.9498,216.62161 4431.3048,230.10571 4451.6608,243.58971 4472.0138,256.98111 4493.0228,266.78431 4514.0308,276.58751 4535.6948,282.80261 4558.6708,281.93421 4579.9888,281.12841 4599.5868,273.67511 4618.3248,262.90141 4637.0638,252.12781 4654.9428,238.03381 4672.8218,223.94681 4690.6998,209.85981 4708.5798,195.77961 4727.3188,185.03371 4746.0588,174.28771 4765.6578,166.87591 4786.9788,166.12551 4811.8008,165.25181 4835.1738,172.34991 4857.8218,183.41421 4880.4698,194.47861 4902.3928,209.50921 4924.3138,224.50061 4946.2348,239.49211 4968.1548,254.44421 4990.7958,265.35171 5013.4378,276.25911 5036.8008,283.12181 5061.6108,281.93421 5085.3938,280.79571 5107.0498,271.81191 5127.6448,258.96051 5148.2388,246.10911 5167.7708,229.39011 5187.3068,212.78141 5206.8418,196.17261 5226.3808,179.67401 5246.9878,167.26321 5267.5958,154.85251 5289.2708,146.52971 5313.0808,146.27261 5339.0988,145.99151 5362.9908,155.19751 5385.8148,169.05101 5408.6388,182.90441 5430.3948,201.40541 5452.1438,219.71461 5473.8928,238.02371 5495.6338,256.14101 5518.4268,269.22701 5541.2198,282.31301 5565.0648,290.36771 5591.0218,288.55181 5612.5418,287.04621 5631.1728,277.55021 5648.3558,264.01241 5665.5398,250.47451 5681.2748,232.89491 5697.0008,215.22201 5712.7278,197.54911 5728.4468,179.78301 5745.5968,165.87231 5762.7478,151.96161 5781.3308,141.90631 5802.7858,139.65501 5833.5008,136.43191 5862.4828,144.75391 5890.5978,158.84131 5918.7128,172.92871 5945.9618,192.78151 5973.2078,212.62011 6000.4548,232.45861 6027.6998,252.28291 6055.8088,266.31321 6083.9188,280.34361 6112.8918,288.58011 6143.5948,285.24301 6167.1748,282.68001 6187.5738,271.91451 6206.3748,256.99411 6225.1748,242.07361 6242.3778,222.99811 6259.5678,203.81481 6276.7568,184.63161 6293.9318,165.34071 6312.6778,149.98951 6331.4238,134.63821 6351.7408,123.22661 6375.2118,119.80211 6414.7298,114.03611 6452.8708,121.69881 6490.3408,136.22961 6527.8108,150.76041 6564.6088,172.15941 6601.4428,193.86611 6638.2768,215.57291 6675.1458,237.58741 6712.7568,253.34931 6750.3678,269.11111 6788.7198,278.62031 6828.5198,275.31651 6862.5778,272.48921 6893.6068,259.07241 6923.1278,240.48801 6952.6488,221.90351 6980.6618,198.15151 7008.6878,174.65381 7036.7148,151.15621 7064.7548,127.91291 7094.3288,110.34591 7123.9038,92.779013 7155.0138,80.888413 7189.1808,80.096213 7224.6878,79.272813 7266.4308,90.442013 7309.0718,107.65891 7351.7138,124.87581 7395.2528,148.14051 7434.3538,171.50811 7473.4547,194.87571 7508.1167,218.34621 7533.0037,235.97481 7557.8917,253.60341 7573.0037,265.39011 7573.0037,265.39011"
       id="path4767"
       inkscape:connector-curvature="0"
       sodipodi:nodetypes="ccccccccccccccccccccccccccccccccccccccccccccccccccccc" />
    <path
       style="fill:none;stroke:#000000;stroke-width:1px;stroke-linecap:butt;stroke-linejoin:miter;stroke-opacity:1;display:inline"
       d="M 7558.0897,254.73561 C 7558.0897,254.73561 7567.0807,262.34031 7581.9387,273.81081 7596.7977,285.28131 7617.5227,300.61761 7640.9897,316.08081 7664.4577,331.54401 7690.6667,347.13401 7716.4947,359.11201 7742.3227,371.08991 7767.7677,379.45581 7789.7067,380.47071 7810.6837,381.44101 7830.3977,375.75111 7849.4837,366.66321 7868.5687,357.57531 7887.0237,345.08931 7905.4817,332.46761 7923.9407,319.84581 7942.4017,307.08841 7961.4977,297.45741 7980.5937,287.82641 8000.3257,281.32191 8021.3247,281.20621 8044.3157,281.07951 8065.9917,287.85091 8087.0087,298.02491 8108.0247,308.19901 8128.3827,321.77581 8148.7377,335.25991 8169.0937,348.74391 8189.4467,362.13531 8210.4557,371.93851 8231.4637,381.74171 8253.1277,387.95681 8276.1037,387.08841 8297.4217,386.28261 8317.0197,378.82931 8335.7577,368.05561 8354.4967,357.28201 8372.3757,343.18801 8390.2547,329.10101 8408.1327,315.01401 8426.0127,300.93381 8444.7517,290.18791 8463.4917,279.44191 8483.0907,272.03011 8504.4117,271.27971 8529.2337,270.40601 8552.6067,277.50411 8575.2547,288.56841 8597.9027,299.63281 8619.8257,314.66341 8641.7467,329.65481 8663.6677,344.64631 8685.5877,359.59841 8708.2287,370.50591 8730.8707,381.41331 8754.2337,388.27601 8779.0437,387.08841 8802.8267,385.94991 8824.4827,376.96611 8845.0777,364.11471 8865.6717,351.26331 8885.2037,334.54431 8904.7397,317.93561 8924.2747,301.32681 8943.8137,284.82821 8964.4207,272.41741 8985.0287,260.00671 9006.7037,251.68391 9030.5137,251.42681 9056.5317,251.14571 9080.4237,260.35171 9103.2477,274.20521 9126.0717,288.05861 9147.8277,306.55961 9169.5767,324.86881 9191.3257,343.17791 9213.0667,361.29521 9235.8597,374.38121 9258.6527,387.46721 9282.4977,395.52191 9308.4547,393.70601 9329.9747,392.20041 9348.6057,382.70441 9365.7887,369.16661 9382.9727,355.62871 9398.7077,338.04911 9414.4337,320.37621 9430.1607,302.70331 9445.8797,284.93721 9463.0297,271.02651 9480.1807,257.11581 9498.7637,247.06051 9520.2187,244.80921 9550.9337,241.58611 9579.9157,249.90811 9608.0307,263.99551 9636.1457,278.08291 9663.3947,297.93571 9690.6407,317.77431 9717.8877,337.61281 9745.1327,357.43711 9773.2417,371.46741 9801.3517,385.49781 9830.3247,393.73431 9861.0277,390.39721 9884.6077,387.83421 9905.0067,377.06871 9923.8077,362.14831 9942.6077,347.22781 9959.8107,328.15231 9977.0007,308.96901 9994.1897,289.78581 10011.365,270.49491 10030.111,255.14371 10048.857,239.79241 10069.174,228.38081 10092.645,224.95631 10132.163,219.19031 10170.304,226.85301 10207.774,241.38381 10245.244,255.91461 10282.042,277.31361 10318.876,299.02031 10355.71,320.72711 10392.579,342.74161 10430.19,358.50351 10467.801,374.26531 10506.153,383.77451 10545.953,380.47071 10580.011,377.64341 10611.04,364.22661 10640.561,345.64221 10670.082,327.05771 10698.095,303.30571 10726.121,279.80801 10754.148,256.31041 10782.188,233.06711 10811.762,215.50011 10841.337,197.93321 10872.447,186.04261 10906.614,185.25041 10942.121,184.42701 10983.864,195.59621 11026.505,212.81311 11069.147,230.03001 11112.686,253.29471 11151.787,276.66231 11190.888,300.02991 11225.55,323.50041 11250.437,341.12901 11275.325,358.75761 11290.437,370.54431 11290.437,370.54431"
       id="path4767-9"
       inkscape:connector-curvature="0"
       sodipodi:nodetypes="ccccccccccccccccccccccccccccccccccccccccccccccccccccc" />
    <path
       style="fill:none;stroke:#000000;stroke-width:1px;stroke-linecap:butt;stroke-linejoin:miter;stroke-opacity:1;display:inline"
       d="M 11292.232,376.39931 C 11292.232,376.39931 11301.223,384.00401 11316.081,395.47451 11330.94,406.94501 11351.665,422.28131 11375.132,437.74451 11398.6,453.20771 11424.809,468.79771 11450.637,480.77571 11476.465,492.75361 11501.91,501.11951 11523.849,502.13441 11544.826,503.10471 11564.54,497.41481 11583.626,488.32691 11602.711,479.23901 11621.166,466.75301 11639.624,454.13131 11658.083,441.50951 11676.544,428.75211 11695.64,419.12111 11714.736,409.49011 11734.468,402.98561 11755.467,402.86991 11778.458,402.74321 11800.134,409.51461 11821.151,419.68861 11842.167,429.86271 11862.525,443.43951 11882.88,456.92361 11903.236,470.40761 11923.589,483.79901 11944.598,493.60221 11965.606,503.40541 11987.27,509.62051 12010.246,508.75211 12031.564,507.94631 12051.162,500.49301 12069.9,489.71931 12088.639,478.94571 12106.518,464.85171 12124.397,450.76471 12142.275,436.67771 12160.155,422.59751 12178.894,411.85161 12197.634,401.10561 12217.233,393.69381 12238.554,392.94341 12263.376,392.06971 12286.749,399.16781 12309.397,410.23211 12332.045,421.29651 12353.968,436.32711 12375.889,451.31851 12397.81,466.31001 12419.73,481.26211 12442.371,492.16961 12465.013,503.07701 12488.376,509.93971 12513.186,508.75211 12536.969,507.61361 12558.625,498.62981 12579.22,485.77841 12599.814,472.92701 12619.346,456.20801 12638.882,439.59931 12658.417,422.99051 12677.956,406.49191 12698.563,394.08111 12719.171,381.67041 12740.846,373.34761 12764.656,373.09051 12790.674,372.80941 12814.566,382.01541 12837.39,395.86891 12860.214,409.72231 12881.97,428.22331 12903.719,446.53251 12925.468,464.84161 12947.209,482.95891 12970.002,496.04491 12992.795,509.13091 13016.64,517.18561 13042.597,515.36971 13064.117,513.86411 13082.748,504.36811 13099.931,490.83031 13117.115,477.29241 13132.85,459.71281 13148.576,442.03991 13164.303,424.36701 13180.022,406.60091 13197.172,392.69021 13214.323,378.77951 13232.906,368.72421 13254.361,366.47291 13285.076,363.24981 13314.058,371.57181 13342.173,385.65921 13370.288,399.74661 13397.537,419.59941 13424.783,439.43801 13452.03,459.27651 13479.275,479.10081 13507.384,493.13111 13535.494,507.16151 13564.467,515.39801 13595.17,512.06091 13618.75,509.49791 13639.149,498.73241 13657.95,483.81201 13676.75,468.89151 13693.953,449.81601 13711.143,430.63271 13728.332,411.44951 13745.507,392.15861 13764.253,376.80741 13782.999,361.45611 13803.316,350.04451 13826.787,346.62001 13866.305,340.85401 13904.446,348.51671 13941.916,363.04751 13979.386,377.57831 14016.184,398.97731 14053.018,420.68401 14089.852,442.39081 14126.721,464.40531 14164.332,480.16721 14201.943,495.92901 14240.295,505.43821 14280.095,502.13441 14314.153,499.30711 14345.182,485.89031 14374.703,467.30591 14404.224,448.72141 14432.237,424.96941 14460.263,401.47171 14488.29,377.97411 14516.33,354.73081 14545.904,337.16381 14575.479,319.59691 14606.589,307.70631 14640.756,306.91411 14676.263,306.09071 14718.006,317.25991 14760.647,334.47681 14803.289,351.69371 14846.828,374.95841 14885.929,398.32601 14925.03,421.69361 14959.692,445.16411 14984.579,462.79271 15009.467,480.42131 15024.579,492.20801 15024.579,492.20801"
       id="path4767-9-0"
       inkscape:connector-curvature="0"
       sodipodi:nodetypes="ccccccccccccccccccccccccccccccccccccccccccccccccccccc" />
    <path
       style="fill:none;stroke:#000000;stroke-width:1px;stroke-linecap:butt;stroke-linejoin:miter;stroke-opacity:1;display:inline"
       d="M 15007.657,481.68529 C 15007.657,481.68529 15016.648,489.28999 15031.506,500.76049 15046.365,512.23098 15067.09,527.56728 15090.557,543.03048 15114.025,558.49368 15140.234,574.08368 15166.062,586.06168 15191.89,598.03958 15217.335,606.40548 15239.274,607.42042 15260.251,608.39072 15279.965,602.70078 15299.051,593.61288 15318.136,584.52498 15336.591,572.03898 15355.049,559.41728 15373.508,546.79548 15391.969,534.03808 15411.065,524.40708 15430.161,514.77608 15449.893,508.27159 15470.892,508.15589 15493.883,508.02919 15515.559,514.80058 15536.576,524.97458 15557.592,535.14868 15577.95,548.72548 15598.305,562.20958 15618.661,575.69358 15639.014,589.08498 15660.023,598.88818 15681.031,608.69142 15702.695,614.90652 15725.671,614.03812 15746.989,613.23232 15766.587,605.77898 15785.325,595.00528 15804.064,584.23168 15821.943,570.13768 15839.822,556.05068 15857.7,541.96368 15875.58,527.88348 15894.319,517.13758 15913.059,506.39159 15932.658,498.97979 15953.979,498.22939 15978.801,497.35569 16002.174,504.45379 16024.822,515.51808 16047.47,526.58248 16069.393,541.61308 16091.314,556.60448 16113.235,571.59598 16135.155,586.54808 16157.796,597.45558 16180.438,608.36302 16203.801,615.22572 16228.611,614.03812 16252.394,612.89962 16274.05,603.91578 16294.645,591.06438 16315.239,578.21298 16334.771,561.49398 16354.307,544.88528 16373.842,528.27648 16393.381,511.77788 16413.988,499.36709 16434.596,486.95639 16456.271,478.63359 16480.081,478.37649 16506.099,478.09539 16529.991,487.30139 16552.815,501.15489 16575.639,515.00828 16597.395,533.50928 16619.144,551.81848 16640.893,570.12758 16662.634,588.24488 16685.427,601.33088 16708.22,614.41692 16732.065,622.47162 16758.022,620.65572 16779.542,619.15012 16798.173,609.65412 16815.356,596.11628 16832.54,582.57838 16848.275,564.99878 16864.001,547.32588 16879.728,529.65298 16895.447,511.88688 16912.597,497.97619 16929.748,484.06549 16948.331,474.01019 16969.786,471.75889 17000.501,468.53579 17029.483,476.85779 17057.598,490.94519 17085.713,505.03259 17112.962,524.88538 17140.208,544.72398 17167.455,564.56248 17194.7,584.38678 17222.809,598.41708 17250.919,612.44752 17279.892,620.68402 17310.595,617.34692 17334.175,614.78392 17354.574,604.01838 17373.375,589.09798 17392.175,574.17748 17409.378,555.10198 17426.568,535.91868 17443.757,516.73548 17460.932,497.44459 17479.678,482.09339 17498.424,466.74209 17518.741,455.33049 17542.212,451.90599 17581.73,446.13999 17619.871,453.80269 17657.341,468.33349 17694.811,482.86429 17731.609,504.26329 17768.443,525.96998 17805.277,547.67678 17842.146,569.69128 17879.757,585.45318 17917.368,601.21498 17955.72,610.72422 17995.52,607.42042 18029.578,604.59308 18060.607,591.17628 18090.128,572.59188 18119.649,554.00738 18147.662,530.25538 18175.688,506.75769 18203.715,483.26009 18231.755,460.01679 18261.329,442.44979 18290.904,424.88289 18322.014,412.99229 18356.181,412.20009 18391.688,411.37669 18433.431,422.54589 18476.072,439.76279 18518.714,456.97969 18562.253,480.24439 18601.354,503.61199 18640.455,526.97958 18675.117,550.45008 18700.004,568.07868 18724.892,585.70728 18740.004,597.49398 18740.004,597.49398"
       id="path4767-9-0-7"
       inkscape:connector-curvature="0"
       sodipodi:nodetypes="ccccccccccccccccccccccccccccccccccccccccccccccccccccc" />
    <path
       style="fill:none;stroke:#000000;stroke-width:1px;stroke-linecap:butt;stroke-linejoin:miter;stroke-opacity:1;display:inline"
       d="M 18713.722,584.63156 C 18713.722,584.63156 18722.713,592.23626 18737.571,603.70676 18752.43,615.17722 18773.155,630.51352 18796.622,645.97672 18820.09,661.43992 18846.299,677.02992 18872.127,689.00792 18897.955,700.98582 18923.4,709.35172 18945.339,710.36662 18966.316,711.33692 18986.03,705.64702 19005.116,696.55912 19024.201,687.47122 19042.656,674.98522 19061.114,662.36352 19079.573,649.74172 19098.034,636.98432 19117.13,627.35332 19136.226,617.72232 19155.958,611.21782 19176.957,611.10212 19199.948,610.97542 19221.624,617.74682 19242.641,627.92082 19263.657,638.09492 19284.015,651.67172 19304.37,665.15582 19324.726,678.63982 19345.079,692.03122 19366.088,701.83442 19387.096,711.63762 19408.76,717.85272 19431.736,716.98432 19453.054,716.17852 19472.652,708.72522 19491.39,697.95152 19510.129,687.17792 19528.008,673.08392 19545.887,658.99692 19563.765,644.90992 19581.645,630.82972 19600.384,620.08382 19619.124,609.33782 19638.723,601.92606 19660.044,601.17566 19684.866,600.30196 19708.239,607.40002 19730.887,618.46432 19753.535,629.52872 19775.458,644.55932 19797.379,659.55072 19819.3,674.54222 19841.22,689.49432 19863.861,700.40182 19886.503,711.30922 19909.866,718.17192 19934.676,716.98432 19958.459,715.84582 19980.115,706.86202 20000.71,694.01062 20021.304,681.15922 20040.836,664.44022 20060.372,647.83152 20079.907,631.22272 20099.446,614.72412 20120.053,602.31336 20140.661,589.90266 20162.336,581.57986 20186.146,581.32276 20212.164,581.04166 20236.056,590.24766 20258.88,604.10116 20281.704,617.95452 20303.46,636.45552 20325.209,654.76472 20346.958,673.07382 20368.699,691.19112 20391.492,704.27712 20414.285,717.36312 20438.13,725.41782 20464.087,723.60192 20485.607,722.09632 20504.238,712.60032 20521.421,699.06252 20538.605,685.52462 20554.34,667.94502 20570.066,650.27212 20585.793,632.59922 20601.512,614.83312 20618.662,600.92246 20635.813,587.01176 20654.396,576.95646 20675.851,574.70516 20706.566,571.48206 20735.548,579.80406 20763.663,593.89146 20791.778,607.97882 20819.027,627.83162 20846.273,647.67022 20873.52,667.50872 20900.765,687.33302 20928.874,701.36332 20956.984,715.39372 20985.957,723.63022 21016.66,720.29312 21040.24,717.73012 21060.639,706.96462 21079.44,692.04422 21098.24,677.12372 21115.443,658.04822 21132.633,638.86492 21149.822,619.68172 21166.997,600.39086 21185.743,585.03966 21204.489,569.68836 21224.806,558.27676 21248.277,554.85226 21287.795,549.08626 21325.936,556.74896 21363.406,571.27976 21400.876,585.81056 21437.674,607.20952 21474.508,628.91622 21511.342,650.62302 21548.211,672.63752 21585.822,688.39942 21623.433,704.16122 21661.785,713.67042 21701.585,710.36662 21735.643,707.53932 21766.672,694.12252 21796.193,675.53812 21825.714,656.95362 21853.727,633.20162 21881.753,609.70392 21909.78,586.20636 21937.82,562.96306 21967.394,545.39606 21996.969,527.82916 22028.079,515.93856 22062.246,515.14636 22097.753,514.32296 22139.496,525.49216 22182.137,542.70906 22224.779,559.92596 22268.318,583.19066 22307.419,606.55826 22346.52,629.92582 22381.182,653.39632 22406.069,671.02492 22430.957,688.65352 22446.069,700.44022 22446.069,700.44022"
       id="path4767-9-0-9"
       inkscape:connector-curvature="0"
       sodipodi:nodetypes="ccccccccccccccccccccccccccccccccccccccccccccccccccccc" />
    <path
       style="fill:none;stroke:#000000;stroke-width:1px;stroke-linecap:butt;stroke-linejoin:miter;stroke-opacity:1;display:inline"
       d="M 22429.146,678.21905 C 22429.146,678.21905 22438.137,685.82375 22452.995,697.29425 22467.854,708.76475 22488.579,724.10105 22512.046,739.56425 22535.514,755.02745 22561.723,770.61745 22587.551,782.59545 22613.379,794.57335 22638.824,802.93925 22660.763,803.95415 22681.74,804.92445 22701.454,799.23455 22720.54,790.14665 22739.625,781.05875 22758.08,768.57275 22776.538,755.95105 22794.997,743.32925 22813.458,730.57185 22832.554,720.94085 22851.65,711.30985 22871.382,704.80535 22892.381,704.68965 22915.372,704.56295 22937.048,711.33435 22958.065,721.50835 22979.081,731.68245 22999.439,745.25925 23019.794,758.74335 23040.15,772.22735 23060.503,785.61875 23081.512,795.42195 23102.52,805.22515 23124.184,811.44025 23147.16,810.57185 23168.478,809.76605 23188.076,802.31275 23206.814,791.53905 23225.553,780.76545 23243.432,766.67145 23261.311,752.58445 23279.189,738.49745 23297.069,724.41725 23315.808,713.67135 23334.548,702.92535 23354.147,695.51355 23375.468,694.76315 23400.29,693.88945 23423.663,700.98755 23446.311,712.05185 23468.959,723.11625 23490.882,738.14685 23512.803,753.13825 23534.724,768.12975 23556.644,783.08185 23579.285,793.98935 23601.927,804.89675 23625.29,811.75945 23650.1,810.57185 23673.883,809.43335 23695.539,800.44955 23716.134,787.59815 23736.728,774.74675 23756.26,758.02775 23775.796,741.41905 23795.331,724.81025 23814.87,708.31165 23835.477,695.90085 23856.085,683.49015 23877.76,675.16735 23901.57,674.91025 23927.588,674.62915 23951.48,683.83515 23974.304,697.68865 23997.128,711.54205 24018.884,730.04305 24040.633,748.35225 24062.382,766.66135 24084.123,784.77865 24106.916,797.86465 24129.709,810.95065 24153.554,819.00535 24179.511,817.18945 24201.031,815.68385 24219.662,806.18785 24236.845,792.65005 24254.029,779.11215 24269.764,761.53255 24285.49,743.85965 24301.217,726.18675 24316.936,708.42065 24334.086,694.50995 24351.237,680.59925 24369.82,670.54395 24391.275,668.29265 24421.99,665.06955 24450.972,673.39155 24479.087,687.47895 24507.202,701.56635 24534.451,721.41915 24561.697,741.25775 24588.944,761.09625 24616.189,780.92055 24644.298,794.95085 24672.408,808.98125 24701.381,817.21775 24732.084,813.88065 24755.664,811.31765 24776.063,800.55215 24794.864,785.63175 24813.664,770.71125 24830.867,751.63575 24848.057,732.45245 24865.246,713.26925 24882.421,693.97835 24901.167,678.62715 24919.913,663.27585 24940.23,651.86425 24963.701,648.43975 25003.219,642.67375 25041.36,650.33645 25078.83,664.86725 25116.3,679.39805 25153.098,700.79705 25189.932,722.50375 25226.766,744.21055 25263.635,766.22505 25301.246,781.98695 25338.857,797.74875 25377.209,807.25795 25417.009,803.95415 25451.067,801.12685 25482.096,787.71005 25511.617,769.12565 25541.138,750.54115 25569.151,726.78915 25597.177,703.29145 25625.204,679.79385 25653.244,656.55055 25682.818,638.98355 25712.393,621.41665 25743.503,609.52605 25777.67,608.73385 25813.177,607.91045 25854.92,619.07965 25897.561,636.29655 25940.203,653.51345 25983.742,676.77815 26022.843,700.14575 26061.944,723.51335 26096.606,746.98385 26121.493,764.61245 26146.381,782.24105 26161.493,794.02775 26161.493,794.02775"
       id="path4767-9-0-0"
       inkscape:connector-curvature="0"
       sodipodi:nodetypes="ccccccccccccccccccccccccccccccccccccccccccccccccccccc" />
    <path
       style="fill:none;stroke:#000000;stroke-width:1px;stroke-linecap:butt;stroke-linejoin:miter;stroke-opacity:1;display:inline"
       d="M 26153.93,799.88282 C 26153.93,799.88282 26162.921,807.48752 26177.779,818.95802 26192.638,830.42852 26213.363,845.76482 26236.83,861.22802 26260.298,876.69122 26286.507,892.28122 26312.335,904.25922 26338.163,916.23712 26363.608,924.60302 26385.547,925.61792 26406.524,926.58822 26426.238,920.89832 26445.324,911.81042 26464.409,902.72252 26482.864,890.23652 26501.322,877.61482 26519.781,864.99302 26538.242,852.23562 26557.338,842.60462 26576.434,832.97362 26596.166,826.46912 26617.165,826.35342 26640.156,826.22672 26661.832,832.99812 26682.849,843.17212 26703.865,853.34622 26724.223,866.92302 26744.578,880.40712 26764.934,893.89112 26785.287,907.28252 26806.296,917.08572 26827.304,926.88892 26848.968,933.10402 26871.944,932.23562 26893.262,931.42982 26912.86,923.97652 26931.598,913.20282 26950.337,902.42922 26968.216,888.33522 26986.095,874.24822 27003.973,860.16122 27021.853,846.08102 27040.592,835.33512 27059.332,824.58912 27078.931,817.17732 27100.252,816.42692 27125.074,815.55322 27148.447,822.65132 27171.095,833.71562 27193.743,844.78002 27215.666,859.81062 27237.587,874.80202 27259.508,889.79352 27281.428,904.74562 27304.069,915.65312 27326.711,926.56052 27350.074,933.42322 27374.884,932.23562 27398.667,931.09712 27420.323,922.11332 27440.918,909.26192 27461.512,896.41052 27481.044,879.69152 27500.58,863.08282 27520.115,846.47402 27539.654,829.97542 27560.261,817.56462 27580.869,805.15392 27602.544,796.83112 27626.354,796.57402 27652.372,796.29292 27676.264,805.49892 27699.088,819.35242 27721.912,833.20582 27743.668,851.70682 27765.417,870.01602 27787.166,888.32512 27808.907,906.44242 27831.7,919.52842 27854.493,932.61442 27878.338,940.66912 27904.295,938.85322 27925.815,937.34762 27944.446,927.85162 27961.629,914.31382 27978.813,900.77592 27994.548,883.19632 28010.274,865.52342 28026.001,847.85052 28041.72,830.08442 28058.87,816.17372 28076.021,802.26302 28094.604,792.20772 28116.059,789.95642 28146.774,786.73332 28175.756,795.05532 28203.871,809.14272 28231.986,823.23012 28259.235,843.08292 28286.481,862.92152 28313.728,882.76002 28340.973,902.58432 28369.082,916.61462 28397.192,930.64502 28426.165,938.88152 28456.868,935.54442 28480.448,932.98142 28500.847,922.21592 28519.648,907.29552 28538.448,892.37502 28555.651,873.29952 28572.841,854.11622 28590.03,834.93302 28607.205,815.64212 28625.951,800.29092 28644.697,784.93962 28665.014,773.52802 28688.485,770.10352 28728.003,764.33752 28766.144,772.00022 28803.614,786.53102 28841.084,801.06182 28877.882,822.46082 28914.716,844.16752 28951.55,865.87432 28988.419,887.88882 29026.03,903.65072 29063.641,919.41252 29101.993,928.92172 29141.793,925.61792 29175.851,922.79062 29206.88,909.37382 29236.401,890.78942 29265.922,872.20492 29293.935,848.45292 29321.961,824.95522 29349.988,801.45762 29378.028,778.21432 29407.602,760.64732 29437.177,743.08042 29468.287,731.18982 29502.454,730.39762 29537.961,729.57422 29579.704,740.74342 29622.345,757.96032 29664.987,775.17722 29708.526,798.44192 29747.627,821.80952 29786.728,845.17712 29821.39,868.64762 29846.277,886.27622 29871.165,903.90482 29886.277,915.69152 29886.277,915.69152"
       id="path4767-9-0-2"
       inkscape:connector-curvature="0"
       sodipodi:nodetypes="ccccccccccccccccccccccccccccccccccccccccccccccccccccc" />
    <path
       style="fill:none;stroke:#000000;stroke-width:1px;stroke-linecap:butt;stroke-linejoin:miter;stroke-opacity:1;display:inline"
       d="M 29869.354,912.18783 C 29869.354,912.18783 29878.345,919.79253 29893.203,931.26303 29908.062,942.73353 29928.787,958.06983 29952.254,973.53303 29975.722,988.99623 30001.931,1004.5862 30027.759,1016.5642 30053.587,1028.5421 30079.032,1036.908 30100.971,1037.9229 30121.948,1038.8932 30141.662,1033.2033 30160.748,1024.1154 30179.833,1015.0275 30198.288,1002.5415 30216.746,989.91983 30235.205,977.29803 30253.666,964.54063 30272.762,954.90963 30291.858,945.27863 30311.59,938.77413 30332.589,938.65843 30355.58,938.53173 30377.256,945.30313 30398.273,955.47713 30419.289,965.65123 30439.647,979.22803 30460.002,992.71213 30480.358,1006.1961 30500.711,1019.5875 30521.72,1029.3907 30542.728,1039.1939 30564.392,1045.409 30587.368,1044.5406 30608.686,1043.7348 30628.284,1036.2815 30647.022,1025.5078 30665.761,1014.7342 30683.64,1000.6402 30701.519,986.55323 30719.397,972.46623 30737.277,958.38603 30756.016,947.64013 30774.756,936.89413 30794.355,929.48233 30815.676,928.73193 30840.498,927.85823 30863.871,934.95633 30886.519,946.02063 30909.167,957.08503 30931.09,972.11563 30953.011,987.10703 30974.932,1002.0985 30996.852,1017.0506 31019.493,1027.9581 31042.135,1038.8655 31065.498,1045.7282 31090.308,1044.5406 31114.091,1043.4021 31135.747,1034.4183 31156.342,1021.5669 31176.936,1008.7155 31196.468,991.99653 31216.004,975.38783 31235.539,958.77903 31255.078,942.28043 31275.685,929.86963 31296.293,917.45893 31317.968,909.13613 31341.778,908.87903 31367.796,908.59793 31391.688,917.80393 31414.512,931.65743 31437.336,945.51083 31459.092,964.01183 31480.841,982.32103 31502.59,1000.6301 31524.331,1018.7474 31547.124,1031.8334 31569.917,1044.9194 31593.762,1052.9741 31619.719,1051.1582 31641.239,1049.6526 31659.87,1040.1566 31677.053,1026.6188 31694.237,1013.0809 31709.972,995.50133 31725.698,977.82843 31741.425,960.15553 31757.144,942.38943 31774.294,928.47873 31791.445,914.56803 31810.028,904.51273 31831.483,902.26143 31862.198,899.03833 31891.18,907.36033 31919.295,921.44773 31947.41,935.53513 31974.659,955.38793 32001.905,975.22653 32029.152,995.06503 32056.397,1014.8893 32084.506,1028.9196 32112.616,1042.95 32141.589,1051.1865 32172.292,1047.8494 32195.872,1045.2864 32216.271,1034.5209 32235.072,1019.6005 32253.872,1004.68 32271.075,985.60453 32288.265,966.42123 32305.454,947.23803 32322.629,927.94713 32341.375,912.59593 32360.121,897.24463 32380.438,885.83303 32403.909,882.40853 32443.427,876.64258 32481.568,884.30523 32519.038,898.83603 32556.508,913.36683 32593.306,934.76583 32630.14,956.47253 32666.974,978.17933 32703.843,1000.1938 32741.454,1015.9557 32779.065,1031.7175 32817.417,1041.2267 32857.217,1037.9229 32891.275,1035.0956 32922.304,1021.6788 32951.825,1003.0944 32981.346,984.50993 33009.359,960.75793 33037.385,937.26023 33065.412,913.76263 33093.452,890.51933 33123.026,872.95238 33152.601,855.38548 33183.711,843.49488 33217.878,842.70268 33253.385,841.87928 33295.128,853.04848 33337.769,870.26538 33380.411,887.48223 33423.95,910.74693 33463.051,934.11453 33502.152,957.48213 33536.814,980.95263 33561.701,998.58123 33586.589,1016.2098 33601.701,1027.9965 33601.701,1027.9965"
       id="path4767-9-0-3"
       inkscape:connector-curvature="0"
       sodipodi:nodetypes="ccccccccccccccccccccccccccccccccccccccccccccccccccccc" />
    <path
       style="fill:none;stroke:#000000;stroke-width:1px;stroke-linecap:butt;stroke-linejoin:miter;stroke-opacity:1;display:inline"
       d="M 33603.496,1024.4929 C 33603.496,1024.4929 33612.487,1032.0976 33627.345,1043.5681 33642.204,1055.0386 33662.929,1070.3749 33686.396,1085.8381 33709.864,1101.3013 33736.073,1116.8913 33761.901,1128.8693 33787.729,1140.8472 33813.174,1149.2131 33835.113,1150.228 33856.09,1151.1983 33875.804,1145.5084 33894.89,1136.4205 33913.975,1127.3326 33932.43,1114.8466 33950.888,1102.2249 33969.347,1089.6031 33987.808,1076.8457 34006.904,1067.2147 34026,1057.5837 34045.732,1051.0792 34066.731,1050.9635 34089.722,1050.8368 34111.398,1057.6082 34132.415,1067.7822 34153.431,1077.9563 34173.789,1091.5331 34194.144,1105.0172 34214.5,1118.5012 34234.853,1131.8926 34255.862,1141.6958 34276.87,1151.499 34298.534,1157.7141 34321.51,1156.8457 34342.828,1156.0399 34362.426,1148.5866 34381.164,1137.8129 34399.903,1127.0393 34417.782,1112.9453 34435.661,1098.8583 34453.539,1084.7713 34471.419,1070.6911 34490.158,1059.9452 34508.898,1049.1992 34528.497,1041.7874 34549.818,1041.037 34574.64,1040.1633 34598.013,1047.2614 34620.661,1058.3257 34643.309,1069.3901 34665.232,1084.4207 34687.153,1099.4121 34709.074,1114.4036 34730.994,1129.3557 34753.635,1140.2632 34776.277,1151.1706 34799.64,1158.0333 34824.45,1156.8457 34848.233,1155.7072 34869.889,1146.7234 34890.484,1133.872 34911.078,1121.0206 34930.61,1104.3016 34950.146,1087.6929 34969.681,1071.0841 34989.22,1054.5855 35009.827,1042.1747 35030.435,1029.764 35052.11,1021.4412 35075.92,1021.1841 35101.938,1020.903 35125.83,1030.109 35148.654,1043.9625 35171.478,1057.8159 35193.234,1076.3169 35214.983,1094.6261 35236.732,1112.9352 35258.473,1131.0525 35281.266,1144.1385 35304.059,1157.2245 35327.904,1165.2792 35353.861,1163.4633 35375.381,1161.9577 35394.012,1152.4617 35411.195,1138.9239 35428.379,1125.386 35444.114,1107.8064 35459.84,1090.1335 35475.567,1072.4606 35491.286,1054.6945 35508.436,1040.7838 35525.587,1026.8731 35544.17,1016.8178 35565.625,1014.5665 35596.34,1011.3434 35625.322,1019.6654 35653.437,1033.7528 35681.552,1047.8402 35708.801,1067.693 35736.047,1087.5316 35763.294,1107.3701 35790.539,1127.1944 35818.648,1141.2247 35846.758,1155.2551 35875.731,1163.4916 35906.434,1160.1545 35930.014,1157.5915 35950.413,1146.826 35969.214,1131.9056 35988.014,1116.9851 36005.217,1097.9096 36022.407,1078.7263 36039.596,1059.5431 36056.771,1040.2522 36075.517,1024.901 36094.263,1009.5497 36114.58,998.13813 36138.051,994.71363 36177.569,988.94763 36215.71,996.61033 36253.18,1011.1411 36290.65,1025.6719 36327.448,1047.0709 36364.282,1068.7776 36401.116,1090.4844 36437.985,1112.4989 36475.596,1128.2608 36513.207,1144.0226 36551.559,1153.5318 36591.359,1150.228 36625.417,1147.4007 36656.446,1133.9839 36685.967,1115.3995 36715.488,1096.815 36743.501,1073.063 36771.527,1049.5653 36799.554,1026.0677 36827.594,1002.8244 36857.168,985.25743 36886.743,967.69053 36917.853,955.79993 36952.02,955.00773 36987.527,954.18433 37029.27,965.35353 37071.911,982.57043 37114.553,999.78733 37158.092,1023.052 37197.193,1046.4196 37236.294,1069.7872 37270.956,1093.2577 37295.843,1110.8863 37320.731,1128.5149 37335.843,1140.3016 37335.843,1140.3016"
       id="path4767-9-0-99"
       inkscape:connector-curvature="0"
       sodipodi:nodetypes="ccccccccccccccccccccccccccccccccccccccccccccccccccccc" />
    <path
       style="fill:none;stroke:#000000;stroke-width:1px;stroke-linecap:butt;stroke-linejoin:miter;stroke-opacity:1;display:inline"
       d="M 37337.638,1146.1567 C 37337.638,1146.1567 37346.629,1153.7614 37361.487,1165.2319 37376.346,1176.7023 37397.071,1192.0386 37420.538,1207.5018 37444.006,1222.965 37470.215,1238.555 37496.043,1250.533 37521.871,1262.5109 37547.316,1270.8768 37569.255,1271.8917 37590.232,1272.862 37609.946,1267.1721 37629.032,1258.0842 37648.117,1248.9963 37666.572,1236.5103 37685.03,1223.8886 37703.489,1211.2668 37721.95,1198.5094 37741.046,1188.8784 37760.142,1179.2474 37779.874,1172.743 37800.873,1172.6273 37823.864,1172.5006 37845.54,1179.2719 37866.557,1189.4459 37887.573,1199.62 37907.931,1213.1968 37928.286,1226.6809 37948.642,1240.1649 37968.995,1253.5563 37990.004,1263.3595 38011.012,1273.1627 38032.676,1279.3778 38055.652,1278.5094 38076.97,1277.7036 38096.568,1270.2503 38115.306,1259.4766 38134.045,1248.703 38151.924,1234.609 38169.803,1220.522 38187.681,1206.435 38205.561,1192.3548 38224.3,1181.6089 38243.04,1170.863 38262.639,1163.4512 38283.96,1162.7008 38308.782,1161.8271 38332.155,1168.9252 38354.803,1179.9894 38377.451,1191.0538 38399.374,1206.0844 38421.295,1221.0758 38443.216,1236.0673 38465.136,1251.0194 38487.777,1261.9269 38510.419,1272.8343 38533.782,1279.697 38558.592,1278.5094 38582.375,1277.3709 38604.031,1268.3871 38624.626,1255.5357 38645.22,1242.6843 38664.752,1225.9653 38684.288,1209.3566 38703.823,1192.7478 38723.362,1176.2492 38743.969,1163.8385 38764.577,1151.4278 38786.252,1143.105 38810.062,1142.8479 38836.08,1142.5668 38859.972,1151.7728 38882.796,1165.6263 38905.62,1179.4796 38927.376,1197.9806 38949.125,1216.2898 38970.874,1234.5989 38992.615,1252.7162 39015.408,1265.8022 39038.201,1278.8882 39062.046,1286.9429 39088.003,1285.127 39109.523,1283.6214 39128.154,1274.1254 39145.337,1260.5876 39162.521,1247.0497 39178.256,1229.4701 39193.982,1211.7972 39209.709,1194.1243 39225.428,1176.3582 39242.578,1162.4476 39259.729,1148.5369 39278.312,1138.4816 39299.767,1136.2303 39330.482,1133.0072 39359.464,1141.3292 39387.579,1155.4166 39415.694,1169.504 39442.943,1189.3567 39470.189,1209.1953 39497.436,1229.0338 39524.681,1248.8581 39552.79,1262.8884 39580.9,1276.9188 39609.873,1285.1553 39640.576,1281.8182 39664.156,1279.2552 39684.555,1268.4897 39703.356,1253.5693 39722.156,1238.6488 39739.359,1219.5733 39756.549,1200.39 39773.738,1181.2068 39790.913,1161.916 39809.659,1146.5648 39828.405,1131.2135 39848.722,1119.8019 39872.193,1116.3774 39911.711,1110.6114 39949.852,1118.2741 39987.322,1132.8049 40024.792,1147.3357 40061.59,1168.7347 40098.424,1190.4413 40135.258,1212.1481 40172.127,1234.1626 40209.738,1249.9245 40247.349,1265.6863 40285.701,1275.1955 40325.501,1271.8917 40359.559,1269.0644 40390.588,1255.6476 40420.109,1237.0632 40449.63,1218.4787 40477.643,1194.7267 40505.669,1171.2291 40533.696,1147.7315 40561.736,1124.4882 40591.31,1106.9212 40620.885,1089.3543 40651.995,1077.4637 40686.162,1076.6715 40721.669,1075.8481 40763.412,1087.0173 40806.053,1104.2342 40848.695,1121.4511 40892.234,1144.7158 40931.335,1168.0834 40970.436,1191.4509 41005.098,1214.9214 41029.985,1232.55 41054.873,1250.1786 41069.985,1261.9653 41069.985,1261.9653"
       id="path4767-9-0-70"
       inkscape:connector-curvature="0"
       sodipodi:nodetypes="ccccccccccccccccccccccccccccccccccccccccccccccccccccc" />
  </g>
</svg>
