<?xml version="1.0" encoding="UTF-8" standalone="no"?>
<!-- Created with Inkscape (http://www.inkscape.org/) -->

<svg
   xmlns:dc="http://purl.org/dc/elements/1.1/"
   xmlns:cc="http://creativecommons.org/ns#"
   xmlns:rdf="http://www.w3.org/1999/02/22-rdf-syntax-ns#"
   xmlns:svg="http://www.w3.org/2000/svg"
   xmlns="http://www.w3.org/2000/svg"
   xmlns:xlink="http://www.w3.org/1999/xlink"
   xmlns:sodipodi="http://sodipodi.sourceforge.net/DTD/sodipodi-0.dtd"
   xmlns:inkscape="http://www.inkscape.org/namespaces/inkscape"
   version="1.0"
   width="48000"
   height="320"
   id="svg2"
   sodipodi:version="0.32"
   inkscape:version="0.48.2 r9819"
   sodipodi:docname="StageScene_LV5.svg"
   inkscape:output_extension="org.inkscape.output.svg.inkscape"
   enable-background="new">
  <metadata
     id="metadata2500">
    <rdf:RDF>
      <cc:Work
         rdf:about="">
        <dc:format>image/svg+xml</dc:format>
        <dc:type
           rdf:resource="http://purl.org/dc/dcmitype/StillImage" />
        <dc:title />
      </cc:Work>
    </rdf:RDF>
  </metadata>
  <sodipodi:namedview
     inkscape:window-height="1156"
     inkscape:window-width="1600"
     inkscape:pageshadow="2"
     inkscape:pageopacity="0.0"
     guidetolerance="10.0"
     gridtolerance="10.0"
     objecttolerance="10.0"
     borderopacity="1.0"
     bordercolor="#666666"
     pagecolor="#ffffff"
     id="base"
     showgrid="false"
     inkscape:zoom="0.30222269"
     inkscape:cx="2186.9557"
     inkscape:cy="35.947566"
     inkscape:window-x="548"
     inkscape:window-y="153"
     inkscape:current-layer="layer25"
     width="480px"
     inkscape:window-maximized="0"
     inkscape:snap-grids="true"
     showguides="true"
     inkscape:guide-bbox="true">
    <inkscape:grid
       type="xygrid"
       id="grid3290"
       visible="true"
       enabled="true"
       empspacing="5"
       snapvisiblegridlinesonly="true" />
  </sodipodi:namedview>
  <defs
     id="defs4">
    <inkscape:perspective
       sodipodi:type="inkscape:persp3d"
       inkscape:vp_x="0 : 500 : 1"
       inkscape:vp_y="0 : 1000 : 0"
       inkscape:vp_z="1000 : 500 : 1"
       inkscape:persp3d-origin="500 : 333.33333 : 1"
       id="perspective2413" />
    <inkscape:perspective
       id="perspective2443"
       inkscape:persp3d-origin="372.04724 : 350.78739 : 1"
       inkscape:vp_z="744.09448 : 526.18109 : 1"
       inkscape:vp_y="0 : 1000 : 0"
       inkscape:vp_x="0 : 526.18109 : 1"
       sodipodi:type="inkscape:persp3d" />
    <inkscape:perspective
       id="perspective3980"
       inkscape:persp3d-origin="0.5 : 0.33333333 : 1"
       inkscape:vp_z="1 : 0.5 : 1"
       inkscape:vp_y="0 : 1000 : 0"
       inkscape:vp_x="0 : 0.5 : 1"
       sodipodi:type="inkscape:persp3d" />
    <inkscape:perspective
       id="perspective3534"
       inkscape:persp3d-origin="0.5 : 0.33333333 : 1"
       inkscape:vp_z="1 : 0.5 : 1"
       inkscape:vp_y="0 : 1000 : 0"
       inkscape:vp_x="0 : 0.5 : 1"
       sodipodi:type="inkscape:persp3d" />
    <filter
       inkscape:collect="always"
       id="filter8613">
      <feBlend
         inkscape:collect="always"
         mode="lighten"
         in2="BackgroundImage"
         id="feBlend8615" />
    </filter>
  </defs>
  <g
     inkscape:groupmode="layer"
     id="staticShapes"
     inkscape:label="static"
     style="display:inline"
     transform="translate(0,-2880)" />
  <g
     inkscape:groupmode="layer"
     id="layer3"
     inkscape:label="boxes"
     style="display:inline;filter:url(#filter8613)">
    <image
       y="45.081642"
       x="36.971546"
       id="MyBird"
       xlink:href="file:///Users/kmkim/Games/rocknroll/rocknroll/Resources/GameClasses/Bird.png"
       height="48"
       width="48" />
    <path
       style="fill:none;stroke:#000000;stroke-width:1px;stroke-linecap:butt;stroke-linejoin:miter;stroke-opacity:1"
       d="M 16.377816,43.916811 C 16.377816,43.916811 17.277815,45.997589 18.955088,49.730721 20.632362,53.463852 23.086911,58.849337 26.196012,65.458751 29.305112,72.068164 33.068765,79.901507 37.364245,88.530354 41.659726,97.1592 46.487035,106.58355 51.723449,116.37498 56.959863,126.16641 62.605382,136.32492 68.537282,146.42209 74.469182,156.51925 80.687464,166.55507 87.069403,176.10112 93.451343,185.64717 99.996941,194.70345 106.58347,202.84154 113.17001,210.97963 119.79747,218.19952 126.34315,224.07279 131.79625,228.96572 137.45682,233.83961 143.3022,238.61848 149.14758,243.39735 155.17777,248.0812 161.37007,252.59404 167.56238,257.10689 173.9168,261.44872 180.41067,265.54355 186.90454,269.63839 193.53785,273.48622 200.28793,277.01108 207.038,280.53593 213.90484,283.7378 220.86576,286.54069 227.82668,289.34359 234.88169,291.74751 242.00809,293.67647 249.1345,295.60543 256.33231,297.05943 263.57885,297.96249 270.82538,298.86554 278.12064,299.21764 285.44194,298.94281 293.94863,298.62348 302.04417,296.86288 309.83127,294.01995 317.61837,291.17702 325.09704,287.25176 332.37001,282.60314 339.64298,277.95451 346.71025,272.5825 353.67456,266.84607 360.63887,261.10964 367.50021,255.00878 374.36131,248.90245 381.22242,242.79611 388.08329,236.6843 395.04666,230.92596 402.01003,225.16761 409.0759,219.76274 416.347,215.07029 423.6181,210.37784 431.09443,206.39781 438.87873,203.48915 446.66302,200.58049 454.75528,198.74319 463.25823,198.33622 473.06613,197.86679 482.55957,199.07638 491.81714,201.54473 501.07472,204.01308 510.09642,207.74018 518.96085,212.30577 527.82528,216.87135 536.53243,222.27542 545.16089,228.0977 553.78935,233.91997 562.33912,240.16046 570.88879,246.39888 579.43846,252.6373 587.98802,258.87366 596.61607,264.68768 605.24412,270.5017 613.95066,275.89339 622.81427,280.44246 631.67788,284.99154 640.69857,288.69801 649.95491,291.14159 659.21126,293.58518 668.70327,294.76588 678.50953,294.26343 688.27899,293.76287 697.56391,291.5752 706.48562,288.12807 715.40733,284.68094 723.96583,279.97434 732.28243,274.43593 740.59903,268.89752 748.67374,262.52729 756.62788,255.75289 764.58202,248.97849 772.41559,241.79991 780.24991,234.64479 788.08423,227.48968 795.9193,220.35804 803.87645,213.6775 811.83359,206.99697 819.91281,200.76754 828.23542,195.41687 836.55803,190.0662 845.12403,185.59428 854.05476,182.42876 862.98548,179.26324 872.28091,177.40412 882.06239,177.27903 891.48363,177.15855 900.4792,178.75007 909.15554,181.62743 917.83189,184.5048 926.18899,188.66801 934.33329,193.69093 942.47759,198.71385 950.40909,204.59648 958.2342,210.91267 966.05932,217.22886 973.77805,223.97861 981.49683,230.73578 989.21562,237.49295 996.93445,244.25753 1004.7598,250.6034 1012.5851,256.94926 1020.5168,262.8764 1028.6615,267.95866 1036.8062,273.04093 1045.1638,277.27833 1053.8407,280.24471 1062.5176,283.2111 1071.5139,284.90647 1080.9359,284.90468 1091.5794,284.90266 1101.7411,282.99766 1111.5415,279.66578 1121.3419,276.33389 1130.781,271.57511 1139.9791,265.86552 1149.1773,260.15594 1158.1346,253.49555 1166.9714,246.36044 1175.8082,239.22533 1184.5246,231.61551 1193.241,224.00706 1201.9573,216.3986 1210.6737,208.79151 1219.5105,201.66189 1228.3473,194.53226 1237.3046,187.88008 1246.5028,182.18145 1255.7009,176.48283 1265.14,171.73774 1274.9403,168.42229 1284.7407,165.10683 1294.9024,163.22101 1305.5459,163.2409 1315.1001,163.25876 1324.2164,165.0386 1333.0042,168.13363 1341.7919,171.22866 1350.2512,175.63887 1358.4912,180.91746 1366.7312,186.19605 1374.752,192.34301 1382.663,198.91154 1390.574,205.48007 1398.3752,212.47017 1406.1758,219.43503 1413.9765,226.39989 1421.7767,233.33951 1429.6857,239.80708 1437.5948,246.27466 1445.6127,252.27019 1453.8488,257.34687 1462.085,262.42354 1470.5393,266.58137 1479.3212,269.37353 1488.1032,272.1657 1497.2127,273.5922 1506.7591,273.20624 1518.2952,272.73984 1529.1256,270.09571 1539.4266,265.81535 1549.7276,261.53499 1559.4992,255.61839 1568.9177,248.60702 1578.3362,241.59565 1587.4015,233.48952 1596.29,224.83009 1605.1785,216.17067 1613.8902,206.95796 1622.6012,197.73343 1631.3123,188.50891 1640.0228,179.27257 1648.909,170.56589 1657.7952,161.85921 1666.8571,153.6822 1676.271,146.57632 1685.6848,139.47044 1695.4507,133.4357 1705.7448,129.01358 1716.0389,124.59145 1726.8613,121.78194 1738.3882,121.12652 1750.0536,120.46322 1761.2542,121.97488 1772.1064,125.12372 1782.9586,128.27257 1793.4625,133.05862 1803.7345,138.94411 1814.0065,144.8296 1824.0466,151.81454 1833.9712,159.36119 1843.8958,166.90783 1853.7049,175.01617 1863.515,183.14846 1873.3252,191.28075 1883.1362,199.43699 1893.0647,207.07944 1902.9932,214.72188 1913.0391,221.85053 1923.3188,227.92762 1933.5985,234.00472 1944.1121,239.03028 1954.976,242.46653 1965.8398,245.90279 1977.0539,247.74975 1988.7348,247.46967 2001.3913,247.16619 2013.4388,244.74336 2025.0288,240.71768 2036.6188,236.69201 2047.7512,231.0635 2058.5775,224.34869 2069.4039,217.63387 2079.9242,209.83274 2090.2899,201.46182 2100.6556,193.09091 2110.8668,184.15021 2121.0749,175.15624 2131.2829,166.16228 2141.4879,157.11505 2151.8414,148.53109 2162.1948,139.94712 2172.6966,131.82642 2183.4984,124.6855 2194.3001,117.54459 2205.4018,111.38346 2216.9548,106.71864 2228.5078,102.05382 2240.5123,98.88531 2253.1196,97.729636 2267.3956,96.420997 2281.4086,97.436225 2295.2231,100.18456 2309.0377,102.93289 2322.6538,107.41433 2336.1361,113.03811 2349.6185,118.6619 2362.967,125.42802 2376.2465,132.74573 2389.5259,140.06344 2402.7363,147.93273 2415.9421,155.76283 2429.148,163.59294 2442.3494,171.38387 2455.611,178.54485 2468.8726,185.70584 2482.1944,192.23688 2495.641,197.54721 2509.0877,202.85755 2522.6591,206.94718 2536.4201,209.22534 2550.1811,211.5035 2564.1316,211.97019 2578.3362,210.03466 2592.2957,208.13253 2605.3585,203.82605 2617.7504,197.73129 2630.1423,191.63653 2641.8633,183.7535 2653.139,174.69828 2664.4147,165.64305 2675.2451,155.41563 2685.856,144.6321 2696.4668,133.84856 2706.8581,122.50891 2717.2554,111.22922 2727.6527,99.949532 2738.0562,88.729806 2748.6913,78.186123 2759.3265,67.64244 2770.1935,57.774798 2781.5179,49.199278 2792.8423,40.623758 2804.6242,33.340359 2817.0891,27.96516 2829.5541,22.589961 2842.7022,19.122962 2856.7591,18.180242 2871.8103,17.170841 2886.2585,19.014226 2900.2548,23.007798 2914.2512,27.001369 2927.7958,33.145127 2941.0399,40.736472 2954.2839,48.327816 2967.2274,57.366747 2980.0215,67.150664 2992.8156,76.934581 3005.4604,87.463485 3018.1071,98.034775 3030.7538,108.60607 3043.4023,119.21974 3056.204,129.17321 3069.0057,139.12667 3081.9605,148.41992 3095.2196,156.35035 3108.4787,164.28079 3122.0421,170.84841 3136.0612,175.35062 3150.0802,179.85283 3164.5547,182.28963 3179.6361,181.95841 3196.3069,181.59228 3212.1744,178.32862 3227.4392,172.88731 3242.7039,167.446 3257.3661,159.82703 3271.6262,150.7503 3285.8864,141.67357 3299.7446,131.13906 3313.4015,119.86667 3327.0585,108.59428 3340.5142,96.584001 3353.9693,84.555718 3367.4244,72.527436 3380.879,60.481149 3394.5338,49.136741 3408.1885,37.792332 3422.0434,27.149802 3436.2992,17.929033 3450.5549,8.7082637 3465.2115,0.90925529 3480.4697,-4.7481096 3495.7279,-10.405474 3511.5876,-13.921196 3528.2496,-14.575391 3544.8979,-15.229049 3560.972,-12.957771 3576.615,-8.4987485 3592.2581,-4.039726 3607.4701,2.6070407 3622.3944,10.704359 3637.3187,18.801678 3651.9553,28.349548 3666.4474,38.610778 3680.9394,48.872008 3695.2871,59.846598 3709.6335,70.797355 3723.9799,81.748111 3738.325,92.675035 3752.8123,102.84093 3767.2995,113.00683 3781.9288,122.41171 3796.8435,130.31836 3811.7581,138.22502 3826.958,144.63346 3842.5866,148.80649"
       id="path4539" />
    <path
       style="fill:none;stroke:#000000;stroke-width:1px;stroke-linecap:butt;stroke-linejoin:miter;stroke-opacity:1"
       d="M 5641.031,2140.779 C 5641.031,2140.779 5645.7412,2147.7609 5653.6029,2158.9011 5661.4647,2170.0413 5672.4781,2185.3398 5685.0847,2201.973 5697.6913,2218.6061 5711.891,2236.5739 5726.1254,2253.0527 5740.3598,2269.5314 5754.6289,2284.5212 5767.3742,2295.1984 5784.838,2309.8283 5804.4907,2321.4187 5825.145,2331.5899 5845.7994,2341.7611 5867.4555,2350.5131 5888.9259,2359.4662 5910.3963,2368.4192 5931.6811,2377.5734 5951.593,2388.5491 5971.5048,2399.5247 5990.0437,2412.3218 6006.0223,2428.5606 6024.4997,2447.3389 6038.6449,2469.2762 6050.5821,2492.8326 6062.5194,2516.3891 6072.2487,2541.5648 6081.8946,2566.8198 6091.5405,2592.0748 6101.1028,2617.4092 6112.706,2641.2831 6124.3092,2665.157 6137.9532,2687.5704 6155.7624,2706.9835 6173.0906,2725.8722 6193.7576,2740.9056 6216.0316,2754.0657 6238.3056,2767.2258 6262.1866,2778.5126 6285.9428,2789.9081 6309.699,2801.3036 6333.3304,2812.8077 6355.1052,2826.4026 6376.88,2839.9974 6396.7983,2855.6829 6413.1281,2875.441 6427.4986,2892.8284 6437.7855,2912.6193 6445.9657,2933.6627 6454.1458,2954.7061 6460.2192,2977.002 6466.1624,2999.3991 6472.1057,3021.7962 6477.9189,3044.2946 6485.5786,3065.7431 6493.2384,3087.1916 6502.7447,3107.5901 6516.0743,3125.7877 6540.8573,3159.6213 6571.6309,3187.9478 6605.2872,3213.5986 6638.9435,3239.2495 6675.4827,3262.2247 6711.797,3285.3558 6748.1113,3308.4869 6784.2008,3331.7738 6816.9576,3358.0481 6849.7145,3384.3224 6879.1388,3413.5841 6902.1229,3448.6646 6921.835,3478.751 6933.893,3512.4883 6942.2424,3547.9678 6950.5918,3583.4473 6955.2326,3620.6691 6960.1105,3657.7243 6964.9884,3694.7796 6970.1033,3731.6684 6979.4008,3766.4822 6988.6983,3801.2959 7002.1784,3834.0345 7023.7866,3862.7894 7042.9574,3888.3006 7067.64,3907.7752 7095.151,3924.1744 7122.662,3940.5736 7153.0014,3953.8973 7183.4858,3967.1068 7213.9701,3980.3163 7244.5994,3993.4115 7272.6902,4009.3536 7300.781,4025.2957 7326.3333,4044.0847 7346.6636,4068.6819 7367.5155,4093.91 7381.943,4122.9094 7393.1211,4153.8243 7404.2993,4184.7393 7412.2282,4217.5697 7420.083,4250.46 7427.9378,4283.3503 7435.7185,4316.3004 7446.6003,4347.4545 7457.4821,4378.6086 7471.465,4407.9668 7491.7242,4433.6733 7517.2721,4466.0904 7546.4638,4494.8839 7578.1007,4521.1533 7609.7376,4547.4228 7643.8198,4571.1681 7679.1485,4593.4889 7714.4773,4615.8097 7751.0526,4636.706 7787.6757,4657.2772 7824.2989,4677.8484 7860.97,4698.0945 7896.4903,4719.1152 7945.7933,4748.2923 7994.7709,4780.6284 8044.0739,4812.9996 8093.377,4845.3707 8143.0056,4877.7769 8193.6107,4907.0939 8244.2158,4936.411 8295.7975,4962.639 8349.0067,4982.6539 8402.2159,5002.6687 8457.0526,5016.4704 8514.1679,5020.935 8590.8401,5026.9282 8666.9969,5021.3338 8742.4311,5007.478 8817.8652,4993.6223 8892.5767,4971.5052 8966.3583,4944.4532 9040.1398,4917.4011 9112.9915,4885.414 9184.7059,4851.8182 9256.4203,4818.2225 9326.9976,4783.018 9396.2303,4749.5312 9473.3486,4712.2303 9564.8431,4657.1684 9658.706,4595.5574 9752.5688,4533.9464 9848.7999,4465.7862 9935.3912,4402.2886 10021.983,4338.791 10098.934,4279.9561 10154.238,4236.9955 10209.542,4194.0349 10243.197,4166.9488 10243.197,4166.9488"
       id="path4541"
       inkscape:connector-curvature="0"
       sodipodi:nodetypes="ccccccccccccccccccccccccccccccccccccccccccccccccccccc" />
    <path
       style="fill:none;stroke:#000000;stroke-width:1px;stroke-linecap:butt;stroke-linejoin:miter;stroke-opacity:1"
       d="M 3851.4648,200.88253 C 3851.4648,200.88253 3866.2859,209.20655 3889.7756,223.334 3913.2652,237.46144 3945.4234,257.39231 3980.0974,280.60602 4014.7714,303.81972 4051.9614,330.31625 4085.5146,357.57503 4119.0678,384.8338 4148.9842,412.85481 4169.1114,439.11747 4190.7889,467.40322 4206.1542,499.27593 4218.3585,532.94584 4230.5628,566.61576 4239.6061,602.08287 4248.6397,637.55741 4257.6732,673.03195 4266.6971,708.51393 4278.8625,742.21356 4291.0279,775.9132 4306.3348,807.8305 4327.9346,836.17569 4352.2682,868.1085 4382.1911,894.40635 4414.946,917.85768 4447.7009,941.30901 4483.2877,961.91383 4518.9493,982.46057 4554.6109,1003.0073 4590.3472,1023.496 4623.401,1046.715 4656.4548,1069.9341 4686.8261,1095.8835 4711.7576,1127.3518 4745.486,1169.9234 4770.0317,1218.1463 4790.0936,1269.1058 4810.1556,1320.0653 4825.7337,1373.7615 4841.5272,1427.2799 4857.3206,1480.7982 4873.3293,1534.1386 4894.2523,1584.3867 4915.1753,1634.6347 4941.0125,1681.7903 4976.463,1722.939 5014.008,1766.5187 5069.1774,1811.4703 5130.8126,1854.3841 5192.4478,1897.2979 5260.5487,1938.1739 5323.9565,1973.6025 5387.3642,2009.031 5446.0789,2039.0121 5488.9416,2060.136 5531.8044,2081.2599 5610.2883,2093.5267 5610.2883,2093.5267"
       id="path4543"
       inkscape:connector-curvature="0"
       sodipodi:nodetypes="ccccccccccccccccccccc" />
    <path
       style="fill:none;stroke:#000000;stroke-width:1px;stroke-linecap:butt;stroke-linejoin:miter;stroke-opacity:1;display:inline"
       d="M 3955.7295,68.351143 C 3955.7295,68.351143 3970.2147,77.24684 3993.1356,92.27961 4016.0563,107.31238 4047.4127,128.48223 4081.155,153.03053 4114.8974,177.57883 4151.0258,205.50557 4183.4904,234.05216 4215.9549,262.59873 4244.7558,291.76514 4263.8435,318.79276 4284.4014,347.90239 4298.5119,380.35009 4309.3939,414.47033 4320.2758,448.5906 4327.9291,484.38341 4335.5723,520.18327 4343.2155,555.98311 4350.8488,591.79002 4361.6906,625.93845 4372.5325,660.08689 4386.583,692.57687 4407.061,721.74287 4430.1307,754.60037 4459.0053,782.04518 4490.8207,806.75607 4522.6361,831.46698 4557.3922,853.44397 4592.2254,875.36585 4627.0585,897.2877 4661.9686,919.15451 4694.0918,943.64491 4726.2149,968.13541 4755.5511,995.2495 4779.2364,1027.6662 4811.2789,1071.5208 4833.9253,1120.6642 4851.9845,1172.3674 4870.0439,1224.0705 4883.516,1278.3333 4897.2104,1332.427 4910.9046,1386.5205 4924.8209,1440.4446 4943.7683,1491.4705 4962.7158,1542.4963 4986.6943,1590.6236 5020.5131,1633.1235 5056.33,1678.1344 5109.7043,1725.2032 5169.6191,1770.4881 5229.5337,1815.773 5295.9887,1859.2737 5357.9666,1897.1482 5419.9444,1935.0226 5477.4451,1967.2707 5519.4514,1990.0502 5561.4578,2012.8297 5639.4036,2028.1479 5639.4036,2028.1479"
       id="path4543-8"
       inkscape:connector-curvature="0"
       sodipodi:nodetypes="ccccccccccccccccccccc"
       upTerrain="" />
    <path
       style="fill:none;stroke:#000000;stroke-width:1px;stroke-linecap:butt;stroke-linejoin:miter;stroke-opacity:1;display:inline"
       d="M 5747.6993,2013.2406 C 5747.6993,2013.2406 5752.2301,2020.3403 5759.8056,2031.6771 5767.3809,2043.014 5778.001,2058.5881 5790.1798,2075.537 5802.3586,2092.4859 5816.0959,2110.8096 5829.906,2127.6457 5843.716,2144.4816 5857.5985,2159.83 5870.0677,2170.8284 5887.1532,2185.8985 5906.5043,2197.9859 5926.8927,2208.6799 5947.2813,2219.3739 5968.7074,2228.6748 5989.9428,2238.1719 6011.1781,2247.6689 6032.2228,2257.3624 6051.8485,2268.8419 6071.4743,2280.3211 6089.6812,2293.5863 6105.241,2310.227 6123.234,2329.4698 6136.8158,2351.7604 6148.1491,2375.6132 6159.4824,2399.4661 6168.5672,2424.8815 6177.5666,2450.3741 6186.566,2475.8666 6195.4797,2501.4364 6206.471,2525.5982 6217.4623,2549.7598 6230.5309,2572.5136 6247.8398,2592.3741 6264.6812,2611.6981 6284.9585,2627.2531 6306.8901,2640.9763 6328.8215,2654.6996 6352.4073,2666.591 6375.8655,2678.588 6399.3237,2690.5851 6422.6543,2702.6875 6444.0757,2716.8326 6465.4971,2730.9777 6485.0093,2747.1655 6500.8305,2767.3332 6514.7534,2785.081 6524.5328,2805.1275 6532.1743,2826.3726 6539.8156,2847.6175 6545.3191,2870.0609 6550.6897,2892.6022 6556.0606,2915.1434 6561.2988,2937.7825 6568.4096,2959.4192 6575.5206,2981.0559 6584.5041,3001.6898 6597.3659,3020.2211 6621.2788,3054.6752 6651.3209,3083.7765 6684.3129,3110.2763 6717.3047,3136.7762 6753.2467,3160.6749 6788.9601,3184.7235 6824.6733,3208.7722 6860.1577,3232.9708 6892.2347,3260.0711 6924.3116,3287.1714 6952.9809,3317.1731 6975.0639,3352.8278 6994.0031,3383.4066 7005.1977,3417.4401 7012.6405,3453.1208 7020.0835,3488.8015 7023.7745,3526.1294 7027.707,3563.2969 7031.6392,3600.4644 7035.8128,3637.4714 7044.2204,3672.5109 7052.628,3707.5501 7065.2697,3740.6216 7086.1384,3769.9176 7104.653,3795.9089 7128.8316,3816.006 7155.9158,3833.1005 7183.0002,3850.1952 7212.9902,3864.2876 7243.1282,3878.2694 7273.2662,3892.2511 7303.552,3906.1224 7331.2275,3922.775 7358.9031,3939.4275 7383.9684,3958.8613 7403.6655,3983.9685 7423.868,4009.7196 7437.552,4039.0772 7447.9389,4070.2667 7458.3259,4101.4565 7465.4159,4134.4781 7472.4303,4167.5579 7479.4447,4200.6377 7486.3836,4233.7752 7496.4681,4265.1964 7506.5527,4296.6177 7519.7832,4326.3224 7539.381,4352.5367 7564.0948,4385.5942 7592.5434,4415.122 7623.501,4442.1888 7654.4584,4469.2557 7687.9245,4493.8616 7722.6732,4517.0751 7757.4219,4540.2886 7793.453,4562.11 7829.5402,4583.6074 7865.6275,4605.1049 7901.7709,4626.2787 7936.7442,4648.1975 7985.2879,4678.621 8033.4259,4712.1943 8081.8882,4745.811"
       id="path4765"
       inkscape:connector-curvature="0"
       upTerrain="" />
    <path
       style="fill:none;stroke:#000000;stroke-width:1px;stroke-linecap:butt;stroke-linejoin:miter;stroke-opacity:1"
       d="M 13601.835,4120.0319 C 13601.835,4120.0319 13610.826,4127.6366 13625.684,4139.1071 13640.543,4150.5776 13661.268,4165.9139 13684.735,4181.3771 13708.203,4196.8403 13734.412,4212.4303 13760.24,4224.4083 13786.068,4236.3862 13811.513,4244.7521 13833.452,4245.767 13854.429,4246.7373 13874.143,4241.0474 13893.229,4231.9595 13912.314,4222.8716 13930.769,4210.3856 13949.227,4197.7639 13967.686,4185.1421 13986.147,4172.3847 14005.243,4162.7537 14024.339,4153.1227 14044.071,4146.6182 14065.07,4146.5025 14088.061,4146.3758 14109.737,4153.1472 14130.754,4163.3212 14151.77,4173.4953 14172.128,4187.0721 14192.483,4200.5562 14212.839,4214.0402 14233.192,4227.4316 14254.201,4237.2348 14275.209,4247.038 14296.873,4253.2531 14319.849,4252.3847 14341.167,4251.5789 14360.765,4244.1256 14379.503,4233.3519 14398.242,4222.5783 14416.121,4208.4843 14434,4194.3973 14451.878,4180.3103 14469.758,4166.2301 14488.497,4155.4842 14507.237,4144.7382 14526.836,4137.3264 14548.157,4136.576 14572.979,4135.7023 14596.352,4142.8004 14619,4153.8647 14641.648,4164.9291 14663.571,4179.9597 14685.492,4194.9511 14707.413,4209.9426 14729.333,4224.8947 14751.974,4235.8022 14774.616,4246.7096 14797.979,4253.5723 14822.789,4252.3847 14846.572,4251.2462 14868.228,4242.2624 14888.823,4229.411 14909.417,4216.5596 14928.949,4199.8406 14948.485,4183.2319 14968.02,4166.6231 14987.559,4150.1245 15008.166,4137.7137 15028.774,4125.303 15050.449,4116.9802 15074.259,4116.7231 15100.277,4116.442 15124.169,4125.648 15146.993,4139.5015 15169.817,4153.3549 15191.573,4171.8559 15213.322,4190.1651 15235.071,4208.4742 15256.812,4226.5915 15279.605,4239.6775 15302.398,4252.7635 15326.243,4260.8182 15352.2,4259.0023 15373.72,4257.4967 15392.351,4248.0007 15409.534,4234.4629 15426.718,4220.925 15442.453,4203.3454 15458.179,4185.6725 15473.906,4167.9996 15489.625,4150.2335 15506.775,4136.3228 15523.926,4122.4121 15542.509,4112.3568 15563.964,4110.1055 15594.679,4106.8824 15623.661,4115.2044 15651.776,4129.2918 15679.891,4143.3792 15707.14,4163.232 15734.386,4183.0706 15761.633,4202.9091 15788.878,4222.7334 15816.987,4236.7637 15845.097,4250.7941 15874.07,4259.0306 15904.773,4255.6935 15928.353,4253.1305 15948.752,4242.365 15967.553,4227.4446 15986.353,4212.5241 16003.556,4193.4486 16020.746,4174.2653 16037.935,4155.0821 16055.11,4135.7912 16073.856,4120.44 16092.602,4105.0887 16112.919,4093.6771 16136.39,4090.2526 16175.908,4084.4866 16214.049,4092.1493 16251.519,4106.6801 16288.989,4121.2109 16325.787,4142.6099 16362.621,4164.3166 16399.455,4186.0234 16436.324,4208.0379 16473.935,4223.7998 16511.546,4239.5616 16549.898,4249.0708 16589.698,4245.767 16623.756,4242.9397 16654.785,4229.5229 16684.306,4210.9385 16713.827,4192.354 16741.84,4168.602 16769.866,4145.1043 16797.893,4121.6067 16825.933,4098.3634 16855.507,4080.7964 16885.082,4063.2295 16916.192,4051.3389 16950.359,4050.5467 16985.866,4049.7233 17027.609,4060.8925 17070.25,4078.1094 17112.892,4095.3263 17156.431,4118.591 17195.532,4141.9586 17234.633,4165.3262 17269.295,4188.7967 17294.182,4206.4253 17319.07,4224.0539 17334.182,4235.8406 17334.182,4235.8406"
       id="path4767"
       inkscape:connector-curvature="0"
       sodipodi:nodetypes="ccccccccccccccccccccccccccccccccccccccccccccccccccccc" />
    <path
       style="fill:none;stroke:#000000;stroke-width:1px;stroke-linecap:butt;stroke-linejoin:miter;stroke-opacity:1;display:inline"
       d="M 17319.268,4225.1861 C 17319.268,4225.1861 17328.259,4232.7908 17343.117,4244.2613 17357.976,4255.7318 17378.701,4271.0681 17402.168,4286.5313 17425.636,4301.9945 17451.845,4317.5845 17477.673,4329.5625 17503.501,4341.5404 17528.946,4349.9063 17550.885,4350.9212 17571.862,4351.8915 17591.576,4346.2016 17610.662,4337.1137 17629.747,4328.0258 17648.202,4315.5398 17666.66,4302.9181 17685.119,4290.2963 17703.58,4277.5389 17722.676,4267.9079 17741.772,4258.2769 17761.504,4251.7724 17782.503,4251.6567 17805.494,4251.53 17827.17,4258.3014 17848.187,4268.4754 17869.203,4278.6495 17889.561,4292.2263 17909.916,4305.7104 17930.272,4319.1944 17950.625,4332.5858 17971.634,4342.389 17992.642,4352.1922 18014.306,4358.4073 18037.282,4357.5389 18058.6,4356.7331 18078.198,4349.2798 18096.936,4338.5061 18115.675,4327.7325 18133.554,4313.6385 18151.433,4299.5515 18169.311,4285.4645 18187.191,4271.3843 18205.93,4260.6384 18224.67,4249.8924 18244.269,4242.4806 18265.59,4241.7302 18290.412,4240.8565 18313.785,4247.9546 18336.433,4259.0189 18359.081,4270.0833 18381.004,4285.1139 18402.925,4300.1053 18424.846,4315.0968 18446.766,4330.0489 18469.407,4340.9564 18492.049,4351.8638 18515.412,4358.7265 18540.222,4357.5389 18564.005,4356.4004 18585.661,4347.4166 18606.256,4334.5652 18626.85,4321.7138 18646.382,4304.9948 18665.918,4288.3861 18685.453,4271.7773 18704.992,4255.2787 18725.599,4242.8679 18746.207,4230.4572 18767.882,4222.1344 18791.692,4221.8773 18817.71,4221.5962 18841.602,4230.8022 18864.426,4244.6557 18887.25,4258.5091 18909.006,4277.0101 18930.755,4295.3193 18952.504,4313.6284 18974.245,4331.7457 18997.038,4344.8317 19019.831,4357.9177 19043.676,4365.9724 19069.633,4364.1565 19091.153,4362.6509 19109.784,4353.1549 19126.967,4339.6171 19144.151,4326.0792 19159.886,4308.4996 19175.612,4290.8267 19191.339,4273.1538 19207.058,4255.3877 19224.208,4241.477 19241.359,4227.5663 19259.942,4217.511 19281.397,4215.2597 19312.112,4212.0366 19341.094,4220.3586 19369.209,4234.446 19397.324,4248.5334 19424.573,4268.3862 19451.819,4288.2248 19479.066,4308.0633 19506.311,4327.8876 19534.42,4341.9179 19562.53,4355.9483 19591.503,4364.1848 19622.206,4360.8477 19645.786,4358.2847 19666.185,4347.5192 19684.986,4332.5988 19703.786,4317.6783 19720.989,4298.6028 19738.179,4279.4195 19755.368,4260.2363 19772.543,4240.9454 19791.289,4225.5942 19810.035,4210.2429 19830.352,4198.8313 19853.823,4195.4068 19893.341,4189.6408 19931.482,4197.3035 19968.952,4211.8343 20006.422,4226.3651 20043.22,4247.7641 20080.054,4269.4708 20116.888,4291.1776 20153.757,4313.1921 20191.368,4328.954 20228.979,4344.7158 20267.331,4354.225 20307.131,4350.9212 20341.189,4348.0939 20372.218,4334.6771 20401.739,4316.0927 20431.26,4297.5082 20459.273,4273.7562 20487.299,4250.2585 20515.326,4226.7609 20543.366,4203.5176 20572.94,4185.9506 20602.515,4168.3837 20633.625,4156.4931 20667.792,4155.7009 20703.299,4154.8775 20745.042,4166.0467 20787.683,4183.2636 20830.325,4200.4805 20873.864,4223.7452 20912.965,4247.1128 20952.066,4270.4804 20986.728,4293.9509 21011.615,4311.5795 21036.503,4329.2081 21051.615,4340.9948 21051.615,4340.9948"
       id="path4767-9"
       inkscape:connector-curvature="0"
       sodipodi:nodetypes="ccccccccccccccccccccccccccccccccccccccccccccccccccccc" />
    <path
       style="fill:none;stroke:#000000;stroke-width:1px;stroke-linecap:butt;stroke-linejoin:miter;stroke-opacity:1;display:inline"
       d="M 21053.41,4346.8498 C 21053.41,4346.8498 21062.401,4354.4545 21077.259,4365.925 21092.118,4377.3955 21112.843,4392.7318 21136.31,4408.195 21159.778,4423.6582 21185.987,4439.2482 21211.815,4451.2262 21237.643,4463.2041 21263.088,4471.57 21285.027,4472.5849 21306.004,4473.5552 21325.718,4467.8653 21344.804,4458.7774 21363.889,4449.6895 21382.344,4437.2035 21400.802,4424.5818 21419.261,4411.96 21437.722,4399.2026 21456.818,4389.5716 21475.914,4379.9406 21495.646,4373.4361 21516.645,4373.3204 21539.636,4373.1937 21561.312,4379.9651 21582.329,4390.1391 21603.345,4400.3132 21623.703,4413.89 21644.058,4427.3741 21664.414,4440.8581 21684.767,4454.2495 21705.776,4464.0527 21726.784,4473.8559 21748.448,4480.071 21771.424,4479.2026 21792.742,4478.3968 21812.34,4470.9435 21831.078,4460.1698 21849.817,4449.3962 21867.696,4435.3022 21885.575,4421.2152 21903.453,4407.1282 21921.333,4393.048 21940.072,4382.3021 21958.812,4371.5561 21978.411,4364.1443 21999.732,4363.3939 22024.554,4362.5202 22047.927,4369.6183 22070.575,4380.6826 22093.223,4391.747 22115.146,4406.7776 22137.067,4421.769 22158.988,4436.7605 22180.908,4451.7126 22203.549,4462.6201 22226.191,4473.5275 22249.554,4480.3902 22274.364,4479.2026 22298.147,4478.0641 22319.803,4469.0803 22340.398,4456.2289 22360.992,4443.3775 22380.524,4426.6585 22400.06,4410.0498 22419.595,4393.441 22439.134,4376.9424 22459.741,4364.5316 22480.349,4352.1209 22502.024,4343.7981 22525.834,4343.541 22551.852,4343.2599 22575.744,4352.4659 22598.568,4366.3194 22621.392,4380.1728 22643.148,4398.6738 22664.897,4416.983 22686.646,4435.2921 22708.387,4453.4094 22731.18,4466.4954 22753.973,4479.5814 22777.818,4487.6361 22803.775,4485.8202 22825.295,4484.3146 22843.926,4474.8186 22861.109,4461.2808 22878.293,4447.7429 22894.028,4430.1633 22909.754,4412.4904 22925.481,4394.8175 22941.2,4377.0514 22958.35,4363.1407 22975.501,4349.23 22994.084,4339.1747 23015.539,4336.9234 23046.254,4333.7003 23075.236,4342.0223 23103.351,4356.1097 23131.466,4370.1971 23158.715,4390.0499 23185.961,4409.8885 23213.208,4429.727 23240.453,4449.5513 23268.562,4463.5816 23296.672,4477.612 23325.645,4485.8485 23356.348,4482.5114 23379.928,4479.9484 23400.327,4469.1829 23419.128,4454.2625 23437.928,4439.342 23455.131,4420.2665 23472.321,4401.0832 23489.51,4381.9 23506.685,4362.6091 23525.431,4347.2579 23544.177,4331.9066 23564.494,4320.495 23587.965,4317.0705 23627.483,4311.3045 23665.624,4318.9672 23703.094,4333.498 23740.564,4348.0288 23777.362,4369.4278 23814.196,4391.1345 23851.03,4412.8413 23887.899,4434.8558 23925.51,4450.6177 23963.121,4466.3795 24001.473,4475.8887 24041.273,4472.5849 24075.331,4469.7576 24106.36,4456.3408 24135.881,4437.7564 24165.402,4419.1719 24193.415,4395.4199 24221.441,4371.9222 24249.468,4348.4246 24277.508,4325.1813 24307.082,4307.6143 24336.657,4290.0474 24367.767,4278.1568 24401.934,4277.3646 24437.441,4276.5412 24479.184,4287.7104 24521.825,4304.9273 24564.467,4322.1442 24608.006,4345.4089 24647.107,4368.7765 24686.208,4392.1441 24720.87,4415.6146 24745.757,4433.2432 24770.645,4450.8718 24785.757,4462.6585 24785.757,4462.6585"
       id="path4767-9-0"
       inkscape:connector-curvature="0"
       sodipodi:nodetypes="ccccccccccccccccccccccccccccccccccccccccccccccccccccc" />
    <image
       y="144.90121"
       x="863.72272"
       id="image7302"
       xlink:href="file:///Users/kmkim/Games/rocknroll/rocknroll/Resources/GameClasses/WaterDrop.png"
       height="32"
       width="32" />
    <image
       style="display:inline"
       y="161.27904"
       x="936.25299"
       id="image7302-8"
       xlink:href="file:///Users/kmkim/Games/rocknroll/rocknroll/Resources/GameClasses/WaterDrop.png"
       height="32"
       width="32" />
    <image
       style="display:inline"
       y="208.0728"
       x="994.74518"
       id="image7302-2"
       xlink:href="file:///Users/kmkim/Games/rocknroll/rocknroll/Resources/GameClasses/WaterDrop.png"
       height="32"
       width="32" />
    <image
       style="display:inline"
       y="236.14905"
       x="1060.2565"
       id="image7302-80"
       xlink:href="file:///Users/kmkim/Games/rocknroll/rocknroll/Resources/GameClasses/WaterDrop.png"
       height="32"
       width="32" />
    <image
       style="display:inline"
       y="194.03467"
       x="1142.1455"
       id="image7302-20"
       xlink:href="file:///Users/kmkim/Games/rocknroll/rocknroll/Resources/GameClasses/WaterDrop.png"
       height="32"
       width="32" />
    <image
       style="display:inline"
       y="135.54247"
       x="1209.9965"
       id="image7302-9"
       xlink:href="file:///Users/kmkim/Games/rocknroll/rocknroll/Resources/GameClasses/WaterDrop.png"
       height="32"
       width="32" />
    <image
       style="display:inline"
       y="112.14558"
       x="1275.5078"
       id="image7302-5"
       xlink:href="file:///Users/kmkim/Games/rocknroll/rocknroll/Resources/GameClasses/WaterDrop.png"
       height="32"
       width="32" />
    <image
       style="display:inline"
       y="74.710579"
       x="1736.4263"
       id="image7302-3"
       xlink:href="file:///Users/kmkim/Games/rocknroll/rocknroll/Resources/GameClasses/WaterDrop.png"
       height="32"
       width="32" />
    <image
       style="display:inline"
       y="98.10746"
       x="1797.2582"
       id="image7302-59"
       xlink:href="file:///Users/kmkim/Games/rocknroll/rocknroll/Resources/GameClasses/WaterDrop.png"
       height="32"
       width="32" />
    <image
       style="display:inline"
       y="147.24091"
       x="1860.4298"
       id="image7302-89"
       xlink:href="file:///Users/kmkim/Games/rocknroll/rocknroll/Resources/GameClasses/WaterDrop.png"
       height="32"
       width="32" />
    <image
       style="display:inline"
       y="184.67592"
       x="1921.2616"
       id="image7302-1"
       xlink:href="file:///Users/kmkim/Games/rocknroll/rocknroll/Resources/GameClasses/WaterDrop.png"
       height="32"
       width="32" />
    <image
       style="display:inline"
       y="208.0728"
       x="1979.7538"
       id="image7302-28"
       xlink:href="file:///Users/kmkim/Games/rocknroll/rocknroll/Resources/GameClasses/WaterDrop.png"
       height="32"
       width="32" />
    <image
       style="display:inline"
       y="-18.87694"
       x="2894.5718"
       id="image7302-4"
       xlink:href="file:///Users/kmkim/Games/rocknroll/rocknroll/Resources/GameClasses/WaterDrop.png"
       height="32"
       width="32" />
    <image
       style="display:inline"
       y="13.878692"
       x="2955.4038"
       id="image7302-0"
       xlink:href="file:///Users/kmkim/Games/rocknroll/rocknroll/Resources/GameClasses/WaterDrop.png"
       height="32"
       width="32" />
    <image
       style="display:inline"
       y="60.672451"
       x="3013.896"
       id="image7302-10"
       xlink:href="file:///Users/kmkim/Games/rocknroll/rocknroll/Resources/GameClasses/WaterDrop.png"
       height="32"
       width="32" />
    <image
       style="display:inline"
       y="98.10746"
       x="3063.0293"
       id="image7302-81"
       xlink:href="file:///Users/kmkim/Games/rocknroll/rocknroll/Resources/GameClasses/WaterDrop.png"
       height="32"
       width="32" />
    <image
       style="display:inline"
       y="137.88216"
       x="3137.8994"
       id="image7302-49"
       xlink:href="file:///Users/kmkim/Games/rocknroll/rocknroll/Resources/GameClasses/WaterDrop.png"
       height="32"
       width="32" />
    <image
       style="display:inline"
       y="-44.613506"
       x="3577.7607"
       id="image7302-590"
       xlink:href="file:///Users/kmkim/Games/rocknroll/rocknroll/Resources/GameClasses/WaterDrop.png"
       height="32"
       width="32" />
    <image
       style="display:inline"
       y="-0.1594362"
       x="3659.6499"
       id="image7302-23"
       xlink:href="file:///Users/kmkim/Games/rocknroll/rocknroll/Resources/GameClasses/WaterDrop.png"
       height="32"
       width="32" />
    <image
       style="display:inline"
       y="51.313698"
       x="3732.1799"
       id="image7302-5901"
       xlink:href="file:///Users/kmkim/Games/rocknroll/rocknroll/Resources/GameClasses/WaterDrop.png"
       height="32"
       width="32" />
    <image
       style="display:inline"
       y="105.12652"
       x="3818.7485"
       id="image7302-36"
       xlink:href="file:///Users/kmkim/Games/rocknroll/rocknroll/Resources/GameClasses/WaterDrop.png"
       height="32"
       width="32" />
    <image
       style="display:inline"
       y="4101.3135"
       x="14050.204"
       id="image7302-90"
       xlink:href="file:///Users/kmkim/Games/rocknroll/rocknroll/Resources/GameClasses/WaterDrop.png"
       height="32"
       width="32" />
    <image
       style="display:inline"
       y="4049.8406"
       x="14127.414"
       id="image7302-40"
       xlink:href="file:///Users/kmkim/Games/rocknroll/rocknroll/Resources/GameClasses/WaterDrop.png"
       height="32"
       width="32" />
    <image
       style="display:inline"
       y="4010.0657"
       x="14206.963"
       id="image7302-24"
       xlink:href="file:///Users/kmkim/Games/rocknroll/rocknroll/Resources/GameClasses/WaterDrop.png"
       height="32"
       width="32" />
    <image
       style="display:inline"
       y="3981.9895"
       x="14307.569"
       id="image7302-41"
       xlink:href="file:///Users/kmkim/Games/rocknroll/rocknroll/Resources/GameClasses/WaterDrop.png"
       height="32"
       width="32" />
    <image
       style="display:inline"
       y="4003.0466"
       x="14403.497"
       id="image7302-902"
       xlink:href="file:///Users/kmkim/Games/rocknroll/rocknroll/Resources/GameClasses/WaterDrop.png"
       height="32"
       width="32" />
    <image
       style="display:inline"
       y="4045.1611"
       x="14485.386"
       id="image7302-15"
       xlink:href="file:///Users/kmkim/Games/rocknroll/rocknroll/Resources/GameClasses/WaterDrop.png"
       height="32"
       width="32" />
    <image
       style="display:inline"
       y="4091.9548"
       x="14557.916"
       id="image7302-490"
       xlink:href="file:///Users/kmkim/Games/rocknroll/rocknroll/Resources/GameClasses/WaterDrop.png"
       height="32"
       width="32" />
    <image
       style="display:inline"
       y="4136.4087"
       x="14644.484"
       id="image7302-203"
       xlink:href="file:///Users/kmkim/Games/rocknroll/rocknroll/Resources/GameClasses/WaterDrop.png"
       height="32"
       width="32" />
    <image
       style="display:inline"
       y="4176.1836"
       x="14712.336"
       id="image7302-82"
       xlink:href="file:///Users/kmkim/Games/rocknroll/rocknroll/Resources/GameClasses/WaterDrop.png"
       height="32"
       width="32" />
  </g>
  <g
     inkscape:groupmode="layer"
     id="layer25"
     inkscape:label="ignored" />
</svg>
