<?xml version="1.0" encoding="UTF-8" standalone="no"?>
<!-- Created with Inkscape (http://www.inkscape.org/) -->

<svg
   xmlns:dc="http://purl.org/dc/elements/1.1/"
   xmlns:cc="http://creativecommons.org/ns#"
   xmlns:rdf="http://www.w3.org/1999/02/22-rdf-syntax-ns#"
   xmlns:svg="http://www.w3.org/2000/svg"
   xmlns="http://www.w3.org/2000/svg"
   xmlns:xlink="http://www.w3.org/1999/xlink"
   xmlns:sodipodi="http://sodipodi.sourceforge.net/DTD/sodipodi-0.dtd"
   xmlns:inkscape="http://www.inkscape.org/namespaces/inkscape"
   version="1.0"
   width="48000"
   height="3200"
   id="svg2"
   sodipodi:version="0.32"
   inkscape:version="0.48.2 r9819"
   sodipodi:docname="StageScene_LV3.svg"
   inkscape:output_extension="org.inkscape.output.svg.inkscape">
  <metadata
     id="metadata2500">
    <rdf:RDF>
      <cc:Work
         rdf:about="">
        <dc:format>image/svg+xml</dc:format>
        <dc:type
           rdf:resource="http://purl.org/dc/dcmitype/StillImage" />
        <dc:title />
      </cc:Work>
    </rdf:RDF>
  </metadata>
  <sodipodi:namedview
     inkscape:window-height="712"
     inkscape:window-width="1280"
     inkscape:pageshadow="2"
     inkscape:pageopacity="0.0"
     guidetolerance="10.0"
     gridtolerance="10.0"
     objecttolerance="10.0"
     borderopacity="1.0"
     bordercolor="#666666"
     pagecolor="#ffffff"
     id="base"
     showgrid="false"
     inkscape:zoom="0.56032794"
     inkscape:cx="486.99457"
     inkscape:cy="2780.6169"
     inkscape:window-x="13"
     inkscape:window-y="22"
     inkscape:current-layer="layer3"
     width="480px"
     inkscape:window-maximized="0"
     inkscape:snap-grids="true"
     showguides="true"
     inkscape:guide-bbox="true">
    <inkscape:grid
       type="xygrid"
       id="grid3290"
       visible="true"
       enabled="true"
       empspacing="5"
       snapvisiblegridlinesonly="true" />
  </sodipodi:namedview>
  <defs
     id="defs4">
    <inkscape:perspective
       sodipodi:type="inkscape:persp3d"
       inkscape:vp_x="0 : 500 : 1"
       inkscape:vp_y="0 : 1000 : 0"
       inkscape:vp_z="1000 : 500 : 1"
       inkscape:persp3d-origin="500 : 333.33333 : 1"
       id="perspective2413" />
    <inkscape:perspective
       id="perspective2443"
       inkscape:persp3d-origin="372.04724 : 350.78739 : 1"
       inkscape:vp_z="744.09448 : 526.18109 : 1"
       inkscape:vp_y="0 : 1000 : 0"
       inkscape:vp_x="0 : 526.18109 : 1"
       sodipodi:type="inkscape:persp3d" />
    <inkscape:perspective
       id="perspective3980"
       inkscape:persp3d-origin="0.5 : 0.33333333 : 1"
       inkscape:vp_z="1 : 0.5 : 1"
       inkscape:vp_y="0 : 1000 : 0"
       inkscape:vp_x="0 : 0.5 : 1"
       sodipodi:type="inkscape:persp3d" />
    <inkscape:perspective
       id="perspective3534"
       inkscape:persp3d-origin="0.5 : 0.33333333 : 1"
       inkscape:vp_z="1 : 0.5 : 1"
       inkscape:vp_y="0 : 1000 : 0"
       inkscape:vp_x="0 : 0.5 : 1"
       sodipodi:type="inkscape:persp3d" />
  </defs>
  <g
     inkscape:groupmode="layer"
     id="staticShapes"
     inkscape:label="static"
     style="display:inline" />
  <g
     inkscape:groupmode="layer"
     id="layer3"
     inkscape:label="boxes"
     style="display:inline">
    <image
       y="238.69037"
       x="372.76431"
       id="MyBird"
       xlink:href="file:///Users/kmkim/Games/rocknroll/rocknroll/Resources/GameClasses/Bird.png"
       height="40"
       width="40" />
    <path
       style="fill:none;stroke:#000000;stroke-width:1px;stroke-linecap:butt;stroke-linejoin:miter;stroke-opacity:1"
       d="M 1.4259326,-0.28766799 C 11.414189,28.045566 23.309443,55.516466 36.744893,82.202126 50.180343,108.88779 65.155988,134.78822 81.305038,159.98053 97.454078,185.17284 114.77652,209.65702 132.90555,233.5102 151.03459,257.36338 169.97022,280.58555 189.34565,303.25382 200.09656,312.4815 211.8867,317.7853 224.18455,320.16858 236.48241,322.55186 249.28798,322.01461 262.06976,319.56019 274.85153,317.10576 287.60951,312.73416 299.81217,307.44873 312.01483,302.16329 323.66218,295.96402 334.2227,289.85427 344.54999,285.03073 355.10069,282.35109 365.79132,280.96699 376.48196,279.58288 387.31253,279.49431 398.1996,279.85289 409.08666,280.21146 420.03021,281.01719 430.94679,281.42168 441.86337,281.82617 452.75297,281.82943 463.53215,280.58308"
       id="path3256"
       inkscape:connector-curvature="0"
       sodipodi:nodetypes="ccccccccccccc" />
    <path
       style="fill:none;stroke:#000000;stroke-width:1px;stroke-linecap:butt;stroke-linejoin:miter;stroke-opacity:1"
       d="M 501.0102,378.73988 C 514.67953,379.47712 527.28663,383.0088 539.09637,388.64541 550.90611,394.28202 561.91848,402.02357 572.39837,411.18053 582.87826,420.33749 592.82566,430.90987 602.50545,442.20814 612.18523,453.50641 621.5974,465.53058 631.00683,477.59112 640.41626,489.65167 649.82295,501.74859 659.49177,513.19238 669.16059,524.63616 679.09155,535.42681 689.54951,544.8748 700.00747,554.32278 710.99243,562.42811 722.76928,568.50126 734.54613,574.57442 747.11486,578.6154 760.74034,579.93468 767.9871,580.63634 774.95307,579.87692 781.70876,578.01808 788.46444,576.15924 795.00984,573.20098 801.41542,569.50496 807.82101,565.80895 814.08678,561.37517 820.28324,556.5653 826.4797,551.75543 832.60683,546.56947 838.73514,541.36908 844.86344,536.16869 850.99291,530.95387 857.19403,526.08628 863.39515,521.21869 869.66792,516.69834 876.08283,512.88689 882.49774,509.07543 889.05479,505.97287 895.82447,503.94088 902.59414,501.90888 909.57644,500.94745 916.84185,501.41824 932.57895,502.43799 947.30672,506.49108 961.278,512.80681 975.24927,519.12255 988.46405,527.70093 1001.1751,537.77128 1013.8862,547.84163 1026.0936,559.40394 1038.0502,571.68753 1050.0067,583.97112 1061.7124,596.97599 1073.4201,609.93145 1085.1277,622.88692 1096.8373,635.79297 1108.8017,647.87893 1120.7661,659.96489 1132.9853,671.23076 1145.712,680.90585 1158.4388,690.58094 1171.6731,698.66525 1185.6679,704.38809 1199.6627,710.11094 1214.4179,713.47232 1230.1863,713.70155 1235.6931,713.7816 1240.8792,712.68624 1245.8245,710.71396 1250.7698,708.74169 1255.4744,705.89251 1260.0182,702.46492 1264.5621,699.03734 1268.9452,695.03135 1273.2475,690.74547 1277.5498,686.45959 1281.7714,681.89381 1285.9922,677.34665 1290.213,672.79949 1294.433,668.27094 1298.7322,664.05951 1303.0314,659.84808 1307.4099,655.95377 1311.9475,652.67509 1316.4852,649.39641 1321.182,646.73335 1326.118,644.98444 1331.0541,643.23552 1336.2293,642.40074 1341.7236,642.7786 1360.5487,644.07324 1377.7044,649.57408 1393.6088,658.21542 1409.5132,666.85677 1424.1662,678.63862 1437.9859,692.49529 1451.8055,706.35195 1464.7918,722.28343 1477.3627,739.22403 1489.9335,756.16462 1502.0889,774.11434 1514.2469,792.00748 1526.4049,809.90061 1538.5653,827.73718 1551.1463,844.45147 1563.7273,861.16576 1576.7287,876.75778 1590.5686,890.16184 1604.4085,903.56589 1619.0868,914.78199 1635.0215,922.74442 1650.9563,930.70685 1668.1474,935.41563 1687.0128,935.80505 1693.6799,935.94267 1699.8194,934.54775 1705.5632,931.9963 1711.3069,929.44484 1716.6548,925.73685 1721.7388,921.24831 1726.8227,916.75978 1731.6427,911.49071 1736.3305,905.8171 1741.0183,900.14349 1745.5739,894.06535 1750.1291,887.95867 1754.6843,881.85199 1759.2391,875.71677 1763.9253,869.92902 1768.6116,864.14127 1773.4292,858.70098 1778.5101,853.98416 1783.5909,849.26733 1788.935,845.27398 1794.674,842.38009 1800.4131,839.4862 1806.5472,837.69177 1813.208,837.37282 1821.4255,836.97932 1829.1638,838.30089 1836.5428,840.91985 1843.9217,843.53881 1850.9413,847.45516 1857.7214,852.25125 1864.5015,857.04734 1871.0422,862.72316 1877.4631,868.86105 1883.8841,874.99894 1890.1854,881.5989 1896.4869,888.24327 1902.7884,894.88764 1909.0902,901.57641 1915.512,907.89193 1921.9337,914.20745 1928.4756,920.14971 1935.2573,925.30105 1942.0391,930.45239 1949.0608,934.81281 1956.4422,937.96465 1963.8236,941.11649 1971.5648,943.05975 1979.7856,943.37676 1987.4498,943.6723 1994.7775,942.54129 2001.8529,940.33572 2008.9282,938.13016 2015.7513,934.85004 2022.4062,930.8474 2029.0612,926.84477 2035.5481,922.1196 2041.9511,917.02393 2048.3541,911.92825 2054.6733,906.46207 2060.9928,900.9774 2067.3123,895.49272 2073.6321,889.98956 2080.0366,884.81993 2086.441,879.6503 2092.93,874.81419 2099.5878,870.66364 2106.2456,866.51309 2113.0723,863.04808 2120.1519,860.62064 2127.2315,858.1932 2134.5642,856.80333 2142.2341,856.80304 2151.2468,856.80271 2159.8644,858.32783 2168.1854,861.00506 2176.5063,863.68228 2184.5307,867.5116 2192.357,872.11965 2200.1833,876.7277 2207.8115,882.11448 2215.3403,887.90662 2222.869,893.69876 2230.2983,899.89627 2237.7267,906.12577 2245.1551,912.35527 2252.5825,918.61677 2260.1077,924.5369 2267.6328,930.45703 2275.2556,936.03579 2283.0746,940.89981 2290.8937,945.76383 2298.9089,949.91312 2307.219,952.9743 2315.529,956.03549 2324.1339,958.00857 2333.1321,958.52018 2342.1316,959.03186 2350.9001,958.11727 2359.4954,956.13214 2368.0906,954.147 2376.5126,951.09131 2384.8192,947.32079 2393.1258,943.55028 2401.317,939.06493 2409.4505,934.22047 2417.5841,929.37601 2425.66,924.17243 2433.7361,918.96547 2441.8123,913.75851 2449.8886,908.54815 2458.0228,903.69012 2466.1571,898.83209 2474.3494,894.32639 2482.6575,890.52874 2490.9655,886.73109 2499.3894,883.64148 2507.9868,881.61564 2516.5842,879.5898 2525.3553,878.62773 2534.3577,879.08514 2546.8066,879.71767 2558.7371,882.30658 2570.2789,886.35711 2581.8207,890.40763 2592.9738,895.91977 2603.8681,902.39876 2614.7624,908.87775 2625.3979,916.32358 2635.9043,924.24149 2646.4108,932.15939 2656.7882,940.54938 2667.1665,948.91668 2677.5448,957.28397 2687.9239,965.62858 2698.4336,973.45573 2708.9434,981.28288 2719.5838,988.59257 2730.4847,994.89003 2741.3855,1001.1875 2752.5469,1006.4727 2764.0985,1010.251 2775.6502,1014.0292 2787.5921,1016.3005 2800.0542,1016.5699 2808.7595,1016.7582 2817.1651,1015.4446 2825.3458,1013.0119 2833.5265,1010.5792 2841.4821,1007.0273 2849.2873,1002.7389 2857.0924,998.45045 2864.7471,993.42545 2872.3259,988.04652 2879.9046,982.66759 2887.4075,976.93472 2894.909,971.23054 2902.4104,965.52635 2909.9105,959.85085 2917.4838,954.58665 2925.057,949.32244 2932.7034,944.46954 2940.4976,940.41056 2948.2917,936.35157 2956.2336,933.0865 2964.3977,930.99797 2972.5618,928.90944 2980.9482,927.99745 2989.6314,928.64461 3002.9337,929.63603 3015.4451,932.83882 3027.3606,937.72149 3039.2761,942.60417 3050.5957,949.16674 3061.5144,956.87772 3072.4331,964.5887 3082.9509,973.44811 3093.2628,982.92445 3103.5748,992.4008 3113.6809,1002.4941 3123.7761,1012.6729 3133.8714,1022.8516 3143.9558,1033.1159 3154.2244,1042.9341 3164.493,1052.7523 3174.9458,1062.1246 3185.7779,1070.5194 3196.6099,1078.9141 3207.8211,1086.3314 3219.6066,1092.2398 3231.3921,1098.1482 3243.7518,1102.5476 3256.8807,1104.9066 3259.6248,1105.3996 3262.3631,1105.4499 3265.0966,1105.1708 3267.83,1104.8917 3270.5586,1104.2833 3273.2831,1103.459 3276.0076,1102.6347 3278.728,1101.5945 3281.4452,1100.452 3284.1625,1099.3094 3286.8765,1098.0644 3289.5882,1096.8305 3292.2999,1095.5966 3295.0092,1094.3737 3297.717,1093.2753 3300.4248,1092.177 3303.1311,1091.2031 3305.8367,1090.4673 3308.5423,1089.7314 3311.2473,1089.2336 3313.9524,1089.0871 3316.6576,1088.9407 3319.3629,1089.1457 3322.0692,1089.8156 3324.2513,1090.3558 3326.2582,1091.226 3328.133,1092.3461 3330.0077,1093.4662 3331.7504,1094.8362 3333.4041,1096.3759 3335.0579,1097.9156 3336.6226,1099.625 3338.1416,1101.4239 3339.6606,1103.2228 3341.1338,1105.1112 3342.6043,1107.009 3344.0748,1108.9067 3345.5427,1110.8138 3347.0511,1112.65 3348.5594,1114.4862 3350.1083,1116.2516 3351.7408,1117.8659 3353.3733,1119.4802 3355.0894,1120.9435 3356.9324,1122.1755 3358.7753,1123.4076 3360.745,1124.4084 3362.8846,1125.0978 3365.4315,1125.9184 3368.0261,1126.3318 3370.6561,1126.4411 3373.286,1126.5504 3375.9513,1126.3555 3378.6396,1125.9596 3381.3278,1125.5636 3384.0391,1124.9664 3386.7611,1124.2712 3389.4831,1123.576 3392.2157,1122.7827 3394.9467,1121.9943 3397.6776,1121.2059 3400.4069,1120.4224 3403.1222,1119.7469 3405.8375,1119.0713 3408.5387,1118.5037 3411.2137,1118.1471 3413.8886,1117.7905 3416.5372,1117.6449 3419.147,1117.8132 3421.7569,1117.9816 3424.3281,1118.4639 3426.8483,1119.3633 3429.4347,1120.2863 3431.799,1121.5545 3433.9952,1123.0852 3436.1914,1124.6159 3438.2195,1126.4091 3440.1334,1128.3822 3442.0474,1130.3553 3443.8473,1132.5083 3445.5871,1134.7586 3447.327,1137.0088 3449.0067,1139.3564 3450.6805,1141.7186 3452.3543,1144.0808 3454.0221,1146.4576 3455.7379,1148.7665 3457.4538,1151.0753 3459.2176,1153.3162 3461.0836,1155.4065 3462.9495,1157.4968 3464.9175,1159.4366 3467.0417,1161.143 3469.1658,1162.8495 3471.446,1164.3228 3473.9364,1165.4803 3476.5026,1166.6729 3479.1673,1167.5099 3481.9053,1168.0812 3484.6433,1168.6525 3487.4547,1168.9582 3490.3142,1169.0884 3493.1737,1169.2186 3496.0813,1169.1733 3499.0119,1169.0425 3501.9425,1168.9117 3504.8961,1168.6954 3507.8474,1168.4838 3510.7987,1168.2722 3513.7478,1168.0652 3516.6694,1167.9529 3519.5911,1167.8407 3522.4853,1167.8231 3525.3269,1167.9904 3528.1686,1168.1576 3530.9575,1168.5097 3533.6687,1169.1366 3536.3799,1169.7636 3539.0133,1170.6654 3541.5437,1171.9322 3544.6496,1173.4871 3547.4565,1175.4451 3550.0404,1177.7026 3552.6242,1179.96 3554.9851,1182.517 3557.1991,1185.27 3559.413,1188.0229 3561.48,1190.9718 3563.4761,1194.0132 3565.4722,1197.0545 3567.3974,1200.1883 3569.3278,1203.311 3571.2581,1206.4337 3573.1937,1209.5454 3575.2104,1212.5424 3577.2272,1215.5394 3579.3252,1218.4218 3581.5804,1221.086 3583.8357,1223.7503 3586.2482,1226.1964 3588.894,1228.3209 3591.5399,1230.4453 3594.4191,1232.2481 3597.6076,1233.6257 3600.9947,1235.089 3604.4798,1236.0195 3608.0404,1236.5455 3611.6009,1237.0714 3615.2369,1237.1927 3618.9258,1237.0375 3622.6146,1236.8824 3626.3563,1236.4508 3630.1282,1235.8709 3633.9001,1235.291 3637.7022,1234.5628 3641.5119,1233.8145 3645.3216,1233.0663 3649.1389,1232.2979 3652.9411,1231.6376 3656.7434,1230.9772 3660.5307,1230.425 3664.2803,1230.1089 3668.0299,1229.7929 3671.7419,1229.7131 3675.3936,1229.9977 3679.0453,1230.2823 3682.6368,1230.9313 3686.1454,1232.0729 3689.5704,1233.1872 3692.7913,1234.6906 3695.8589,1236.4866 3698.9265,1238.2826 3701.8406,1240.3712 3704.6522,1242.656 3707.4637,1244.9408 3710.1726,1247.4219 3712.8297,1250.0028 3715.4867,1252.5837 3718.0918,1255.2644 3720.6958,1257.9486 3723.2997,1260.6328 3725.9026,1263.3204 3728.555,1265.9151 3731.2074,1268.5099 3733.9093,1271.0117 3736.7116,1273.3241 3739.5139,1275.6366 3742.4165,1277.7598 3745.4702,1279.5973 3748.5239,1281.4348 3751.7286,1282.9865 3755.1352,1284.1562 3759.1965,1285.5508 3763.3485,1286.4363 3767.5681,1286.9413 3771.7876,1287.4462 3776.0747,1287.5707 3780.4062,1287.4431 3784.7378,1287.3155 3789.1137,1286.9359 3793.511,1286.4328 3797.9084,1285.9297 3802.327,1285.303 3806.7439,1284.6814 3811.1607,1284.0598 3815.5758,1283.4432 3819.966,1282.9601 3824.3562,1282.477 3828.7215,1282.1275 3833.0389,1282.0399 3837.3562,1281.9524 3841.6256,1282.1269 3845.8238,1282.692 3850.0221,1283.257 3854.1492,1284.2126 3858.1822,1285.6873 3861.9812,1287.0764 3865.5463,1288.8645 3868.9338,1290.957 3872.3213,1293.0495 3875.5311,1295.4464 3878.6198,1298.0531 3881.7084,1300.6598 3884.6757,1303.4763 3887.5782,1306.408 3890.4806,1309.3397 3893.3181,1312.3867 3896.147,1315.4542 3898.9759,1318.5218 3901.7962,1321.61 3904.6642,1324.6242 3907.5323,1327.6384 3910.4481,1330.5787 3913.468,1333.3504 3916.4878,1336.1221 3919.6118,1338.7252 3922.8962,1341.0652 3926.1805,1343.4053 3929.6253,1345.4821 3933.2868,1347.2013 3937.719,1349.2822 3942.2899,1350.9363 3946.965,1352.2698 3951.6401,1353.6033 3956.4195,1354.6161 3961.2687,1355.4147 3966.1179,1356.2132 3971.0369,1356.7973 3975.9912,1357.2734 3980.9456,1357.7494 3985.9352,1358.1174 3990.9257,1358.4835 3995.9162,1358.8496 4000.9076,1359.2139 4005.8653,1359.6826 4010.8231,1360.1512 4015.7473,1360.7243 4020.6033,1361.5081 4025.4594,1362.2918 4030.2474,1363.2862 4034.9329,1364.5975 4039.6183,1365.9088 4044.2012,1367.5371 4048.6471,1369.5885 4052.9566,1371.577 4057.0385,1373.9366 4060.9501,1376.5736 4064.8617,1379.2107 4068.6029,1382.1251 4072.2312,1385.2232 4075.8595,1388.3214 4079.3747,1391.6032 4082.8344,1394.975 4086.294,1398.3468 4089.698,1401.8086 4093.1037,1405.2666 4096.5094,1408.7247 4099.9168,1412.1789 4103.3832,1415.5358 4106.8497,1418.8926 4110.3751,1422.152 4114.017,1425.2202 4117.6588,1428.2884 4121.417,1431.1655 4125.3489,1433.7576 4129.2808,1436.3498 4133.3864,1438.657 4137.723,1440.5857 4141.3503,1442.1988 4145.1182,1443.3894 4148.9877,1444.2706 4152.8571,1445.1518 4156.828,1445.7237 4160.8612,1446.0994 4164.8944,1446.4751 4168.9899,1446.6547 4173.1085,1446.7515 4177.2271,1446.8482 4181.3687,1446.862 4185.4943,1446.9062 4189.6199,1446.9504 4193.7294,1447.0249 4197.7835,1447.2431 4201.8377,1447.4612 4205.8366,1447.8229 4209.741,1448.4415 4213.6454,1449.06 4217.4553,1449.9353 4221.1315,1451.1808 4224.8077,1452.4262 4228.3502,1454.0417 4231.7199,1456.1404 4234.4453,1457.8379 4236.8154,1459.9453 4238.9234,1462.3517 4241.0313,1464.758 4242.8771,1467.4634 4244.5535,1470.357 4246.23,1473.2506 4247.7372,1476.3324 4249.1682,1479.4915 4250.5992,1482.6506 4251.9539,1485.8871 4253.3254,1489.0901 4254.6969,1492.2931 4256.0851,1495.4627 4257.583,1498.4879 4259.0809,1501.5132 4260.6886,1504.3941 4262.4989,1507.02 4264.3093,1509.6458 4266.3224,1512.0165 4268.6312,1514.0212 4270.94,1516.0259 4273.5445,1517.6647 4276.5376,1518.8267 4280.7702,1520.4698 4285.0442,1521.3044 4289.3538,1521.5123 4293.6635,1521.7203 4298.0087,1521.3016 4302.3839,1520.4382 4306.7591,1519.5748 4311.1641,1518.2667 4315.5933,1516.6958 4320.0225,1515.1249 4324.4758,1513.2912 4328.9476,1511.3767 4333.4193,1509.4622 4337.9094,1507.4668 4342.4122,1505.5724 4346.915,1503.6781 4351.4304,1501.8848 4355.9527,1500.3746 4360.475,1498.8643 4365.0042,1497.637 4369.5345,1496.8746 4374.0649,1496.1122 4378.5964,1495.8148 4383.1232,1496.1641 4389.604,1496.6643 4395.9315,1497.8612 4402.1443,1499.5784 4408.357,1501.2957 4414.4549,1503.5333 4420.4765,1506.1148 4426.4981,1508.6964 4432.4434,1511.6219 4438.3508,1514.7151 4444.2582,1517.8083 4450.1277,1521.069 4455.9978,1524.3211 4461.8679,1527.5731 4467.7385,1530.8163 4473.6482,1533.8745 4479.558,1536.9326 4485.5067,1539.8056 4491.5329,1542.3172 4497.5592,1544.8287 4503.6629,1546.9787 4509.8826,1548.5909 4516.1023,1550.2031 4522.438,1551.2774 4528.928,1551.6375 4534.7006,1551.9577 4540.4072,1551.6261 4546.0643,1550.8042 4551.7214,1549.9823 4557.3291,1548.6702 4562.9039,1547.0295 4568.4786,1545.3889 4574.0205,1543.4197 4579.5461,1541.2837 4585.0717,1539.1477 4590.5809,1536.8449 4596.0904,1534.537 4601.5999,1532.2291 4607.1097,1529.9161 4612.6362,1527.7597 4618.1628,1525.6032 4623.7062,1523.6034 4629.2829,1521.9219 4634.8597,1520.2403 4640.4698,1518.8771 4646.1299,1517.9939 4651.79,1517.1107 4657.5,1516.7075 4663.2765,1516.946 4671.8185,1517.2987 4680.1874,1518.7068 4688.4263,1520.8897 4696.6652,1523.0727 4704.7741,1526.0306 4712.7958,1529.483 4720.8174,1532.9353 4728.752,1536.8822 4736.6422,1541.043 4744.5324,1545.2038 4752.3784,1549.5786 4760.2229,1553.887 4768.0675,1558.1954 4775.9106,1562.4373 4783.7953,1566.3323 4791.6799,1570.2273 4799.6061,1573.7753 4807.6166,1576.696 4815.6271,1579.6168 4823.722,1581.9101 4831.9442,1583.2956 4840.1664,1584.6811 4848.5158,1585.1588 4857.0354,1584.4482 4865.9104,1583.7079 4874.3862,1581.6481 4882.5626,1578.5974 4890.7389,1575.5468 4898.6157,1571.5053 4906.2928,1566.8019 4913.9699,1562.0984 4921.4472,1556.733 4928.8244,1551.0343 4936.2016,1545.3356 4943.4787,1539.3038 4950.7554,1533.2675 4958.0321,1527.2312 4965.3085,1521.1906 4972.6842,1515.4743 4980.0598,1509.758 4987.5348,1504.3661 4995.2088,1499.6274 5002.8828,1494.8887 5010.7558,1490.8032 5018.9275,1487.6997 5027.0992,1484.5961 5035.5696,1482.4746 5044.4384,1481.6639 5052.3525,1480.9404 5060.1678,1481.6246 5067.9041,1483.3396 5075.6404,1485.0545 5083.2977,1487.8001 5090.8957,1491.1993 5098.4937,1494.5985 5106.0324,1498.6514 5113.5316,1502.9809 5121.0309,1507.3104 5128.4906,1511.9166 5135.9305,1516.4223 5143.3705,1520.928 5150.7907,1525.3333 5158.2109,1529.2612 5165.631,1533.1891 5173.0512,1536.6396 5180.4911,1539.2356 5187.931,1541.8316 5195.3906,1543.5731 5202.8897,1544.0832 5210.3889,1544.5932 5217.9275,1543.8718 5225.5253,1541.5419 5234.9167,1538.6619 5244.208,1533.5837 5253.2777,1526.9018 5262.3473,1520.2199 5271.1952,1511.9343 5279.6997,1502.6395 5288.2041,1493.3447 5296.365,1483.0408 5304.0608,1472.3223 5311.7565,1461.6038 5318.9871,1450.4707 5325.6306,1439.5176 5332.2742,1428.5646 5338.3308,1417.7915 5343.6787,1407.793 5349.0266,1397.7945 5353.6658,1388.5705 5357.4746,1380.7157 5361.2833,1372.8609 5364.2617,1366.3752 5366.2878,1361.8532 5368.3139,1357.3312 5369.3878,1354.773 5369.3878,1354.773"
       id="path3251" />
  </g>
</svg>
