<?xml version="1.0" encoding="UTF-8" standalone="no"?>
<!-- Created with Inkscape (http://www.inkscape.org/) -->

<svg
   xmlns:dc="http://purl.org/dc/elements/1.1/"
   xmlns:cc="http://creativecommons.org/ns#"
   xmlns:rdf="http://www.w3.org/1999/02/22-rdf-syntax-ns#"
   xmlns:svg="http://www.w3.org/2000/svg"
   xmlns="http://www.w3.org/2000/svg"
   xmlns:xlink="http://www.w3.org/1999/xlink"
   xmlns:sodipodi="http://sodipodi.sourceforge.net/DTD/sodipodi-0.dtd"
   xmlns:inkscape="http://www.inkscape.org/namespaces/inkscape"
   version="1.0"
   width="48000"
   height="320"
   id="svg2"
   sodipodi:version="0.32"
   inkscape:version="0.48.2 r9819"
   sodipodi:docname="StageScene_LV4.svg"
   inkscape:output_extension="org.inkscape.output.svg.inkscape">
  <metadata
     id="metadata2500">
    <rdf:RDF>
      <cc:Work
         rdf:about="">
        <dc:format>image/svg+xml</dc:format>
        <dc:type
           rdf:resource="http://purl.org/dc/dcmitype/StillImage" />
        <dc:title />
      </cc:Work>
    </rdf:RDF>
  </metadata>
  <sodipodi:namedview
     inkscape:window-height="712"
     inkscape:window-width="1280"
     inkscape:pageshadow="2"
     inkscape:pageopacity="0.0"
     guidetolerance="10.0"
     gridtolerance="10.0"
     objecttolerance="10.0"
     borderopacity="1.0"
     bordercolor="#666666"
     pagecolor="#ffffff"
     id="base"
     showgrid="false"
     inkscape:zoom="0.42740741"
     inkscape:cx="12985.917"
     inkscape:cy="1176.2201"
     inkscape:window-x="35"
     inkscape:window-y="14"
     inkscape:current-layer="layer3"
     width="480px"
     inkscape:window-maximized="0"
     inkscape:snap-grids="true"
     showguides="true"
     inkscape:guide-bbox="true">
    <inkscape:grid
       type="xygrid"
       id="grid3290"
       visible="true"
       enabled="true"
       empspacing="5"
       snapvisiblegridlinesonly="true" />
    <sodipodi:guide
       orientation="0,1"
       position="356.93383,2841.1933"
       id="guide3805" />
  </sodipodi:namedview>
  <defs
     id="defs4">
    <inkscape:perspective
       sodipodi:type="inkscape:persp3d"
       inkscape:vp_x="0 : 500 : 1"
       inkscape:vp_y="0 : 1000 : 0"
       inkscape:vp_z="1000 : 500 : 1"
       inkscape:persp3d-origin="500 : 333.33333 : 1"
       id="perspective2413" />
    <inkscape:perspective
       id="perspective2443"
       inkscape:persp3d-origin="372.04724 : 350.78739 : 1"
       inkscape:vp_z="744.09448 : 526.18109 : 1"
       inkscape:vp_y="0 : 1000 : 0"
       inkscape:vp_x="0 : 526.18109 : 1"
       sodipodi:type="inkscape:persp3d" />
    <inkscape:perspective
       id="perspective3980"
       inkscape:persp3d-origin="0.5 : 0.33333333 : 1"
       inkscape:vp_z="1 : 0.5 : 1"
       inkscape:vp_y="0 : 1000 : 0"
       inkscape:vp_x="0 : 0.5 : 1"
       sodipodi:type="inkscape:persp3d" />
    <inkscape:perspective
       id="perspective3534"
       inkscape:persp3d-origin="0.5 : 0.33333333 : 1"
       inkscape:vp_z="1 : 0.5 : 1"
       inkscape:vp_y="0 : 1000 : 0"
       inkscape:vp_x="0 : 0.5 : 1"
       sodipodi:type="inkscape:persp3d" />
  </defs>
  <g
     inkscape:groupmode="layer"
     id="staticShapes"
     inkscape:label="static"
     style="display:inline"
     transform="translate(0,-2880)" />
  <g
     inkscape:groupmode="layer"
     id="layer3"
     inkscape:label="boxes"
     style="display:inline">
    <image
       y="65.081642"
       x="36.971546"
       id="MyBird"
       xlink:href="file:///Users/kmkim/Games/rocknroll/rocknroll/Resources/GameClasses/Bird.png"
       height="28"
       width="28" />
    <path
       style="fill:none;stroke:#000000;stroke-width:1px;stroke-linecap:butt;stroke-linejoin:miter;stroke-opacity:1"
       d="M 16.377816,43.916811 C 16.377816,43.916811 17.277815,45.997589 18.955088,49.730721 20.632362,53.463852 23.086911,58.849337 26.196012,65.458751 29.305112,72.068164 33.068765,79.901507 37.364245,88.530354 41.659726,97.1592 46.487035,106.58355 51.723449,116.37498 56.959863,126.16641 62.605382,136.32492 68.537282,146.42209 74.469182,156.51925 80.687464,166.55507 87.069403,176.10112 93.451343,185.64717 99.996941,194.70345 106.58347,202.84154 113.17001,210.97963 119.79747,218.19952 126.34315,224.07279 131.79625,228.96572 137.45682,233.83961 143.3022,238.61848 149.14758,243.39735 155.17777,248.0812 161.37007,252.59404 167.56238,257.10689 173.9168,261.44872 180.41067,265.54355 186.90454,269.63839 193.53785,273.48622 200.28793,277.01108 207.038,280.53593 213.90484,283.7378 220.86576,286.54069 227.82668,289.34359 234.88169,291.74751 242.00809,293.67647 249.1345,295.60543 256.33231,297.05943 263.57885,297.96249 270.82538,298.86554 278.12064,299.21764 285.44194,298.94281 293.94863,298.62348 302.04417,296.86288 309.83127,294.01995 317.61837,291.17702 325.09704,287.25176 332.37001,282.60314 339.64298,277.95451 346.71025,272.5825 353.67456,266.84607 360.63887,261.10964 367.50021,255.00878 374.36131,248.90245 381.22242,242.79611 388.08329,236.6843 395.04666,230.92596 402.01003,225.16761 409.0759,219.76274 416.347,215.07029 423.6181,210.37784 431.09443,206.39781 438.87873,203.48915 446.66302,200.58049 454.75528,198.74319 463.25823,198.33622 473.06613,197.86679 482.55957,199.07638 491.81714,201.54473 501.07472,204.01308 510.09642,207.74018 518.96085,212.30577 527.82528,216.87135 536.53243,222.27542 545.16089,228.0977 553.78935,233.91997 562.33912,240.16046 570.88879,246.39888 579.43846,252.6373 587.98802,258.87366 596.61607,264.68768 605.24412,270.5017 613.95066,275.89339 622.81427,280.44246 631.67788,284.99154 640.69857,288.69801 649.95491,291.14159 659.21126,293.58518 668.70327,294.76588 678.50953,294.26343 688.27899,293.76287 697.56391,291.5752 706.48562,288.12807 715.40733,284.68094 723.96583,279.97434 732.28243,274.43593 740.59903,268.89752 748.67374,262.52729 756.62788,255.75289 764.58202,248.97849 772.41559,241.79991 780.24991,234.64479 788.08423,227.48968 795.9193,220.35804 803.87645,213.6775 811.83359,206.99697 819.91281,200.76754 828.23542,195.41687 836.55803,190.0662 845.12403,185.59428 854.05476,182.42876 862.98548,179.26324 872.28091,177.40412 882.06239,177.27903 891.48363,177.15855 900.4792,178.75007 909.15554,181.62743 917.83189,184.5048 926.18899,188.66801 934.33329,193.69093 942.47759,198.71385 950.40909,204.59648 958.2342,210.91267 966.05932,217.22886 973.77805,223.97861 981.49683,230.73578 989.21562,237.49295 996.93445,244.25753 1004.7598,250.6034 1012.5851,256.94926 1020.5168,262.8764 1028.6615,267.95866 1036.8062,273.04093 1045.1638,277.27833 1053.8407,280.24471 1062.5176,283.2111 1071.5139,284.90647 1080.9359,284.90468 1091.5794,284.90266 1101.7411,282.99766 1111.5415,279.66578 1121.3419,276.33389 1130.781,271.57511 1139.9791,265.86552 1149.1773,260.15594 1158.1346,253.49555 1166.9714,246.36044 1175.8082,239.22533 1184.5246,231.61551 1193.241,224.00706 1201.9573,216.3986 1210.6737,208.79151 1219.5105,201.66189 1228.3473,194.53226 1237.3046,187.88008 1246.5028,182.18145 1255.7009,176.48283 1265.14,171.73774 1274.9403,168.42229 1284.7407,165.10683 1294.9024,163.22101 1305.5459,163.2409 1315.1001,163.25876 1324.2164,165.0386 1333.0042,168.13363 1341.7919,171.22866 1350.2512,175.63887 1358.4912,180.91746 1366.7312,186.19605 1374.752,192.34301 1382.663,198.91154 1390.574,205.48007 1398.3752,212.47017 1406.1758,219.43503 1413.9765,226.39989 1421.7767,233.33951 1429.6857,239.80708 1437.5948,246.27466 1445.6127,252.27019 1453.8488,257.34687 1462.085,262.42354 1470.5393,266.58137 1479.3212,269.37353 1488.1032,272.1657 1497.2127,273.5922 1506.7591,273.20624 1518.2952,272.73984 1529.1256,270.09571 1539.4266,265.81535 1549.7276,261.53499 1559.4992,255.61839 1568.9177,248.60702 1578.3362,241.59565 1587.4015,233.48952 1596.29,224.83009 1605.1785,216.17067 1613.8902,206.95796 1622.6012,197.73343 1631.3123,188.50891 1640.0228,179.27257 1648.909,170.56589 1657.7952,161.85921 1666.8571,153.6822 1676.271,146.57632 1685.6848,139.47044 1695.4507,133.4357 1705.7448,129.01358 1716.0389,124.59145 1726.8613,121.78194 1738.3882,121.12652 1750.0536,120.46322 1761.2542,121.97488 1772.1064,125.12372 1782.9586,128.27257 1793.4625,133.05862 1803.7345,138.94411 1814.0065,144.8296 1824.0466,151.81454 1833.9712,159.36119 1843.8958,166.90783 1853.7049,175.01617 1863.515,183.14846 1873.3252,191.28075 1883.1362,199.43699 1893.0647,207.07944 1902.9932,214.72188 1913.0391,221.85053 1923.3188,227.92762 1933.5985,234.00472 1944.1121,239.03028 1954.976,242.46653 1965.8398,245.90279 1977.0539,247.74975 1988.7348,247.46967 2001.3913,247.16619 2013.4388,244.74336 2025.0288,240.71768 2036.6188,236.69201 2047.7512,231.0635 2058.5775,224.34869 2069.4039,217.63387 2079.9242,209.83274 2090.2899,201.46182 2100.6556,193.09091 2110.8668,184.15021 2121.0749,175.15624 2131.2829,166.16228 2141.4879,157.11505 2151.8414,148.53109 2162.1948,139.94712 2172.6966,131.82642 2183.4984,124.6855 2194.3001,117.54459 2205.4018,111.38346 2216.9548,106.71864 2228.5078,102.05382 2240.5123,98.88531 2253.1196,97.729636 2267.3956,96.420997 2281.4086,97.436225 2295.2231,100.18456 2309.0377,102.93289 2322.6538,107.41433 2336.1361,113.03811 2349.6185,118.6619 2362.967,125.42802 2376.2465,132.74573 2389.5259,140.06344 2402.7363,147.93273 2415.9421,155.76283 2429.148,163.59294 2442.3494,171.38387 2455.611,178.54485 2468.8726,185.70584 2482.1944,192.23688 2495.641,197.54721 2509.0877,202.85755 2522.6591,206.94718 2536.4201,209.22534 2550.1811,211.5035 2564.1316,211.97019 2578.3362,210.03466 2592.2957,208.13253 2605.3585,203.82605 2617.7504,197.73129 2630.1423,191.63653 2641.8633,183.7535 2653.139,174.69828 2664.4147,165.64305 2675.2451,155.41563 2685.856,144.6321 2696.4668,133.84856 2706.8581,122.50891 2717.2554,111.22922 2727.6527,99.949532 2738.0562,88.729806 2748.6913,78.186123 2759.3265,67.64244 2770.1935,57.774798 2781.5179,49.199278 2792.8423,40.623758 2804.6242,33.340359 2817.0891,27.96516 2829.5541,22.589961 2842.7022,19.122962 2856.7591,18.180242 2871.8103,17.170841 2886.2585,19.014226 2900.2548,23.007798 2914.2512,27.001369 2927.7958,33.145127 2941.0399,40.736472 2954.2839,48.327816 2967.2274,57.366747 2980.0215,67.150664 2992.8156,76.934581 3005.4604,87.463485 3018.1071,98.034775 3030.7538,108.60607 3043.4023,119.21974 3056.204,129.17321 3069.0057,139.12667 3081.9605,148.41992 3095.2196,156.35035 3108.4787,164.28079 3122.0421,170.84841 3136.0612,175.35062 3150.0802,179.85283 3164.5547,182.28963 3179.6361,181.95841 3196.3069,181.59228 3212.1744,178.32862 3227.4392,172.88731 3242.7039,167.446 3257.3661,159.82703 3271.6262,150.7503 3285.8864,141.67357 3299.7446,131.13906 3313.4015,119.86667 3327.0585,108.59428 3340.5142,96.584001 3353.9693,84.555718 3367.4244,72.527436 3380.879,60.481149 3394.5338,49.136741 3408.1885,37.792332 3422.0434,27.149802 3436.2992,17.929033 3450.5549,8.7082637 3465.2115,0.90925529 3480.4697,-4.7481096 3495.7279,-10.405474 3511.5876,-13.921196 3528.2496,-14.575391 3544.8979,-15.229049 3560.972,-12.957771 3576.615,-8.4987485 3592.2581,-4.039726 3607.4701,2.6070407 3622.3944,10.704359 3637.3187,18.801678 3651.9553,28.349548 3666.4474,38.610778 3680.9394,48.872008 3695.2871,59.846598 3709.6335,70.797355 3723.9799,81.748111 3738.325,92.675035 3752.8123,102.84093 3767.2995,113.00683 3781.9288,122.41171 3796.8435,130.31836 3811.7581,138.22502 3826.958,144.63346 3842.5866,148.80649 3858.2151,152.97951 3874.2722,154.91713 3890.9012,153.88215 3908.6922,152.77484 3925.4738,148.40046 3941.4987,141.59279 3957.5236,134.78513 3972.792,125.54419 3987.5567,114.70377 4002.3213,103.86335 4016.5823,91.423448 4030.5925,78.217863 4044.6027,65.012278 4058.3622,51.041009 4072.1238,37.137853 4085.8854,23.234697 4099.6492,9.3996545 4113.668,-3.5334785 4127.6868,-16.466612 4141.9607,-28.497835 4156.7426,-38.793351 4171.5244,-49.088867 4186.8143,-57.648677 4202.865,-63.638982 4218.9158,-69.629288 4235.7274,-73.05009 4253.5529,-73.067592 4268.485,-73.082253 4282.5716,-70.054511 4296.024,-64.754435 4309.4763,-59.454359 4322.2945,-51.881948 4334.6894,-42.80727 4347.0844,-33.732592 4359.0563,-23.155647 4370.8162,-11.846503 4382.5762,-0.53735943 4394.1241,11.503984 4405.6713,23.507459 4417.2184,35.510934 4428.7648,47.47654 4440.5215,58.63421 4452.2782,69.791881 4464.2452,80.141615 4476.6338,88.913345 4489.0223,97.685075 4501.8324,104.8788 4515.2751,109.72446 4528.7178,114.57011 4542.7931,117.0677 4557.7123,116.44714 4570.102,115.9318 4581.5757,112.85721 4592.3623,107.85996 4603.1489,102.86271 4613.2484,95.942788 4622.8895,87.736777 4632.5307,79.530766 4641.7135,70.038663 4650.6669,59.897043 4659.6203,49.755423 4668.3442,38.964287 4677.0674,28.160208 4685.7907,17.356129 4694.5133,6.5391088 4703.4641,-3.6542789 4712.4149,-13.847666 4721.5938,-23.417421 4731.2298,-31.726968 4740.8658,-40.036514 4750.9588,-47.085853 4761.7376,-52.238409 4772.5165,-57.390964 4783.9812,-60.646737 4796.3605,-61.369152 4809.3976,-62.12995 4821.7859,-60.164816 4833.6878,-56.154143 4845.5898,-52.14347 4857.0052,-46.087258 4868.0964,-38.665898 4879.1876,-31.244538 4889.9546,-22.45803 4900.5595,-12.986766 4911.1645,-3.5155026 4921.6075,6.6405174 4932.0507,16.800902 4942.494,26.961286 4952.9374,37.126035 4963.5434,46.614757 4974.1493,56.103479 4984.9178,64.916174 4996.0109,72.37245 5007.1041,79.828726 5018.5219,85.928583 5030.4267,89.99163 5042.3316,94.054677 5054.7233,96.080914 5067.7643,95.389948 5084.627,94.49649 5100.2857,90.23306 5115.0411,83.439169 5129.7966,76.645277 5143.6488,67.320925 5156.8987,56.305622 5170.1485,45.290319 5182.796,32.584065 5195.142,19.026371 5207.4879,5.4686769 5219.5323,-8.9404572 5231.576,-23.361521 5243.6198,-37.782585 5255.6628,-52.215578 5268.0059,-65.82099 5280.3491,-79.426403 5292.9923,-92.204234 5306.2366,-103.31497 5319.4809,-114.42571 5333.3261,-123.86936 5348.0732,-130.80641 5362.8202,-137.74345 5378.4691,-142.1739 5395.3206,-143.25823 5412.7358,-144.37884 5429.358,-141.96926 5445.3856,-136.9078 5461.4132,-131.84635 5476.8462,-124.133 5491.8831,-114.64607 5506.92,-105.15914 5521.5609,-93.898614 5536.0042,-81.742794 5550.4475,-69.586975 5564.6933,-56.535859 5578.94,-43.467741 5593.1868,-30.399623 5607.4344,-17.314504 5621.8816,-5.090676 5636.3288,7.1331516 5650.9754,18.495687 5666.02,28.118636 5681.0646,37.741585 5696.5073,45.624947 5712.5464,50.890429 5728.5855,56.155911 5745.2211,58.803513 5762.6517,57.954939 5780.8007,57.07139 5797.7749,52.702227 5813.8678,45.716151 5829.9607,38.730075 5845.1723,29.127087 5859.7962,17.775891 5874.4201,6.4246942 5888.4562,-6.6747113 5902.1982,-20.653622 5915.9402,-34.632533 5929.3881,-49.49095 5942.8354,-64.360169 5956.2826,-79.229388 5969.7294,-94.10941 5983.4691,-108.13153 5997.2087,-122.15365 6011.2414,-135.31787 6025.8607,-146.75549 6040.48,-158.1931 6055.6858,-167.90412 6071.7717,-175.01982 6087.8577,-182.13553 6104.8238,-186.65592 6122.9636,-187.71231 6141.8561,-188.81253 6159.9561,-186.15032 6177.4611,-180.67373 6194.9662,-175.19714 6211.8763,-166.90618 6228.389,-156.74892 6244.9018,-146.59166 6261.0172,-134.5681 6276.9329,-121.6263 6292.8486,-108.6845 6308.5645,-94.824471 6324.2784,-80.994274 6339.9922,-67.164078 6355.704,-53.363717 6371.6112,-40.541259 6387.5184,-27.718801 6403.6211,-15.874247 6420.117,-5.9556642 6436.6128,3.9629183 6453.5017,11.955529 6470.9813,17.074099 6488.461,22.192669 6506.5313,24.437198 6525.39,22.859618 6546.6074,21.084726 6566.2213,15.011164 6584.6336,5.7309311 6603.046,-3.5493018 6620.2567,-16.036206 6636.6677,-30.637783 6653.0787,-45.23936 6668.69,-61.95561 6683.9034,-79.694534 6699.1167,-97.433458 6713.9323,-116.19506 6728.7518,-134.88733 6743.5713,-153.57961 6758.3947,-172.20256 6773.624,-189.66419 6788.8534,-207.12582 6804.4885,-223.42612 6820.9314,-237.47311 6837.3742,-251.5201 6854.6248,-263.31376 6873.0849,-271.76211 6891.545,-280.21046 6911.2146,-285.31349 6932.4957,-285.9792 6949.9267,-286.52447 6966.2673,-283.34189 6981.7902,-277.35144 6997.313,-271.36098 7012.0182,-262.56266 7026.1783,-251.87645 7040.3385,-241.19023 7053.9537,-228.61614 7067.2965,-215.07414 7080.6394,-201.53215 7093.71,-187.02225 7106.7811,-172.46445 7119.8521,-157.90664 7132.9236,-143.30092 7146.2683,-129.56728 7159.613,-115.83363 7173.2308,-102.97206 7187.3945,-91.902546 7201.5582,-80.833034 7216.2678,-71.555583 7231.796,-64.990177 7247.3242,-58.424772 7263.6711,-54.571413 7281.1092,-54.350087 7306.2076,-54.031537 7329.8715,-58.575521 7352.4586,-66.799571 7375.0456,-75.023622 7396.5559,-86.927738 7417.3469,-101.32945 7438.138,-115.73116 7458.2098,-132.63047 7477.9201,-150.84491 7497.6304,-169.05934 7516.9791,-188.58891 7536.3239,-208.25113 7555.6687,-227.91335 7575.0095,-247.70823 7594.7041,-266.4533 7614.3986,-285.19837 7634.4469,-302.89363 7655.2065,-318.3566 7675.9661,-333.81958 7697.437,-347.05028 7719.9769,-356.86622 7742.5168,-366.68217 7766.1257,-373.08337 7791.1612,-374.88735 7820.1968,-376.97957 7848.3496,-373.62417 7875.8371,-366.21301 7903.3245,-358.80184 7930.1466,-347.33491 7956.521,-333.20406 7982.8954,-319.07321 8008.822,-302.27844 8034.5185,-284.2116 8060.2149,-266.14476 8085.6811,-246.80586 8111.1347,-227.58673 8136.5884,-208.36761 8162.0293,-189.26826 8187.6753,-171.68055 8213.3212,-154.09284 8239.172,-138.01676 8265.4454,-124.84415 8291.7187,-111.67155 8318.4146,-101.40243 8345.7505,-95.428636 8373.0864,-89.454844 8401.0624,-87.77638 8429.896,-91.785096 8459.6538,-95.922305 8486.8821,-106.32406 8512.2175,-121.34745 8537.5529,-136.37084 8560.9955,-156.01587 8583.1819,-178.63964 8605.3684,-201.2634 8626.2987,-226.8659 8646.6095,-253.80424 8666.9204,-280.74257 8686.6118,-309.01674 8706.3205,-336.98383 8726.0291,-364.95092 8745.7551,-392.61094 8766.135,-418.32099 8786.5149,-444.03104 8807.5487,-467.7911 8829.8733,-487.95829 8852.1978,-508.12548 8875.813,-524.69979 8901.3556,-536.03832 8926.8981,-547.37684 8954.3681,-553.47959 8984.4021,-552.70364 9004.9541,-552.17267 9023.4814,-546.83893 9040.4881,-537.87488 9057.4948,-528.91083 9072.981,-516.31648 9087.4508,-501.26428 9101.9206,-486.21207 9115.3741,-468.70202 9128.3155,-449.90658 9141.2568,-431.11115 9153.6861,-411.03032 9166.1074,-390.83656 9178.5287,-370.6428 9190.9421,-350.33612 9203.8519,-331.08896 9216.7616,-311.8418 9230.1677,-293.65418 9244.5742,-277.69854 9258.9808,-261.7429 9274.3879,-248.01925 9291.2997,-237.70005 9308.2116,-227.38085 9326.6282,-220.4661 9347.0537,-218.12825 9372.1256,-215.2586 9396.0007,-217.81603 9418.9807,-224.48482 9441.9607,-231.15361 9464.0457,-241.93376 9485.5373,-255.50956 9507.0289,-269.08536 9527.9272,-285.45681 9548.5339,-303.30817 9569.1406,-321.15954 9589.4558,-340.49084 9609.7811,-359.98634 9630.1064,-379.48184 9650.4418,-399.14155 9671.0892,-417.64975 9691.7365,-436.15795 9712.6958,-453.51463 9734.2686,-468.40409 9755.8415,-483.29355 9778.0281,-495.71577 9801.13,-504.35505 9824.2319,-512.99433 9848.2492,-517.85066 9873.4836,-517.60832 9898.6613,-517.36653 9922.513,-512.34436 9945.3703,-503.74259 9968.2275,-495.14083 9990.0904,-482.95946 10011.29,-468.39926 10032.49,-453.83907 10053.027,-436.90005 10073.233,-418.78297 10093.438,-400.6659 10113.312,-381.37077 10133.186,-362.09836 10153.06,-342.82595 10172.934,-323.57626 10193.14,-305.55007 10213.346,-287.52387 10233.883,-270.72117 10255.083,-256.34273 10276.284,-241.96429 10298.147,-230.01012 10321.005,-221.681 10343.863,-213.35187 10367.715,-208.64778 10392.894,-208.7695 10419.36,-208.89745 10444.383,-214.12034 10468.323,-223.16591 10492.263,-232.21148 10515.121,-245.07971 10537.257,-260.49835 10559.393,-275.91698 10580.808,-293.88602 10601.861,-313.13317 10622.915,-332.38033 10643.607,-352.90561 10664.3,-373.43674 10684.992,-393.96787 10705.685,-414.50484 10726.738,-433.7754 10747.792,-453.04595 10769.206,-471.05008 10791.342,-486.51551 10813.477,-501.98094 10836.335,-514.90767 10860.274,-524.02343 10884.214,-533.13919 10909.236,-538.44397 10935.702,-538.66551 10962.921,-538.89336 10988.749,-533.70494 11013.534,-524.47634 11038.319,-515.24775 11062.059,-501.97898 11085.103,-486.04613 11108.147,-470.11328 11130.494,-451.51635 11152.491,-431.63142 11174.488,-411.7465 11196.135,-390.57358 11217.78,-369.48876 11239.424,-348.40394 11261.065,-327.40722 11283.05,-307.87469 11305.035,-288.34216 11327.364,-270.27382 11350.383,-255.04576 11373.403,-239.8177 11397.114,-227.42992 11421.862,-219.25852 11446.61,-211.08711 11472.396,-207.13207 11499.567,-208.7695 11524.498,-210.27198 11547.546,-216.77518 11569.18,-227.04171 11590.814,-237.30823 11611.034,-251.33809 11630.311,-267.89388 11649.587,-284.44967 11667.92,-303.53138 11685.779,-323.90164 11703.638,-344.27189 11721.022,-365.93069 11738.403,-387.64062 11755.784,-409.35055 11773.162,-431.11162 11791.005,-451.68643 11808.848,-472.26125 11827.157,-491.6498 11846.402,-508.61471 11865.647,-525.57961 11885.828,-540.12087 11907.415,-551.00107 11929.002,-561.88128 11951.994,-569.10044 11976.863,-571.42115 12000.955,-573.66939 12024.119,-571.14185 12046.589,-565.01683 12069.058,-558.8918 12090.833,-549.1693 12112.146,-537.0276 12133.459,-524.8859 12154.311,-510.32501 12174.934,-494.52323 12195.557,-478.72144 12215.952,-461.67876 12236.351,-444.57347 12256.75,-427.46819 12277.154,-410.30029 12297.795,-394.24809 12318.436,-378.19589 12339.315,-363.25937 12360.664,-350.61684 12382.014,-337.97431 12403.834,-327.62576 12426.358,-320.74948 12448.882,-313.8732 12472.11,-310.4692 12496.274,-311.71577 12519.123,-312.89447 12540.658,-318.04482 12561.207,-326.19798 12581.755,-334.35114 12601.316,-345.50711 12620.217,-358.69705 12639.117,-371.88699 12657.356,-387.1109 12675.261,-403.39996 12693.166,-419.68901 12710.736,-437.0432 12728.298,-454.49369 12745.861,-471.94418 12763.414,-489.49097 12781.286,-506.16522 12799.158,-522.83948 12817.348,-538.6412 12836.183,-552.60154 12855.017,-566.56189 12874.496,-578.68087 12894.945,-587.98963 12915.395,-597.2984 12936.815,-603.79696 12959.532,-606.51647 12977.837,-608.70779 12995.82,-607.85455 13013.563,-604.717 13031.306,-601.57945 13048.807,-596.15758 13066.149,-589.21164 13083.49,-582.2657 13100.67,-573.79567 13117.771,-564.56181 13134.872,-555.32795 13151.892,-545.33025 13168.914,-535.32894 13185.935,-525.32764 13202.956,-515.32273 13220.059,-506.07445 13237.161,-496.82618 13254.344,-488.33454 13271.689,-481.35977 13289.033,-474.385 13306.539,-468.9271 13324.287,-465.74631 13342.035,-462.56552 13360.024,-461.66184 13378.336,-463.7955 13400.743,-466.40631 13424.713,-472.861 13449.506,-482.15782 13474.299,-491.45463 13499.914,-503.59357 13525.612,-517.57286 13551.309,-531.55215 13577.087,-547.37179 13602.207,-564.03003 13627.326,-580.68826 13651.786,-598.18509 13674.846,-615.51874 13697.905,-632.85239 13719.564,-650.02286 13739.082,-666.0284 13758.6,-682.03393 13775.976,-696.87452 13790.47,-709.54841 13804.963,-722.2223 13816.575,-732.72948 13824.563,-740.06818 13832.551,-747.40689 13836.915,-751.57713 13836.915,-751.57713"
       id="path3818"
       inkscape:connector-curvature="0"
       sodipodi:nodetypes="ccccccccccccccccccccccccccccccccccccccccccccccccccccccccccccccccccccccccccccccccccccccccccccccccccccccccccccccccccccccccccccccccccccccccccccccccccccccccccccccccccccccccccccccccccccccccccccccccccccccccccccccccccccccccccccccccccccccccccccccccccccccccccccccccccccccccccccccccccccccccccccccccccccccccccccccccccccccccc" />
  </g>
</svg>
