<?xml version="1.0" encoding="UTF-8" standalone="no"?>
<!-- Created with Inkscape (http://www.inkscape.org/) -->

<svg
   xmlns:dc="http://purl.org/dc/elements/1.1/"
   xmlns:cc="http://creativecommons.org/ns#"
   xmlns:rdf="http://www.w3.org/1999/02/22-rdf-syntax-ns#"
   xmlns:svg="http://www.w3.org/2000/svg"
   xmlns="http://www.w3.org/2000/svg"
   xmlns:xlink="http://www.w3.org/1999/xlink"
   xmlns:sodipodi="http://sodipodi.sourceforge.net/DTD/sodipodi-0.dtd"
   xmlns:inkscape="http://www.inkscape.org/namespaces/inkscape"
   version="1.0"
   width="48000"
   height="320"
   id="svg2"
   sodipodi:version="0.32"
   inkscape:version="0.48.2 r9819"
   sodipodi:docname="StageScene_LV7.svg"
   inkscape:output_extension="org.inkscape.output.svg.inkscape">
  <metadata
     id="metadata2500">
    <rdf:RDF>
      <cc:Work
         rdf:about="">
        <dc:format>image/svg+xml</dc:format>
        <dc:type
           rdf:resource="http://purl.org/dc/dcmitype/StillImage" />
        <dc:title />
      </cc:Work>
    </rdf:RDF>
  </metadata>
  <sodipodi:namedview
     inkscape:window-height="712"
     inkscape:window-width="1280"
     inkscape:pageshadow="2"
     inkscape:pageopacity="0.0"
     guidetolerance="10.0"
     gridtolerance="10.0"
     objecttolerance="10.0"
     borderopacity="1.0"
     bordercolor="#666666"
     pagecolor="#ffffff"
     id="base"
     showgrid="false"
     inkscape:zoom="0.45254834"
     inkscape:cx="1155.2573"
     inkscape:cy="77.155685"
     inkscape:window-x="105"
     inkscape:window-y="58"
     inkscape:current-layer="layer3"
     width="480px"
     inkscape:window-maximized="0"
     inkscape:snap-grids="true"
     showguides="true"
     inkscape:guide-bbox="true">
    <inkscape:grid
       type="xygrid"
       id="grid3290"
       visible="true"
       enabled="true"
       empspacing="5"
       snapvisiblegridlinesonly="true" />
    <sodipodi:guide
       orientation="0,1"
       position="356.93383,2841.1933"
       id="guide3805" />
  </sodipodi:namedview>
  <defs
     id="defs4">
    <inkscape:perspective
       sodipodi:type="inkscape:persp3d"
       inkscape:vp_x="0 : 500 : 1"
       inkscape:vp_y="0 : 1000 : 0"
       inkscape:vp_z="1000 : 500 : 1"
       inkscape:persp3d-origin="500 : 333.33333 : 1"
       id="perspective2413" />
    <inkscape:perspective
       id="perspective2443"
       inkscape:persp3d-origin="372.04724 : 350.78739 : 1"
       inkscape:vp_z="744.09448 : 526.18109 : 1"
       inkscape:vp_y="0 : 1000 : 0"
       inkscape:vp_x="0 : 526.18109 : 1"
       sodipodi:type="inkscape:persp3d" />
    <inkscape:perspective
       id="perspective3980"
       inkscape:persp3d-origin="0.5 : 0.33333333 : 1"
       inkscape:vp_z="1 : 0.5 : 1"
       inkscape:vp_y="0 : 1000 : 0"
       inkscape:vp_x="0 : 0.5 : 1"
       sodipodi:type="inkscape:persp3d" />
    <inkscape:perspective
       id="perspective3534"
       inkscape:persp3d-origin="0.5 : 0.33333333 : 1"
       inkscape:vp_z="1 : 0.5 : 1"
       inkscape:vp_y="0 : 1000 : 0"
       inkscape:vp_x="0 : 0.5 : 1"
       sodipodi:type="inkscape:persp3d" />
  </defs>
  <g
     inkscape:groupmode="layer"
     id="staticShapes"
     inkscape:label="static"
     style="display:inline"
     transform="translate(0,-2880)" />
  <g
     inkscape:groupmode="layer"
     id="layer3"
     inkscape:label="boxes"
     style="display:inline">
    <image
       y="191.03503"
       x="257.94241"
       id="MyBird"
       xlink:href="file:///Users/kmkim/Games/rocknroll/rocknroll/Resources/GameClasses/Bird.png"
       height="28"
       width="28" />
    <path
       style="fill:none;stroke:#000000;stroke-width:1px;stroke-linecap:butt;stroke-linejoin:miter;stroke-opacity:1"
       d="M 26.516505,41.576702 C 26.516505,41.576702 27.343154,44.514197 28.945408,49.710578 30.547663,54.90696 32.925523,62.362227 36.027945,71.397773 39.130368,80.433319 42.957354,91.049142 47.457858,102.56663 51.958363,114.08413 57.132388,126.50329 62.928889,139.14551 68.72539,151.78773 75.144368,164.65302 82.134779,177.06275 89.12519,189.47249 96.687034,201.42668 104.76927,212.24671 112.8515,223.06674 121.45413,232.75261 130.5261,240.62572 139.59808,248.49883 149.1394,254.55918 159.09902,258.12815 163.86847,259.83725 168.60769,260.48952 173.32888,260.32346 178.05007,260.1574 182.75322,259.17302 187.45053,257.60883 192.14784,256.04463 196.8393,253.90064 201.53711,251.41534 206.23492,248.93005 210.93907,246.10347 215.66176,243.1741 220.38445,240.24474 225.12567,237.2126 229.89762,234.3162 234.66957,231.41979 239.47224,228.65913 244.31783,226.27271 249.16342,223.8863 254.05193,221.87414 258.99554,220.47475 263.93915,219.07536 268.93787,218.28874 274.00388,218.3534 278.72344,218.41364 283.33059,219.09572 287.85343,220.24132 292.37627,221.38692 296.8148,222.99604 301.19708,224.91034 305.57937,226.82463 309.90541,229.04412 314.2033,231.41045 318.50119,233.77679 322.77092,236.28998 327.04058,238.79169 331.31023,241.2934 335.57981,243.78363 339.87739,246.10406 344.17498,248.42449 348.50056,250.57511 352.88223,252.39759 357.2639,254.22006 361.70165,255.71441 366.22357,256.72228 370.74548,257.73015 375.35156,258.25155 380.06989,258.12815 387.90138,257.92333 395.48969,256.55446 402.89554,254.3209 410.30138,252.08735 417.52477,248.98913 424.62643,245.32561 431.72809,241.6621 438.70802,237.43329 445.62695,232.93858 452.54588,228.44387 459.40381,223.68325 466.26147,218.95612 473.11913,214.22898 479.97652,209.53532 486.89437,205.17453 493.81222,200.81373 500.79054,196.7858 507.89004,193.39011 514.98954,189.99443 522.21023,187.23099 529.61285,185.39919 537.01546,183.56739 544.59999,182.66721 552.42717,182.99806 560.16519,183.32514 567.55564,184.94 574.6855,187.51704 581.81536,190.09408 588.68464,193.63329 595.38033,197.80905 602.07601,201.98481 608.59811,206.79713 615.03361,211.92037 621.46911,217.04361 627.81801,222.47779 634.16731,227.89728 640.51661,233.31676 646.86631,238.72156 653.3034,243.78605 659.74049,248.85054 666.26497,253.57473 672.96384,257.63298 679.6627,261.69123 686.53596,265.08356 693.67059,267.48434 700.80522,269.88512 708.20123,271.29435 715.94562,271.38641 726.07441,271.50682 735.78858,269.85112 745.19179,266.86392 754.59499,263.87673 763.68722,259.55803 772.57213,254.35243 781.45704,249.14684 790.13463,243.05435 798.70853,236.51956 807.28244,229.98477 815.75267,223.00769 824.22287,216.03291 832.69307,209.05814 841.16323,202.08567 849.73701,195.56011 858.31079,189.03456 866.98819,182.95591 875.87284,177.76878 884.7575,172.58164 893.84941,168.28603 903.25224,165.32652 912.65506,162.36702 922.36879,160.74364 932.49707,160.90097 940.90231,161.03154 948.9176,162.64459 956.64045,165.36797 964.36329,168.09134 971.79369,171.92505 979.02915,176.49693 986.2646,181.0688 993.30511,186.37886 1000.2482,192.05493 1007.1912,197.731 1014.0369,203.77309 1020.8825,209.80904 1027.7282,215.845 1034.574,221.87482 1041.5173,227.52635 1048.4606,233.17788 1055.5014,238.45112 1062.7374,242.97392 1069.9733,247.49672 1077.4043,251.26907 1085.1278,253.91883 1092.8514,256.56859 1100.8675,258.09574 1109.2737,258.12815 1119.7374,258.16849 1129.7308,256.3835 1139.3713,253.22274 1149.0119,250.06199 1158.2996,245.52545 1167.352,240.0627 1176.4043,234.59995 1185.2213,228.21097 1193.9203,221.34532 1202.6194,214.47967 1211.2005,207.13735 1219.7812,199.7679 1228.3618,192.39845 1236.942,185.00189 1245.6393,178.02775 1254.3365,171.05361 1263.1507,164.50189 1272.1994,158.82216 1281.248,153.14242 1290.5312,148.33466 1300.1662,144.84844 1309.8013,141.36221 1319.7883,139.1975 1330.2446,138.80388 1341.5295,138.37907 1352.4531,139.89968 1363.1052,142.8719 1373.7574,145.84412 1384.1381,150.26795 1394.3373,155.64954 1404.5364,161.03113 1414.5541,167.37048 1424.48,174.17378 1434.406,180.97707 1444.2403,188.2443 1454.0729,195.48164 1463.9054,202.71897 1473.7362,209.92641 1483.6551,216.61011 1493.574,223.29382 1503.5811,229.4538 1513.7662,234.59622 1523.9512,239.73864 1534.3143,243.86349 1544.9453,246.47695 1555.5764,249.09041 1566.4753,250.19248 1577.732,249.28932 1590.4595,248.26816 1602.4165,244.96458 1613.796,239.95436 1625.1755,234.94413 1635.9774,228.22727 1646.3948,220.37952 1656.8123,212.53178 1666.8451,203.55316 1676.6864,194.01943 1686.5277,184.4857 1696.1774,174.39686 1705.8285,164.32868 1715.4796,154.26051 1725.1321,144.21299 1734.9789,134.7619 1744.8257,125.31082 1754.8669,116.45616 1765.2955,108.7737 1775.724,101.09124 1786.5398,94.580976 1797.936,89.818679 1809.3321,85.056383 1821.3085,82.042054 1834.0582,81.351459 1844.1729,80.803591 1853.8767,82.148147 1863.2725,84.916942 1872.6682,87.685737 1881.756,91.87877 1890.6388,97.027856 1899.5215,102.17694 1908.1991,108.28208 1916.7746,114.87509 1925.3501,121.46809 1933.8234,128.54896 1942.2975,135.64951 1950.7716,142.75007 1959.2465,149.8703 1967.825,156.54202 1976.4035,163.21375 1985.0857,169.43697 1993.9745,174.7435 2002.8633,180.05003 2011.9587,184.43987 2021.3636,187.44483 2030.7685,190.44979 2040.4829,192.06987 2050.6097,191.83689 2067.347,191.45182 2083.2677,187.90966 2098.5751,182.02394 2113.8826,176.13821 2128.577,167.90893 2142.8618,158.14962 2157.1466,148.39031 2171.022,137.10097 2184.6914,125.09515 2198.3609,113.08933 2211.8244,100.36701 2225.2857,87.741746 2238.747,75.116479 2252.206,62.58826 2265.8663,50.970623 2279.5267,39.352987 2293.3884,28.645934 2307.6551,19.662999 2321.9217,10.680065 2336.5934,3.4212495 2351.8736,-1.2999107 2367.1538,-6.0210708 2383.0426,-8.2045759 2399.7436,-7.0368897 2412.9708,-6.1120791 2425.17,-2.3624925 2436.5985,3.4890222 2448.027,9.3405369 2458.685,17.29398 2468.8298,26.626503 2478.9747,35.959026 2488.6065,46.670629 2497.9828,58.038465 2507.359,69.406301 2516.4797,81.43037 2525.6024,93.387823 2534.7251,105.34528 2543.8497,117.23611 2553.2338,128.33749 2562.618,139.43886 2572.2616,149.75078 2582.4222,158.55038 2592.5829,167.34998 2603.2605,174.63727 2614.7127,179.6894 2626.1649,184.74153 2638.3916,187.5585 2651.6504,187.41747 2658.9834,187.33947 2665.713,185.65808 2671.9893,182.76244 2678.2656,179.86681 2684.0886,175.75692 2689.6084,170.82191 2695.1283,165.88691 2700.345,160.12678 2705.4087,153.93067 2710.4723,147.73457 2715.383,141.10248 2720.2907,134.42354 2725.1985,127.7446 2730.1033,121.01881 2735.1554,114.6353 2740.2074,108.25179 2745.4067,102.21057 2750.9033,96.90077 2756.4,91.590966 2762.194,87.012582 2768.4354,83.554749 2774.6769,80.096917 2781.3659,77.759636 2788.6524,76.932042 2803.3,75.268395 2817.4181,76.548477 2831.1403,80.048481 2844.8624,83.548486 2858.1885,89.268413 2871.252,96.484457 2884.3155,103.7005 2897.1165,112.41266 2909.7882,121.89713 2922.4599,131.3816 2935.0024,141.63838 2947.5491,151.94367 2960.0959,162.24895 2972.6468,172.60274 2985.3354,182.28122 2998.0239,191.95971 3010.8501,200.96289 3023.9474,208.56697 3037.0446,216.17104 3050.4128,222.376 3064.1855,226.45805 3077.9583,230.5401 3092.1354,232.49924 3106.8504,231.61165 3113.6314,231.20263 3120.0094,229.55133 3126.0853,226.97014 3132.1612,224.38895 3137.935,220.87787 3143.5075,216.74931 3149.0799,212.62074 3154.4511,207.87468 3159.7218,202.82352 3164.9925,197.77237 3170.1627,192.41612 3175.3333,187.06716 3180.5039,181.71821 3185.6749,176.37655 3190.9471,171.35459 3196.2193,166.33263 3201.5928,161.63036 3207.1682,157.56017 3212.7437,153.48999 3218.5212,150.0519 3224.6016,147.55829 3230.6821,145.06468 3237.0654,143.51555 3243.8524,143.2233 3258.0075,142.61378 3271.5487,144.67725 3284.6298,148.75064 3297.7108,152.82403 3310.3317,158.90734 3322.6459,166.33753 3334.9602,173.76771 3346.9678,182.54476 3358.8225,192.00563 3370.6772,201.46649 3382.379,211.61117 3394.0813,221.7766 3405.7837,231.94203 3417.4868,242.12822 3429.3441,251.6721 3441.2014,261.21598 3453.2129,270.11756 3465.5324,277.71378 3477.8518,285.31 3490.4792,291.60086 3503.568,295.9233 3516.6569,300.24575 3530.2072,302.59978 3544.3727,302.32233 3550.9724,302.19307 3557.2378,300.84074 3563.2524,298.57469 3569.2671,296.30864 3575.0311,293.12887 3580.628,289.3447 3586.2248,285.56054 3591.6545,281.17199 3597.0007,276.48839 3602.3469,271.80478 3607.6095,266.82613 3612.8722,261.86177 3618.1348,256.89741 3623.3975,251.94733 3628.7438,247.32088 3634.0901,242.69443 3639.52,238.3916 3645.1171,234.72174 3650.7142,231.05188 3656.4785,228.01498 3662.4936,225.92038 3668.5087,223.82578 3674.7745,222.67348 3681.3747,222.77282 3697.4176,223.01428 3712.5542,226.38705 3727.0111,232.10262 3741.468,237.81819 3755.2452,245.87657 3768.5692,255.48924 3781.8933,265.10192 3794.7643,276.2689 3807.4087,288.20168 3820.0531,300.13447 3832.4711,312.83305 3844.8891,325.50894 3857.3071,338.18483 3869.7252,350.83801 3882.37,362.68 3895.0148,374.52199 3907.8863,385.55278 3921.211,394.98387 3934.5357,404.41497 3948.3138,412.24636 3962.7717,417.68955 3977.2296,423.13274 3992.3673,426.18773 4008.4116,426.06602 4017.6056,425.99628 4026.2527,424.03923 4034.4897,420.67284 4042.7266,417.30645 4050.5533,412.53071 4058.1065,406.82357 4065.6597,401.11643 4072.9393,394.4779 4080.0819,387.38592 4087.2245,380.29394 4094.2302,372.74851 4101.2355,365.22759 4108.2409,357.70668 4115.2459,350.21026 4122.3872,343.21631 4129.5285,336.22235 4136.806,329.73085 4144.3565,324.21977 4151.907,318.70868 4159.7303,314.178 4167.9632,311.10568 4176.1961,308.03336 4184.8385,306.4194 4194.0271,306.74175 4212.1724,307.37832 4228.9817,312.18702 4244.7873,320.08273 4260.5928,327.97843 4275.3947,338.96114 4289.5252,351.94574 4303.6558,364.93035 4317.115,379.91684 4330.2352,395.8201 4343.3554,411.72337 4356.1367,428.54341 4368.9113,445.1951 4381.686,461.84679 4394.454,478.33014 4407.5478,493.56003 4420.6416,508.78991 4434.0611,522.76634 4448.1388,534.40418 4462.2165,546.04203 4476.9522,555.3413 4492.6785,561.21687 4508.4048,567.09244 4525.1215,569.54431 4543.1611,567.48737 4552.508,566.4216 4561.797,562.92919 4570.8964,557.63345 4579.9959,552.33771 4588.9058,545.23864 4597.4946,536.95956 4606.0835,528.68048 4614.3512,519.22139 4622.1664,509.20559 4629.9815,499.1898 4637.344,488.6173 4644.1223,478.11141 4650.9006,467.60553 4657.0948,457.16625 4662.5732,447.4169 4668.0516,437.66754 4672.8142,428.60812 4676.7296,420.86192 4680.6449,413.11573 4683.713,406.68277 4685.8023,402.18636 4687.8915,397.68995 4689.0019,395.13009 4689.0019,395.13009"
       id="path4997"
       inkscape:connector-curvature="0"
       sodipodi:nodetypes="ccccccccccccccccccccccccccccccccccccccccccccccccccccccccccccccccccccccccccccccccccccccccccccccccccccccccccccccccccccccccccccccccccccccccccccccccccccccccccccccccccccccccccccccccc" />
  </g>
</svg>
