<?xml version="1.0" encoding="UTF-8" standalone="no"?>
<!-- Created with Inkscape (http://www.inkscape.org/) -->

<svg
   xmlns:dc="http://purl.org/dc/elements/1.1/"
   xmlns:cc="http://creativecommons.org/ns#"
   xmlns:rdf="http://www.w3.org/1999/02/22-rdf-syntax-ns#"
   xmlns:svg="http://www.w3.org/2000/svg"
   xmlns="http://www.w3.org/2000/svg"
   xmlns:xlink="http://www.w3.org/1999/xlink"
   xmlns:sodipodi="http://sodipodi.sourceforge.net/DTD/sodipodi-0.dtd"
   xmlns:inkscape="http://www.inkscape.org/namespaces/inkscape"
   version="1.0"
   width="48000"
   height="320"
   id="svg2"
   sodipodi:version="0.32"
   inkscape:version="0.48.2 r9819"
   sodipodi:docname="StageScene_LV9.svg"
   inkscape:output_extension="org.inkscape.output.svg.inkscape">
  <metadata
     id="metadata2500">
    <rdf:RDF>
      <cc:Work
         rdf:about="">
        <dc:format>image/svg+xml</dc:format>
        <dc:type
           rdf:resource="http://purl.org/dc/dcmitype/StillImage" />
        <dc:title />
      </cc:Work>
    </rdf:RDF>
  </metadata>
  <sodipodi:namedview
     inkscape:window-height="756"
     inkscape:window-width="1280"
     inkscape:pageshadow="2"
     inkscape:pageopacity="0.0"
     guidetolerance="10.0"
     gridtolerance="10.0"
     objecttolerance="10.0"
     borderopacity="1.0"
     bordercolor="#666666"
     pagecolor="#ffffff"
     id="base"
     showgrid="false"
     inkscape:zoom="1.4214069"
     inkscape:cx="37907.323"
     inkscape:cy="-838.7411"
     inkscape:window-x="0"
     inkscape:window-y="0"
     inkscape:current-layer="layer3"
     width="480px"
     inkscape:window-maximized="0"
     inkscape:snap-grids="true"
     showguides="true"
     inkscape:guide-bbox="true">
    <inkscape:grid
       type="xygrid"
       id="grid3290"
       visible="true"
       enabled="true"
       empspacing="5"
       snapvisiblegridlinesonly="true" />
    <sodipodi:guide
       orientation="0,1"
       position="356.93383,2841.1933"
       id="guide3805" />
  </sodipodi:namedview>
  <defs
     id="defs4">
    <inkscape:perspective
       sodipodi:type="inkscape:persp3d"
       inkscape:vp_x="0 : 500 : 1"
       inkscape:vp_y="0 : 1000 : 0"
       inkscape:vp_z="1000 : 500 : 1"
       inkscape:persp3d-origin="500 : 333.33333 : 1"
       id="perspective2413" />
    <inkscape:perspective
       id="perspective2443"
       inkscape:persp3d-origin="372.04724 : 350.78739 : 1"
       inkscape:vp_z="744.09448 : 526.18109 : 1"
       inkscape:vp_y="0 : 1000 : 0"
       inkscape:vp_x="0 : 526.18109 : 1"
       sodipodi:type="inkscape:persp3d" />
    <inkscape:perspective
       id="perspective3980"
       inkscape:persp3d-origin="0.5 : 0.33333333 : 1"
       inkscape:vp_z="1 : 0.5 : 1"
       inkscape:vp_y="0 : 1000 : 0"
       inkscape:vp_x="0 : 0.5 : 1"
       sodipodi:type="inkscape:persp3d" />
    <inkscape:perspective
       id="perspective3534"
       inkscape:persp3d-origin="0.5 : 0.33333333 : 1"
       inkscape:vp_z="1 : 0.5 : 1"
       inkscape:vp_y="0 : 1000 : 0"
       inkscape:vp_x="0 : 0.5 : 1"
       sodipodi:type="inkscape:persp3d" />
  </defs>
  <g
     inkscape:groupmode="layer"
     id="staticShapes"
     inkscape:label="static"
     style="display:inline"
     transform="translate(0,-2880)" />
  <g
     inkscape:groupmode="layer"
     id="layer3"
     inkscape:label="boxes"
     style="display:inline">
    <image
       y="1120.7559"
       x="37798.516"
       id="MyBird"
       xlink:href="file:///Users/kmkim/Games/rocknroll/rocknroll/Resources/GameClasses/Bird.png"
       height="48"
       width="48" />
    <path
       style="fill:none;stroke:#000000;stroke-width:1px;stroke-linecap:butt;stroke-linejoin:miter;stroke-opacity:1;display:inline"
       d="M 37337.638,1146.1567 C 37337.638,1146.1567 37346.629,1153.7614 37361.487,1165.2319 37376.346,1176.7023 37397.071,1192.0386 37420.538,1207.5018 37444.006,1222.965 37470.215,1238.555 37496.043,1250.533 37521.871,1262.5109 37547.316,1270.8768 37569.255,1271.8917 37590.232,1272.862 37609.946,1267.1721 37629.032,1258.0842 37648.117,1248.9963 37666.572,1236.5103 37685.03,1223.8886 37703.489,1211.2668 37721.95,1198.5094 37741.046,1188.8784 37760.142,1179.2474 37779.874,1172.743 37800.873,1172.6273 37823.864,1172.5006 37845.54,1179.2719 37866.557,1189.4459 37887.573,1199.62 37907.931,1213.1968 37928.286,1226.6809 37948.642,1240.1649 37968.995,1253.5563 37990.004,1263.3595 38011.012,1273.1627 38032.676,1279.3778 38055.652,1278.5094 38076.97,1277.7036 38096.568,1270.2503 38115.306,1259.4766 38134.045,1248.703 38151.924,1234.609 38169.803,1220.522 38187.681,1206.435 38205.561,1192.3548 38224.3,1181.6089 38243.04,1170.863 38262.639,1163.4512 38283.96,1162.7008 38308.782,1161.8271 38332.155,1168.9252 38354.803,1179.9894 38377.451,1191.0538 38399.374,1206.0844 38421.295,1221.0758 38443.216,1236.0673 38465.136,1251.0194 38487.777,1261.9269 38510.419,1272.8343 38533.782,1279.697 38558.592,1278.5094 38582.375,1277.3709 38604.031,1268.3871 38624.626,1255.5357 38645.22,1242.6843 38664.752,1225.9653 38684.288,1209.3566 38703.823,1192.7478 38723.362,1176.2492 38743.969,1163.8385 38764.577,1151.4278 38786.252,1143.105 38810.062,1142.8479 38836.08,1142.5668 38859.972,1151.7728 38882.796,1165.6263 38905.62,1179.4796 38927.376,1197.9806 38949.125,1216.2898 38970.874,1234.5989 38992.615,1252.7162 39015.408,1265.8022 39038.201,1278.8882 39062.046,1286.9429 39088.003,1285.127 39109.523,1283.6214 39128.154,1274.1254 39145.337,1260.5876 39162.521,1247.0497 39178.256,1229.4701 39193.982,1211.7972 39209.709,1194.1243 39225.428,1176.3582 39242.578,1162.4476 39259.729,1148.5369 39278.312,1138.4816 39299.767,1136.2303 39330.482,1133.0072 39359.464,1141.3292 39387.579,1155.4166 39415.694,1169.504 39442.943,1189.3567 39470.189,1209.1953 39497.436,1229.0338 39524.681,1248.8581 39552.79,1262.8884 39580.9,1276.9188 39609.873,1285.1553 39640.576,1281.8182 39664.156,1279.2552 39684.555,1268.4897 39703.356,1253.5693 39722.156,1238.6488 39739.359,1219.5733 39756.549,1200.39 39773.738,1181.2068 39790.913,1161.916 39809.659,1146.5648 39828.405,1131.2135 39848.722,1119.8019 39872.193,1116.3774 39911.711,1110.6114 39949.852,1118.2741 39987.322,1132.8049 40024.792,1147.3357 40061.59,1168.7347 40098.424,1190.4413 40135.258,1212.1481 40172.127,1234.1626 40209.738,1249.9245 40247.349,1265.6863 40285.701,1275.1955 40325.501,1271.8917 40359.559,1269.0644 40390.588,1255.6476 40420.109,1237.0632 40449.63,1218.4787 40477.643,1194.7267 40505.669,1171.2291 40533.696,1147.7315 40561.736,1124.4882 40591.31,1106.9212 40620.885,1089.3543 40651.995,1077.4637 40686.162,1076.6715 40721.669,1075.8481 40763.412,1087.0173 40806.053,1104.2342 40848.695,1121.4511 40892.234,1144.7158 40931.335,1168.0834 40970.436,1191.4509 41005.098,1214.9214 41029.985,1232.55 41054.873,1250.1786 41069.985,1261.9653 41069.985,1261.9653"
       id="path4767-9-0-70"
       inkscape:connector-curvature="0"
       sodipodi:nodetypes="ccccccccccccccccccccccccccccccccccccccccccccccccccccc" />
  </g>
</svg>
