<?xml version="1.0" encoding="UTF-8" standalone="no"?>
<!-- Created with Inkscape (http://www.inkscape.org/) -->

<svg
   xmlns:dc="http://purl.org/dc/elements/1.1/"
   xmlns:cc="http://creativecommons.org/ns#"
   xmlns:rdf="http://www.w3.org/1999/02/22-rdf-syntax-ns#"
   xmlns:svg="http://www.w3.org/2000/svg"
   xmlns="http://www.w3.org/2000/svg"
   xmlns:xlink="http://www.w3.org/1999/xlink"
   xmlns:sodipodi="http://sodipodi.sourceforge.net/DTD/sodipodi-0.dtd"
   xmlns:inkscape="http://www.inkscape.org/namespaces/inkscape"
   width="480"
   height="320"
   id="svg3174"
   version="1.1"
   inkscape:version="0.48.2 r9819"
   sodipodi:docname="MainMenuScene.svg"
   inkscape:export-filename="/Users/kmkim/Games/rocknroll/rocknroll/menus/MainMenuScene.png"
   inkscape:export-xdpi="90"
   inkscape:export-ydpi="90">
  <defs
     id="defs3176">
    <linearGradient
       inkscape:collect="always"
       id="linearGradient4606">
      <stop
         style="stop-color:#d4aa00;stop-opacity:1"
         offset="0"
         id="stop4608" />
      <stop
         style="stop-color:#f4eed7;stop-opacity:1"
         offset="1"
         id="stop4610" />
    </linearGradient>
    <linearGradient
       id="linearGradient4810">
      <stop
         id="stop4811"
         offset="0.0000000"
         style="stop-color:#ffffff;stop-opacity:0.0000000;" />
      <stop
         id="stop4812"
         offset="1.0000000"
         style="stop-color:#ffffff;stop-opacity:0.68041235;" />
    </linearGradient>
    <linearGradient
       id="linearGradient2931">
      <stop
         id="stop2932"
         offset="0.0000000"
         style="stop-color:#ffffff;stop-opacity:1.0000000;" />
      <stop
         id="stop2933"
         offset="1.0000000"
         style="stop-color:#ffffff;stop-opacity:0.0000000;" />
    </linearGradient>
    <linearGradient
       id="linearGradient2385">
      <stop
         id="stop2387"
         style="stop-color:#ffd42a;stop-opacity:1"
         offset="0" />
      <stop
         id="stop2389"
         style="stop-color:#ffeeaa;stop-opacity:1"
         offset="1" />
    </linearGradient>
    <filter
       color-interpolation-filters="sRGB"
       height="1.2372104"
       y="-0.11860518"
       width="1.2165596"
       x="-0.10827981"
       id="filter3239">
      <feGaussianBlur
         id="feGaussianBlur3241"
         stdDeviation="9.2834045"
         inkscape:collect="always" />
    </filter>
    <linearGradient
       id="linearGradient4810-8">
      <stop
         id="stop4811-0"
         offset="0.0000000"
         style="stop-color:#ffffff;stop-opacity:0.0000000;" />
      <stop
         id="stop4812-2"
         offset="1.0000000"
         style="stop-color:#ffffff;stop-opacity:0.68041235;" />
    </linearGradient>
    <linearGradient
       id="linearGradient2931-8">
      <stop
         id="stop2932-3"
         offset="0.0000000"
         style="stop-color:#ffffff;stop-opacity:1.0000000;" />
      <stop
         id="stop2933-9"
         offset="1.0000000"
         style="stop-color:#ffffff;stop-opacity:0.0000000;" />
    </linearGradient>
    <linearGradient
       id="linearGradient2385-5">
      <stop
         id="stop2387-2"
         style="stop-color:#ffd42a;stop-opacity:1"
         offset="0" />
      <stop
         id="stop2389-2"
         style="stop-color:#ffeeaa;stop-opacity:1"
         offset="1" />
    </linearGradient>
    <filter
       color-interpolation-filters="sRGB"
       height="1.2372104"
       y="-0.11860518"
       width="1.2165596"
       x="-0.10827981"
       id="filter3239-7">
      <feGaussianBlur
         id="feGaussianBlur3241-3"
         stdDeviation="9.2834045"
         inkscape:collect="always" />
    </filter>
    <linearGradient
       id="linearGradient4810-8-2">
      <stop
         id="stop4811-0-3"
         offset="0.0000000"
         style="stop-color:#ffffff;stop-opacity:0.0000000;" />
      <stop
         id="stop4812-2-9"
         offset="1.0000000"
         style="stop-color:#ffffff;stop-opacity:0.68041235;" />
    </linearGradient>
    <linearGradient
       id="linearGradient2931-8-7">
      <stop
         id="stop2932-3-0"
         offset="0.0000000"
         style="stop-color:#ffffff;stop-opacity:1.0000000;" />
      <stop
         id="stop2933-9-3"
         offset="1.0000000"
         style="stop-color:#ffffff;stop-opacity:0.0000000;" />
    </linearGradient>
    <linearGradient
       id="linearGradient2385-5-8">
      <stop
         id="stop2387-2-6"
         style="stop-color:#80b3ff;stop-opacity:1"
         offset="0" />
      <stop
         id="stop2389-2-5"
         style="stop-color:#d5e5ff;stop-opacity:1"
         offset="1" />
    </linearGradient>
    <filter
       color-interpolation-filters="sRGB"
       height="1.2372104"
       y="-0.11860518"
       width="1.2165596"
       x="-0.10827981"
       id="filter3239-7-7">
      <feGaussianBlur
         id="feGaussianBlur3241-3-6"
         stdDeviation="9.2834045"
         inkscape:collect="always" />
    </filter>
    <linearGradient
       id="linearGradient4810-8-5">
      <stop
         id="stop4811-0-5"
         offset="0.0000000"
         style="stop-color:#ffffff;stop-opacity:0.0000000;" />
      <stop
         id="stop4812-2-8"
         offset="1.0000000"
         style="stop-color:#ffffff;stop-opacity:0.68041235;" />
    </linearGradient>
    <linearGradient
       id="linearGradient2931-8-4">
      <stop
         id="stop2932-3-7"
         offset="0.0000000"
         style="stop-color:#ffffff;stop-opacity:1.0000000;" />
      <stop
         id="stop2933-9-1"
         offset="1.0000000"
         style="stop-color:#ffffff;stop-opacity:0.0000000;" />
    </linearGradient>
    <linearGradient
       id="linearGradient2385-5-84">
      <stop
         id="stop2387-2-8"
         style="stop-color:#eeaaff;stop-opacity:1"
         offset="0" />
      <stop
         id="stop2389-2-0"
         style="stop-color:#f6d5ff;stop-opacity:1"
         offset="1" />
    </linearGradient>
    <filter
       color-interpolation-filters="sRGB"
       height="1.2372104"
       y="-0.11860518"
       width="1.2165596"
       x="-0.10827981"
       id="filter3239-7-4">
      <feGaussianBlur
         id="feGaussianBlur3241-3-60"
         stdDeviation="9.2834045"
         inkscape:collect="always" />
    </filter>
    <linearGradient
       id="linearGradient4810-8-7">
      <stop
         id="stop4811-0-9"
         offset="0.0000000"
         style="stop-color:#ffffff;stop-opacity:0.0000000;" />
      <stop
         id="stop4812-2-5"
         offset="1.0000000"
         style="stop-color:#ffffff;stop-opacity:0.68041235;" />
    </linearGradient>
    <linearGradient
       id="linearGradient2931-8-2">
      <stop
         id="stop2932-3-6"
         offset="0.0000000"
         style="stop-color:#ffffff;stop-opacity:1.0000000;" />
      <stop
         id="stop2933-9-38"
         offset="1.0000000"
         style="stop-color:#ffffff;stop-opacity:0.0000000;" />
    </linearGradient>
    <linearGradient
       id="linearGradient2385-5-0">
      <stop
         id="stop2387-2-63"
         style="stop-color:#ffaacc;stop-opacity:1"
         offset="0" />
      <stop
         id="stop2389-2-51"
         style="stop-color:#ffd5e5;stop-opacity:1"
         offset="1" />
    </linearGradient>
    <filter
       color-interpolation-filters="sRGB"
       height="1.2372104"
       y="-0.11860518"
       width="1.2165596"
       x="-0.10827981"
       id="filter3239-7-5">
      <feGaussianBlur
         id="feGaussianBlur3241-3-7"
         stdDeviation="9.2834045"
         inkscape:collect="always" />
    </filter>
    <linearGradient
       inkscape:collect="always"
       xlink:href="#linearGradient2385-5"
       id="linearGradient4381"
       gradientUnits="userSpaceOnUse"
       gradientTransform="matrix(0.45696681,0,0,0.45826946,245.30383,-75.329241)"
       x1="324.25897"
       y1="287.6767"
       x2="194.45436"
       y2="461.41736" />
    <linearGradient
       inkscape:collect="always"
       xlink:href="#linearGradient2931-8"
       id="linearGradient4395"
       gradientUnits="userSpaceOnUse"
       gradientTransform="scale(1.806421,0.553581)"
       x1="145.63139"
       y1="712.78033"
       x2="145.63139"
       y2="772.31848" />
    <radialGradient
       inkscape:collect="always"
       xlink:href="#linearGradient4810-8"
       id="radialGradient4397"
       gradientUnits="userSpaceOnUse"
       gradientTransform="matrix(0.14337348,-0.03444167,0.00758544,0.02904034,354.91771,19.667948)"
       cx="124.361"
       cy="1082.2069"
       fx="125.14262"
       fy="1084.0195"
       r="54.577564" />
    <linearGradient
       inkscape:collect="always"
       xlink:href="#linearGradient2931-8-7"
       id="linearGradient4439"
       gradientUnits="userSpaceOnUse"
       gradientTransform="scale(1.806421,0.553581)"
       x1="145.63139"
       y1="712.78033"
       x2="145.63139"
       y2="772.31848" />
    <radialGradient
       inkscape:collect="always"
       xlink:href="#linearGradient4810-8-2"
       id="radialGradient4447"
       gradientUnits="userSpaceOnUse"
       gradientTransform="matrix(0.14337348,-0.03444167,0.00758544,0.02904034,289.25779,94.419236)"
       cx="124.361"
       cy="1082.2069"
       fx="125.14262"
       fy="1084.0195"
       r="54.577564" />
    <linearGradient
       inkscape:collect="always"
       xlink:href="#linearGradient2385-5-8"
       id="linearGradient4457"
       gradientUnits="userSpaceOnUse"
       gradientTransform="matrix(0.45696681,0,0,0.45826946,179.64391,-0.57794872)"
       x1="324.25897"
       y1="287.6767"
       x2="194.45436"
       y2="461.41736" />
    <linearGradient
       inkscape:collect="always"
       xlink:href="#linearGradient2385-5-0"
       id="linearGradient4655"
       gradientUnits="userSpaceOnUse"
       gradientTransform="matrix(0.45696681,0,0,0.45826946,304.69106,89.245129)"
       x1="324.25897"
       y1="287.6767"
       x2="194.45436"
       y2="461.41736" />
    <linearGradient
       inkscape:collect="always"
       xlink:href="#linearGradient2931-8-2"
       id="linearGradient4657"
       gradientUnits="userSpaceOnUse"
       gradientTransform="scale(1.806421,0.553581)"
       x1="145.63139"
       y1="712.78033"
       x2="145.63139"
       y2="772.31848" />
    <radialGradient
       inkscape:collect="always"
       xlink:href="#linearGradient4810-8-7"
       id="radialGradient4659"
       gradientUnits="userSpaceOnUse"
       gradientTransform="matrix(0.14337348,-0.03444167,0.00758544,0.02904034,365.01923,162.09945)"
       cx="124.361"
       cy="1082.2069"
       fx="125.14262"
       fy="1084.0195"
       r="54.577564" />
    <linearGradient
       inkscape:collect="always"
       xlink:href="#linearGradient2385-5"
       id="linearGradient5408"
       gradientUnits="userSpaceOnUse"
       gradientTransform="matrix(0.45696681,0,0,0.45826946,245.30383,-75.329241)"
       x1="324.25897"
       y1="287.6767"
       x2="194.45436"
       y2="461.41736" />
    <linearGradient
       inkscape:collect="always"
       xlink:href="#linearGradient2385-5-8"
       id="linearGradient5424"
       gradientUnits="userSpaceOnUse"
       gradientTransform="matrix(0.45696681,0,0,0.45826946,179.64391,-0.57794872)"
       x1="324.25897"
       y1="287.6767"
       x2="194.45436"
       y2="461.41736" />
    <linearGradient
       inkscape:collect="always"
       xlink:href="#linearGradient4606"
       id="linearGradient4604"
       x1="146.42857"
       y1="17.142859"
       x2="207.14287"
       y2="171.42857"
       gradientUnits="userSpaceOnUse"
       gradientTransform="matrix(1.0672521,0,0,1.2746711,16.91917,-1.3210048)" />
  </defs>
  <sodipodi:namedview
     id="base"
     pagecolor="#ffffff"
     bordercolor="#666666"
     borderopacity="1.0"
     inkscape:pageopacity="0.0"
     inkscape:pageshadow="2"
     inkscape:zoom="1.4"
     inkscape:cx="125.66546"
     inkscape:cy="181.61531"
     inkscape:document-units="px"
     inkscape:current-layer="layer1"
     showgrid="false"
     inkscape:window-width="1280"
     inkscape:window-height="710"
     inkscape:window-x="0"
     inkscape:window-y="0"
     inkscape:window-maximized="1" />
  <metadata
     id="metadata3179">
    <rdf:RDF>
      <cc:Work
         rdf:about="">
        <dc:format>image/svg+xml</dc:format>
        <dc:type
           rdf:resource="http://purl.org/dc/dcmitype/StillImage" />
        <dc:title />
      </cc:Work>
    </rdf:RDF>
  </metadata>
  <g
     inkscape:groupmode="layer"
     id="layer2"
     inkscape:label="background"
     ignore=""
     style="display:inline" />
  <g
     inkscape:label="Others"
     inkscape:groupmode="layer"
     id="layer1"
     style="display:inline"
     ignore="">
    <g
       style="display:inline"
       id="g14748"
       transform="matrix(0.39289732,0,0,0.39289732,65.531891,-190.27736)">
      <g
         id="g13292">
        <g
           id="g13280">
          <path
             sodipodi:nodetypes="cccsccaasssazszcasccaaaaaaaaaaaaac"
             inkscape:connector-curvature="0"
             id="path11581"
             d="M 22.48583,600.27157 C 7.9549178,671.36968 45.671743,696.92907 41.177054,703.0733 36.686776,707.58774 31.795158,693.74225 29.372073,693.72768 23.660862,697.90986 26.081076,707.20236 28.388324,713.89454 32.875964,726.91094 48.33916,743.93711 49.047046,749.80136 44.879195,749.63682 27.404575,734.06138 27.404575,734.06138 27.404575,734.06138 29.883606,752.60798 34.290823,760.6226 42.619181,775.76793 55.766982,788.27671 69.705762,798.49692 86.856672,811.07231 106.67144,820.69315 127.25506,826.04188 143.17096,830.17768 162.25575,830.06553 165.12938,830.96062 173.46452,833.55688 139.8962,844.39203 128.73068,844.24122 123.72572,844.17362 136.60332,851.16981 141.51942,852.11122 148.05859,853.36344 154.8947,851.85218 161.19439,848.66809 167.49408,845.48401 173.86005,841.11596 176.93437,840.79811 185.5796,839.90426 169.53691,848.29017 162.17813,852.60309 154.81936,856.91601 143.69217,857.76028 142.01129,859.48934 142.04969,862.96334 150.32941,863.31325 154.80002,863.9162 162.2903,864.9264 169.95472,863.58127 177.42624,862.44058 183.55387,861.50506 191.19757,854.69029 193.16621,854.07872 191.43735,858.66285 179.79625,863.42287 177.91811,866.86745 173.83595,874.35428 193.71837,870.59851 201.52808,869.32682 207.39416,868.37162 212.45262,864.62372 217.75993,861.9487 223.78955,858.90962 230.19571,856.33041 235.46741,852.11122 251.24307,839.48521 265.35387,824.15454 275.80111,806.85878 279.42254,800.86334 282.25284,794.12657 283.17922,787.18381 283.87618,781.96044 283.87904,776.2435 281.70358,771.44383 278.25626,763.83802 270.82199,758.68627 264.48799,753.24448 255.10451,745.18278 244.92346,737.8852 233.99178,732.09389 221.10375,725.26615 207.01076,720.9417 193.16621,716.35391 169.4146,708.48315 144.51919,704.33345 120.8607,696.18706 107.44497,691.56758 93.414003,687.67749 81.510752,679.9552 70.127472,672.57025 60.872272,662.18332 51.998292,651.91838 43.073284,641.59439 34.497473,630.67413 28.388324,618.47092 25.533385,612.76809 23.839268,595.84513 22.48583,600.27157 z"
             style="fill:#d38d5f;stroke:#000000;stroke-width:2.06587219;stroke-linecap:butt;stroke-linejoin:miter;stroke-miterlimit:4;stroke-opacity:1;stroke-dasharray:none" />
          <path
             sodipodi:nodetypes="csssssssssssscsssscc"
             inkscape:connector-curvature="0"
             id="path12365"
             d="M 289.57358,798.49692 C 289.57358,798.49692 275.06402,793.02036 267.43924,792.10255 263.52906,791.63188 259.5084,793.30296 255.63426,792.59442 241.25473,789.96458 229.57957,778.50883 215.30056,775.37882 203.92501,772.88527 191.96057,773.18967 180.37748,774.39507 176.18477,774.83138 172.28056,776.98611 168.08063,777.34632 163.00599,777.78157 157.84779,777.25052 152.83252,776.36258 147.11083,775.34952 141.91856,771.34012 136.1088,771.44383 131.96161,771.51783 127.26484,772.47418 124.30382,775.37882 120.45375,779.15556 118.2009,785.27834 118.89319,790.62693 119.4536,794.95653 122.76731,795.89278 126.27131,798.49692 128.89333,800.44558 133.36257,799.42113 136.60068,798.9888 142.01028,798.26653 141.73658,792.90648 147.4219,794.07005 149.79356,794.55544 156.27565,793.0863 156.27565,793.0863 156.27565,793.0863 162.94559,794.28736 166.60501,795.0538 180.88016,798.04363 196.51792,795.62507 209.88995,801.44817 215.66518,803.9631 219.09244,810.28088 224.64617,813.25314 231.32092,816.82536 239.57519,816.64045 246.28864,820.13939 249.40025,821.7611 254.6505,826.53375 254.6505,826.53375 z"
             style="fill:#ffccaa;stroke:#000000;stroke-width:2.06587219;stroke-linecap:butt;stroke-linejoin:miter;stroke-miterlimit:4;stroke-opacity:1;stroke-dasharray:none" />
          <path
             sodipodi:nodetypes="aaaaaaaaaaaaaa"
             inkscape:connector-curvature="0"
             id="path12369"
             d="M 167.58875,770.46008 C 167.58875,768.14136 170.31949,766.30885 172.5075,765.54134 173.90851,765.0499 175.72559,765.17111 176.93437,766.03322 179.74074,768.03477 180.42018,772.06275 181.36124,775.37882 182.57723,779.66374 183.23895,784.22351 182.83685,788.65943 182.52779,792.069 181.96246,795.77527 179.88561,798.49692 178.00893,800.95622 174.93055,802.37969 172.01563,803.41566 169.52452,804.301 166.59501,805.39437 164.14564,804.3994 162.20032,803.6092 159.99023,801.56875 160.21064,799.48067 160.45525,797.16326 163.77038,796.46959 165.62126,795.0538 166.74151,794.19687 168.19348,793.70385 169.06438,792.59442 170.69997,790.51088 171.51471,787.81734 172.01563,785.21632 172.66674,781.83532 173.33325,778.06799 172.01563,774.88695 171.21702,772.95896 167.58875,772.54693 167.58875,770.46008 z"
             style="fill:#aa4400;stroke:#000000;stroke-width:2.06587219;stroke-linecap:butt;stroke-linejoin:miter;stroke-miterlimit:4;stroke-opacity:1;stroke-dasharray:none" />
          <path
             inkscape:connector-curvature="0"
             d="M 197.83606,791.31744 C 199.77519,791.49564 201.72412,791.70462 203.67291,791.62695 205.28102,791.53065 206.87943,791.38739 208.47236,791.15189 208.47236,791.15189 206.15149,792.89031 206.15149,792.89031 L 206.15149,792.89031 C 204.55497,793.12284 202.94852,793.24363 201.33771,793.33356 199.37341,793.36526 197.41392,793.16707 195.45793,793.00534 195.45793,793.00534 197.83606,791.31744 197.83606,791.31744 z"
             id="path12502"
             style="fill:#000000;stroke:#000000;stroke-width:0.68862402;stroke-miterlimit:4;stroke-dasharray:none" />
          <path
             inkscape:connector-curvature="0"
             d="M 212.32568,793.83212 C 212.79199,795.22807 213.29631,796.61181 213.75646,798.01024 214.19382,798.81346 214.25862,799.7588 214.63697,800.57513 214.70197,800.6779 214.7669,800.78066 214.83187,800.88343 214.83187,800.88343 212.30293,802.35545 212.30293,802.35545 L 212.30293,802.35545 C 212.23283,802.24233 212.16282,802.12922 212.09276,802.01611 211.69758,801.19129 211.64429,800.2312 211.20271,799.4129 210.76529,798.01259 210.26816,796.62998 209.77472,795.24937 209.77472,795.24937 212.32568,793.83212 212.32568,793.83212 z"
             id="path12504"
             style="fill:#000000;stroke:#000000;stroke-width:0.68862402;stroke-miterlimit:4;stroke-dasharray:none" />
          <path
             inkscape:connector-curvature="0"
             d="M 147.68979,787.62083 C 146.12101,787.77286 144.55064,787.91494 142.97601,787.98841 141.94577,787.97661 140.89303,788.15152 139.87293,787.97091 138.90111,787.70523 138.03107,787.21785 137.13058,786.7854 136.21394,786.47861 135.33434,786.12268 134.47435,785.67978 134.47435,785.67978 136.90532,784.08175 136.90532,784.08175 L 136.90532,784.08175 C 137.76981,784.51007 138.66298,784.83767 139.56311,785.1803 140.43936,785.60711 141.30216,786.07183 142.26295,786.28565 143.27628,786.39262 144.30255,786.27565 145.31878,786.26855 146.89255,786.18615 148.46433,786.06208 150.02996,785.88073 150.02996,785.88073 147.68979,787.62085 147.68979,787.62085 z"
             id="path12506"
             style="fill:#000000;stroke:#000000;stroke-width:0.68862402;stroke-miterlimit:4;stroke-dasharray:none" />
          <path
             inkscape:connector-curvature="0"
             d="M 123.96386,777.69643 C 125.61536,778.62082 127.46611,779.04374 129.2999,779.43243 129.2999,779.43243 126.94174,781.06991 126.94174,781.06991 L 126.94174,781.06991 C 125.08625,780.65798 123.23203,780.19639 121.53249,779.31673 121.53249,779.31673 123.96386,777.69643 123.96386,777.69643 z"
             id="path12508"
             style="fill:#000000;stroke:#000000;stroke-width:0.68862402;stroke-miterlimit:4;stroke-dasharray:none" />
          <path
             inkscape:connector-curvature="0"
             d="M 122.49669,783.67217 C 123.88682,784.4964 125.43731,784.8907 127.01648,785.1468 127.26379,785.1761 127.51111,785.2055 127.75843,785.2348 127.75843,785.2348 125.38942,786.91086 125.38942,786.91086 L 125.38942,786.91086 C 125.14071,786.87746 124.89201,786.84406 124.64329,786.81064 123.03767,786.52436 121.47195,786.08573 120.04842,785.26369 120.04842,785.26369 122.49669,783.67221 122.49669,783.67221 z"
             id="path12512"
             style="fill:#000000;stroke:#000000;stroke-width:0.68862402;stroke-miterlimit:4;stroke-dasharray:none" />
          <path
             inkscape:connector-curvature="0"
             d="M 122.0874,791.80932 C 124.04738,791.99162 126.05059,791.99843 127.98406,791.60414 127.5929,792.02978 130.18017,790.50811 129.64632,790.8112 126.0733,792.83968 128.65722,791.32132 129.39815,790.7922 129.39815,790.7922 132.09082,789.72644 132.09082,789.72644 L 132.09082,789.72644 C 130.11542,791.17976 128.00339,792.55476 125.67636,793.34704 123.71,793.68438 121.69348,793.66912 119.7093,793.49717 119.7093,793.49717 122.0874,791.80927 122.0874,791.80927 z"
             id="path12514"
             style="fill:#000000;stroke:#000000;stroke-width:0.68862402;stroke-miterlimit:4;stroke-dasharray:none" />
          <path
             inkscape:connector-curvature="0"
             d="M 127.42056,797.56527 C 129.32025,797.30631 131.07283,796.52412 132.8636,795.89225 133.76325,795.50203 133.3485,795.72061 134.11568,795.25163 134.11568,795.25163 131.85434,797.08163 131.85434,797.08163 L 131.85434,797.08163 C 131.06497,797.50472 131.48708,797.30404 130.58254,797.6721 128.78078,798.32242 126.99341,799.05375 125.0797,799.31089 125.0797,799.31089 127.42056,797.56527 127.42056,797.56527 z"
             id="path12516"
             style="fill:#000000;stroke:#000000;stroke-width:0.68862402;stroke-miterlimit:4;stroke-dasharray:none" />
        </g>
        <g
           id="g13271">
          <path
             sodipodi:nodetypes="aaaaacaaccaaccaaaacacaacacaacacaaaaa"
             inkscape:connector-curvature="0"
             id="path11587"
             d="M 345.15538,708.97579 C 352.17482,698.18429 362.99486,690.27224 373.19221,682.41458 387.248,671.58376 403.46782,663.89439 418.44465,654.37774 429.34542,647.45114 440.36797,640.6907 450.90836,633.22715 460.35589,626.53743 470.26419,620.25862 478.45332,612.07656 484.16025,606.37454 493.20955,592.89346 493.20955,592.89346 493.20955,592.89346 492.38276,616.32738 488.78268,627.32466 486.56801,634.08988 482.4126,640.10004 478.45332,646.01588 475.53373,650.37825 468.61583,658.31274 468.61583,658.31274 L 478.45332,655.85336 C 478.45332,655.85336 478.53142,665.47144 477.46958,670.11772 476.28927,675.28222 474.09567,680.21871 471.56708,684.87395 468.31018,690.87001 459.76209,701.59768 459.76209,701.59768 L 472.05895,696.67893 C 472.05895,696.67893 463.60102,722.557 457.30272,734.55326 451.59519,745.42431 444.65718,755.74653 436.644,765.04947 427.48089,775.68739 416.25838,784.37408 405.65591,793.57818 398.61708,799.68866 391.5073,805.74257 384.01345,811.28565 380.68655,813.74649 373.68409,818.17189 373.68409,818.17189 373.68409,818.17189 379.35828,826.25298 383.02971,829.485 385.79528,831.91957 392.37531,835.38749 392.37531,835.38749 392.37531,835.38749 386.61248,837.98673 383.52158,838.33874 380.08509,838.73011 376.57611,838.07041 373.19221,837.35498 370.65587,836.81876 365.8141,834.89562 365.8141,834.89562 365.8141,834.89562 369.81481,841.95904 372.70034,844.7331 374.66752,846.62429 379.58658,849.15997 379.58658,849.15997 379.58658,849.15997 373.44511,851.95107 370.24098,851.61934 368.05294,851.39282 366.25018,849.75632 364.33848,848.6681 361.96698,847.31816 357.45224,844.24122 357.45224,844.24122 357.45224,844.24122 358.47928,850.3875 359.91161,853.09497 361.21726,855.56298 365.32223,859.48934 365.32223,859.48934 365.32223,859.48934 360.75299,860.56206 358.43598,860.47308 355.41498,860.35706 352.05369,860.24683 349.58225,858.50559 345.30578,855.49261 342.83352,850.20132 341.22037,845.22498 330.32721,811.62081 329.47546,774.46193 334.33414,739.47201 335.8177,728.7881 339.27399,718.01768 345.15538,708.97579 z"
             style="fill:#d38d5f;stroke:#000000;stroke-width:2.06587219;stroke-linecap:butt;stroke-linejoin:miter;stroke-miterlimit:4;stroke-opacity:1;stroke-dasharray:none" />
          <path
             sodipodi:nodetypes="caaaaaaaaaaaaaaaaaaaacc"
             inkscape:connector-curvature="0"
             id="path12367"
             d="M 324.00478,801.94004 C 324.00478,801.94004 331.67832,793.85929 335.31789,789.64318 341.10737,782.9366 346.67707,776.03554 352.04162,768.98446 354.60362,765.61701 356.41726,761.6365 359.41973,758.6551 367.10192,751.02682 376.6009,745.36956 385.98094,739.96387 390.04883,737.61957 395.41831,737.34951 398.76968,734.06138 403.06183,729.8502 401.67031,721.2151 406.63966,717.82953 408.40637,716.62588 410.89786,717.4197 413.03404,717.33766 415.4916,717.24326 418.13999,716.39649 420.41214,717.33766 422.55437,718.22499 424.86468,719.98504 425.33089,722.2564 426.21853,726.58094 422.9977,730.97491 420.41214,734.55326 418.02693,737.85434 414.58181,740.36674 411.06653,742.42325 408.64825,743.83799 405.39124,743.63296 403.19655,745.3745 400.88116,747.21182 400.36787,750.66254 398.27781,752.75261 397.44179,753.58863 396.17946,753.9013 395.32656,754.7201 390.50036,759.35333 387.93993,765.9283 383.52158,770.95195 380.84065,774.00015 378.08837,777.12777 374.66784,779.31382 372.43589,780.74025 369.17818,780.40764 367.28972,782.26507 363.36033,786.12987 363.47702,792.64367 360.89535,797.51316 358.78651,801.49086 356.19259,805.20526 353.51724,808.82627 351.99533,810.88615 350.60618,813.13865 348.5985,814.72877 345.7245,817.00501 338.76101,819.64752 338.76101,819.64752 z"
             style="fill:#ffccaa;stroke:#000000;stroke-width:2.06587219;stroke-linecap:butt;stroke-linejoin:miter;stroke-miterlimit:4;stroke-opacity:1;stroke-dasharray:none" />
          <path
             sodipodi:nodetypes="aaaaaaaaaaaaaa"
             inkscape:connector-curvature="0"
             id="path12371"
             d="M 382.53783,738.48825 C 381.56191,736.71044 382.57943,734.01981 384.01345,732.58576 385.92551,730.6737 389.58322,729.19665 391.88344,730.61826 393.1693,731.41296 392.25156,733.66455 392.86718,735.04513 393.4416,736.33329 394.64989,737.25075 395.32656,738.48825 396.59735,740.81234 397.1927,743.45 398.27781,745.86637 399.17895,747.87304 401.07312,749.57466 401.22904,751.76886 401.33931,753.32039 400.74678,754.99881 399.75343,756.19573 398.67538,757.49469 396.93921,759.154 395.32656,758.6551 393.92557,758.22169 393.69599,756.14735 393.35906,754.7201 392.94469,752.96481 393.74597,751.07103 393.35906,749.30948 392.85546,747.01662 391.91336,744.71628 390.40782,742.91512 389.12427,741.37956 387.27682,740.37168 385.48907,739.47201 384.56279,739.00586 383.03682,739.39731 382.53783,738.48825 z"
             style="fill:#aa4400;stroke:#000000;stroke-width:2.06587219;stroke-linecap:butt;stroke-linejoin:miter;stroke-miterlimit:4;stroke-opacity:1;stroke-dasharray:none" />
          <path
             inkscape:connector-curvature="0"
             d="M 421.72227,727.61492 C 420.06351,727.80612 418.39668,727.9084 416.72891,727.97626 415.74134,728.00696 416.22485,727.99406 415.2784,728.01546 415.2784,728.01546 417.62538,726.30221 417.62538,726.30221 L 417.62538,726.30221 C 418.56537,726.28121 418.08513,726.29421 419.06609,726.26331 420.73574,726.19271 422.40548,726.0883 424.06314,725.86927 424.06314,725.86927 421.72227,727.6149 421.72227,727.6149 z"
             id="path12522"
             style="fill:#000000;stroke:#000000;stroke-width:0.68862402;stroke-miterlimit:4;stroke-dasharray:none" />
          <path
             inkscape:connector-curvature="0"
             d="M 420.23578,733.93589 C 418.69208,733.92569 417.14831,733.92889 415.60458,733.93089 414.42328,733.93125 413.242,733.93189 412.06072,733.93189 412.06072,733.93189 414.41206,732.22352 414.41206,732.22352 L 414.41206,732.22352 C 415.59207,732.22352 416.77208,732.22452 417.95209,732.22452 419.50084,732.22552 421.04964,732.22952 422.59837,732.21952 422.59837,732.21952 420.23578,733.93604 420.23578,733.93604 z"
             id="path12526"
             style="fill:#000000;stroke:#000000;stroke-width:0.68862402;stroke-miterlimit:4;stroke-dasharray:none" />
          <path
             inkscape:connector-curvature="0"
             d="M 413.72255,735.80964 C 414.92329,736.14003 416.15621,736.33594 417.39055,736.48798 417.39055,736.48798 415.0197,738.16445 415.0197,738.16445 L 415.0197,738.16445 C 413.77538,737.99679 412.53614,737.78076 411.31941,737.46722 411.31941,737.46722 413.72255,735.80964 413.72255,735.80964 z"
             id="path12528"
             style="fill:#000000;stroke:#000000;stroke-width:0.68862402;stroke-miterlimit:4;stroke-dasharray:none" />
          <path
             inkscape:connector-curvature="0"
             d="M 411.27989,738.41389 C 412.47239,739.04679 413.56866,739.8363 414.67595,740.60325 414.67595,740.60325 412.22566,742.16443 412.22566,742.16443 L 412.22566,742.16443 C 411.13476,741.39395 410.04603,740.60794 408.84333,740.01706 408.84333,740.01706 411.27989,738.41389 411.27989,738.41389 z"
             id="path12534"
             style="fill:#000000;stroke:#000000;stroke-width:0.68862402;stroke-miterlimit:4;stroke-dasharray:none" />
        </g>
        <path
           style="fill:#eeffaa;stroke:#000000;stroke-width:2.06587219;stroke-linecap:butt;stroke-linejoin:miter;stroke-miterlimit:4;stroke-opacity:1;stroke-dasharray:none"
           d="M 297.44833,763.56277 C 298.50394,759.02036 298.45196,753.83011 301.24897,750.09857 303.98306,746.45098 308.57446,744.44976 312.83942,742.84036 319.98362,740.14446 328.04759,737.25373 335.44658,739.14116 339.01677,740.05189 341.59096,743.29908 344.16705,745.93332 345.87123,747.67596 348.53041,751.80103 348.53041,751.80103 348.53041,751.80103 335.90801,756.15515 329.59755,758.33432 321.06814,761.27975 312.61192,764.44583 304.01128,767.17633 301.48665,767.97784 296.37891,769.38838 296.37891,769.38838 296.37891,769.38838 297.00144,765.48584 297.44833,763.56277 z"
           id="path11589"
           inkscape:connector-curvature="0"
           sodipodi:nodetypes="aaaaacaaca" />
        <path
           style="fill:#ffccaa;stroke:#000000;stroke-width:2.06587219;stroke-linecap:butt;stroke-linejoin:miter;stroke-miterlimit:4;stroke-opacity:1;stroke-dasharray:none"
           d="M 233.00804,955.89669 C 233.00804,955.89669 234.07191,968.37294 229.56492,970.65296 228.45071,971.21658 227.25817,969.69478 226.1218,969.1773 221.31672,966.98913 216.86329,963.96986 211.85744,962.29107 209.47953,961.4936 206.94822,961.25706 204.47932,960.81544 201.3748,960.26014 198.09791,960.41683 195.13371,959.33982 193.33661,958.68684 191.85455,957.37232 190.21498,956.38857 188.57539,955.40482 187.19396,953.20371 185.29623,953.43733 182.53461,953.7773 180.85655,956.97291 179.39373,959.33982 176.66792,963.75028 175.41649,968.99746 174.47499,974.09601 173.78958,977.80786 173.80941,981.63856 173.98311,985.4092 174.15066,989.0458 173.13504,993.4281 175.45874,996.2305 176.78253,997.8269 179.32599,998.5966 181.36124,998.198 184.32809,997.6167 186.76196,994.9286 188.24747,992.2954 190.20767,988.821 188.74797,984.2002 190.21498,980.49047 191.08454,978.29147 194.14996,974.58793 194.14996,974.58793 194.14996,974.58793 202.21941,983.56415 206.44683,987.8686 210.42823,991.9224 214.68509,995.6969 218.74368,999.67361 221.89051,1002.7568 224.18372,1006.9807 228.08929,1009.0192 232.22348,1011.1771 237.45996,1013.0186 241.86177,1011.4785 248.66063,1009.0999 251.94915,1001.1149 256.12613,995.2466 260.17116,989.5639 263.1056,983.16571 266.45549,977.04733 269.66065,971.19314 273.76144,965.69465 275.80111,959.33982 276.91364,955.87352 277.27672,948.51859 277.27672,948.51859 z"
           id="path12381"
           inkscape:connector-curvature="0"
           sodipodi:nodetypes="caaaaaaaaaaaaaacaaaaaaacc" />
        <path
           style="fill:#ffccaa;stroke:#000000;stroke-width:2.06587219;stroke-linecap:butt;stroke-linejoin:miter;stroke-miterlimit:4;stroke-opacity:1;stroke-dasharray:none"
           d="M 179.88561,921.95737 C 179.88561,921.95737 174.89615,933.73338 172.5075,939.66485 170.14171,945.53949 165.62126,957.37232 165.62126,957.37232 165.62126,957.37232 159.36283,955.83265 156.27565,954.91295 152.79735,953.87674 149.54706,951.01515 145.94629,951.46983 139.94524,952.2276 135.80431,958.06474 130.69818,961.30731 128.0867,962.9657 125.91962,966.11143 122.82819,966.22606 119.31028,966.3565 116.99596,961.52844 113.48257,961.30731 110.6864,961.13132 107.76522,962.4653 105.61259,964.25856 103.40897,966.09431 102.58953,969.13559 101.18572,971.6367 99.283273,975.02614 98.039093,978.80655 95.775103,981.96604 93.005593,985.831 88.535002,988.3128 85.937622,992.2954 84.773272,994.0807 84.225642,996.2019 83.478242,998.198 82.751012,1000.1402 81.363722,1002.0317 81.510752,1004.1004 81.796632,1008.1231 83.175002,1013.4288 86.921362,1014.9217 88.704122,1015.6321 90.956772,1011.6156 92.331982,1012.9542 93.446603,1014.0391 90.607212,1015.8457 90.856372,1017.3811 91.118992,1018.9995 92.217122,1020.9179 93.807603,1021.3161 96.440333,1021.9752 99.478173,1019.9825 101.18572,1017.8729 102.56201,1016.1726 102.17814,1013.6119 102.66135,1011.4785 103.32917,1008.53 103.32282,1005.3514 104.62884,1002.6248 108.25707,995.0501 113.06272,987.0923 120.36882,982.94978 123.53567,981.15421 127.55195,981.34319 131.19006,981.47412 137.55292,981.70324 143.79248,983.54772 149.88128,985.4092 155.29694,987.0648 160.16223,990.297 165.62126,991.8035 167.70008,992.3773 169.9205,993.2983 172.01563,992.7872 177.14514,991.5363 180.86663,986.9589 184.80436,983.44161 188.95828,979.73124 192.23446,975.13789 196.11747,971.14479 202.01828,965.07673 208.61076,959.6889 214.31681,953.43733 217.30321,950.16541 222.67868,943.10796 222.67868,943.10796 z"
           id="path12379"
           inkscape:connector-curvature="0"
           sodipodi:nodetypes="cacaaaaaaaaaaaaaaaaaaaaaaaaaacc" />
        <path
           style="fill:#aaaaff;stroke:#000000;stroke-width:2.06587219;stroke-linecap:butt;stroke-linejoin:miter;stroke-miterlimit:4;stroke-opacity:1;stroke-dasharray:none"
           d="M 231.53242,870.31057 C 231.53242,870.31057 217.55757,869.60506 210.8737,871.29431 202.05751,873.52248 193.69955,877.84196 186.27997,883.0993 182.68534,885.64637 177.73863,888.11338 176.93437,892.44491 176.63957,894.03257 178.90186,896.87178 178.90186,896.87178 178.90186,896.87178 172.87387,903.88997 171.52376,908.18489 169.94959,913.19253 169.27428,918.97865 171.03188,923.92487 172.12157,926.99149 175.08014,929.04745 177.42624,931.30298 180.45349,934.21341 185.16813,935.53384 187.26372,939.17298 188.91841,942.04645 187.36082,945.99475 188.73934,949.01046 189.99623,951.76004 191.89519,954.63341 194.64184,955.89669 198.36579,957.60947 202.8632,956.33457 206.9387,955.89669 210.77573,955.48445 214.47405,952.64904 218.2518,953.43733 221.81551,954.18094 224.47977,957.31014 227.10554,959.8317 229.21108,961.85368 229.89066,965.44184 232.51616,966.71794 236.05528,968.43809 240.41813,967.21865 244.32115,966.71794 248.18671,966.22203 251.88863,964.84313 255.63426,963.76668 261.41552,962.10521 266.90418,959.2684 272.84985,958.35607 274.95665,958.03279 277.20113,957.74871 279.24422,958.35607 283.55971,959.63894 290.55733,965.73419 290.55733,965.73419 290.55733,965.73419 293.34284,957.31726 293.50857,952.94546 293.79758,945.32203 287.28881,937.42488 290.06546,930.31923 290.82967,928.36355 294.07464,928.2767 294.9842,926.38424 295.8365,924.61093 295.47773,922.38635 294.9842,920.48175 294.56076,918.84766 292.74543,917.72846 292.52483,916.05487 292.17145,913.374 293.98492,910.84092 294.49232,908.18489 294.9579,905.74783 295.47607,900.80678 295.47607,900.80678 z"
           id="path12377"
           inkscape:connector-curvature="0"
           sodipodi:nodetypes="caaacaaaaaaaaaaaaaacaaaaaacc" />
        <path
           style="fill:#afafe9;stroke:#000000;stroke-width:2.06587219;stroke-linecap:butt;stroke-linejoin:miter;stroke-miterlimit:4;stroke-opacity:1;stroke-dasharray:none"
           d="M 320.06979,807.84253 C 323.75624,806.57815 331.3829,804.89128 331.3829,804.89128 331.3829,804.89128 335.9358,806.49951 337.28539,808.33441 343.36534,816.60073 344.44198,828.08083 344.17164,838.33874 343.8886,849.07771 338.59461,859.09605 335.31789,869.32682 332.92941,876.78427 331.54084,884.78537 327.4479,891.46116 325.20496,895.11952 322.14986,898.4044 318.59417,900.80678 313.04399,904.55671 306.53519,907.24685 299.90294,908.18489 293.0537,909.15363 285.50224,909.16488 279.24422,906.21739 276.51722,904.933 275.63473,900.97656 272.84985,899.82303 269.66882,898.5054 265.84576,900.71616 262.5205,899.82303 255.56769,897.95557 250.64644,891.31591 243.82927,889.00179 240.22811,887.77936 235.84004,889.37402 232.51616,887.52617 228.44274,885.26163 225.45329,881.00768 223.66243,876.70493 221.8256,872.29177 222.54656,867.20719 222.1868,862.44058 221.92737,859.00333 221.69492,852.11122 221.69492,852.11122 221.69492,852.11122 233.68657,845.27693 239.89428,842.27373 266.07661,829.60711 292.55766,817.27863 320.06979,807.84253 z"
           id="path12373"
           inkscape:connector-curvature="0"
           sodipodi:nodetypes="acaaaaaaaaaaaaacaa" />
        <path
           style="fill:#5555ff;stroke:#000000;stroke-width:2.06587219;stroke-linecap:butt;stroke-linejoin:miter;stroke-miterlimit:4;stroke-opacity:1;stroke-dasharray:none"
           d="M 338.76101,797.02129 C 344.10533,799.43948 344.03622,807.50043 346.631,812.76128 349.61518,818.8116 354.567,824.2771 355.48474,830.96062 356.23286,836.40883 354.04219,841.90415 352.53349,847.19248 350.69587,853.63372 347.38551,859.56762 345.15538,865.8837 343.32523,871.06697 343.30226,877.06106 340.23664,881.62368 337.50871,885.68369 333.4277,889.06203 328.92353,890.96928 326.18916,892.12715 320.06979,891.95304 320.06979,891.95304 320.06979,891.95304 325.87567,871.79665 327.4479,861.45683 329.74489,846.35065 330.3694,830.99229 330.39916,815.71252 330.40966,810.29197 329.41541,799.48067 329.41541,799.48067 329.41541,799.48067 335.82619,795.69336 338.76101,797.02129 z"
           id="path12375"
           inkscape:connector-curvature="0"
           sodipodi:nodetypes="aaaaaaacaaca" />
        <path
           style="fill:#ffccaa;stroke:#000000;stroke-width:2.06587219;stroke-linecap:butt;stroke-linejoin:miter;stroke-miterlimit:4;stroke-opacity:1;stroke-dasharray:none"
           d="M 343.67976,753.24448 C 343.67976,753.24448 350.97522,757.85672 350.07413,761.11447 349.56252,762.9641 345.37389,761.2992 344.66351,763.08196 343.17068,766.82833 347.78196,770.58512 350.07413,773.90321 351.72283,776.28982 355.97661,780.29757 355.97661,780.29757 355.97661,780.29757 350.99329,781.25033 350.07413,783.24881 349.22669,785.09133 352.57049,787.39886 351.54974,789.1513 350.00809,791.79804 342.69601,791.61068 342.69601,791.61068 342.69601,791.61068 349.77252,789.25456 351.54974,791.61068 352.26854,792.56361 350.45553,793.86528 350.566,795.0538 350.70171,796.51398 352.53349,797.52231 352.53349,798.9888 352.53349,800.08866 351.88877,801.2194 351.05787,801.94004 349.8828,802.95916 348.18585,803.37251 346.631,803.41566 344.76232,803.46756 343.08926,801.98451 341.22037,801.94004 339.70919,801.90404 338.1186,802.19638 336.79351,802.92378 334.55766,804.15115 333.30975,806.66326 331.3829,808.33441 329.52495,809.9458 326.31419,810.44754 325.48041,812.76128 324.05132,816.72698 328.16859,820.851 328.43165,825.05813 328.7096,829.50356 328.21754,834.06701 326.95603,838.33874 324.67165,846.07416 321.42935,853.89658 316.1348,859.98121 307.77582,869.58753 296.81575,877.84662 284.65484,881.62368 276.51271,884.15255 267.39199,883.50966 259.07737,881.62368 250.92423,879.77432 242.23969,876.83459 236.45117,870.80244 233.85748,868.0996 231.45066,864.17491 232.02429,860.47308 232.7541,855.7632 239.61134,854.08163 241.3699,849.65185 242.76263,846.14358 241.22749,842.05966 241.86177,838.33874 242.81182,832.76555 243.30004,824.10277 246.78051,819.64752"
           id="path12428"
           inkscape:connector-curvature="0"
           sodipodi:nodetypes="cssscsscssssssssssssssssssc" />
        <path
           style="fill:#ffccaa;stroke:#000000;stroke-width:2.06587219;stroke-linecap:butt;stroke-linejoin:miter;stroke-miterlimit:4;stroke-opacity:1;stroke-dasharray:none"
           d="M 283.06335,800.4231 C 291.3818,792.18727 301.37856,770.46008 301.37856,770.46008"
           id="path11591"
           inkscape:connector-curvature="0" />
        <path
           style="fill:#ffe680;stroke:#000000;stroke-width:2.06587219;stroke-linecap:butt;stroke-linejoin:miter;stroke-miterlimit:4;stroke-opacity:1;stroke-dasharray:none"
           d="M 339.25289,755.21198 C 339.25289,755.21198 340.13813,762.06897 338.76101,765.04947 337.15556,768.52413 332.55439,769.75626 330.39916,772.91946 327.91335,776.5678 327.84679,781.4894 325.48041,785.21632 321.8739,790.89635 317.5493,796.63367 311.70792,799.97254 306.45848,802.97308 300.02074,804.46972 294.00044,803.90754 287.78416,803.32705 276.78484,796.52942 276.78484,796.52942 276.78484,796.52942 282.71334,790.65271 285.63859,787.67568 290.27094,782.96136 294.77872,778.12566 299.41107,773.41133 301.52375,771.26126 303.25529,768.62413 305.80544,767.01696 315.80793,760.71318 339.25289,755.21198 339.25289,755.21198 z"
           id="path12362"
           inkscape:connector-curvature="0"
           sodipodi:nodetypes="caaaaacaaac" />
        <path
           style="fill:#000000;stroke:#000000;stroke-width:0.68862402;stroke-miterlimit:4;stroke-dasharray:none"
           id="path12438"
           d="M 224.67494,871.10889 C 225.40757,872.58203 226.17936,874.04464 227.20032,875.33986 228.50218,876.84983 230.00223,878.16527 231.44698,879.53205 232.73741,880.64866 234.04363,881.75115 235.36723,882.82908 236.25571,883.56307 237.22264,884.15789 238.22336,884.72301 239.52424,885.46704 240.84156,886.18834 242.17106,886.88025 244.00016,888.07513 245.96719,889.02199 247.90543,890.01976 249.84692,890.87065 251.76417,891.78508 253.73438,892.56788 256.16102,893.70978 258.59063,894.84522 261.02752,895.96588 263.54116,896.90034 265.92422,898.12952 268.4021,899.147 270.60019,900.05091 272.87344,900.7334 275.13025,901.46817 277.04157,902.01663 278.88312,902.77356 280.79154,903.32679 282.23988,903.73525 283.68479,904.16141 285.14295,904.53407 285.99135,904.80925 286.89159,904.76399 287.75453,904.9408 288.72282,905.21088 289.7072,905.45703 290.66727,905.76064 291.31079,905.95383 290.99852,905.86099 291.60396,906.03947 291.60396,906.03947 289.19176,907.68715 289.19176,907.68715 L 289.19176,907.68715 C 288.58961,907.5046 288.90096,907.59875 288.25772,907.40481 287.29762,907.12452 286.33431,906.83828 285.36007,906.61719 284.48573,906.48766 283.59367,906.45966 282.74475,906.18416 281.29296,905.79351 279.84785,905.37682 278.40383,904.95871 276.5024,904.38453 274.65692,903.64168 272.74847,903.086 270.49055,902.34207 268.21474,901.65313 266.0156,900.74201 263.54261,899.71551 261.15889,898.4887 258.65178,897.54034 256.21232,896.42154 253.77797,895.29194 251.33938,894.1719 249.3691,893.37217 247.43709,892.47584 245.50085,891.59773 243.56077,890.59739 241.59625,889.6421 239.75344,888.46482 238.42016,887.76579 237.08575,887.06536 235.78248,886.31184 234.76692,885.74133 233.80187,885.11506 232.90144,884.37254 231.58994,883.27409 230.27823,882.17392 228.99266,881.04571 227.53463,879.67072 226.03086,878.3364 224.70899,876.82501 223.68355,875.50167 222.9081,874.02036 222.13686,872.53881 222.13686,872.53881 224.67494,871.10889 224.67494,871.10889 z"
           inkscape:connector-curvature="0" />
        <path
           style="fill:#000000;stroke:#000000;stroke-width:0.68862402;stroke-miterlimit:4;stroke-dasharray:none"
           id="path12444"
           d="M 254.46366,890.27827 C 251.88307,890.00073 249.28425,889.94838 246.69136,889.89222 244.34126,889.95282 241.97047,890.00049 239.67695,890.55992 238.61016,890.90974 237.47801,890.98101 236.40747,891.30097 236.40747,891.30097 238.72161,889.52481 238.72161,889.52481 L 238.72161,889.52481 C 239.80308,889.26488 240.91094,889.11943 241.98118,888.80575 244.28805,888.31894 246.64965,888.25303 249.00082,888.22204 251.61826,888.28034 254.23971,888.3407 256.84721,888.5914 256.84721,888.5914 254.46366,890.27827 254.46366,890.27827 z"
           inkscape:connector-curvature="0" />
        <path
           style="fill:#000000;stroke:#000000;stroke-width:0.68862402;stroke-miterlimit:4;stroke-dasharray:none"
           id="path12446"
           d="M 236.46875,891.20868 C 235.21053,892.25234 233.95237,893.27741 232.84784,894.48569 231.68459,895.74786 230.33356,896.81105 229.13044,898.03212 227.60011,899.63538 225.98767,901.15733 224.35523,902.65565 222.75984,904.04512 221.47012,905.71886 220.04828,907.27243 218.77941,908.47777 217.57086,909.72832 216.45735,911.07995 215.24647,912.50444 214.07511,913.96667 212.94649,915.45795 211.94641,916.83626 210.80197,918.09129 209.74149,919.41992 208.71576,921.01463 207.56502,922.49971 206.34038,923.94318 205.63854,924.94309 204.87975,925.89117 204.1066,926.83554 203.41314,927.74571 203.00435,928.81555 202.46819,929.81511 202.0559,930.55796 201.68286,931.30723 201.14596,931.96908 201.05796,932.06718 200.96992,932.16537 200.88189,932.26351 200.88189,932.26351 198.18362,933.39385 198.18362,933.39385 L 198.18362,933.39385 C 198.27292,933.29985 198.3622,933.20591 198.45149,933.11196 199.01312,932.47213 199.40977,931.76228 199.80166,931.00803 200.37078,930.01222 200.77003,928.9317 201.42063,927.9795 202.19839,927.02941 202.99651,926.10499 203.67191,925.07478 204.89147,923.62583 206.10811,922.18857 207.08823,920.55726 207.63512,919.84079 208.26669,919.22013 208.82713,918.52006 209.32832,917.89403 209.71999,917.17334 210.29298,916.60128 211.41047,915.10105 212.5871,913.64015 213.79588,912.21472 214.89497,910.84185 216.09251,909.5725 217.38907,908.38586 218.83334,906.84499 220.09374,905.13861 221.69361,903.74462 223.3237,902.25189 224.93915,900.74173 226.4655,899.14217 227.63589,897.89387 228.99722,896.8522 230.17446,895.6091 231.26511,894.38552 232.49879,893.34549 233.76003,892.302 233.76003,892.302 236.46875,891.20868 236.46875,891.20868 z"
           inkscape:connector-curvature="0" />
        <path
           style="fill:#000000;stroke:#000000;stroke-width:0.68862402;stroke-miterlimit:4;stroke-dasharray:none"
           id="path12452"
           d="M 177.9681,897.50917 C 179.5096,896.10527 180.98225,894.61514 182.71192,893.43525 184.42075,892.26958 188.50409,890.02732 189.58769,889.40977 196.10042,886.09974 203.07994,883.8507 209.91544,881.31632 212.42178,880.20177 215.12411,879.56234 217.61572,878.41556 217.87542,878.29603 218.62355,877.87542 218.37488,878.01649 217.67683,878.41247 216.96983,878.79248 216.26731,879.18048 216.31951,879.12958 216.36631,879.07244 216.42397,879.02778 216.49147,878.97548 216.28137,879.13009 216.19796,879.14838 216.10356,879.16908 215.51712,879.23188 215.43461,879.26437 215.31295,879.31227 215.21739,879.41003 215.10878,879.48285 215.82693,879.07513 216.54296,878.66368 217.2632,878.25969 217.38636,878.19059 217.02243,878.4073 216.90021,878.47803 215.95795,879.02333 215.02585,879.58688 214.06988,880.10774 213.7389,880.28808 213.2701,880.347 212.90445,880.41479 212.20238,880.58325 211.57381,880.89171 210.93016,881.20463 209.73386,881.36809 207.41787,882.80165 211.4856,880.50797 211.4856,880.50797 208.7617,881.55709 208.7617,881.55709 L 208.7617,881.55709 C 210.37764,880.63259 211.53663,879.82117 213.22186,879.37673 213.86934,879.06654 214.52979,878.79948 215.23467,878.64544 215.80338,878.50648 216.59005,878.11993 216.34598,878.26826 215.63023,878.70328 214.89607,879.10723 214.17168,879.52772 214.05016,879.59822 214.4155,879.38798 214.53741,879.31812 215.48884,878.76343 216.44025,878.20875 217.39167,877.65405 217.79624,877.50353 219.5142,877.11933 218.98197,878.10411 218.02608,878.67812 217.08036,879.26943 216.11429,879.82615 215.62055,880.11068 214.62821,880.4958 214.16799,880.66641 212.03588,881.45686 209.86565,882.147 207.75767,883.00373 200.9117,885.51896 193.92686,887.77564 187.43865,891.14615 186.58784,891.38098 187.05799,891.23945 185.33522,892.39201 183.61974,893.53974 182.16844,895.00048 180.65934,896.39442 180.65934,896.39442 177.9681,897.50917 177.9681,897.50917 z"
           inkscape:connector-curvature="0" />
        <path
           style="fill:#000000;stroke:#000000;stroke-width:0.68862402;stroke-miterlimit:4;stroke-dasharray:none"
           id="path12454"
           d="M 292.36446,926.94463 C 290.5829,925.79515 288.54659,925.35034 286.47977,925.06143 283.11279,924.85945 279.74266,925.12183 276.39135,925.43429 274.40258,925.74539 272.38389,925.85797 270.3934,926.15015 268.37735,926.44608 266.39981,926.95354 264.42711,927.45105 261.02354,928.29512 257.6675,929.26456 254.39322,930.52294 251.98988,931.63283 249.63274,932.82849 247.28443,934.0499 244.73476,935.33917 242.05945,936.34465 239.57844,937.76783 241.30626,936.91073 241.39978,936.74559 240.14638,937.72813 240.14638,937.72813 237.47271,938.79992 237.47271,938.79992 L 237.47271,938.79992 C 239.38298,937.26458 238.01083,938.30994 241.80464,935.96888 244.30456,934.58361 246.9741,933.56283 249.5157,932.25893 251.86115,931.03333 254.22385,929.84298 256.64002,928.76238 259.91518,927.53013 263.27102,926.58147 266.66623,925.73898 270.65389,924.75189 274.56764,924.12677 278.65987,923.75388 282.03538,923.44269 285.43357,923.17072 288.82334,923.40934 290.92964,923.71999 292.97965,924.21781 294.81273,925.35319 294.81273,925.35319 292.36446,926.94466 292.36446,926.94466 z"
           inkscape:connector-curvature="0" />
        <path
           style="fill:#000000;stroke:#000000;stroke-width:0.68862402;stroke-miterlimit:4;stroke-dasharray:none"
           id="path12460"
           d="M 208.95618,944.23723 C 212.53218,940.6021 216.65843,937.57676 220.72107,934.51856 228.09317,929.3061 235.95004,924.79085 243.98794,920.6922 248.75253,918.33599 253.80185,916.65459 258.78663,914.84194 260.99729,914.19975 263.1576,913.38592 265.36301,912.73039 266.42455,912.48208 267.426,912.06722 268.49862,911.86489 269.59589,911.62573 270.6828,911.34745 271.7781,911.09612 272.88049,910.71651 274.02899,910.48932 275.18647,910.36616 276.29146,909.91951 277.47829,909.74133 278.60411,909.37372 279.44101,909.06387 280.30031,908.89115 281.18829,908.84333 282.36292,908.79563 283.53884,908.79643 284.71422,908.79853 285.71472,908.79953 286.7152,908.7992 287.7157,908.80153 288.68028,908.8019 289.64487,908.80353 290.60946,908.80353 291.70428,908.9658 292.79735,909.10213 293.87068,909.37579 294.30572,909.49513 294.74972,909.57498 295.19295,909.65612 295.19295,909.65612 292.79445,911.33008 292.79445,911.33008 L 292.79445,911.33008 C 292.35069,911.24068 291.90677,911.1508 291.46971,911.03187 290.41258,910.77281 289.32993,910.63448 288.24888,910.51857 287.28348,910.5185 286.31808,910.51957 285.35269,910.51802 284.35475,910.5174 283.35683,910.51102 282.35887,910.51002 281.18611,910.51202 280.01207,910.50502 278.84094,910.57632 277.96813,910.66242 277.12457,910.86553 276.29598,911.1565 275.14692,911.47574 273.99176,911.77167 272.84802,912.10782 271.69756,912.2584 270.5672,912.508 269.46133,912.86238 268.36426,913.12482 267.26835,913.38559 266.16732,913.63045 265.11574,913.85473 264.11851,914.26427 263.06969,914.50251 260.89356,915.17967 258.73435,915.91297 256.55612,916.58393 251.60392,918.36235 246.59588,920.03398 241.8753,922.38515 240.77551,922.94719 239.67943,923.51651 238.57594,924.07125 238.18117,924.2697 237.76726,924.43035 237.38082,924.64454 232.51174,927.3434 227.77774,930.29958 223.23582,933.5181 219.23018,936.53415 215.14761,939.51099 211.64742,943.12264 211.64742,943.12264 208.95618,944.23738 208.95618,944.23738 z"
           inkscape:connector-curvature="0" />
        <path
           style="fill:#000000;stroke:#000000;stroke-width:0.68862402;stroke-miterlimit:4;stroke-dasharray:none"
           id="path12464"
           d="M 271.28781,897.98557 C 274.77612,898.04667 278.26537,897.87321 281.74564,897.64973 285.79835,897.17202 289.825,896.46581 293.81545,895.61477 296.2693,894.9276 298.79634,894.48154 301.19648,893.61829 302.77285,893.0787 304.35326,892.55404 305.95142,892.08303 305.95142,892.08303 303.68212,893.83434 303.68212,893.83434 L 303.68212,893.83434 C 302.08571,894.31523 300.50441,894.84165 298.92827,895.38547 296.51778,896.19987 294.00876,896.68472 291.55038,897.33303 287.55659,898.15546 283.53171,898.85995 279.47917,899.31858 275.97,899.5409 272.45471,899.7039 268.93774,899.69299 268.93774,899.69299 271.28781,897.98557 271.28781,897.98557 z"
           inkscape:connector-curvature="0" />
        <path
           style="fill:#000000;stroke:#000000;stroke-width:0.68862402;stroke-miterlimit:4;stroke-dasharray:none"
           id="path12466"
           d="M 246.35937,810.395 C 247.95445,812.01608 249.33388,813.82276 250.55091,815.73941 251.73957,817.52357 252.76675,819.38585 253.71096,821.30754 254.33993,822.61398 255.08145,823.85682 255.7904,825.11968 256.09782,825.74421 256.23163,826.42939 256.40702,827.09746 256.40702,827.09746 253.84239,828.48975 253.84239,828.48975 L 253.84239,828.48975 C 253.66708,827.84539 253.55548,827.17903 253.26352,826.57241 252.5681,825.29655 251.82016,824.05112 251.19737,822.73615 250.26099,820.82243 249.25773,818.95906 248.07549,817.18252 246.86346,815.27347 245.48021,813.4781 243.85503,811.89859 243.85503,811.89859 246.35937,810.395 246.35937,810.395 z"
           inkscape:connector-curvature="0" />
        <path
           style="fill:#000000;stroke:#000000;stroke-width:0.68862402;stroke-miterlimit:4;stroke-dasharray:none"
           id="path12468"
           d="M 261.02123,835.14956 C 261.59736,836.72256 262.37683,838.2017 263.11871,839.6993 263.85799,841.02699 264.42296,842.44851 264.84677,843.90597 265.12576,845.01552 265.33197,846.14317 265.63094,847.2483 265.8521,848.23769 266.12804,849.20147 266.42938,850.16832 266.58259,850.91891 266.80162,851.61629 267.09831,852.32198 267.09831,852.32198 264.55094,853.75132 264.55094,853.75132 L 264.55094,853.75132 C 264.24559,853.03675 263.99635,852.34164 263.86534,851.57283 263.56921,850.60052 263.28919,849.63441 263.07078,848.64052 262.7629,847.53797 262.55837,846.40981 262.29637,845.2965 261.88823,843.8523 261.32934,842.44549 260.60019,841.13213 259.85372,839.62642 259.09088,838.13064 258.47029,836.56681 258.47029,836.56681 261.02123,835.14956 261.02123,835.14956 z"
           inkscape:connector-curvature="0" />
        <path
           style="fill:#000000;stroke:#000000;stroke-width:0.68862402;stroke-miterlimit:4;stroke-dasharray:none"
           id="path12470"
           d="M 269.03059,858.02539 C 269.98392,858.92547 271.04911,859.65395 272.16333,860.33568 272.32544,860.41948 272.48756,860.50325 272.64967,860.58705 272.64967,860.58705 270.21068,862.18308 270.21068,862.18308 L 270.21068,862.18308 C 270.0462,862.09318 269.88172,862.00337 269.71724,861.91352 268.59929,861.21322 267.53226,860.46381 266.55392,859.57416 266.55392,859.57416 269.03059,858.02539 269.03059,858.02539 z"
           inkscape:connector-curvature="0" />
        <path
           style="fill:#000000;stroke:#000000;stroke-width:0.68862402;stroke-miterlimit:4;stroke-dasharray:none"
           id="path12472"
           d="M 291.77472,865.02658 C 293.6305,865.04128 295.4864,865.03658 297.34222,865.03258 298.43715,865.09588 299.45407,864.88254 300.39395,864.32955 301.47686,863.87473 304.27824,862.34244 299.87638,864.76652 300.61951,864.1497 301.25062,863.41818 301.97039,862.7772 302.57997,862.26203 303.16052,861.71546 303.81628,861.25898 303.91288,861.19308 304.00957,861.12709 304.1062,861.06114 304.1062,861.06114 306.83229,859.99231 306.83229,859.99231 L 306.83229,859.99231 C 306.73479,860.05781 306.63721,860.12325 306.53967,860.18873 305.87895,860.63838 305.27476,861.14444 304.67772,861.6781 303.9391,862.30284 303.302,863.02484 302.59116,863.67967 301.08356,864.59109 299.6921,865.44771 298.11658,866.16231 297.13511,866.64281 296.09229,866.79926 294.99857,866.73535 293.13747,866.73135 291.27631,866.72635 289.41526,866.74135 289.41526,866.74135 291.77472,865.02711 291.77472,865.02711 z"
           inkscape:connector-curvature="0" />
        <path
           style="fill:#000000;stroke:#000000;stroke-width:0.68862402;stroke-miterlimit:4;stroke-dasharray:none"
           id="path12474"
           d="M 310.06511,854.76874 C 310.56444,853.43252 311.29511,852.20325 311.92344,850.92733 312.43019,850.01284 312.97915,849.12816 313.21695,848.10246 313.37513,847.10894 313.37256,846.09888 313.37152,845.0955 313.31702,844.21439 313.68316,843.39824 313.92533,842.57111 314.11371,841.57179 314.29921,840.57866 314.53305,839.58874 314.65649,838.93503 314.60125,839.27413 314.69517,838.57087 314.69517,838.57087 317.30814,837.27913 317.30814,837.27913 L 317.30814,837.27913 C 317.22874,837.999 317.27814,837.65185 317.16395,838.32116 316.94806,839.31842 316.69669,840.30256 316.55718,841.31645 316.35464,842.13164 315.9465,842.91201 315.9748,843.76971 315.9698,844.79031 315.9778,845.81526 315.84481,846.82928 315.65594,847.89594 315.12408,848.80824 314.56637,849.72802 313.95448,851.00314 313.20051,852.21465 312.72002,853.54874 312.72002,853.54874 310.06511,854.76874 310.06511,854.76874 z"
           inkscape:connector-curvature="0" />
        <path
           style="fill:#000000;stroke:#000000;stroke-width:0.68862402;stroke-miterlimit:4;stroke-dasharray:none"
           id="path12476"
           d="M 279.21887,802.62026 C 279.81892,804.04408 280.13822,805.55364 280.36247,807.07552 280.53161,808.31503 280.54375,809.56684 280.54931,810.81539 280.61531,812.22404 280.40409,813.61898 280.25282,815.01513 280.23392,816.23317 280.03425,817.35933 279.6344,818.50344 279.27375,819.25128 278.90589,820.00337 278.4559,820.70288 277.97374,821.41733 277.49128,822.12979 276.92302,822.7788 276.40052,823.47613 275.75705,823.97475 275.04152,824.45384 273.72105,825.29113 274.79498,824.61881 271.74574,826.34751 271.74574,826.34751 274.0244,824.52102 274.0244,824.52102 L 274.0244,824.52102 C 271.81513,825.82169 271.25136,826.16406 272.31676,825.52067 273.07844,825.01006 273.67734,824.6794 274.23259,823.90963 274.8155,823.28128 275.30359,822.58681 275.7723,821.8696 276.27252,821.21555 276.56465,820.43911 276.99247,819.73892 277.1658,819.24894 277.41953,818.72812 277.50729,818.2137 277.61389,817.58881 277.52199,816.93062 277.64947,816.30614 277.80186,814.92018 278.02342,813.53604 277.95873,812.13718 277.95073,810.90024 277.94453,809.6601 277.79394,808.43031 277.58851,806.93187 277.29149,805.44044 276.67135,804.05103 276.67135,804.05103 279.21887,802.62026 279.21887,802.62026 z"
           inkscape:connector-curvature="0" />
        <path
           style="fill:#000000;stroke:#000000;stroke-width:0.68862402;stroke-miterlimit:4;stroke-dasharray:none"
           id="path12478"
           d="M 295.09993,816.21606 C 296.43007,817.48784 297.77237,818.75678 299.18856,819.93318 300.25642,820.90929 301.50721,821.63391 302.82514,822.21208 303.67981,822.71127 304.6041,823.07277 305.47714,823.53046 306.24458,823.89088 306.97224,824.2787 307.80151,824.47451 308.77558,824.82128 309.78659,825.00619 310.8118,825.10976 310.9782,825.12116 311.14459,825.13256 311.31098,825.14396 311.31098,825.14396 308.93714,826.84119 308.93714,826.84119 L 308.93714,826.84119 C 308.76893,826.82709 308.60073,826.81289 308.43251,826.79879 307.39903,826.67553 306.38674,826.45872 305.39725,826.13131 304.56373,825.90441 303.81214,825.50478 303.03485,825.13429 302.15603,824.69723 301.25865,824.29786 300.39789,823.82257 299.07346,823.20538 297.81695,822.45912 296.73412,821.46665 295.32882,820.27316 293.99275,818.99893 292.62326,817.76478 292.62326,817.76478 295.09993,816.21601 295.09993,816.21601 z"
           inkscape:connector-curvature="0" />
        <path
           style="fill:#000000;stroke:#000000;stroke-width:0.68862402;stroke-miterlimit:4;stroke-dasharray:none"
           id="path12480"
           d="M 318.46994,819.43923 C 318.55134,820.27056 318.6242,821.1027 318.69925,821.93461 318.69925,821.93461 316.1304,823.27207 316.1304,823.27207 L 316.1304,823.27207 C 316.0594,822.4461 315.99177,821.61949 315.88482,820.79718 315.88482,820.79718 318.46994,819.43923 318.46994,819.43923 z"
           inkscape:connector-curvature="0" />
        <path
           style="fill:#000000;stroke:#000000;stroke-width:0.68862402;stroke-miterlimit:4;stroke-dasharray:none"
           id="path12482"
           d="M 322.67315,827.42532 C 323.73618,827.17557 327.9399,824.86729 323.66304,827.05842 323.66304,827.05842 326.35299,825.97417 326.35299,825.97417 L 326.35299,825.97417 C 324.40353,827.21082 322.58366,828.52271 320.37531,829.22417 320.37531,829.22417 322.67315,827.42532 322.67315,827.42532 z"
           inkscape:connector-curvature="0" />
        <path
           style="fill:#000000;stroke:#000000;stroke-width:0.68862402;stroke-miterlimit:4;stroke-dasharray:none"
           id="path12484"
           d="M 322.18921,794.42016 C 323.85574,795.2536 325.50266,796.11788 327.2932,796.6506 328.52504,796.99356 329.7959,797.08926 331.0666,797.14541 331.0666,797.14541 328.70802,798.84093 328.70802,798.84093 L 328.70802,798.84093 C 327.42446,798.76813 326.14299,798.65069 324.90453,798.2797 323.11063,797.71296 321.46462,796.82161 319.75784,796.04046 319.75784,796.04046 322.18921,794.42016 322.18921,794.42016 z"
           inkscape:connector-curvature="0" />
        <path
           style="fill:#000000;stroke:#000000;stroke-width:0.68862402;stroke-miterlimit:4;stroke-dasharray:none"
           id="path12486"
           d="M 336.04341,771.57046 C 337.47272,771.60476 338.89055,771.39763 340.27171,771.04721 341.12507,770.90098 341.8596,770.42797 342.63119,770.06782 342.73908,770.01912 342.84697,769.97052 342.95486,769.92182 342.95486,769.92182 340.66233,771.74329 340.66233,771.74329 L 340.66233,771.74329 C 340.5563,771.79299 340.45027,771.84259 340.34423,771.89222 339.57888,772.27539 338.81027,772.66625 337.95747,772.81495 336.55826,773.14452 335.12256,773.2989 333.68394,773.2847 333.68394,773.2847 336.04341,771.57046 336.04341,771.57046 z"
           inkscape:connector-curvature="0" />
        <path
           style="fill:#000000;stroke:#000000;stroke-width:0.68862402;stroke-miterlimit:4;stroke-dasharray:none"
           id="path12498"
           d="M 339.82716,774.29649 C 341.06103,773.81663 342.20839,773.16634 343.56356,773.21693 344.37268,773.63574 344.45881,774.43849 344.24849,775.24035 343.5674,776.9408 341.43345,777.53124 339.74725,777.68161 338.77842,777.80128 338.00099,777.71891 337.40614,776.89496 337.24676,776.45445 337.28261,776.67567 337.28488,776.23366 337.28488,776.23366 339.91505,774.93416 339.91505,774.93416 L 339.91505,774.93416 C 339.82445,775.22923 339.83115,775.07287 339.92505,775.40358 340.4652,776.1213 341.26898,776.02859 342.0908,775.94034 342.42767,775.89724 342.68792,775.87784 343.01438,775.78316 343.14648,775.74486 343.51564,775.5626 343.40068,775.63811 339.41279,778.25803 341.12956,777.34983 341.5996,776.48524 341.83383,775.91902 341.91103,775.16102 341.19761,774.93421 339.8818,774.97181 338.74141,775.6486 337.5353,776.10815 337.5353,776.10815 339.82763,774.29649 339.82763,774.29649 z"
           inkscape:connector-curvature="0" />
        <path
           style="fill:#000000;stroke:#000000;stroke-width:0.68862402;stroke-miterlimit:4;stroke-dasharray:none"
           id="path12500"
           d="M 338.67861,784.82303 C 337.53162,785.26204 336.47399,785.88904 335.34655,786.36898 335.34655,786.36898 337.62251,784.56685 337.62251,784.56685 L 337.62251,784.56685 C 338.74346,784.05846 339.82459,783.46497 340.97095,783.01137 340.97095,783.01137 338.67861,784.82303 338.67861,784.82303 z"
           inkscape:connector-curvature="0" />
        <path
           style="fill:#000000;stroke:#000000;stroke-width:0.68862402;stroke-miterlimit:4;stroke-dasharray:none"
           id="path12538"
           d="M 230.76367,969.50921 C 230.31921,971.18603 230.19102,972.91794 229.93415,974.6265 229.61316,975.83899 229.29837,977.05204 228.99044,978.26803 228.75841,979.39203 228.43161,980.49213 228.17252,981.60968 227.96582,982.56989 227.55453,983.45794 227.18081,984.35983 226.7584,985.1731 226.37296,986.0134 225.79724,986.7307 224.58536,988.091 223.09723,988.704 221.46272,989.6512 221.46272,989.6512 223.72081,987.829 223.72081,987.829 L 223.72081,987.829 C 220.02484,990.0372 222.44032,988.6716 223.1076,987.8671 223.73225,987.2026 224.07532,986.3665 224.53209,985.5842 224.88296,984.68427 225.33405,983.82519 225.54177,982.87504 225.80449,981.75501 226.13785,980.65463 226.36262,979.52602 226.66937,978.31288 226.96886,977.09974 227.33186,975.90155 227.61364,974.19419 227.72566,972.45878 228.13082,970.77052 228.13082,970.77052 230.76367,969.50921 230.76367,969.50921 z"
           inkscape:connector-curvature="0" />
        <path
           style="fill:#000000;stroke:#000000;stroke-width:0.68862402;stroke-miterlimit:4;stroke-dasharray:none"
           id="path12540"
           d="M 166.66561,957.20365 C 165.66249,958.54188 164.66219,959.88907 163.74247,961.28671 163.16205,962.24267 162.54019,963.1633 161.82099,964.02055 161.36183,964.59346 160.87943,965.13765 160.34737,965.64311 160.34737,965.64311 157.64724,966.74934 157.64724,966.74934 L 157.64724,966.74934 C 158.19142,966.25876 158.69768,965.74437 159.1365,965.15425 159.88489,964.32658 160.49647,963.40656 161.07827,962.45642 161.9789,961.04748 163.01367,959.72215 163.98855,958.36469 163.98855,958.36469 166.66561,957.20365 166.66561,957.20365 z"
           inkscape:connector-curvature="0" />
      </g>
    </g>
    <path
       style="fill:url(#linearGradient4604);fill-opacity:1;stroke:#000000;stroke-width:1.1663599px;stroke-linecap:butt;stroke-linejoin:miter;stroke-opacity:1"
       d="M -0.881646,322.25893 C -0.881646,322.25893 54.434183,209.97171 100.23256,211.10465 111.4109,211.38118 112.84157,237.92106 123.9505,239.43211 157.63494,244.01393 176.67558,169.00381 210.19748,175.0515 220.52657,176.91497 220.2505,202.69692 230.68115,203.37897 258.60964,205.20519 292.13213,135.13553 292.13213,135.13553 L 292.13213,135.13553 381.87882,326.62182"
       id="path3200"
       inkscape:connector-curvature="0"
       sodipodi:nodetypes="caaaaacc" />
    <path
       style="fill:none;stroke:none"
       d="M 66.829958,162.54982 C 84.381005,143.49699 84.358315,112.72832 123.39851,108.00158 139.27157,102.71056 174.95976,106.85681 181.98736,106.99143 252.20207,108.33645 328.65874,55.93124 284.01277,45.37212"
       id="path3204"
       inkscape:connector-curvature="0"
       sodipodi:nodetypes="ccsc" />
    <text
       xml:space="preserve"
       style="font-size:40px;font-style:normal;font-weight:normal;line-height:125%;letter-spacing:0px;word-spacing:0px;fill:#b380ff;fill-opacity:1;stroke:#7f2aff;font-family:Sans"
       id="text3206"
       sodipodi:linespacing="125%"
       transform="translate(0.85714286,-15)"><textPath
         xlink:href="#path3204"
         id="textPath3210">Icarus Boy<tspan
   id="tspan3208"
   style="fill:#b380ff;stroke:#7f2aff" /></textPath></text>
    <g
       style="display:inline"
       id="g4624"
       transform="translate(-52.428571,-22.857143)">
      <path
         sodipodi:nodetypes="ccccc"
         transform="matrix(0.45696681,0,0,0.45826946,304.69106,89.245129)"
         inkscape:connector-curvature="0"
         style="fill:#4d4d4d;fill-opacity:1;fill-rule:evenodd;stroke:none;display:inline;filter:url(#filter3239-7-5)"
         id="path2393-8"
         d="M 177.72699,486.38516 C 217.67216,409.63462 222.44196,402.46996 226.84461,330.55317 L 415.41754,291.47552 409.70742,473.78043 C 313.66778,477.38032 269.97624,461.33588 177.72699,486.38516 z" />
      <path
         sodipodi:nodetypes="ccccc"
         inkscape:connector-curvature="0"
         style="fill:url(#linearGradient4655);fill-opacity:1;fill-rule:evenodd;stroke:none;display:inline"
         id="path2383-6"
         d="M 386.75219,305.48368 C 391.82293,268.10381 391.18754,230.72395 390.59409,212.28898 421.84542,214.07411 453.06993,215.06742 493.35307,213.21313 494.45361,246.83219 490.56287,276.63957 489.20626,306.10033 449.06506,302.73979 425.97187,301.66963 386.75219,305.48368 z" />
      <g
         transform="matrix(0.92729924,0.37432086,-0.37432086,0.92729924,148.46714,-110.45692)"
         id="g4422">
        <path
           style="fill:#9e9d9b;fill-opacity:1;fill-rule:evenodd;stroke:none;display:inline"
           sodipodi:nodetypes="ccccc"
           id="path1684-9"
           d="M 390.66898,189.58965 392.71004,197.53477 C 393.3191,197.69515 393.93645,197.4018 394.06501,196.96059 L 391.92507,189.37186 390.66898,189.58965 z"
           inkscape:connector-curvature="0" />
        <path
           style="fill:#ffffff;fill-opacity:1;fill-rule:evenodd;stroke:none;display:inline"
           sodipodi:nodetypes="ccccc"
           id="path4813-6"
           d="M 391.38497,191.89553 392.88875,197.54948 393.46709,197.61448 391.73048,191.79299 391.38497,191.8955 z"
           inkscape:connector-curvature="0" />
        <path
           style="fill:#000000;fill-opacity:1;fill-rule:evenodd;stroke:none;display:inline"
           sodipodi:nodetypes="cccccccccc"
           id="path6692-7"
           d="M 390.42096,189.61719 C 391.65967,194.00636 391.41043,193.21459 392.65003,197.60336 393.34126,198.02402 394.01853,197.67036 394.28733,196.9764 393.07372,192.66646 393.43476,193.74262 392.22226,189.4324 391.694,189.5238 390.94868,189.5229 390.42096,189.61719 z M 390.83707,189.86979 C 391.14612,189.81589 391.45516,189.76189 391.76421,189.70793 392.95217,193.93502 392.71594,192.57586 393.89636,196.80432 393.83066,197.37687 393.43736,197.5292 392.93925,197.41634 391.74519,193.17307 392.03113,194.11307 390.83707,189.86979 z"
           inkscape:connector-curvature="0" />
        <path
           style="fill:#ff0000;fill-opacity:1;stroke:none;display:inline"
           id="path1061-5"
           d="M 388.52543,180.71301 C 385.20651,181.5103 382.79485,183.23686 383.14227,184.56694 383.21057,184.82831 383.39048,185.04934 383.64567,185.23752 383.91768,185.80969 384.28352,186.64347 384.47329,187.43419 383.38609,188.33161 382.83283,189.30535 383.0597,190.17391 383.54714,192.04002 387.43633,192.7146 391.74035,191.68067 396.04437,190.64675 399.14271,188.2936 398.65528,186.42748 398.41129,185.49338 397.30686,184.86967 395.72978,184.60208 395.36205,183.97428 395.06159,183.27683 395.00901,182.57995 395.17437,182.27036 395.24227,181.96496 395.16738,181.67823 395.15738,181.64183 395.13838,181.60943 395.12498,181.57436 395.12798,181.56536 395.12998,181.55596 395.13298,181.54676 395.12598,181.53656 395.11268,181.53036 395.10438,181.52106 394.56692,180.31754 391.70723,179.94863 388.52537,180.71299 z"
           inkscape:connector-curvature="0" />
        <path
           transform="matrix(0.07373513,-0.01771284,0.02232413,0.08546654,360.76623,151.89698)"
           style="fill:url(#linearGradient4657);fill-opacity:1;stroke:none;display:inline"
           sodipodi:type="arc"
           sodipodi:ry="23.75"
           sodipodi:rx="77.5"
           sodipodi:cy="417.36218"
           sodipodi:cx="258.75"
           id="path2309-4"
           d="M 336.25,417.36218 A 77.5,23.75 0 1 1 181.25,417.36218 77.5,23.75 0 1 1 336.25,417.36218 z" />
        <path
           style="fill:#000000;fill-opacity:1;fill-rule:evenodd;stroke:none;display:inline"
           sodipodi:nodetypes="ccccccccc"
           id="path2935-7"
           d="M 394.77293,182.56978 C 393.56726,183.95667 391.23407,184.79732 389.11177,185.2449 388.05063,185.46869 387.01418,185.56817 386.14441,185.53801 385.27465,185.50781 384.48841,185.50511 384.11012,185.24314 L 384.00003,185.33754 C 384.47666,185.66763 385.22809,185.82411 386.13325,185.85549 387.03839,185.88689 388.09903,185.78589 389.18452,185.55691 391.35549,185.09906 393.62693,184.13748 394.91166,182.65965 L 394.77293,182.56975 z"
           inkscape:connector-curvature="0" />
        <path
           style="fill:#000000;fill-opacity:1;fill-rule:evenodd;stroke:none;display:inline"
           sodipodi:nodetypes="ccccccc"
           id="path3557-9"
           d="M 395.55679,184.7908 C 394.56198,186.16596 392.5369,187.40237 390.4712,187.91929 388.40549,188.43622 386.18564,188.34097 384.71942,187.56277 L 384.65532,187.63437 C 386.23769,188.47422 388.43181,188.75994 390.55634,188.2283 392.68087,187.69666 394.59727,186.36051 395.66041,184.8909 L 395.55683,184.79077 z"
           inkscape:connector-curvature="0" />
        <path
           style="fill:url(#radialGradient4659);fill-opacity:1;fill-rule:evenodd;stroke:none;display:inline"
           sodipodi:nodetypes="ccc"
           id="path4179-24"
           d="M 383.44111,190.40258 C 387.08687,191.88957 395.56482,190.19026 398.43115,186.46585 398.95303,190.5866 386.39097,194.22548 383.44111,190.40258 z"
           inkscape:connector-curvature="0" />
        <path
           style="fill:#000000;fill-opacity:1;stroke:none;display:inline"
           sodipodi:nodetypes="cccccccccccccccccccccccccccccccc"
           id="path6693-7"
           d="M 388.51985,180.59034 C 386.75784,181.0355 384.97017,181.7039 383.66381,182.9645 383.12368,183.48424 382.52878,184.69356 383.59971,185.20734 384.05873,185.58642 383.81266,185.99565 384.03489,186.5178 384.23438,187.00957 384.67054,187.39684 384.03789,187.69695 383.34666,188.38327 382.59142,189.57141 383.03366,190.52385 383.5639,191.58921 384.85351,191.9565 385.98348,192.16139 388.56757,192.56822 391.21981,192.16055 393.6625,191.32106 395.39423,190.68217 397.14536,189.82718 398.3033,188.39173 398.89683,187.67689 399.17123,186.57732 398.54493,185.79984 397.9142,185.00321 396.86242,184.67975 395.8773,184.49539 395.57565,183.85697 394.87004,183.11077 395.1253,182.40193 395.32631,181.88515 395.33122,181.35407 394.92519,181.00638 393.98961,180.25372 392.68098,180.19214 391.51422,180.18784 390.5042,180.20864 389.49929,180.35604 388.51998,180.59034 z M 388.60085,180.90036 C 390.28819,180.51684 392.09668,180.29693 393.78774,180.77188 394.40642,180.9516 395.18471,181.4085 395.04989,182.12668 394.80035,182.54149 394.89544,183.00499 395.03829,183.43842 395.19777,183.8919 395.43654,184.29592 395.73941,184.67274 396.2138,184.82831 396.68057,184.95835 397.1409,185.18127 397.93061,185.47462 398.71312,186.18478 398.56039,187.06778 398.33878,188.21923 397.29448,189.15233 396.34381,189.79113 394.10962,191.194 391.47266,191.8877 388.82421,192.09217 387.23403,192.17637 385.55029,192.03597 384.14171,191.24095 383.45554,190.87049 383.01316,190.06052 383.28898,189.31911 383.51054,188.60296 384.08664,188.05514 384.62678,187.55578 384.71648,187.1614 384.42848,186.75922 384.33662,186.37495 384.16656,185.95947 384.06933,185.49423 383.83618,185.10913 383.25971,184.77103 383.20014,184.03977 383.5892,183.56616 384.44352,182.44104 385.81513,181.82181 387.13557,181.33214 387.61535,181.16289 388.10498,181.01953 388.60082,180.90036 z"
           inkscape:connector-curvature="0" />
      </g>
      <text
         sodipodi:linespacing="125%"
         id="text3985-7-52"
         y="272.452"
         x="389.43991"
         style="font-size:40px;font-style:normal;font-weight:normal;line-height:125%;letter-spacing:0px;word-spacing:0px;fill:#000000;fill-opacity:1;stroke:none;display:inline;font-family:Sans"
         xml:space="preserve"><tspan
           style="font-size:22px;font-style:italic;font-variant:normal;font-weight:bold;font-stretch:normal;text-align:start;line-height:125%;writing-mode:lr-tb;text-anchor:start;font-family:Zapfino;-inkscape-font-specification:Zapfino Bold Italic"
           y="272.452"
           x="389.43991"
           id="tspan3987-9-4"
           sodipodi:role="line">Credits</tspan></text>
    </g>
    <g
       id="g5429"
       transform="translate(-20,0)">
      <text
         sodipodi:linespacing="125%"
         id="text3985-7-1"
         y="175.17712"
         x="267.94165"
         style="font-size:40px;font-style:normal;font-weight:normal;line-height:125%;letter-spacing:0px;word-spacing:0px;fill:#000000;fill-opacity:1;stroke:none;display:inline;font-family:Sans"
         xml:space="preserve"><tspan
           style="font-size:28px;font-style:italic;font-variant:normal;font-weight:bold;font-stretch:normal;text-align:start;line-height:125%;writing-mode:lr-tb;text-anchor:start;font-family:Zapfino;-inkscape-font-specification:Zapfino Bold Italic"
           y="175.17712"
           x="267.94165"
           id="tspan3987-9-3"
           sodipodi:role="line">Help</tspan></text>
      <path
         sodipodi:nodetypes="ccccc"
         transform="matrix(0.45696681,0,0,0.45826946,179.64391,-0.57794872)"
         inkscape:connector-curvature="0"
         style="fill:#4d4d4d;fill-opacity:1;fill-rule:evenodd;stroke:none;display:inline;filter:url(#filter3239-7-7)"
         id="path2393-2"
         d="M 177.72699,486.38516 C 217.67216,409.63462 222.44196,402.46996 226.84461,330.55317 L 415.41754,291.47552 409.70742,473.78043 C 313.66778,477.38032 269.97624,461.33588 177.72699,486.38516 z" />
      <path
         sodipodi:nodetypes="ccccc"
         inkscape:connector-curvature="0"
         style="fill:url(#linearGradient5424);fill-opacity:1;fill-rule:evenodd;stroke:none;display:inline"
         id="path2383-7"
         d="M 261.70504,215.6606 C 266.77578,178.28073 266.14039,140.90087 265.54694,122.46591 296.79827,124.25103 328.02278,125.24434 368.30592,123.39005 369.40646,157.00911 365.51572,186.81649 364.15911,216.27725 324.01791,212.91671 300.92472,211.84655 261.70504,215.6606 z" />
      <text
         sodipodi:linespacing="125%"
         id="text3985-7-5"
         y="174.18727"
         x="265.94165"
         style="font-size:40px;font-style:normal;font-weight:normal;line-height:125%;letter-spacing:0px;word-spacing:0px;fill:#000000;fill-opacity:1;stroke:none;display:inline;font-family:Sans"
         xml:space="preserve"><tspan
           style="font-size:28px;font-style:italic;font-variant:normal;font-weight:bold;font-stretch:normal;text-align:start;line-height:125%;writing-mode:lr-tb;text-anchor:start;font-family:Zapfino;-inkscape-font-specification:Zapfino Bold Italic"
           y="174.18727"
           x="265.94165"
           id="tspan3987-9-1"
           sodipodi:role="line">Help</tspan></text>
    </g>
    <g
       id="g4462"
       transform="translate(-20,0)">
      <path
         inkscape:connector-curvature="0"
         d="M 314.90754,121.90944 316.9486,129.85455 C 317.55766,130.01493 318.17501,129.72158 318.30357,129.28037 L 316.16363,121.69164 314.90754,121.90944 z"
         id="path1684-0"
         sodipodi:nodetypes="ccccc"
         style="fill:#9e9d9b;fill-opacity:1;fill-rule:evenodd;stroke:none;display:inline" />
      <path
         inkscape:connector-curvature="0"
         d="M 315.62353,124.21531 317.12731,129.86926 317.70565,129.93426 315.96904,124.11277 315.62353,124.21528 z"
         id="path4813-3"
         sodipodi:nodetypes="ccccc"
         style="fill:#ffffff;fill-opacity:1;fill-rule:evenodd;stroke:none;display:inline" />
      <path
         inkscape:connector-curvature="0"
         d="M 314.65952,121.93697 C 315.89823,126.32614 315.64899,125.53437 316.88859,129.92314 317.57982,130.3438 318.25709,129.99014 318.52589,129.29618 317.31228,124.98624 317.67332,126.0624 316.46082,121.75218 315.93256,121.84358 315.18724,121.84268 314.65952,121.93697 z M 315.07563,122.18958 C 315.38468,122.13558 315.69372,122.08167 316.00277,122.02771 317.19073,126.2548 316.9545,124.89564 318.13492,129.1241 318.06922,129.69666 317.67592,129.84898 317.17781,129.73612 315.98375,125.49285 316.26969,126.43285 315.07563,122.18958 z"
         id="path6692-9"
         sodipodi:nodetypes="cccccccccc"
         style="fill:#000000;fill-opacity:1;fill-rule:evenodd;stroke:none;display:inline" />
      <path
         inkscape:connector-curvature="0"
         d="M 312.76399,113.03279 C 309.44507,113.83008 307.03341,115.55664 307.38083,116.88672 307.44913,117.14809 307.62904,117.36912 307.88423,117.5573 308.15624,118.12947 308.52208,118.96325 308.71185,119.75397 307.62465,120.65139 307.07139,121.62513 307.29826,122.49369 307.7857,124.3598 311.67489,125.03438 315.97891,124.00045 320.28293,122.96653 323.38127,120.61338 322.89384,118.74727 322.64985,117.81317 321.54542,117.18945 319.96834,116.92186 319.60061,116.29407 319.30015,115.59662 319.24757,114.89973 319.41293,114.59014 319.48083,114.28475 319.40594,113.99801 319.39594,113.96161 319.37694,113.92921 319.36354,113.89414 319.36654,113.88514 319.36854,113.87574 319.37154,113.86654 319.36454,113.85634 319.35124,113.85014 319.34294,113.84084 318.80548,112.63732 315.94579,112.26842 312.76393,113.03277 z"
         id="path1061-9"
         style="fill:#ff0000;fill-opacity:1;stroke:none;display:inline" />
      <path
         d="M 336.25,417.36218 A 77.5,23.75 0 1 1 181.25,417.36218 77.5,23.75 0 1 1 336.25,417.36218 z"
         id="path2309-9"
         sodipodi:cx="258.75"
         sodipodi:cy="417.36218"
         sodipodi:rx="77.5"
         sodipodi:ry="23.75"
         sodipodi:type="arc"
         style="fill:url(#linearGradient4439);fill-opacity:1;stroke:none;display:inline"
         transform="matrix(0.07373513,-0.01771284,0.02232413,0.08546654,285.00479,84.216764)" />
      <path
         inkscape:connector-curvature="0"
         d="M 319.01149,114.88956 C 317.80582,116.27645 315.47263,117.1171 313.35033,117.56468 312.28919,117.78847 311.25274,117.88795 310.38297,117.85779 309.51321,117.82769 308.72697,117.82489 308.34868,117.56293 L 308.23859,117.65733 C 308.71522,117.98742 309.46665,118.1439 310.37181,118.17528 311.27695,118.20668 312.33759,118.10568 313.42308,117.8767 315.59405,117.41885 317.86549,116.45727 319.15022,114.97944 L 319.01149,114.88954 z"
         id="path2935-1"
         sodipodi:nodetypes="ccccccccc"
         style="fill:#000000;fill-opacity:1;fill-rule:evenodd;stroke:none;display:inline" />
      <path
         inkscape:connector-curvature="0"
         d="M 319.79535,117.11058 C 318.80054,118.48575 316.77546,119.72215 314.70976,120.23908 312.64405,120.756 310.4242,120.66075 308.95798,119.88255 L 308.89388,119.95415 C 310.47625,120.794 312.67037,121.07972 314.7949,120.54808 316.91943,120.01644 318.83583,118.68029 319.89897,117.21068 L 319.79539,117.11055 z"
         id="path3557-7"
         sodipodi:nodetypes="ccccccc"
         style="fill:#000000;fill-opacity:1;fill-rule:evenodd;stroke:none;display:inline" />
      <path
         inkscape:connector-curvature="0"
         d="M 307.67967,122.72237 C 311.32543,124.20935 319.80338,122.51004 322.66971,118.78564 323.19159,122.90638 310.62953,126.54526 307.67967,122.72237 z"
         id="path4179-2"
         sodipodi:nodetypes="ccc"
         style="fill:url(#radialGradient4447);fill-opacity:1;fill-rule:evenodd;stroke:none;display:inline" />
      <path
         inkscape:connector-curvature="0"
         d="M 312.75841,112.91012 C 310.9964,113.35529 309.20873,114.02368 307.90237,115.28428 307.36224,115.80402 306.76734,117.01334 307.83827,117.52712 308.29729,117.9062 308.05122,118.31543 308.27345,118.83758 308.47294,119.32935 308.9091,119.71662 308.27645,120.01673 307.58522,120.70305 306.82998,121.89119 307.27222,122.84363 307.80246,123.90899 309.09207,124.27628 310.22204,124.48117 312.80613,124.888 315.45837,124.48033 317.90106,123.64084 319.63279,123.00195 321.38392,122.14696 322.54186,120.71151 323.13539,119.99667 323.40979,118.8971 322.78349,118.11962 322.15276,117.32299 321.10098,116.99953 320.11586,116.81517 319.81421,116.17675 319.1086,115.43055 319.36386,114.72171 319.56487,114.20493 319.56978,113.67385 319.16375,113.32616 318.22817,112.5735 316.91954,112.51192 315.75278,112.50762 314.74276,112.52842 313.73785,112.67582 312.75854,112.91012 z M 312.83941,113.22014 C 314.52675,112.83662 316.33524,112.61671 318.0263,113.09166 318.64498,113.27138 319.42327,113.72828 319.28845,114.44646 319.03891,114.86127 319.134,115.32477 319.27685,115.7582 319.43633,116.21168 319.6751,116.6157 319.97797,116.99252 320.45236,117.14809 320.91913,117.27814 321.37946,117.50105 322.16917,117.7944 322.95168,118.50456 322.79895,119.38756 322.57734,120.53902 321.53304,121.47211 320.58237,122.11091 318.34818,123.51379 315.71122,124.20748 313.06277,124.41195 311.47259,124.49615 309.78885,124.35575 308.38027,123.56073 307.6941,123.19027 307.25172,122.38031 307.52754,121.63889 307.7491,120.92274 308.3252,120.37492 308.86534,119.87556 308.95504,119.48118 308.66704,119.079 308.57518,118.69473 308.40512,118.27925 308.30789,117.81401 308.07474,117.42891 307.49827,117.09081 307.4387,116.35955 307.82776,115.88594 308.68208,114.76082 310.05369,114.14159 311.37413,113.65192 311.85391,113.48267 312.34354,113.33931 312.83938,113.22014 z"
         id="path6693-3"
         sodipodi:nodetypes="cccccccccccccccccccccccccccccccc"
         style="fill:#000000;fill-opacity:1;stroke:none;display:inline" />
    </g>
    <g
       id="g8239"
       transform="matrix(1.2824374,0,0,1.1427768,-105.34564,-22.812539)">
      <path
         sodipodi:nodetypes="ccccc"
         transform="matrix(0.45696681,0,0,0.45826946,245.30383,-75.329241)"
         inkscape:connector-curvature="0"
         style="fill:#4d4d4d;fill-opacity:1;fill-rule:evenodd;stroke:none;filter:url(#filter3239-7)"
         id="path2393"
         d="M 177.72699,486.38516 C 217.67216,409.63462 222.44196,402.46996 226.84461,330.55317 L 415.41754,291.47552 409.70742,473.78043 C 313.66778,477.38032 269.97624,461.33588 177.72699,486.38516 z" />
      <path
         sodipodi:nodetypes="ccccc"
         inkscape:connector-curvature="0"
         style="fill:url(#linearGradient5408);fill-opacity:1;fill-rule:evenodd;stroke:none"
         id="path2383"
         d="M 327.36496,140.90931 C 332.4357,103.52945 331.80031,66.149587 331.20686,47.71462 362.45819,49.499741 393.6827,50.493053 433.96584,48.638761 435.06638,82.257828 431.17564,112.06521 429.81903,141.52597 389.67783,138.16542 366.58464,137.09527 327.36496,140.90931 z" />
    </g>
    <g
       id="g4384"
       transform="matrix(0.86591589,0.50018963,-0.50018963,0.86591589,82.34541,-200.22992)">
      <path
         inkscape:connector-curvature="0"
         d="M 380.56746,47.15815 382.60852,55.103262 C 383.21758,55.263645 383.83493,54.970294 383.96349,54.529089 L 381.82355,46.940351 380.56746,47.15815 z"
         id="path1684"
         sodipodi:nodetypes="ccccc"
         style="fill:#9e9d9b;fill-opacity:1;fill-rule:evenodd;stroke:none" />
      <path
         inkscape:connector-curvature="0"
         d="M 381.28345,49.464023 382.78723,55.117979 383.36557,55.182999 381.62896,49.361513 381.28345,49.46402 z"
         id="path4813"
         sodipodi:nodetypes="ccccc"
         style="fill:#ffffff;fill-opacity:1;fill-rule:evenodd;stroke:none" />
      <path
         inkscape:connector-curvature="0"
         d="M 380.31944,47.185688 C 381.55815,51.574856 381.30891,50.783081 382.54851,55.171859 383.23974,55.592511 383.91701,55.238889 384.18581,54.544895 382.9722,50.234958 383.33324,51.311118 382.12074,47.000896 381.59248,47.092326 380.84716,47.091426 380.31944,47.185688 z M 380.73555,47.43829 C 381.0446,47.38434 381.35364,47.330382 381.66269,47.276428 382.85065,51.503511 382.61442,50.144354 383.79484,54.372811 383.72914,54.94537 383.33584,55.097691 382.83773,54.984838 381.64367,50.741565 381.92961,51.681563 380.73555,47.43829 z"
         id="path6692"
         sodipodi:nodetypes="cccccccccc"
         style="fill:#000000;fill-opacity:1;fill-rule:evenodd;stroke:none" />
      <path
         inkscape:connector-curvature="0"
         d="M 378.42391,38.281506 C 375.10499,39.078791 372.69333,40.805352 373.04075,42.135437 373.10905,42.396805 373.28896,42.617834 373.54415,42.806018 373.81616,43.378185 374.182,44.211964 374.37177,45.002687 373.28457,45.900109 372.73131,46.873845 372.95818,47.742403 373.44562,49.608519 377.33481,50.283092 381.63883,49.249167 385.94285,48.215241 389.04119,45.862096 388.55376,43.99598 388.30977,43.06188 387.20534,42.438163 385.62826,42.170578 385.26053,41.54278 384.96007,40.84533 384.90749,40.148444 385.07285,39.838859 385.14075,39.53346 385.06586,39.246725 385.05586,39.210315 385.03686,39.177915 385.02346,39.142851 385.02646,39.133651 385.02846,39.124461 385.03146,39.115291 385.02446,39.105121 385.01116,39.098881 385.00286,39.089571 384.4654,37.88605 381.60571,37.517148 378.42385,38.281504 z"
         id="path1061"
         style="fill:#ff0000;fill-opacity:1;stroke:none" />
      <path
         d="M 336.25,417.36218 A 77.5,23.75 0 1 1 181.25,417.36218 77.5,23.75 0 1 1 336.25,417.36218 z"
         id="path2309"
         sodipodi:cx="258.75"
         sodipodi:cy="417.36218"
         sodipodi:rx="77.5"
         sodipodi:ry="23.75"
         sodipodi:type="arc"
         style="fill:url(#linearGradient4395);fill-opacity:1;stroke:none"
         transform="matrix(0.07373513,-0.01771284,0.02232413,0.08546654,350.66471,9.465476)" />
      <path
         inkscape:connector-curvature="0"
         d="M 384.67141,40.138278 C 383.46574,41.525166 381.13255,42.365814 379.01025,42.813395 377.94911,43.037186 376.91266,43.136666 376.04289,43.106509 375.17313,43.076349 374.38689,43.073629 374.0086,42.81164 L 373.89851,42.90603 C 374.37514,43.236124 375.12657,43.3926 376.03173,43.423984 376.93687,43.455364 377.99751,43.354324 379.083,43.125402 381.25397,42.667553 383.52541,41.705966 384.81014,40.228141 L 384.67141,40.138281 z"
         id="path2935"
         sodipodi:nodetypes="ccccccccc"
         style="fill:#000000;fill-opacity:1;fill-rule:evenodd;stroke:none" />
      <path
         inkscape:connector-curvature="0"
         d="M 385.45527,42.359293 C 384.46046,43.73446 382.43538,44.970868 380.36968,45.48779 378.30397,46.004712 376.08412,45.909469 374.6179,45.131264 L 374.5538,45.202894 C 376.13617,46.042747 378.33029,46.328466 380.45482,45.796824 382.57935,45.265182 384.49575,43.929033 385.55889,42.459429 L 385.45531,42.359293 z"
         id="path3557"
         sodipodi:nodetypes="ccccccc"
         style="fill:#000000;fill-opacity:1;fill-rule:evenodd;stroke:none" />
      <path
         inkscape:connector-curvature="0"
         d="M 373.33959,47.97108 C 376.98535,49.458064 385.4633,47.758751 388.32963,44.03435 388.85151,48.155096 376.28945,51.793971 373.33959,47.97108 z"
         id="path4179"
         sodipodi:nodetypes="ccc"
         style="fill:url(#radialGradient4397);fill-opacity:1;fill-rule:evenodd;stroke:none" />
      <path
         inkscape:connector-curvature="0"
         d="M 378.41833,38.158835 C 376.65632,38.604 374.86865,39.272395 373.56229,40.532995 373.02216,41.052736 372.42726,42.262055 373.49819,42.775839 373.95721,43.154911 373.71114,43.564148 373.93337,44.086297 374.13286,44.578067 374.56902,44.965331 373.93637,45.265448 373.24514,45.951768 372.4899,47.139904 372.93214,48.092346 373.46238,49.157707 374.75199,49.524995 375.88196,49.729889 378.46605,50.136716 381.11829,49.729043 383.56098,48.889555 385.29271,48.250665 387.04384,47.395673 388.20178,45.960221 388.79531,45.245381 389.06971,44.145815 388.44341,43.368338 387.81268,42.571705 386.7609,42.248243 385.77578,42.063881 385.47413,41.425464 384.76852,40.679263 385.02378,39.970426 385.22479,39.453643 385.2297,38.922566 384.82367,38.574876 383.88809,37.822216 382.57946,37.760632 381.4127,37.756333 380.40268,37.777153 379.39777,37.924536 378.41846,38.158835 z M 378.49933,38.468858 C 380.18667,38.085334 381.99516,37.865421 383.68622,38.340372 384.3049,38.520099 385.08319,38.976991 384.94837,39.695171 384.69883,40.109985 384.79392,40.573487 384.93677,41.006919 385.09625,41.460398 385.33502,41.864412 385.63789,42.241231 386.11228,42.396804 386.57905,42.52685 387.03938,42.749767 387.82909,43.043117 388.6116,43.753275 388.45887,44.636273 388.23726,45.78773 387.19296,46.720821 386.24229,47.359627 384.0081,48.7625 381.37114,49.456191 378.72269,49.660666 377.13251,49.744846 375.44877,49.604516 374.04019,48.809443 373.35402,48.438985 372.91164,47.62902 373.18746,46.887604 373.40902,46.171453 373.98512,45.623638 374.52526,45.124279 374.61496,44.729892 374.32696,44.327717 374.2351,43.943444 374.06504,43.527967 373.96781,43.062725 373.73466,42.677622 373.15819,42.339527 373.09862,41.608265 373.48768,41.134658 374.342,40.009537 375.71361,39.390309 377.03405,38.900639 377.51383,38.731384 378.00346,38.588025 378.4993,38.468858 z"
         id="path6693"
         sodipodi:nodetypes="cccccccccccccccccccccccccccccccc"
         style="fill:#000000;fill-opacity:1;stroke:none" />
    </g>
    <text
       xml:space="preserve"
       style="font-size:40px;font-style:normal;font-weight:normal;line-height:125%;letter-spacing:0px;word-spacing:0px;fill:#000000;fill-opacity:1;stroke:none;display:inline;font-family:Sans"
       x="329.19556"
       y="99.449028"
       id="text3985-7"
       sodipodi:linespacing="125%"><tspan
         sodipodi:role="line"
         id="tspan3987-9"
         x="329.19556"
         y="99.449028"
         style="font-size:34px;font-style:italic;font-variant:normal;font-weight:bold;font-stretch:normal;text-align:start;line-height:125%;writing-mode:lr-tb;text-anchor:start;font-family:Zapfino;-inkscape-font-specification:Zapfino Bold Italic">Start</tspan></text>
    <image
       sodipodi:absref="/Users/kmkim/Games/rocknroll/rocknroll/menus/MainMenuScene.png"
       xlink:href="MainMenuScene.png"
       width="480"
       height="320"
       id="image3363"
       x="0.71428353"
       y="1.0899134e-06"
       style="display:inline" />
  </g>
  <g
     inkscape:groupmode="layer"
     id="layer5"
     inkscape:label="InteractiveSprites"
     style="display:inline">
    <rect
       style="opacity:0.2;fill:#ff9955;fill-rule:evenodd;stroke:#000000;stroke-width:0.8473987px;stroke-linecap:butt;stroke-linejoin:miter;stroke-opacity:1;display:inline"
       id="StartObject"
       width="117.29762"
       height="34.527527"
       x="346.94849"
       y="199.56802"
       objectType="MenuItem"
       objectTouchAction="Action=SceneTransition,SceneName=MapSelectScene,Arg1=Null,Sound=Touch.mp3" />
    <rect
       style="opacity:0.2;fill:#ff9955;fill-rule:evenodd;stroke:#000000;stroke-width:0.81699014px;stroke-linecap:butt;stroke-linejoin:miter;stroke-opacity:1;display:inline"
       id="HelpObject"
       width="117.20548"
       height="32.119209"
       x="346.27261"
       y="238.79979"
       objectType="MenuItem"
       objectTouchAction="Action=SceneTransition,SceneName=HelpScene,Sound=Touch.mp3" />
    <rect
       style="opacity:0.2;fill:#ff9955;fill-rule:evenodd;stroke:#000000;stroke-width:0.83915728px;stroke-linecap:butt;stroke-linejoin:miter;stroke-opacity:1;display:inline"
       id="CreditsObject"
       width="117.42842"
       height="33.821476"
       x="347.96869"
       y="276.19519"
       objectType="MenuItem"
       objectTouchAction="Action=SceneTransition,SceneName=CreditsScene,Sound=Touch.mp3" />
    <rect
       style="opacity:0.3;fill:#806600;stroke:#000000;stroke-width:0.85646725;display:inline"
       id="rect3891"
       width="480"
       height="32"
       x="0"
       y="0"
       objectType="Advertisement" />
  </g>
</svg>
